999
dxfrw 0.6.3
  0
SECTION
  2
HEADER
  9
$ACADVER
  1
AC1021
  9
$DWGCODEPAGE
  3
ANSI_1251
  9
$INSBASE
 10
0
 20
0
 30
0
  9
$EXTMIN
 10
3.999999999999998
 20
8
 30
0
  9
$EXTMAX
 10
268.6403124237433
 20
130
 30
0
  9
$LIMMIN
 10
0
 20
0
  9
$LIMMAX
 10
420
 20
297
  9
$ORTHOMODE
 70
    0
  9
$REGENMODE
 70
    1
  9
$FILLMODE
 70
    1
  9
$QTEXTMODE
 70
    0
  9
$MIRRTEXT
 70
    0
  9
$LTSCALE
 40
1
  9
$ATTMODE
 70
    0
  9
$TEXTSIZE
 40
2.5
  9
$TRACEWID
 40
15.68
  9
$TEXTSTYLE
  7
STANDARD
  9
$CLAYER
  8
Позначення
  9
$CELTYPE
  6
BYLAYER
  9
$CECOLOR
 62
  256
  9
$CELTSCALE
 40
1
  9
$DISPSILH
 70
    0
  9
$DIMSCALE
 40
1
  9
$DIMASZ
 40
2.5
  9
$DIMEXO
 40
0.625
  9
$DIMDLI
 40
3.75
  9
$DIMRND
 40
0
  9
$DIMDLE
 40
0
  9
$DIMEXE
 40
1.25
  9
$DIMTP
 40
0
  9
$DIMTM
 40
0
  9
$DIMTXT
 40
2.5
  9
$DIMCEN
 40
2.5
  9
$DIMTSZ
 40
0
  9
$DIMTOL
 70
    0
  9
$DIMLIM
 70
    0
  9
$DIMTIH
 70
    0
  9
$DIMTOH
 70
    0
  9
$DIMSE1
 70
    0
  9
$DIMSE2
 70
    0
  9
$DIMTAD
 70
    1
  9
$DIMZIN
 70
    1
  9
$DIMBLK
  1

  9
$DIMASO
 70
    1
  9
$DIMSHO
 70
    1
  9
$DIMPOST
  1

  9
$DIMAPOST
  1

  9
$DIMALT
 70
    0
  9
$DIMALTD
 70
    3
  9
$DIMALTF
 40
0.03937
  9
$DIMLFAC
 40
1
  9
$DIMTOFL
 70
    1
  9
$DIMTVP
 40
0
  9
$DIMTIX
 70
    0
  9
$DIMSOXD
 70
    0
  9
$DIMSAH
 70
    0
  9
$DIMBLK1
  1

  9
$DIMBLK2
  1

  9
$DIMSTYLE
  2
STANDARD
  9
$DIMCLRD
 70
    0
  9
$DIMCLRE
 70
    0
  9
$DIMCLRT
 70
    0
  9
$DIMTFAC
 40
1
  9
$DIMGAP
 40
0.625
  9
$DIMJUST
 70
    0
  9
$DIMSD1
 70
    0
  9
$DIMSD2
 70
    0
  9
$DIMTOLJ
 70
    0
  9
$DIMTZIN
 70
    8
  9
$DIMALTZ
 70
    0
  9
$DIMALTTZ
 70
    0
  9
$DIMUPT
 70
    0
  9
$DIMDEC
 70
    4
  9
$DIMTDEC
 70
    2
  9
$DIMALTU
 70
    2
  9
$DIMALTTD
 70
    3
  9
$DIMTXSTY
  7
standard
  9
$DIMAUNIT
 70
    0
  9
$DIMADEC
 70
    2
  9
$DIMALTRND
 40
0
  9
$DIMAZIN
 70
    0
  9
$DIMDSEP
 70
    0
  9
$DIMATFIT
 70
    3
  9
$DIMFRAC
 70
    0
  9
$DIMLDRBLK
  1
STANDARD
  9
$DIMLUNIT
 70
    2
  9
$DIMLWD
 70
   -2
  9
$DIMLWE
 70
   -2
  9
$DIMTMOVE
 70
    0
  9
$DIMFXL
 40
1
  9
$DIMFXLON
 70
    0
  9
$DIMJOGANG
 40
0.7854
  9
$DIMTFILL
 70
    0
  9
$DIMTFILLCLR
 70
    0
  9
$DIMARCSYM
 70
    0
  9
$DIMLTYPE
  6

  9
$DIMLTEX1
  6

  9
$DIMLTEX2
  6

  9
$LUNITS
 70
    2
  9
$LUPREC
 70
    4
  9
$SKETCHINC
 40
1
  9
$FILLETRAD
 40
0
  9
$AUNITS
 70
    0
  9
$AUPREC
 70
    2
  9
$MENU
  1
.
  9
$ELEVATION
 40
0
  9
$PELEVATION
 40
0
  9
$THICKNESS
 40
0
  9
$LIMCHECK
 70
    0
  9
$CHAMFERA
 40
0
  9
$CHAMFERB
 40
0
  9
$CHAMFERC
 40
0
  9
$CHAMFERD
 40
0
  9
$SKPOLY
 70
    0
  9
$USRTIMER
 70
    1
  9
$ANGBASE
 50
0
  9
$ANGDIR
 70
    0
  9
$PDMODE
 70
    1
  9
$PDSIZE
 40
-2
  9
$PLINEWID
 40
0
  9
$SPLFRAME
 70
    0
  9
$SPLINETYPE
 70
    2
  9
$SPLINESEGS
 70
    8
  9
$HANDSEED
  5
20000
  9
$SURFTAB1
 70
    6
  9
$SURFTAB2
 70
    6
  9
$SURFTYPE
 70
    6
  9
$SURFU
 70
    6
  9
$SURFV
 70
    6
  9
$UCSBASE
  2

  9
$UCSNAME
  2

  9
$UCSORG
 10
0
 20
0
 30
0
  9
$UCSXDIR
 10
1
 20
0
 30
0
  9
$UCSYDIR
 10
0
 20
1
 30
0
  9
$UCSORTHOREF
  2

  9
$UCSORTHOVIEW
 70
    0
  9
$UCSORGTOP
 10
0
 20
0
 30
0
  9
$UCSORGBOTTOM
 10
0
 20
0
 30
0
  9
$UCSORGLEFT
 10
0
 20
0
 30
0
  9
$UCSORGRIGHT
 10
0
 20
0
 30
0
  9
$UCSORGFRONT
 10
0
 20
0
 30
0
  9
$UCSORGBACK
 10
0
 20
0
 30
0
  9
$PUCSBASE
  2

  9
$PUCSNAME
  2

  9
$PUCSORG
 10
0
 20
0
 30
0
  9
$PUCSXDIR
 10
1
 20
0
 30
0
  9
$PUCSYDIR
 10
0
 20
1
 30
0
  9
$PUCSORTHOREF
  2

  9
$PUCSORTHOVIEW
 70
    0
  9
$PUCSORGTOP
 10
0
 20
0
 30
0
  9
$PUCSORGBOTTOM
 10
0
 20
0
 30
0
  9
$PUCSORGLEFT
 10
0
 20
0
 30
0
  9
$PUCSORGRIGHT
 10
0
 20
0
 30
0
  9
$PUCSORGFRONT
 10
0
 20
0
 30
0
  9
$PUCSORGBACK
 10
0
 20
0
 30
0
  9
$USERI1
 70
    0
  9
$USERI2
 70
    0
  9
$USERI3
 70
    0
  9
$USERI4
 70
    0
  9
$USERI5
 70
    0
  9
$USERR1
 40
0
  9
$USERR2
 40
0
  9
$USERR3
 40
0
  9
$USERR4
 40
0
  9
$USERR5
 40
0
  9
$WORLDVIEW
 70
    1
  9
$SHADEDGE
 70
    3
  9
$SHADEDIF
 70
   70
  9
$TILEMODE
 70
    1
  9
$MAXACTVP
 70
   64
  9
$PINSBASE
 10
-3.968998109954418
 20
80.03478260328625
 30
0
  9
$PLIMCHECK
 70
    0
  9
$PEXTMIN
 10
0
 20
0
 30
0
  9
$PEXTMAX
 10
0
 20
0
 30
0
  9
$GRIDMODE
 70
    1
  9
$SNAPSTYLE
 70
    0
  9
$GRIDUNIT
 10
0
 20
0
  9
$PLIMMIN
 10
0
 20
0
  9
$PLIMMAX
 10
210
 20
297
  9
$UNITMODE
 70
    0
  9
$VISRETAIN
 70
    1
  9
$PLINEGEN
 70
    0
  9
$PSLTSCALE
 70
    1
  9
$TREEDEPTH
 70
 3020
  9
$CMLSTYLE
  2
Standard
  9
$CMLJUST
 70
    0
  9
$CMLSCALE
 40
20
  9
$PROXYGRAPHICS
 70
    1
  9
$MEASUREMENT
 70
    1
  9
$CELWEIGHT
370
   -1
  9
$ENDCAPS
280
    0
  9
$JOINSTYLE
280
    0
  9
$LWDISPLAY
290
    0
  9
$INSUNITS
 70
    4
  9
$HYPERLINKBASE
  1

  9
$STYLESHEET
  1

  9
$XEDIT
290
    1
  9
$CEPSNTYPE
380
    0
  9
$PSTYLEMODE
290
    1
  9
$EXTNAMES
290
    1
  9
$PSVPSCALE
 40
0.9922495274886051
  9
$OLESTARTUP
290
    0
  9
$SORTENTS
280
  127
  9
$INDEXCTL
280
    0
  9
$HIDETEXT
280
    1
  9
$XCLIPFRAME
290
    0
  9
$HALOGAP
280
    0
  9
$OBSCOLOR
 70
  257
  9
$OBSLTYPE
280
    0
  9
$INTERSECTIONDISPLAY
280
    0
  9
$INTERSECTIONCOLOR
 70
  257
  9
$DIMASSOC
280
    1
  9
$PROJECTNAME
  1

  9
$CAMERADISPLAY
290
    0
  9
$LENSLENGTH
 40
50
  9
$CAMERAHEIGHT
 40
0
  9
$STEPSPERSEC
 40
2
  9
$STEPSIZE
 40
50
  9
$3DDWFPREC
 40
2
  9
$PSOLWIDTH
 40
5
  9
$PSOLHEIGHT
 40
80
  9
$LOFTANG1
 40
1.570796326794897
  9
$LOFTANG2
 40
1.570796326794897
  9
$LOFTMAG1
 40
0
  9
$LOFTMAG2
 40
0
  9
$LOFTPARAM
 70
    7
  9
$LOFTNORMALS
280
    1
  9
$LATITUDE
 40
1
  9
$LONGITUDE
 40
1
  9
$NORTHDIRECTION
 40
0
  9
$TIMEZONE
 70
-8000
  9
$LIGHTGLYPHDISPLAY
280
    1
  9
$TILEMODELIGHTSYNCH
280
    1
  9
$SOLIDHIST
280
    1
  9
$SHOWHIST
280
    1
  9
$DWFFRAME
280
    2
  9
$DGNFRAME
280
    0
  9
$REALWORLDSCALE
290
    1
  9
$INTERFERECOLOR
 62
    1
  9
$CSHADOW
280
    0
  9
$SHADOWPLANELOCATION
 40
0
  0
ENDSEC
  0
SECTION
  2
CLASSES
  0
ENDSEC
  0
SECTION
  2
TABLES
  0
TABLE
  2
VPORT
  5
8
330
0
100
AcDbSymbolTable
 70
    1
  0
VPORT
  5
31
330
2
100
AcDbSymbolTableRecord
100
AcDbViewportTableRecord
  2
*ACTIVE
 70
    0
 10
0
 20
0
 11
1
 21
1
 12
169.029546750012
 22
107.2998270000076
 13
0
 23
0
 14
10
 24
10
 15
10
 25
10
 16
0
 26
0
 36
1
 17
0
 27
0
 37
0
 40
249.8276092500178
 41
1.503234152652005
 42
50
 43
0
 44
0
 50
0
 51
0
 71
    0
 72
  100
 73
    1
 74
    3
 75
    0
 76
    1
 77
    0
 78
    0
281
    0
 65
    1
110
0
120
0
130
0
111
1
121
0
131
0
112
0
122
1
132
0
 79
    0
146
0
348
10020
 60
    7
 61
    5
292
1
282
    1
141
0
142
0
 63
  250
421
3358443
  0
ENDTAB
  0
TABLE
  2
LTYPE
  5
5
330
0
100
AcDbSymbolTable
 70
    4
  0
LTYPE
  5
14
330
5
100
AcDbSymbolTableRecord
100
AcDbLinetypeTableRecord
  2
ByBlock
 70
    0
  3

 72
   65
 73
    0
 40
0
  0
LTYPE
  5
15
330
5
100
AcDbSymbolTableRecord
100
AcDbLinetypeTableRecord
  2
ByLayer
 70
    0
  3

 72
   65
 73
    0
 40
0
  0
LTYPE
  5
16
330
5
100
AcDbSymbolTableRecord
100
AcDbLinetypeTableRecord
  2
Continuous
 70
    0
  3
Solid line
 72
   65
 73
    0
 40
0
  0
LTYPE
  5
32
330
5
100
AcDbSymbolTableRecord
100
AcDbLinetypeTableRecord
  2
DOT
 70
    0
  3
Dot . . . . . . . . . . . . . . . . . . . . . .
 72
   65
 73
    2
 40
6.35
 49
0
 74
    0
 49
-6.35
 74
    0
  0
LTYPE
  5
33
330
5
100
AcDbSymbolTableRecord
100
AcDbLinetypeTableRecord
  2
DOTTINY
 70
    0
  3
Dot (.15x) .....................................
 72
   65
 73
    2
 40
0.9525
 49
0
 74
    0
 49
-0.9525
 74
    0
  0
LTYPE
  5
34
330
5
100
AcDbSymbolTableRecord
100
AcDbLinetypeTableRecord
  2
DOT2
 70
    0
  3
Dot (.5x) .....................................
 72
   65
 73
    2
 40
3.175
 49
0
 74
    0
 49
-3.175
 74
    0
  0
LTYPE
  5
35
330
5
100
AcDbSymbolTableRecord
100
AcDbLinetypeTableRecord
  2
DOTX2
 70
    0
  3
Dot (2x) .  .  .  .  .  .  .  .  .  .  .  .  .
 72
   65
 73
    2
 40
12.7
 49
0
 74
    0
 49
-12.7
 74
    0
  0
LTYPE
  5
36
330
5
100
AcDbSymbolTableRecord
100
AcDbLinetypeTableRecord
  2
DASHED
 70
    0
  3
Dashed _ _ _ _ _ _ _ _ _ _ _ _ _ _ _ _ _
 72
   65
 73
    2
 40
19.05
 49
12.7
 74
    0
 49
-6.35
 74
    0
  0
LTYPE
  5
37
330
5
100
AcDbSymbolTableRecord
100
AcDbLinetypeTableRecord
  2
DASHEDTINY
 70
    0
  3
Dashed (.15x) _ _ _ _ _ _ _ _ _ _ _ _ _ _ _ _ _
 72
   65
 73
    2
 40
2.8575
 49
1.905
 74
    0
 49
-0.9525
 74
    0
  0
LTYPE
  5
38
330
5
100
AcDbSymbolTableRecord
100
AcDbLinetypeTableRecord
  2
DASHED2
 70
    0
  3
Dashed (.5x) _ _ _ _ _ _ _ _ _ _ _ _ _ _ _ _ _
 72
   65
 73
    2
 40
9.524999999999999
 49
6.35
 74
    0
 49
-3.175
 74
    0
  0
LTYPE
  5
39
330
5
100
AcDbSymbolTableRecord
100
AcDbLinetypeTableRecord
  2
DASHEDX2
 70
    0
  3
Dashed (2x) ____  ____  ____  ____  ____  ___
 72
   65
 73
    2
 40
38.09999999999999
 49
25.4
 74
    0
 49
-12.7
 74
    0
  0
LTYPE
  5
3A
330
5
100
AcDbSymbolTableRecord
100
AcDbLinetypeTableRecord
  2
DASHDOT
 70
    0
  3
Dash dot __ . __ . __ . __ . __ . __ . __ . __
 72
   65
 73
    4
 40
25.4
 49
12.7
 74
    0
 49
-6.35
 74
    0
 49
0
 74
    0
 49
-6.35
 74
    0
  0
LTYPE
  5
3B
330
5
100
AcDbSymbolTableRecord
100
AcDbLinetypeTableRecord
  2
DASHDOTTINY
 70
    0
  3
Dash dot (.15x) _._._._._._._._._._._._._._._.
 72
   65
 73
    4
 40
3.81
 49
1.905
 74
    0
 49
-0.9525
 74
    0
 49
0
 74
    0
 49
-0.9525
 74
    0
  0
LTYPE
  5
3C
330
5
100
AcDbSymbolTableRecord
100
AcDbLinetypeTableRecord
  2
DASHDOT2
 70
    0
  3
Dash dot (.5x) _._._._._._._._._._._._._._._.
 72
   65
 73
    4
 40
12.7
 49
6.35
 74
    0
 49
-3.175
 74
    0
 49
0
 74
    0
 49
-3.175
 74
    0
  0
LTYPE
  5
3D
330
5
100
AcDbSymbolTableRecord
100
AcDbLinetypeTableRecord
  2
DASHDOTX2
 70
    0
  3
Dash dot (2x) ____  .  ____  .  ____  .  ___
 72
   65
 73
    4
 40
50.8
 49
25.4
 74
    0
 49
-12.7
 74
    0
 49
0
 74
    0
 49
-12.7
 74
    0
  0
LTYPE
  5
3E
330
5
100
AcDbSymbolTableRecord
100
AcDbLinetypeTableRecord
  2
DIVIDE
 70
    0
  3
Divide ____ . . ____ . . ____ . . ____ . . ____
 72
   65
 73
    6
 40
31.75
 49
12.7
 74
    0
 49
-6.35
 74
    0
 49
0
 74
    0
 49
-6.35
 74
    0
 49
0
 74
    0
 49
-6.35
 74
    0
  0
LTYPE
  5
3F
330
5
100
AcDbSymbolTableRecord
100
AcDbLinetypeTableRecord
  2
DIVIDETINY
 70
    0
  3
Divide (.15x) __..__..__..__..__..__..__..__.._
 72
   65
 73
    6
 40
4.7625
 49
1.905
 74
    0
 49
-0.9525
 74
    0
 49
0
 74
    0
 49
-0.9525
 74
    0
 49
0
 74
    0
 49
-0.9525
 74
    0
  0
LTYPE
  5
40
330
5
100
AcDbSymbolTableRecord
100
AcDbLinetypeTableRecord
  2
DIVIDE2
 70
    0
  3
Divide (.5x) __..__..__..__..__..__..__..__.._
 72
   65
 73
    6
 40
15.875
 49
6.35
 74
    0
 49
-3.175
 74
    0
 49
0
 74
    0
 49
-3.175
 74
    0
 49
0
 74
    0
 49
-3.175
 74
    0
  0
LTYPE
  5
41
330
5
100
AcDbSymbolTableRecord
100
AcDbLinetypeTableRecord
  2
DIVIDEX2
 70
    0
  3
Divide (2x) ________  .  .  ________  .  .  _
 72
   65
 73
    6
 40
63.5
 49
25.4
 74
    0
 49
-12.7
 74
    0
 49
0
 74
    0
 49
-12.7
 74
    0
 49
0
 74
    0
 49
-12.7
 74
    0
  0
LTYPE
  5
42
330
5
100
AcDbSymbolTableRecord
100
AcDbLinetypeTableRecord
  2
BORDER
 70
    0
  3
Border __ __ . __ __ . __ __ . __ __ . __ __ .
 72
   65
 73
    6
 40
44.45
 49
12.7
 74
    0
 49
-6.35
 74
    0
 49
12.7
 74
    0
 49
-6.35
 74
    0
 49
0
 74
    0
 49
-6.35
 74
    0
  0
LTYPE
  5
43
330
5
100
AcDbSymbolTableRecord
100
AcDbLinetypeTableRecord
  2
BORDERTINY
 70
    0
  3
Border (.15x) __.__.__.__.__.__.__.__.__.__.__.
 72
   65
 73
    6
 40
6.6675
 49
1.905
 74
    0
 49
-0.9525
 74
    0
 49
1.905
 74
    0
 49
-0.9525
 74
    0
 49
0
 74
    0
 49
-0.9525
 74
    0
  0
LTYPE
  5
44
330
5
100
AcDbSymbolTableRecord
100
AcDbLinetypeTableRecord
  2
BORDER2
 70
    0
  3
Border (.5x) __.__.__.__.__.__.__.__.__.__.__.
 72
   65
 73
    6
 40
22.225
 49
6.35
 74
    0
 49
-3.175
 74
    0
 49
6.35
 74
    0
 49
-3.175
 74
    0
 49
0
 74
    0
 49
-3.175
 74
    0
  0
LTYPE
  5
45
330
5
100
AcDbSymbolTableRecord
100
AcDbLinetypeTableRecord
  2
BORDERX2
 70
    0
  3
Border (2x) ____  ____  .  ____  ____  .  ___
 72
   65
 73
    6
 40
88.89999999999999
 49
25.4
 74
    0
 49
-12.7
 74
    0
 49
25.4
 74
    0
 49
-12.7
 74
    0
 49
0
 74
    0
 49
-12.7
 74
    0
  0
LTYPE
  5
46
330
5
100
AcDbSymbolTableRecord
100
AcDbLinetypeTableRecord
  2
CENTER
 70
    0
  3
Center ____ _ ____ _ ____ _ ____ _ ____ _ ____
 72
   65
 73
    4
 40
50.8
 49
31.75
 74
    0
 49
-6.35
 74
    0
 49
6.35
 74
    0
 49
-6.35
 74
    0
  0
LTYPE
  5
47
330
5
100
AcDbSymbolTableRecord
100
AcDbLinetypeTableRecord
  2
CENTERTINY
 70
    0
  3
Center (.15x) ___ _ ___ _ ___ _ ___ _ ___ _ ___
 72
   65
 73
    4
 40
7.619999999999999
 49
4.7625
 74
    0
 49
-0.9525
 74
    0
 49
0.9525
 74
    0
 49
-0.9525
 74
    0
  0
LTYPE
  5
48
330
5
100
AcDbSymbolTableRecord
100
AcDbLinetypeTableRecord
  2
CENTER2
 70
    0
  3
Center (.5x) ___ _ ___ _ ___ _ ___ _ ___ _ ___
 72
   65
 73
    4
 40
28.575
 49
19.05
 74
    0
 49
-3.175
 74
    0
 49
3.175
 74
    0
 49
-3.175
 74
    0
  0
LTYPE
  5
49
330
5
100
AcDbSymbolTableRecord
100
AcDbLinetypeTableRecord
  2
CENTERX2
 70
    0
  3
Center (2x) ________  __  ________  __  _____
 72
   65
 73
    4
 40
101.6
 49
63.5
 74
    0
 49
-12.7
 74
    0
 49
12.7
 74
    0
 49
-12.7
 74
    0
  0
ENDTAB
  0
TABLE
  2
LAYER
  5
2
330
0
100
AcDbSymbolTable
 70
    1
  0
LAYER
  5
10
330
2
100
AcDbSymbolTableRecord
100
AcDbLayerTableRecord
  2
0
 70
    0
 62
    7
  6
CONTINUOUS
370
   25
390
F
  0
LAYER
  5
4A
330
2
100
AcDbSymbolTableRecord
100
AcDbLayerTableRecord
  2
Конструкційний
 70
    1
 62
    9
  6
CONTINUOUS
370
    0
390
F
1001
LibreCad
1070
    1
  0
LAYER
  5
4B
330
2
100
AcDbSymbolTableRecord
100
AcDbLayerTableRecord
  2
Основний
 70
    0
 62
    6
  6
CONTINUOUS
370
   70
390
F
  0
LAYER
  5
4C
330
2
100
AcDbSymbolTableRecord
100
AcDbLayerTableRecord
  2
Позначення
 70
    0
 62
    3
  6
CONTINUOUS
370
   25
390
F
  0
LAYER
  5
4D
330
2
100
AcDbSymbolTableRecord
100
AcDbLayerTableRecord
  2
Силові ланцюги
 70
    0
 62
    1
  6
CONTINUOUS
370
   70
390
F
  0
ENDTAB
  0
TABLE
  2
STYLE
  5
3
330
0
100
AcDbSymbolTable
 70
    3
  0
STYLE
  5
4E
330
2
100
AcDbSymbolTableRecord
100
AcDbTextStyleTableRecord
  2
unicode
 70
    0
 40
0
 41
1
 50
0
 71
    0
 42
1
  3
unicode
  4

  0
STYLE
  5
4F
330
2
100
AcDbSymbolTableRecord
100
AcDbTextStyleTableRecord
  2
Standard
 70
    0
 40
0
 41
1
 50
0
 71
    0
 42
1
  3
txt
  4

  0
ENDTAB
  0
TABLE
  2
VIEW
  5
6
330
0
100
AcDbSymbolTable
 70
    0
  0
ENDTAB
  0
TABLE
  2
UCS
  5
7
330
0
100
AcDbSymbolTable
 70
    0
  0
ENDTAB
  0
TABLE
  2
APPID
  5
9
330
0
100
AcDbSymbolTable
 70
    1
  0
APPID
  5
12
330
9
100
AcDbSymbolTableRecord
100
AcDbRegAppTableRecord
  2
ACAD
 70
    0
  0
APPID
  5
50
330
9
100
AcDbSymbolTableRecord
100
AcDbRegAppTableRecord
  2
LibreCad
 70
    0
  0
ENDTAB
  0
TABLE
  2
DIMSTYLE
  5
A
330
0
100
AcDbSymbolTable
 70
    1
100
AcDbDimStyleTable
 71
    1
  0
DIMSTYLE
105
51
330
A
100
AcDbSymbolTableRecord
100
AcDbDimStyleTableRecord
  2
Standard
 70
    0
 40
1
 41
2.5
 42
0.625
 43
0.38
 44
1.25
 45
0
 46
0
 47
0
 48
0
 49
1
140
2.5
141
0.09
142
0
143
25.4
144
1
145
0
146
1
147
0.625
148
0
 71
    0
 72
    0
 73
    0
 74
    1
 75
    0
 76
    0
 77
    0
 78
    1
 79
    0
170
    0
171
    2
172
    0
173
    0
174
    0
175
    0
176
    0
177
    0
178
    0
179
    2
271
    4
272
    4
273
    2
274
    2
275
    0
276
    0
277
    2
278
    0
279
    0
280
    0
281
    0
282
    0
283
    1
284
    0
285
    0
286
    0
288
    0
289
    3
340
4F
  0
ENDTAB
  0
TABLE
  2
BLOCK_RECORD
  5
1
330
0
100
AcDbSymbolTable
 70
    2
  0
BLOCK_RECORD
  5
1F
330
1
100
AcDbSymbolTableRecord
100
AcDbBlockTableRecord
  2
*Model_Space
 70
    0
280
    1
281
    0
  0
BLOCK_RECORD
  5
1E
330
1
100
AcDbSymbolTableRecord
100
AcDbBlockTableRecord
  2
*Paper_Space
 70
    0
280
    1
281
    0
  0
BLOCK_RECORD
  5
52
330
1
100
AcDbSymbolTableRecord
100
AcDbBlockTableRecord
  2
насосна_станція
 70
    0
280
    1
281
    0
  0
BLOCK_RECORD
  5
55
330
1
100
AcDbSymbolTableRecord
100
AcDbBlockTableRecord
  2
насосна_станція-0
 70
    0
280
    1
281
    0
  0
BLOCK_RECORD
  5
58
330
1
100
AcDbSymbolTableRecord
100
AcDbBlockTableRecord
  2
m1
 70
    0
280
    1
281
    0
  0
BLOCK_RECORD
  5
5B
330
1
100
AcDbSymbolTableRecord
100
AcDbBlockTableRecord
  2
s_29_2-1
 70
    0
280
    1
281
    0
  0
BLOCK_RECORD
  5
5E
330
1
100
AcDbSymbolTableRecord
100
AcDbBlockTableRecord
  2
s3_v-0
 70
    0
280
    1
281
    0
  0
BLOCK_RECORD
  5
61
330
1
100
AcDbSymbolTableRecord
100
AcDbBlockTableRecord
  2
fu1
 70
    0
280
    1
281
    0
  0
BLOCK_RECORD
  5
64
330
1
100
AcDbSymbolTableRecord
100
AcDbBlockTableRecord
  2
s29
 70
    0
280
    1
281
    0
  0
BLOCK_RECORD
  5
67
330
1
100
AcDbSymbolTableRecord
100
AcDbBlockTableRecord
  2
s1-0
 70
    0
280
    1
281
    0
  0
BLOCK_RECORD
  5
6A
330
1
100
AcDbSymbolTableRecord
100
AcDbBlockTableRecord
  2
s1-1
 70
    0
280
    1
281
    0
  0
BLOCK_RECORD
  5
6D
330
1
100
AcDbSymbolTableRecord
100
AcDbBlockTableRecord
  2
ln1
 70
    0
280
    1
281
    0
  0
BLOCK_RECORD
  5
70
330
1
100
AcDbSymbolTableRecord
100
AcDbBlockTableRecord
  2
ln1-0
 70
    0
280
    1
281
    0
  0
BLOCK_RECORD
  5
73
330
1
100
AcDbSymbolTableRecord
100
AcDbBlockTableRecord
  2
r1
 70
    0
280
    1
281
    0
  0
BLOCK_RECORD
  5
76
330
1
100
AcDbSymbolTableRecord
100
AcDbBlockTableRecord
  2
s16
 70
    0
280
    1
281
    0
  0
BLOCK_RECORD
  5
79
330
1
100
AcDbSymbolTableRecord
100
AcDbBlockTableRecord
  2
r6
 70
    0
280
    1
281
    0
  0
BLOCK_RECORD
  5
7C
330
1
100
AcDbSymbolTableRecord
100
AcDbBlockTableRecord
  2
r6-0
 70
    0
280
    1
281
    0
  0
BLOCK_RECORD
  5
7F
330
1
100
AcDbSymbolTableRecord
100
AcDbBlockTableRecord
  2
s12
 70
    0
280
    1
281
    0
  0
BLOCK_RECORD
  5
82
330
1
100
AcDbSymbolTableRecord
100
AcDbBlockTableRecord
  2
s9
 70
    0
280
    1
281
    0
  0
BLOCK_RECORD
  5
85
330
1
100
AcDbSymbolTableRecord
100
AcDbBlockTableRecord
  2
Контакт з механічним поверненням
 70
    0
280
    1
281
    0
  0
BLOCK_RECORD
  5
88
330
1
100
AcDbSymbolTableRecord
100
AcDbBlockTableRecord
  2
насосна_станція-1
 70
    0
280
    1
281
    0
  0
BLOCK_RECORD
  5
8B
330
1
100
AcDbSymbolTableRecord
100
AcDbBlockTableRecord
  2
s_29_2-2
 70
    0
280
    1
281
    0
  0
BLOCK_RECORD
  5
8E
330
1
100
AcDbSymbolTableRecord
100
AcDbBlockTableRecord
  2
s3_v-1
 70
    0
280
    1
281
    0
  0
BLOCK_RECORD
  5
91
330
1
100
AcDbSymbolTableRecord
100
AcDbBlockTableRecord
  2
m1-0
 70
    0
280
    1
281
    0
  0
BLOCK_RECORD
  5
94
330
1
100
AcDbSymbolTableRecord
100
AcDbBlockTableRecord
  2
r6-1
 70
    0
280
    1
281
    0
  0
BLOCK_RECORD
  5
97
330
1
100
AcDbSymbolTableRecord
100
AcDbBlockTableRecord
  2
r6-2
 70
    0
280
    1
281
    0
  0
BLOCK_RECORD
  5
9A
330
1
100
AcDbSymbolTableRecord
100
AcDbBlockTableRecord
  2
s29-0
 70
    0
280
    1
281
    0
  0
BLOCK_RECORD
  5
9D
330
1
100
AcDbSymbolTableRecord
100
AcDbBlockTableRecord
  2
s1-2
 70
    0
280
    1
281
    0
  0
BLOCK_RECORD
  5
A0
330
1
100
AcDbSymbolTableRecord
100
AcDbBlockTableRecord
  2
s1-3
 70
    0
280
    1
281
    0
  0
BLOCK_RECORD
  5
A3
330
1
100
AcDbSymbolTableRecord
100
AcDbBlockTableRecord
  2
ln1-1
 70
    0
280
    1
281
    0
  0
BLOCK_RECORD
  5
A6
330
1
100
AcDbSymbolTableRecord
100
AcDbBlockTableRecord
  2
ln1-2
 70
    0
280
    1
281
    0
  0
BLOCK_RECORD
  5
A9
330
1
100
AcDbSymbolTableRecord
100
AcDbBlockTableRecord
  2
r1-0
 70
    0
280
    1
281
    0
  0
BLOCK_RECORD
  5
AC
330
1
100
AcDbSymbolTableRecord
100
AcDbBlockTableRecord
  2
s16-0
 70
    0
280
    1
281
    0
  0
BLOCK_RECORD
  5
AF
330
1
100
AcDbSymbolTableRecord
100
AcDbBlockTableRecord
  2
s12-0
 70
    0
280
    1
281
    0
  0
BLOCK_RECORD
  5
B2
330
1
100
AcDbSymbolTableRecord
100
AcDbBlockTableRecord
  2
s9-0
 70
    0
280
    1
281
    0
  0
BLOCK_RECORD
  5
B5
330
1
100
AcDbSymbolTableRecord
100
AcDbBlockTableRecord
  2
s8_r
 70
    0
280
    1
281
    0
  0
BLOCK_RECORD
  5
B8
330
1
100
AcDbSymbolTableRecord
100
AcDbBlockTableRecord
  2
s9-1
 70
    0
280
    1
281
    0
  0
BLOCK_RECORD
  5
BB
330
1
100
AcDbSymbolTableRecord
100
AcDbBlockTableRecord
  2
s9-2
 70
    0
280
    1
281
    0
  0
BLOCK_RECORD
  5
BE
330
1
100
AcDbSymbolTableRecord
100
AcDbBlockTableRecord
  2
s8
 70
    0
280
    1
281
    0
  0
BLOCK_RECORD
  5
C1
330
1
100
AcDbSymbolTableRecord
100
AcDbBlockTableRecord
  2
s1
 70
    0
280
    1
281
    0
  0
BLOCK_RECORD
  5
C4
330
1
100
AcDbSymbolTableRecord
100
AcDbBlockTableRecord
  2
s8-0
 70
    0
280
    1
281
    0
  0
BLOCK_RECORD
  5
C7
330
1
100
AcDbSymbolTableRecord
100
AcDbBlockTableRecord
  2
s1-4
 70
    0
280
    1
281
    0
  0
BLOCK_RECORD
  5
CA
330
1
100
AcDbSymbolTableRecord
100
AcDbBlockTableRecord
  2
r1-1
 70
    0
280
    1
281
    0
  0
BLOCK_RECORD
  5
CD
330
1
100
AcDbSymbolTableRecord
100
AcDbBlockTableRecord
  2
r1-2
 70
    0
280
    1
281
    0
  0
ENDTAB
  0
ENDSEC
  0
SECTION
  2
BLOCKS
  0
BLOCK
  5
20
330
1F
100
AcDbEntity
  8
0
100
AcDbBlockBegin
  2
*Model_Space
 70
    0
 10
0
 20
0
 30
0
  3
*Model_Space
  1

  0
ENDBLK
  5
21
330
1F
100
AcDbEntity
  8
0
100
AcDbBlockEnd
  0
BLOCK
  5
1C
330
1B
100
AcDbEntity
  8
0
100
AcDbBlockBegin
  2
*Paper_Space
 70
    0
 10
0
 20
0
 30
0
  3
*Paper_Space
  1

  0
ENDBLK
  5
1D
330
1F
100
AcDbEntity
  8
0
100
AcDbBlockEnd
  0
BLOCK
  5
53
330
52
100
AcDbEntity
  8
0
100
AcDbBlockBegin
  2
насосна_станція
 70
    0
 10
0
 20
0
  3
насосна_станція
  1

  0
INSERT
  5
D0
100
AcDbEntity
  8
0
  6
ByLayer
 62
  256
370
   -1
100
AcDbBlockReference
  2
насосна_станція-0
 10
0
 20
0
 30
0
 41
1
 42
1
 43
0
 50
0
 70
    1
 71
    1
 44
0
 45
0
  0
ENDBLK
  5
54
330
52
100
AcDbEntity
  8
0
100
AcDbBlockEnd
  0
BLOCK
  5
56
330
55
100
AcDbEntity
  8
0
100
AcDbBlockBegin
  2
насосна_станція-0
 70
    0
 10
0
 20
0
  3
насосна_станція-0
  1

  0
LINE
  5
D1
100
AcDbEntity
  8
Конструкційний
  6
ByLayer
 62
  256
370
   -1
100
AcDbLine
 10
50
 20
140
 11
50
 21
145
  0
LINE
  5
D2
100
AcDbEntity
  8
Конструкційний
  6
ByLayer
 62
  256
370
   -1
100
AcDbLine
 10
60
 20
140
 11
60
 21
145
  0
LINE
  5
D3
100
AcDbEntity
  8
Конструкційний
  6
ByLayer
 62
  256
370
   -1
100
AcDbLine
 10
70
 20
140
 11
70
 21
145
  0
LINE
  5
D4
100
AcDbEntity
  8
Конструкційний
  6
ByLayer
 62
  256
370
   -1
100
AcDbLine
 10
90
 20
200
 11
95
 21
200
  0
MTEXT
  5
D5
100
AcDbEntity
  8
Позначення
  6
ByLayer
 62
  256
370
   -1
100
AcDbMText
 10
75
 20
185
 30
0
 40
4
 41
6.222222222222221
 71
    5
 72
    1
  1
KM
  7
unicode
210
0
220
0
230
1
 50
0
 73
    2
 44
1
  0
MTEXT
  5
D6
100
AcDbEntity
  8
Позначення
  6
ByLayer
 62
  256
370
   -1
100
AcDbMText
 10
75
 20
218
 30
0
 40
4
 41
5.777777777777777
 71
    5
 72
    1
  1
QF
  7
unicode
210
0
220
0
230
1
 50
0
 73
    2
 44
1
  0
MTEXT
  5
D7
100
AcDbEntity
  8
Позначення
  6
ByLayer
 62
  256
370
   -1
100
AcDbMText
 10
70
 20
238
 30
0
 40
4
 41
4.888888888888889
 71
    5
 72
    1
  1
L3
  7
unicode
210
0
220
0
230
1
 50
0
 73
    2
 44
1
  0
MTEXT
  5
D8
100
AcDbEntity
  8
Позначення
  6
ByLayer
 62
  256
370
   -1
100
AcDbMText
 10
60
 20
238
 30
0
 40
4
 41
4.888888888888888
 71
    5
 72
    1
  1
L2
  7
unicode
210
0
220
0
230
1
 50
0
 73
    2
 44
1
  0
MTEXT
  5
D9
100
AcDbEntity
  8
Позначення
  6
ByLayer
 62
  256
370
   -1
100
AcDbMText
 10
50
 20
238
 30
0
 40
4
 41
3.999999999999999
 71
    5
 72
    1
  1
L1
  7
unicode
210
0
220
0
230
1
 50
0
 73
    2
 44
1
  0
LINE
  5
DA
100
AcDbEntity
  8
Силові ланцюги
  6
ByLayer
 62
  256
370
   -1
100
AcDbLine
 10
50
 20
234
 11
50
 21
225
  0
LINE
  5
DB
100
AcDbEntity
  8
Силові ланцюги
  6
ByLayer
 62
  256
370
   -1
100
AcDbLine
 10
60
 20
234
 11
60
 21
225
  0
LINE
  5
DC
100
AcDbEntity
  8
Силові ланцюги
  6
ByLayer
 62
  256
370
   -1
100
AcDbLine
 10
70
 20
234
 11
70
 21
225
  0
LINE
  5
DD
100
AcDbEntity
  8
Силові ланцюги
  6
ByLayer
 62
  256
370
   -1
100
AcDbLine
 10
50
 20
210
 11
50
 21
192
  0
LINE
  5
DE
100
AcDbEntity
  8
Силові ланцюги
  6
ByLayer
 62
  256
370
   -1
100
AcDbLine
 10
60
 20
210
 11
60
 21
192
  0
LINE
  5
DF
100
AcDbEntity
  8
Силові ланцюги
  6
ByLayer
 62
  256
370
   -1
100
AcDbLine
 10
70
 20
210
 11
70
 21
192
  0
INSERT
  5
E0
100
AcDbEntity
  8
Силові ланцюги
  6
ByLayer
 62
  256
370
   -1
100
AcDbBlockReference
  2
s_29_2-1
 10
0
 20
0
 30
0
 41
1
 42
1
 43
0
 50
0
 70
    1
 71
    1
 44
0
 45
0
  0
INSERT
  5
E1
100
AcDbEntity
  8
Силові ланцюги
  6
ByLayer
 62
  256
370
   -1
100
AcDbBlockReference
  2
s3_v-0
 10
0
 20
19
 30
0
 41
1
 42
1
 43
0
 50
0
 70
    1
 71
    1
 44
0
 45
0
  0
INSERT
  5
E2
100
AcDbEntity
  8
Силові ланцюги
  6
ByLayer
 62
  256
370
   -1
100
AcDbBlockReference
  2
m1
 10
0
 20
0
 30
0
 41
1
 42
1
 43
0
 50
0
 70
    1
 71
    1
 44
0
 45
0
  0
INSERT
  5
E3
100
AcDbEntity
  8
Силові ланцюги
  6
ByLayer
 62
  256
370
   -1
100
AcDbBlockReference
  2
r6
 10
50
 20
170
 30
0
 41
1
 42
1
 43
0
 50
270
 70
    1
 71
    1
 44
0
 45
0
  0
INSERT
  5
E4
100
AcDbEntity
  8
Силові ланцюги
  6
ByLayer
 62
  256
370
   -1
100
AcDbBlockReference
  2
r6-0
 10
70
 20
170
 30
0
 41
1
 42
1
 43
0
 50
270
 70
    1
 71
    1
 44
0
 45
0
  0
LINE
  5
E5
100
AcDbEntity
  8
Силові ланцюги
  6
ByLayer
 62
  256
370
   -1
100
AcDbLine
 10
50
 20
177
 11
50
 21
170
  0
LINE
  5
E6
100
AcDbEntity
  8
Силові ланцюги
  6
ByLayer
 62
  256
370
   -1
100
AcDbLine
 10
70
 20
177
 11
70
 21
170
  0
LINE
  5
E7
100
AcDbEntity
  8
Силові ланцюги
  6
ByLayer
 62
  256
370
   -1
100
AcDbLine
 10
60
 20
177
 11
60
 21
140
  0
LINE
  5
E8
100
AcDbEntity
  8
Силові ланцюги
  6
ByLayer
 62
  256
370
   -1
100
AcDbLine
 10
50
 20
155
 11
50
 21
140
  0
LINE
  5
E9
100
AcDbEntity
  8
Силові ланцюги
  6
ByLayer
 62
  256
370
   -1
100
AcDbLine
 10
70
 20
155
 11
70
 21
140
  0
MTEXT
  5
EA
100
AcDbEntity
  8
Позначення
  6
ByLayer
 62
  256
370
   -1
100
AcDbMText
 10
70
 20
120
 30
0
 40
4
 41
2.666666666666667
 71
    5
 72
    1
  1
M
  7
unicode
210
0
220
0
230
1
 50
0
 73
    2
 44
1
  0
INSERT
  5
EB
100
AcDbEntity
  8
Основний
  6
ByLayer
 62
  256
370
   -1
100
AcDbBlockReference
  2
s29
 10
70
 20
0
 30
0
 41
1
 42
1
 43
0
 50
0
 70
    1
 71
    1
 44
0
 45
0
  0
INSERT
  5
EC
100
AcDbEntity
  8
Основний
  6
ByLayer
 62
  256
370
   -1
100
AcDbBlockReference
  2
s1-0
 10
70
 20
0
 30
0
 41
1
 42
1
 43
0
 50
0
 70
    1
 71
    1
 44
0
 45
0
  0
INSERT
  5
ED
100
AcDbEntity
  8
Основний
  6
ByLayer
 62
  256
370
   -1
100
AcDbBlockReference
  2
s1-1
 10
70
 20
0
 30
0
 41
1
 42
1
 43
0
 50
0
 70
    1
 71
    1
 44
0
 45
0
  0
INSERT
  5
EE
100
AcDbEntity
  8
Основний
  6
ByLayer
 62
  256
370
   -1
100
AcDbBlockReference
  2
ln1
 10
70
 20
0
 30
0
 41
1
 42
1
 43
0
 50
0
 70
    1
 71
    1
 44
0
 45
0
  0
INSERT
  5
EF
100
AcDbEntity
  8
Основний
  6
ByLayer
 62
  256
370
   -1
100
AcDbBlockReference
  2
ln1-0
 10
70
 20
0
 30
0
 41
1
 42
1
 43
0
 50
0
 70
    1
 71
    1
 44
0
 45
0
  0
INSERT
  5
F0
100
AcDbEntity
  8
Основний
  6
ByLayer
 62
  256
370
   -1
100
AcDbBlockReference
  2
r1
 10
70
 20
0
 30
0
 41
1
 42
1
 43
0
 50
0
 70
    1
 71
    1
 44
0
 45
0
  0
INSERT
  5
F1
100
AcDbEntity
  8
Основний
  6
ByLayer
 62
  256
370
   -1
100
AcDbBlockReference
  2
s16
 10
70
 20
0
 30
0
 41
1
 42
1
 43
0
 50
0
 70
    1
 71
    1
 44
0
 45
0
  0
LINE
  5
F2
100
AcDbEntity
  8
Основний
  6
ByLayer
 62
  256
370
   -1
100
AcDbLine
 10
180
 20
200
 11
192
 21
200
  0
LINE
  5
F3
100
AcDbEntity
  8
Основний
  6
ByLayer
 62
  256
370
   -1
100
AcDbLine
 10
207
 20
200
 11
211
 21
200
  0
LINE
  5
F4
100
AcDbEntity
  8
Основний
  6
ByLayer
 62
  256
370
   -1
100
AcDbLine
 10
207
 20
180
 11
211
 21
180
  0
LINE
  5
F5
100
AcDbEntity
  8
Основний
  6
ByLayer
 62
  256
370
   -1
100
AcDbLine
 10
207
 20
160
 11
230
 21
160
  0
LINE
  5
F6
100
AcDbEntity
  8
Основний
  6
ByLayer
 62
  256
370
   -1
100
AcDbLine
 10
255
 20
160
 11
255
 21
233
  0
LINE
  5
F7
100
AcDbEntity
  8
Основний
  6
ByLayer
 62
  256
370
   -1
100
AcDbLine
 10
185
 20
200
 11
185
 21
160
  0
LINE
  5
F8
100
AcDbEntity
  8
Основний
  6
ByLayer
 62
  256
370
   -1
100
AcDbLine
 10
185
 20
160
 11
192
 21
160
  0
LINE
  5
F9
100
AcDbEntity
  8
Основний
  6
ByLayer
 62
  256
370
   -1
100
AcDbLine
 10
185
 20
180
 11
192
 21
180
  0
LINE
  5
FA
100
AcDbEntity
  8
Основний
  6
ByLayer
 62
  256
370
   -1
100
AcDbLine
 10
226
 20
200
 11
228
 21
200
  0
LINE
  5
FB
100
AcDbEntity
  8
Основний
  6
ByLayer
 62
  256
370
   -1
100
AcDbLine
 10
245
 20
180
 11
255
 21
180
  0
LINE
  5
FC
100
AcDbEntity
  8
Основний
  6
ByLayer
 62
  256
370
   -1
100
AcDbLine
 10
245
 20
160
 11
255
 21
160
  0
LINE
  5
FD
100
AcDbEntity
  8
Основний
  6
ByLayer
 62
  256
370
   -1
100
AcDbLine
 10
226
 20
180
 11
226
 21
200
  0
LINE
  5
FE
100
AcDbEntity
  8
Основний
  6
ByLayer
 62
  256
370
   -1
100
AcDbLine
 10
226
 20
180
 11
226
 21
180
  0
LINE
  5
FF
100
AcDbEntity
  8
Основний
  6
CONTINUOUS
 62
  256
370
   70
100
AcDbLine
 10
230
 20
180
 11
230
 21
160
  0
MTEXT
  5
100
100
AcDbEntity
  8
Позначення
  6
ByLayer
 62
  256
370
   -1
100
AcDbMText
 10
199
 20
204
 30
0
 40
4
 41
6.222222222222221
 71
    5
 72
    1
  1
KM
  7
unicode
210
0
220
0
230
1
 50
0
 73
    2
 44
1
  0
MTEXT
  5
101
100
AcDbEntity
  8
Позначення
  6
ByLayer
 62
  256
370
   -1
100
AcDbMText
 10
199
 20
187
 30
0
 40
4
 41
6.222222222222221
 71
    5
 72
    1
  1
KM
  7
unicode
210
0
220
0
230
1
 50
0
 73
    2
 44
1
  0
MTEXT
  5
102
100
AcDbEntity
  8
Позначення
  6
ByLayer
 62
  256
370
   -1
100
AcDbMText
 10
207
 20
165
 30
0
 40
4
 41
6.222222222222221
 71
    5
 72
    1
  1
KM
  7
unicode
210
0
220
0
230
1
 50
0
 73
    2
 44
1
  0
MTEXT
  5
103
100
AcDbEntity
  8
Позначення
  6
ByLayer
 62
  256
370
   -1
100
AcDbMText
 10
251
 20
231
 30
0
 40
4
 41
2.222222222222222
 71
    5
 72
    1
  1
N
  7
unicode
210
0
220
0
230
1
 50
0
 73
    2
 44
1
  0
MTEXT
  5
104
100
AcDbEntity
  8
Позначення
  6
ByLayer
 62
  256
370
   -1
100
AcDbMText
 10
218.5
 20
207
 30
0
 40
4
 41
7.555555555555555
 71
    5
 72
    1
  1
HL1
  7
unicode
210
0
220
0
230
1
 50
0
 73
    2
 44
1
  0
MTEXT
  5
105
100
AcDbEntity
  8
Позначення
  6
ByLayer
 62
  256
370
   -1
100
AcDbMText
 10
218
 20
188
 30
0
 40
4
 41
8.444444444444443
 71
    5
 72
    1
  1
HL2
  7
unicode
210
0
220
0
230
1
 50
0
 73
    2
 44
1
  0
MTEXT
  5
106
100
AcDbEntity
  8
Позначення
  6
ByLayer
 62
  256
370
   -1
100
AcDbMText
 10
238
 20
187
 30
0
 40
4
 41
6.227027964891866
 71
    5
 72
    1
  1
SA
  7
unicode
210
0
220
0
230
1
 50
0
 73
    2
 44
1
  0
MTEXT
  5
107
100
AcDbEntity
  8
Позначення
  6
ByLayer
 62
  256
370
   -1
100
AcDbMText
 10
243
 20
165
 30
0
 40
4
 41
5.782583520447423
 71
    5
 72
    1
  1
SP
  7
unicode
210
0
220
0
230
1
 50
0
 73
    2
 44
1
  0
CIRCLE
  5
108
100
AcDbEntity
  8
Основний
  6
ByLayer
 62
  256
370
   -1
100
AcDbCircle
 10
185
 20
200
 40
0.6403124237432751
  0
CIRCLE
  5
109
100
AcDbEntity
  8
Основний
  6
ByLayer
 62
  256
370
   -1
100
AcDbCircle
 10
185.1
 20
180
 40
0.6403124237432751
  0
CIRCLE
  5
10A
100
AcDbEntity
  8
Основний
  6
ByLayer
 62
  256
370
   -1
100
AcDbCircle
 10
226
 20
200
 40
0.6403124237432751
  0
CIRCLE
  5
10B
100
AcDbEntity
  8
Основний
  6
ByLayer
 62
  256
370
   -1
100
AcDbCircle
 10
254.9
 20
200
 40
0.6403124237432751
  0
CIRCLE
  5
10C
100
AcDbEntity
  8
Основний
  6
ByLayer
 62
  256
370
   -1
100
AcDbCircle
 10
255
 20
180
 40
0.6403124237432751
  0
CIRCLE
  5
10D
100
AcDbEntity
  8
Основний
  6
ByLayer
 62
  256
370
   -1
100
AcDbCircle
 10
230
 20
160
 40
0.6403124237432751
  0
LINE
  5
10E
100
AcDbEntity
  8
Основний
  6
ByLayer
 62
  256
370
   -1
100
AcDbLine
 10
228
 20
200
 11
255
 21
200
  0
LINE
  5
10F
100
AcDbEntity
  8
Конструкційний
  6
ByLayer
 62
  256
370
   -1
100
AcDbLine
 10
80
 20
210
 11
85
 21
210
  0
INSERT
  5
110
100
AcDbEntity
  8
Основний
  6
ByLayer
 62
  256
370
   -1
100
AcDbBlockReference
  2
s12
 10
100
 20
210
 30
0
 41
1
 42
1
 43
0
 50
0
 70
    1
 71
    1
 44
0
 45
0
  0
INSERT
  5
111
100
AcDbEntity
  8
Основний
  6
ByLayer
 62
  256
370
   -1
100
AcDbBlockReference
  2
s9
 10
100
 20
180
 30
0
 41
1
 42
1
 43
0
 50
0
 70
    1
 71
    1
 44
0
 45
0
  0
LINE
  5
112
100
AcDbEntity
  8
Основний
  6
ByLayer
 62
  256
370
   -1
100
AcDbLine
 10
60
 20
210
 11
100
 21
210
  0
LINE
  5
113
100
AcDbEntity
  8
Основний
  6
ByLayer
 62
  256
370
   -1
100
AcDbLine
 10
70
 20
200
 11
88
 21
200
  0
LINE
  5
114
100
AcDbEntity
  8
Основний
  6
ByLayer
 62
  256
370
   -1
100
AcDbLine
 10
88
 20
200
 11
88
 21
180
  0
LINE
  5
115
100
AcDbEntity
  8
Основний
  6
ByLayer
 62
  256
370
   -1
100
AcDbLine
 10
88
 20
180
 11
100
 21
180
  0
ENDBLK
  5
57
330
55
100
AcDbEntity
  8
0
100
AcDbBlockEnd
  0
BLOCK
  5
59
330
58
100
AcDbEntity
  8
0
100
AcDbBlockBegin
  2
m1
 70
    0
 10
0
 20
0
  3
m1
  1

  0
LINE
  5
116
100
AcDbEntity
  8
Силові ланцюги
  6
ByLayer
 62
  256
370
   -1
100
AcDbLine
 10
70
 20
140
 11
70
 21
132.5
  0
LINE
  5
117
100
AcDbEntity
  8
Силові ланцюги
  6
ByLayer
 62
  256
370
   -1
100
AcDbLine
 10
70
 20
132.5
 11
64.66000000000014
 21
128.36
  0
LINE
  5
118
100
AcDbEntity
  8
Силові ланцюги
  6
ByLayer
 62
  256
370
   -1
100
AcDbLine
 10
60
 20
140
 11
60
 21
130.5
  0
LINE
  5
119
100
AcDbEntity
  8
Силові ланцюги
  6
ByLayer
 62
  256
370
   -1
100
AcDbLine
 10
55.34000000000003
 20
128.36
 11
50
 21
132.5
  0
LINE
  5
11A
100
AcDbEntity
  8
Силові ланцюги
  6
ByLayer
 62
  256
370
   -1
100
AcDbLine
 10
50
 20
132.5
 11
50
 21
140
  0
CIRCLE
  5
11B
100
AcDbEntity
  8
Силові ланцюги
  6
ByLayer
 62
  256
370
   -1
100
AcDbCircle
 10
60
 20
124.5
 40
3.5
  0
CIRCLE
  5
11C
100
AcDbEntity
  8
Силові ланцюги
  6
ByLayer
 62
  256
370
   -1
100
AcDbCircle
 10
60
 20
124.5
 40
6
  0
POINT
  5
11D
100
AcDbEntity
  8
Силові ланцюги
  6
ByLayer
 62
  256
370
   -1
100
AcDbPoint
 10
50
 20
140
  0
POINT
  5
11E
100
AcDbEntity
  8
Силові ланцюги
  6
ByLayer
 62
  256
370
   -1
100
AcDbPoint
 10
60
 20
140
  0
POINT
  5
11F
100
AcDbEntity
  8
Силові ланцюги
  6
ByLayer
 62
  256
370
   -1
100
AcDbPoint
 10
70
 20
140
  0
ENDBLK
  5
5A
330
58
100
AcDbEntity
  8
0
100
AcDbBlockEnd
  0
BLOCK
  5
5C
330
5B
100
AcDbEntity
  8
0
100
AcDbBlockBegin
  2
s_29_2-1
 70
    0
 10
0
 20
0
  3
s_29_2-1
  1

  0
LINE
  5
120
100
AcDbEntity
  8
Силові ланцюги
  6
ByLayer
 62
  256
370
   -1
100
AcDbLine
 10
48.84999999999997
 20
216.5
 11
47.12
 21
215.5
  0
LINE
  5
121
100
AcDbEntity
  8
Силові ланцюги
  6
ByLayer
 62
  256
370
   -1
100
AcDbLine
 10
47.69
 20
218.5
 11
45.95999999999998
 21
217.5
  0
LINE
  5
122
100
AcDbEntity
  8
Силові ланцюги
  6
ByLayer
 62
  256
370
   -1
100
AcDbLine
 10
47.12
 20
215.5
 11
45.95999999999998
 21
217.5
  0
LINE
  5
123
100
AcDbEntity
  8
Силові ланцюги
  6
ByLayer
 62
  256
370
   -1
100
AcDbLine
 10
50
 20
213.75
 11
50
 21
210
  0
LINE
  5
124
100
AcDbEntity
  8
Силові ланцюги
  6
ByLayer
 62
  256
370
   -1
100
AcDbLine
 10
50
 20
225
 11
50
 21
220.5
  0
LINE
  5
125
100
AcDbEntity
  8
Силові ланцюги
  6
ByLayer
 62
  256
370
   -1
100
AcDbLine
 10
49.6253331575225
 20
215.1497112875331
 11
46.54000000000002
 21
220.5
  0
LINE
  5
126
100
AcDbEntity
  8
Силові ланцюги
  6
ByLayer
 62
  256
370
   -1
100
AcDbLine
 10
60
 20
213.75
 11
60
 21
210
  0
LINE
  5
127
100
AcDbEntity
  8
Силові ланцюги
  6
ByLayer
 62
  256
370
   -1
100
AcDbLine
 10
60
 20
225
 11
60
 21
220.5
  0
LINE
  5
128
100
AcDbEntity
  8
Силові ланцюги
  6
ByLayer
 62
  256
370
   -1
100
AcDbLine
 10
59.6253331575225
 20
215.1497112875331
 11
56.54000000000002
 21
220.5
  0
LINE
  5
129
100
AcDbEntity
  8
Силові ланцюги
  6
ByLayer
 62
  256
370
   -1
100
AcDbLine
 10
70
 20
213.75
 11
70
 21
210
  0
LINE
  5
12A
100
AcDbEntity
  8
Силові ланцюги
  6
ByLayer
 62
  256
370
   -1
100
AcDbLine
 10
70
 20
225
 11
70
 21
220.5
  0
LINE
  5
12B
100
AcDbEntity
  8
Силові ланцюги
  6
ByLayer
 62
  256
370
   -1
100
AcDbLine
 10
69.6253331575225
 20
215.1497112875331
 11
66.54000000000002
 21
220.5
  0
LINE
  5
12C
100
AcDbEntity
  8
Силові ланцюги
  6
ByLayer
 62
  256
370
   -1
100
AcDbLine
 10
47.69
 20
218.5
 11
67.69333333333327
 21
218.5
  0
LINE
  5
12D
100
AcDbEntity
  8
Силові ланцюги
  6
ByLayer
 62
  256
370
   -1
100
AcDbLine
 10
48.84999999999997
 20
216.5
 11
68.84666666666658
 21
216.5
  0
CIRCLE
  5
12E
100
AcDbEntity
  8
Силові ланцюги
  6
ByLayer
 62
  256
370
   -1
100
AcDbCircle
 10
50
 20
214.5
 40
0.75
  0
CIRCLE
  5
12F
100
AcDbEntity
  8
Силові ланцюги
  6
ByLayer
 62
  256
370
   -1
100
AcDbCircle
 10
60
 20
214.5
 40
0.75
  0
CIRCLE
  5
130
100
AcDbEntity
  8
Силові ланцюги
  6
ByLayer
 62
  256
370
   -1
100
AcDbCircle
 10
70
 20
214.5
 40
0.75
  0
ARC
  5
131
100
AcDbEntity
  8
Силові ланцюги
  6
ByLayer
 62
  256
370
   -1
100
AcDbCircle
 10
60.0288
 20
221.25
 40
0.850488
100
AcDbArc
 50
91.9415
 51
268.059
  0
ARC
  5
132
100
AcDbEntity
  8
Силові ланцюги
  6
ByLayer
 62
  256
370
   -1
100
AcDbCircle
 10
50.0288136
 20
221.25
 40
0.850488
100
AcDbArc
 50
91.9415
 51
268.059
  0
ARC
  5
133
100
AcDbEntity
  8
Силові ланцюги
  6
ByLayer
 62
  256
370
   -1
100
AcDbCircle
 10
70.0288
 20
221.25
 40
0.850488
100
AcDbArc
 50
91.9415
 51
268.059
  0
ENDBLK
  5
5D
330
5B
100
AcDbEntity
  8
0
100
AcDbBlockEnd
  0
BLOCK
  5
5F
330
5E
100
AcDbEntity
  8
0
100
AcDbBlockBegin
  2
s3_v-0
 70
    0
 10
0
 20
0
  3
s3_v-0
  1

  0
LINE
  5
134
100
AcDbEntity
  8
Силові ланцюги
  6
ByLayer
 62
  256
370
   -1
100
AcDbLine
 10
50
 20
162.5
 11
50
 21
158
  0
LINE
  5
135
100
AcDbEntity
  8
Силові ланцюги
  6
ByLayer
 62
  256
370
   -1
100
AcDbLine
 10
50
 20
173
 11
50
 21
168.5
  0
LINE
  5
136
100
AcDbEntity
  8
Силові ланцюги
  6
ByLayer
 62
  256
370
   -1
100
AcDbLine
 10
50
 20
162.5
 11
46.54
 21
168.5
  0
POINT
  5
137
100
AcDbEntity
  8
Силові ланцюги
  6
ByLayer
 62
  256
370
   -1
100
AcDbPoint
 10
50
 20
158
  0
POINT
  5
138
100
AcDbEntity
  8
Силові ланцюги
  6
ByLayer
 62
  256
370
   -1
100
AcDbPoint
 10
50
 20
173
  0
ELLIPSE
  5
139
100
AcDbEntity
  8
Силові ланцюги
  6
ByLayer
 62
  256
370
   -1
100
AcDbEllipse
 10
49.7
 20
169.8
 30
0
 11
-2.204291436880279e-16
 21
-1.2
 31
0
 40
0.8333333333333334
 41
3.141592653589793
 42
0
  0
LINE
  5
13A
100
AcDbEntity
  8
Силові ланцюги
  6
ByLayer
 62
  256
370
   -1
100
AcDbLine
 10
60
 20
162.5
 11
60
 21
158
  0
LINE
  5
13B
100
AcDbEntity
  8
Силові ланцюги
  6
ByLayer
 62
  256
370
   -1
100
AcDbLine
 10
60
 20
173
 11
60
 21
168.5
  0
LINE
  5
13C
100
AcDbEntity
  8
Силові ланцюги
  6
ByLayer
 62
  256
370
   -1
100
AcDbLine
 10
60
 20
162.5
 11
56.54
 21
168.5
  0
POINT
  5
13D
100
AcDbEntity
  8
Силові ланцюги
  6
ByLayer
 62
  256
370
   -1
100
AcDbPoint
 10
60
 20
158
  0
POINT
  5
13E
100
AcDbEntity
  8
Силові ланцюги
  6
ByLayer
 62
  256
370
   -1
100
AcDbPoint
 10
60
 20
173
  0
ELLIPSE
  5
13F
100
AcDbEntity
  8
Силові ланцюги
  6
ByLayer
 62
  256
370
   -1
100
AcDbEllipse
 10
59.7
 20
169.8
 30
0
 11
-2.204291436880279e-16
 21
-1.2
 31
0
 40
0.8333333333333334
 41
3.141592653589793
 42
0
  0
LINE
  5
140
100
AcDbEntity
  8
Силові ланцюги
  6
ByLayer
 62
  256
370
   -1
100
AcDbLine
 10
70
 20
162.5
 11
70
 21
158
  0
LINE
  5
141
100
AcDbEntity
  8
Силові ланцюги
  6
ByLayer
 62
  256
370
   -1
100
AcDbLine
 10
70
 20
173
 11
70
 21
168.5
  0
LINE
  5
142
100
AcDbEntity
  8
Силові ланцюги
  6
ByLayer
 62
  256
370
   -1
100
AcDbLine
 10
70
 20
162.5
 11
66.53999999999999
 21
168.5
  0
POINT
  5
143
100
AcDbEntity
  8
Силові ланцюги
  6
ByLayer
 62
  256
370
   -1
100
AcDbPoint
 10
70
 20
158
  0
POINT
  5
144
100
AcDbEntity
  8
Силові ланцюги
  6
ByLayer
 62
  256
370
   -1
100
AcDbPoint
 10
70
 20
173
  0
ELLIPSE
  5
145
100
AcDbEntity
  8
Силові ланцюги
  6
ByLayer
 62
  256
370
   -1
100
AcDbEllipse
 10
69.7
 20
169.8
 30
0
 11
-2.204291436880279e-16
 21
-1.2
 31
0
 40
0.8333333333333334
 41
3.141592653589793
 42
0
  0
LINE
  5
146
100
AcDbEntity
  8
Силові ланцюги
  6
ByLayer
 62
  256
370
   -1
100
AcDbLine
 10
48.4
 20
165.3
 11
68.3
 21
165.3
  0
LINE
  5
147
100
AcDbEntity
  8
Силові ланцюги
  6
ByLayer
 62
  256
370
   -1
100
AcDbLine
 10
47.8
 20
166.5
 11
67.7
 21
166.5
  0
ENDBLK
  5
60
330
5E
100
AcDbEntity
  8
0
100
AcDbBlockEnd
  0
BLOCK
  5
62
330
61
100
AcDbEntity
  8
0
100
AcDbBlockBegin
  2
fu1
 70
    0
 10
0
 20
0
  3
fu1
  1

  0
LINE
  5
148
100
AcDbEntity
  8
Основний
  6
CONTINUOUS
 62
    7
370
   70
100
AcDbLine
 10
105
 20
198
 11
105
 21
202
  0
LINE
  5
149
100
AcDbEntity
  8
Основний
  6
CONTINUOUS
 62
    7
370
   70
100
AcDbLine
 10
105
 20
202
 11
95
 21
202
  0
LINE
  5
14A
100
AcDbEntity
  8
Основний
  6
CONTINUOUS
 62
    7
370
   70
100
AcDbLine
 10
95
 20
202
 11
95
 21
198
  0
LINE
  5
14B
100
AcDbEntity
  8
Основний
  6
CONTINUOUS
 62
    7
370
   70
100
AcDbLine
 10
95
 20
198
 11
105
 21
198
  0
LINE
  5
14C
100
AcDbEntity
  8
Основний
  6
CONTINUOUS
 62
    7
370
   70
100
AcDbLine
 10
110
 20
200
 11
90
 21
200
  0
ENDBLK
  5
63
330
61
100
AcDbEntity
  8
0
100
AcDbBlockEnd
  0
BLOCK
  5
65
330
64
100
AcDbEntity
  8
0
100
AcDbBlockBegin
  2
s29
 70
    0
 10
0
 20
0
  3
s29
  1

  0
LINE
  5
14D
100
AcDbEntity
  8
Основний
  6
CONTINUOUS
 62
    7
370
   70
100
AcDbLine
 10
126.5
 20
200
 11
122
 21
200
  0
LINE
  5
14E
100
AcDbEntity
  8
Основний
  6
CONTINUOUS
 62
    7
370
   70
100
AcDbLine
 10
137
 20
200
 11
132.5
 21
200
  0
LINE
  5
14F
100
AcDbEntity
  8
Основний
  6
CONTINUOUS
 62
    7
370
   70
100
AcDbLine
 10
126.5
 20
200
 11
133.5
 21
195.96
  0
LINE
  5
150
100
AcDbEntity
  8
Основний
  6
CONTINUOUS
 62
    7
370
   70
100
AcDbLine
 10
132.5
 20
196
 11
132.5
 21
200
  0
ENDBLK
  5
66
330
64
100
AcDbEntity
  8
0
100
AcDbBlockEnd
  0
BLOCK
  5
68
330
67
100
AcDbEntity
  8
0
100
AcDbBlockBegin
  2
s1-0
 70
    0
 10
0
 20
0
  3
s1-0
  1

  0
LINE
  5
151
100
AcDbEntity
  8
Основний
  6
ByLayer
 62
  256
370
   -1
100
AcDbLine
 10
126.5
 20
180
 11
122
 21
180
  0
LINE
  5
152
100
AcDbEntity
  8
Основний
  6
ByLayer
 62
  256
370
   -1
100
AcDbLine
 10
137
 20
180
 11
132.5
 21
180
  0
LINE
  5
153
100
AcDbEntity
  8
Основний
  6
ByLayer
 62
  256
370
   -1
100
AcDbLine
 10
126.5
 20
180
 11
132.5
 21
183.46
  0
POINT
  5
154
100
AcDbEntity
  8
Основний
  6
ByLayer
 62
  256
370
   -1
100
AcDbPoint
 10
122
 20
180
  0
POINT
  5
155
100
AcDbEntity
  8
Основний
  6
ByLayer
 62
  256
370
   -1
100
AcDbPoint
 10
137
 20
180
  0
ENDBLK
  5
69
330
67
100
AcDbEntity
  8
0
100
AcDbBlockEnd
  0
BLOCK
  5
6B
330
6A
100
AcDbEntity
  8
0
100
AcDbBlockBegin
  2
s1-1
 70
    0
 10
0
 20
0
  3
s1-1
  1

  0
LINE
  5
156
100
AcDbEntity
  8
Основний
  6
CONTINUOUS
 62
    7
370
   70
100
AcDbLine
 10
164.5
 20
180
 11
160
 21
180
  0
LINE
  5
157
100
AcDbEntity
  8
Основний
  6
CONTINUOUS
 62
    7
370
   70
100
AcDbLine
 10
175
 20
180
 11
170.5
 21
180
  0
LINE
  5
158
100
AcDbEntity
  8
Основний
  6
CONTINUOUS
 62
    7
370
   70
100
AcDbLine
 10
164.5
 20
180
 11
170.5
 21
183.46
  0
POINT
  5
159
100
AcDbEntity
  8
Основний
  6
CONTINUOUS
 62
    7
370
   70
100
AcDbPoint
 10
160
 20
180
  0
POINT
  5
15A
100
AcDbEntity
  8
Основний
  6
CONTINUOUS
 62
    7
370
   70
100
AcDbPoint
 10
175
 20
180
  0
ENDBLK
  5
6C
330
6A
100
AcDbEntity
  8
0
100
AcDbBlockEnd
  0
BLOCK
  5
6E
330
6D
100
AcDbEntity
  8
0
100
AcDbBlockBegin
  2
ln1
 70
    0
 10
0
 20
0
  3
ln1
  1

  0
LINE
  5
15B
100
AcDbEntity
  8
Основний
  6
CONTINUOUS
 62
    7
370
   70
100
AcDbLine
 10
156
 20
200
 11
152.5
 21
200
  0
LINE
  5
15C
100
AcDbEntity
  8
Основний
  6
CONTINUOUS
 62
    7
370
   70
100
AcDbLine
 10
151.33
 20
197.17
 11
145.67
 21
202.83
  0
LINE
  5
15D
100
AcDbEntity
  8
Основний
  6
CONTINUOUS
 62
    7
370
   70
100
AcDbLine
 10
145.67
 20
197.17
 11
151.33
 21
202.83
  0
CIRCLE
  5
15E
100
AcDbEntity
  8
Основний
  6
CONTINUOUS
 62
    7
370
   70
100
AcDbCircle
 10
148.5
 20
200
 40
4
  0
LINE
  5
15F
100
AcDbEntity
  8
Основний
  6
CONTINUOUS
 62
    7
370
   70
100
AcDbLine
 10
144.5
 20
200
 11
141
 21
200
  0
POINT
  5
160
100
AcDbEntity
  8
Основний
  6
CONTINUOUS
 62
    7
370
   70
100
AcDbPoint
 10
141
 20
200
  0
POINT
  5
161
100
AcDbEntity
  8
Основний
  6
CONTINUOUS
 62
    7
370
   70
100
AcDbPoint
 10
156
 20
200
  0
ENDBLK
  5
6F
330
6D
100
AcDbEntity
  8
0
100
AcDbBlockEnd
  0
BLOCK
  5
71
330
70
100
AcDbEntity
  8
0
100
AcDbBlockBegin
  2
ln1-0
 70
    0
 10
0
 20
0
  3
ln1-0
  1

  0
LINE
  5
162
100
AcDbEntity
  8
Основний
  6
CONTINUOUS
 62
    7
370
   70
100
AcDbLine
 10
156
 20
180
 11
152.5
 21
180
  0
LINE
  5
163
100
AcDbEntity
  8
Основний
  6
CONTINUOUS
 62
    7
370
   70
100
AcDbLine
 10
151.33
 20
177.17
 11
145.67
 21
182.83
  0
LINE
  5
164
100
AcDbEntity
  8
Основний
  6
CONTINUOUS
 62
    7
370
   70
100
AcDbLine
 10
145.67
 20
177.17
 11
151.33
 21
182.83
  0
CIRCLE
  5
165
100
AcDbEntity
  8
Основний
  6
CONTINUOUS
 62
    7
370
   70
100
AcDbCircle
 10
148.5
 20
180
 40
4
  0
LINE
  5
166
100
AcDbEntity
  8
Основний
  6
CONTINUOUS
 62
    7
370
   70
100
AcDbLine
 10
144.5
 20
180
 11
141
 21
180
  0
POINT
  5
167
100
AcDbEntity
  8
Основний
  6
CONTINUOUS
 62
    7
370
   70
100
AcDbPoint
 10
141
 20
180
  0
POINT
  5
168
100
AcDbEntity
  8
Основний
  6
CONTINUOUS
 62
    7
370
   70
100
AcDbPoint
 10
156
 20
180
  0
ENDBLK
  5
72
330
70
100
AcDbEntity
  8
0
100
AcDbBlockEnd
  0
BLOCK
  5
74
330
73
100
AcDbEntity
  8
0
100
AcDbBlockBegin
  2
r1
 70
    0
 10
0
 20
0
  3
r1
  1

  0
LINE
  5
169
100
AcDbEntity
  8
Основний
  6
ByLayer
 62
  256
370
   -1
100
AcDbLine
 10
126.5
 20
166
 11
132.5
 21
166
  0
LINE
  5
16A
100
AcDbEntity
  8
Основний
  6
ByLayer
 62
  256
370
   -1
100
AcDbLine
 10
126.5
 20
154
 11
132.5
 21
154
  0
LINE
  5
16B
100
AcDbEntity
  8
Основний
  6
ByLayer
 62
  256
370
   -1
100
AcDbLine
 10
132.5
 20
154
 11
132.5
 21
166
  0
LINE
  5
16C
100
AcDbEntity
  8
Основний
  6
ByLayer
 62
  256
370
   -1
100
AcDbLine
 10
126.5
 20
166
 11
126.5
 21
154
  0
LINE
  5
16D
100
AcDbEntity
  8
Основний
  6
ByLayer
 62
  256
370
   -1
100
AcDbLine
 10
137
 20
160
 11
132.5
 21
160
  0
LINE
  5
16E
100
AcDbEntity
  8
Основний
  6
ByLayer
 62
  256
370
   -1
100
AcDbLine
 10
126.5
 20
160
 11
122
 21
160
  0
POINT
  5
16F
100
AcDbEntity
  8
Основний
  6
ByLayer
 62
  256
370
   -1
100
AcDbPoint
 10
122
 20
160
  0
POINT
  5
170
100
AcDbEntity
  8
Основний
  6
ByLayer
 62
  256
370
   -1
100
AcDbPoint
 10
137
 20
160
  0
ENDBLK
  5
75
330
73
100
AcDbEntity
  8
0
100
AcDbBlockEnd
  0
BLOCK
  5
77
330
76
100
AcDbEntity
  8
0
100
AcDbBlockBegin
  2
s16
 70
    0
 10
0
 20
0
  3
s16
  1

  0
CIRCLE
  5
171
100
AcDbEntity
  8
Основний
  6
CONTINUOUS
 62
    7
370
   70
100
AcDbCircle
 10
167.5
 20
165.75
 40
0.75
  0
LINE
  5
172
100
AcDbEntity
  8
Основний
  6
CONTINUOUS
 62
    7
370
   70
100
AcDbLine
 10
167.5
 20
165
 11
167.5
 21
163.5
  0
LINE
  5
173
100
AcDbEntity
  8
Основний
  6
CONTINUOUS
 62
    7
370
   70
100
AcDbLine
 10
167.5
 20
162
 11
167.5
 21
160.5
  0
LINE
  5
174
100
AcDbEntity
  8
Основний
  6
CONTINUOUS
 62
    7
370
   70
100
AcDbLine
 10
167.5
 20
159
 11
167.5
 21
158.27
  0
LINE
  5
175
100
AcDbEntity
  8
Основний
  6
CONTINUOUS
 62
    7
370
   70
100
AcDbLine
 10
164.5
 20
160
 11
160
 21
160
  0
LINE
  5
176
100
AcDbEntity
  8
Основний
  6
CONTINUOUS
 62
    7
370
   70
100
AcDbLine
 10
175
 20
160
 11
170.5
 21
160
  0
LINE
  5
177
100
AcDbEntity
  8
Основний
  6
CONTINUOUS
 62
    7
370
   70
100
AcDbLine
 10
164.5
 20
160
 11
171.5
 21
155.96
  0
LINE
  5
178
100
AcDbEntity
  8
Основний
  6
CONTINUOUS
 62
    7
370
   70
100
AcDbLine
 10
170.5
 20
156
 11
170.5
 21
160
  0
POINT
  5
179
100
AcDbEntity
  8
Основний
  6
CONTINUOUS
 62
    7
370
   70
100
AcDbPoint
 10
160
 20
160
  0
POINT
  5
17A
100
AcDbEntity
  8
Основний
  6
CONTINUOUS
 62
    7
370
   70
100
AcDbPoint
 10
175
 20
160
  0
ENDBLK
  5
78
330
76
100
AcDbEntity
  8
0
100
AcDbBlockEnd
  0
BLOCK
  5
7A
330
79
100
AcDbEntity
  8
0
100
AcDbBlockBegin
  2
r6
 70
    0
 10
0
 20
0
  3
r6
  1

  0
LINE
  5
17B
100
AcDbEntity
  8
Силові ланцюги
  6
ByLayer
 62
  256
370
   -1
100
AcDbLine
 10
4.5
 20
6.000000000000007
 11
10.5
 21
6.000000000000007
  0
LINE
  5
17C
100
AcDbEntity
  8
Силові ланцюги
  6
ByLayer
 62
  256
370
   -1
100
AcDbLine
 10
4.5
 20
-6
 11
10.5
 21
-6
  0
LINE
  5
17D
100
AcDbEntity
  8
Силові ланцюги
  6
ByLayer
 62
  256
370
   -1
100
AcDbLine
 10
10.5
 20
-6
 11
10.5
 21
6.000000000000007
  0
LINE
  5
17E
100
AcDbEntity
  8
Силові ланцюги
  6
ByLayer
 62
  256
370
   -1
100
AcDbLine
 10
4.5
 20
6.000000000000007
 11
4.5
 21
-6
  0
LINE
  5
17F
100
AcDbEntity
  8
Силові ланцюги
  6
ByLayer
 62
  256
370
   -1
100
AcDbLine
 10
15
 20
0
 11
9
 21
0
  0
LINE
  5
180
100
AcDbEntity
  8
Силові ланцюги
  6
ByLayer
 62
  256
370
   -1
100
AcDbLine
 10
9
 20
0
 11
9
 21
3.000000000000007
  0
LINE
  5
181
100
AcDbEntity
  8
Силові ланцюги
  6
ByLayer
 62
  256
370
   -1
100
AcDbLine
 10
9
 20
3.000000000000007
 11
6
 21
3.000000000000007
  0
LINE
  5
182
100
AcDbEntity
  8
Силові ланцюги
  6
ByLayer
 62
  256
370
   -1
100
AcDbLine
 10
6
 20
3.000000000000007
 11
6
 21
0
  0
LINE
  5
183
100
AcDbEntity
  8
Силові ланцюги
  6
ByLayer
 62
  256
370
   -1
100
AcDbLine
 10
6
 20
0
 11
0
 21
0
  0
POINT
  5
184
100
AcDbEntity
  8
Силові ланцюги
  6
ByLayer
 62
  256
370
   -1
100
AcDbPoint
 10
0
 20
0
  0
POINT
  5
185
100
AcDbEntity
  8
Силові ланцюги
  6
ByLayer
 62
  256
370
   -1
100
AcDbPoint
 10
15
 20
0
  0
ENDBLK
  5
7B
330
79
100
AcDbEntity
  8
0
100
AcDbBlockEnd
  0
BLOCK
  5
7D
330
7C
100
AcDbEntity
  8
0
100
AcDbBlockBegin
  2
r6-0
 70
    0
 10
0
 20
0
  3
r6-0
  1

  0
LINE
  5
186
100
AcDbEntity
  8
Силові ланцюги
  6
ByLayer
 62
  256
370
   -1
100
AcDbLine
 10
4.5
 20
6.000000000000007
 11
10.5
 21
6.000000000000007
  0
LINE
  5
187
100
AcDbEntity
  8
Силові ланцюги
  6
ByLayer
 62
  256
370
   -1
100
AcDbLine
 10
4.5
 20
-6
 11
10.5
 21
-6
  0
LINE
  5
188
100
AcDbEntity
  8
Силові ланцюги
  6
ByLayer
 62
  256
370
   -1
100
AcDbLine
 10
10.5
 20
-6
 11
10.5
 21
6.000000000000007
  0
LINE
  5
189
100
AcDbEntity
  8
Силові ланцюги
  6
ByLayer
 62
  256
370
   -1
100
AcDbLine
 10
4.5
 20
6.000000000000007
 11
4.5
 21
-6
  0
LINE
  5
18A
100
AcDbEntity
  8
Силові ланцюги
  6
ByLayer
 62
  256
370
   -1
100
AcDbLine
 10
15
 20
0
 11
9
 21
0
  0
LINE
  5
18B
100
AcDbEntity
  8
Силові ланцюги
  6
ByLayer
 62
  256
370
   -1
100
AcDbLine
 10
9
 20
0
 11
9
 21
3.000000000000007
  0
LINE
  5
18C
100
AcDbEntity
  8
Силові ланцюги
  6
ByLayer
 62
  256
370
   -1
100
AcDbLine
 10
9
 20
3.000000000000007
 11
6
 21
3.000000000000007
  0
LINE
  5
18D
100
AcDbEntity
  8
Силові ланцюги
  6
ByLayer
 62
  256
370
   -1
100
AcDbLine
 10
6
 20
3.000000000000007
 11
6
 21
0
  0
LINE
  5
18E
100
AcDbEntity
  8
Силові ланцюги
  6
ByLayer
 62
  256
370
   -1
100
AcDbLine
 10
6
 20
0
 11
0
 21
0
  0
POINT
  5
18F
100
AcDbEntity
  8
Силові ланцюги
  6
ByLayer
 62
  256
370
   -1
100
AcDbPoint
 10
0
 20
0
  0
POINT
  5
190
100
AcDbEntity
  8
Силові ланцюги
  6
ByLayer
 62
  256
370
   -1
100
AcDbPoint
 10
15
 20
0
  0
ENDBLK
  5
7E
330
7C
100
AcDbEntity
  8
0
100
AcDbBlockEnd
  0
BLOCK
  5
80
330
7F
100
AcDbEntity
  8
0
100
AcDbBlockBegin
  2
s12
 70
    0
 10
0
 20
0
  3
s12
  1

  0
CIRCLE
  5
191
100
AcDbEntity
  8
Основний
  6
ByLayer
 62
  256
370
   -1
100
AcDbCircle
 10
10.5
 20
-4.75
 40
0.75
  0
LINE
  5
192
100
AcDbEntity
  8
Основний
  6
ByLayer
 62
  256
370
   -1
100
AcDbLine
 10
4.5
 20
0
 11
0
 21
0
  0
LINE
  5
193
100
AcDbEntity
  8
Основний
  6
ByLayer
 62
  256
370
   -1
100
AcDbLine
 10
15
 20
0
 11
10.5
 21
0
  0
LINE
  5
194
100
AcDbEntity
  8
Основний
  6
ByLayer
 62
  256
370
   -1
100
AcDbLine
 10
4.5
 20
0
 11
11.5
 21
-4.039999999999992
  0
LINE
  5
195
100
AcDbEntity
  8
Основний
  6
ByLayer
 62
  256
370
   -1
100
AcDbLine
 10
10.5
 20
-4
 11
10.5
 21
0
  0
POINT
  5
196
100
AcDbEntity
  8
Основний
  6
ByLayer
 62
  256
370
   -1
100
AcDbPoint
 10
0
 20
0
  0
POINT
  5
197
100
AcDbEntity
  8
Основний
  6
ByLayer
 62
  256
370
   -1
100
AcDbPoint
 10
15
 20
0
  0
LINE
  5
198
100
AcDbEntity
  8
Основний
  6
ByLayer
 62
  256
370
   -1
100
AcDbLine
 10
4.500000000000002
 20
-11.4
 11
10.5
 21
-11.4
  0
LINE
  5
199
100
AcDbEntity
  8
Основний
  6
ByLayer
 62
  256
370
   -1
100
AcDbLine
 10
4.500000000000002
 20
-11.4
 11
4.5
 21
-9.4
  0
LINE
  5
19A
100
AcDbEntity
  8
Основний
  6
ByLayer
 62
  256
370
   -1
100
AcDbLine
 10
10.5
 20
-11.4
 11
10.5
 21
-9.4
  0
LINE
  5
19B
100
AcDbEntity
  8
Основний
  6
ByLayer
 62
  256
370
   -1
100
AcDbLine
 10
7.5
 20
-1.670000000000011
 11
7.5
 21
-2.400000000000001
  0
LINE
  5
19C
100
AcDbEntity
  8
Основний
  6
ByLayer
 62
  256
370
   -1
100
AcDbLine
 10
7.5
 20
-3.9
 11
7.5
 21
-4.9
  0
LINE
  5
19D
100
AcDbEntity
  8
Основний
  6
ByLayer
 62
  256
370
   -1
100
AcDbLine
 10
7.500000000000001
 20
-7.4
 11
7.500000000000001
 21
-8.4
  0
LINE
  5
19E
100
AcDbEntity
  8
Основний
  6
ByLayer
 62
  256
370
   -1
100
AcDbLine
 10
7.500000000000001
 20
-9.899999999999999
 11
7.500000000000001
 21
-11.4
  0
LINE
  5
19F
100
AcDbEntity
  8
Основний
  6
ByLayer
 62
  256
370
   -1
100
AcDbLine
 10
7.500000000000001
 20
-7.4
 11
4.5
 21
-6.15
  0
LINE
  5
1A0
100
AcDbEntity
  8
Основний
  6
ByLayer
 62
  256
370
   -1
100
AcDbLine
 10
7.5
 20
-4.9
 11
4.5
 21
-6.15
  0
ENDBLK
  5
81
330
7F
100
AcDbEntity
  8
0
100
AcDbBlockEnd
  0
BLOCK
  5
83
330
82
100
AcDbEntity
  8
0
100
AcDbBlockBegin
  2
s9
 70
    0
 10
0
 20
0
  3
s9
  1

  0
LINE
  5
1A1
100
AcDbEntity
  8
Основний
  6
ByLayer
 62
  256
370
   -1
100
AcDbLine
 10
4.5
 20
5
 11
10.5
 21
5
  0
LINE
  5
1A2
100
AcDbEntity
  8
Основний
  6
ByLayer
 62
  256
370
   -1
100
AcDbLine
 10
4.5
 20
5
 11
4.5
 21
3
  0
LINE
  5
1A3
100
AcDbEntity
  8
Основний
  6
ByLayer
 62
  256
370
   -1
100
AcDbLine
 10
10.5
 20
5
 11
10.5
 21
3
  0
LINE
  5
1A4
100
AcDbEntity
  8
Основний
  6
ByLayer
 62
  256
370
   -1
100
AcDbLine
 10
7.5
 20
5
 11
7.5
 21
3.5
  0
LINE
  5
1A5
100
AcDbEntity
  8
Основний
  6
ByLayer
 62
  256
370
   -1
100
AcDbLine
 10
7.5
 20
2
 11
7.5
 21
0.5
  0
LINE
  5
1A6
100
AcDbEntity
  8
Основний
  6
ByLayer
 62
  256
370
   -1
100
AcDbLine
 10
7.5
 20
-1
 11
7.5
 21
-1.730000000000004
  0
LINE
  5
1A7
100
AcDbEntity
  8
Основний
  6
ByLayer
 62
  256
370
   -1
100
AcDbLine
 10
4.5
 20
0
 11
0
 21
0
  0
LINE
  5
1A8
100
AcDbEntity
  8
Основний
  6
ByLayer
 62
  256
370
   -1
100
AcDbLine
 10
15
 20
0
 11
10.5
 21
0
  0
LINE
  5
1A9
100
AcDbEntity
  8
Основний
  6
ByLayer
 62
  256
370
   -1
100
AcDbLine
 10
4.5
 20
0
 11
11.5
 21
-4.040000000000013
  0
LINE
  5
1AA
100
AcDbEntity
  8
Основний
  6
ByLayer
 62
  256
370
   -1
100
AcDbLine
 10
10.5
 20
-4.000000000000007
 11
10.5
 21
0
  0
POINT
  5
1AB
100
AcDbEntity
  8
Основний
  6
ByLayer
 62
  256
370
   -1
100
AcDbPoint
 10
0
 20
0
  0
POINT
  5
1AC
100
AcDbEntity
  8
Основний
  6
ByLayer
 62
  256
370
   -1
100
AcDbPoint
 10
15
 20
0
  0
ENDBLK
  5
84
330
82
100
AcDbEntity
  8
0
100
AcDbBlockEnd
  0
BLOCK
  5
86
330
85
100
AcDbEntity
  8
0
100
AcDbBlockBegin
  2
Контакт з механічним поверненням
 70
    0
 10
0
 20
0
  3
Контакт з механічним поверненням
  1

  0
INSERT
  5
1AD
100
AcDbEntity
  8
0
  6
ByLayer
 62
  256
370
   -1
100
AcDbBlockReference
  2
насосна_станція-1
 10
0
 20
0
 30
0
 41
1
 42
1
 43
0
 50
0
 70
    1
 71
    1
 44
0
 45
0
  0
ENDBLK
  5
87
330
85
100
AcDbEntity
  8
0
100
AcDbBlockEnd
  0
BLOCK
  5
89
330
88
100
AcDbEntity
  8
0
100
AcDbBlockBegin
  2
насосна_станція-1
 70
    0
 10
0
 20
0
  3
насосна_станція-1
  1

  0
LINE
  5
1AE
100
AcDbEntity
  8
Конструкційний
  6
ByLayer
 62
  256
370
   -1
100
AcDbLine
 10
10
 20
30
 11
10
 21
35
  0
LINE
  5
1AF
100
AcDbEntity
  8
Конструкційний
  6
ByLayer
 62
  256
370
   -1
100
AcDbLine
 10
20
 20
30
 11
20
 21
35
  0
LINE
  5
1B0
100
AcDbEntity
  8
Конструкційний
  6
ByLayer
 62
  256
370
   -1
100
AcDbLine
 10
30
 20
30
 11
30
 21
35
  0
LINE
  5
1B1
100
AcDbEntity
  8
Конструкційний
  6
ByLayer
 62
  256
370
   -1
100
AcDbLine
 10
50
 20
90
 11
55
 21
90
  0
MTEXT
  5
1B2
100
AcDbEntity
  8
Позначення
  6
ByLayer
 62
  256
370
   -1
100
AcDbMText
 10
35
 20
75
 30
0
 40
4
 41
6.222222222222221
 71
    5
 72
    1
  1
KM
  7
unicode
210
0
220
0
230
1
 50
0
 73
    2
 44
1
  0
MTEXT
  5
1B3
100
AcDbEntity
  8
Позначення
  6
ByLayer
 62
  256
370
   -1
100
AcDbMText
 10
35
 20
108
 30
0
 40
4
 41
5.777777777777777
 71
    5
 72
    1
  1
QF
  7
unicode
210
0
220
0
230
1
 50
0
 73
    2
 44
1
  0
MTEXT
  5
1B4
100
AcDbEntity
  8
Позначення
  6
ByLayer
 62
  256
370
   -1
100
AcDbMText
 10
30
 20
128
 30
0
 40
4
 41
4.888888888888889
 71
    5
 72
    1
  1
L3
  7
unicode
210
0
220
0
230
1
 50
0
 73
    2
 44
1
  0
MTEXT
  5
1B5
100
AcDbEntity
  8
Позначення
  6
ByLayer
 62
  256
370
   -1
100
AcDbMText
 10
20
 20
128
 30
0
 40
4
 41
4.888888888888888
 71
    5
 72
    1
  1
L2
  7
unicode
210
0
220
0
230
1
 50
0
 73
    2
 44
1
  0
MTEXT
  5
1B6
100
AcDbEntity
  8
Позначення
  6
ByLayer
 62
  256
370
   -1
100
AcDbMText
 10
10
 20
128
 30
0
 40
4
 41
3.999999999999999
 71
    5
 72
    1
  1
L1
  7
unicode
210
0
220
0
230
1
 50
0
 73
    2
 44
1
  0
LINE
  5
1B7
100
AcDbEntity
  8
Силові ланцюги
  6
ByLayer
 62
  256
370
   -1
100
AcDbLine
 10
10
 20
124
 11
10
 21
115
  0
LINE
  5
1B8
100
AcDbEntity
  8
Силові ланцюги
  6
ByLayer
 62
  256
370
   -1
100
AcDbLine
 10
20
 20
124
 11
20
 21
115
  0
LINE
  5
1B9
100
AcDbEntity
  8
Силові ланцюги
  6
ByLayer
 62
  256
370
   -1
100
AcDbLine
 10
30
 20
124
 11
30
 21
115
  0
LINE
  5
1BA
100
AcDbEntity
  8
Силові ланцюги
  6
ByLayer
 62
  256
370
   -1
100
AcDbLine
 10
10
 20
100
 11
10
 21
82
  0
LINE
  5
1BB
100
AcDbEntity
  8
Силові ланцюги
  6
ByLayer
 62
  256
370
   -1
100
AcDbLine
 10
20
 20
100
 11
20
 21
82
  0
LINE
  5
1BC
100
AcDbEntity
  8
Силові ланцюги
  6
ByLayer
 62
  256
370
   -1
100
AcDbLine
 10
30
 20
100
 11
30
 21
82
  0
INSERT
  5
1BD
100
AcDbEntity
  8
Силові ланцюги
  6
ByLayer
 62
  256
370
   -1
100
AcDbBlockReference
  2
s_29_2-2
 10
0
 20
0
 30
0
 41
1
 42
1
 43
0
 50
0
 70
    1
 71
    1
 44
0
 45
0
  0
INSERT
  5
1BE
100
AcDbEntity
  8
Силові ланцюги
  6
ByLayer
 62
  256
370
   -1
100
AcDbBlockReference
  2
s3_v-1
 10
0
 20
0
 30
0
 41
1
 42
1
 43
0
 50
0
 70
    1
 71
    1
 44
0
 45
0
  0
INSERT
  5
1BF
100
AcDbEntity
  8
Силові ланцюги
  6
ByLayer
 62
  256
370
   -1
100
AcDbBlockReference
  2
m1-0
 10
0
 20
0
 30
0
 41
1
 42
1
 43
0
 50
0
 70
    1
 71
    1
 44
0
 45
0
  0
INSERT
  5
1C0
100
AcDbEntity
  8
Силові ланцюги
  6
ByLayer
 62
  256
370
   -1
100
AcDbBlockReference
  2
r6-1
 10
0
 20
0
 30
0
 41
1
 42
1
 43
0
 50
270
 70
    1
 71
    1
 44
0
 45
0
  0
INSERT
  5
1C1
100
AcDbEntity
  8
Силові ланцюги
  6
ByLayer
 62
  256
370
   -1
100
AcDbBlockReference
  2
r6-2
 10
0
 20
0
 30
0
 41
1
 42
1
 43
0
 50
270
 70
    1
 71
    1
 44
0
 45
0
  0
LINE
  5
1C2
100
AcDbEntity
  8
Силові ланцюги
  6
ByLayer
 62
  256
370
   -1
100
AcDbLine
 10
10
 20
67
 11
10
 21
60
  0
LINE
  5
1C3
100
AcDbEntity
  8
Силові ланцюги
  6
ByLayer
 62
  256
370
   -1
100
AcDbLine
 10
30
 20
67
 11
30
 21
60
  0
LINE
  5
1C4
100
AcDbEntity
  8
Силові ланцюги
  6
ByLayer
 62
  256
370
   -1
100
AcDbLine
 10
20
 20
67
 11
20
 21
30
  0
LINE
  5
1C5
100
AcDbEntity
  8
Силові ланцюги
  6
ByLayer
 62
  256
370
   -1
100
AcDbLine
 10
10
 20
45
 11
10
 21
30
  0
LINE
  5
1C6
100
AcDbEntity
  8
Силові ланцюги
  6
ByLayer
 62
  256
370
   -1
100
AcDbLine
 10
30
 20
45
 11
30
 21
30
  0
MTEXT
  5
1C7
100
AcDbEntity
  8
Позначення
  6
ByLayer
 62
  256
370
   -1
100
AcDbMText
 10
30
 20
10
 30
0
 40
4
 41
2.666666666666667
 71
    5
 72
    1
  1
M
  7
unicode
210
0
220
0
230
1
 50
0
 73
    2
 44
1
  0
INSERT
  5
1C8
100
AcDbEntity
  8
Основний
  6
ByLayer
 62
  256
370
   -1
100
AcDbBlockReference
  2
s29-0
 10
0
 20
0
 30
0
 41
1
 42
1
 43
0
 50
0
 70
    1
 71
    1
 44
0
 45
0
  0
INSERT
  5
1C9
100
AcDbEntity
  8
Основний
  6
ByLayer
 62
  256
370
   -1
100
AcDbBlockReference
  2
s1-2
 10
0
 20
0
 30
0
 41
1
 42
1
 43
0
 50
0
 70
    1
 71
    1
 44
0
 45
0
  0
INSERT
  5
1CA
100
AcDbEntity
  8
Основний
  6
ByLayer
 62
  256
370
   -1
100
AcDbBlockReference
  2
s1-3
 10
0
 20
0
 30
0
 41
1
 42
1
 43
0
 50
0
 70
    1
 71
    1
 44
0
 45
0
  0
INSERT
  5
1CB
100
AcDbEntity
  8
Основний
  6
ByLayer
 62
  256
370
   -1
100
AcDbBlockReference
  2
ln1-1
 10
0
 20
0
 30
0
 41
1
 42
1
 43
0
 50
0
 70
    1
 71
    1
 44
0
 45
0
  0
INSERT
  5
1CC
100
AcDbEntity
  8
Основний
  6
ByLayer
 62
  256
370
   -1
100
AcDbBlockReference
  2
ln1-2
 10
0
 20
0
 30
0
 41
1
 42
1
 43
0
 50
0
 70
    1
 71
    1
 44
0
 45
0
  0
INSERT
  5
1CD
100
AcDbEntity
  8
Основний
  6
ByLayer
 62
  256
370
   -1
100
AcDbBlockReference
  2
r1-0
 10
0
 20
0
 30
0
 41
1
 42
1
 43
0
 50
0
 70
    1
 71
    1
 44
0
 45
0
  0
INSERT
  5
1CE
100
AcDbEntity
  8
Основний
  6
ByLayer
 62
  256
370
   -1
100
AcDbBlockReference
  2
s16-0
 10
0
 20
0
 30
0
 41
1
 42
1
 43
0
 50
0
 70
    1
 71
    1
 44
0
 45
0
  0
LINE
  5
1CF
100
AcDbEntity
  8
Основний
  6
ByLayer
 62
  256
370
   -1
100
AcDbLine
 10
140
 20
90
 11
152
 21
90
  0
LINE
  5
1D0
100
AcDbEntity
  8
Основний
  6
ByLayer
 62
  256
370
   -1
100
AcDbLine
 10
167
 20
90
 11
171
 21
90
  0
LINE
  5
1D1
100
AcDbEntity
  8
Основний
  6
ByLayer
 62
  256
370
   -1
100
AcDbLine
 10
167
 20
70
 11
171
 21
70
  0
LINE
  5
1D2
100
AcDbEntity
  8
Основний
  6
ByLayer
 62
  256
370
   -1
100
AcDbLine
 10
167
 20
50
 11
190
 21
50
  0
LINE
  5
1D3
100
AcDbEntity
  8
Основний
  6
ByLayer
 62
  256
370
   -1
100
AcDbLine
 10
215
 20
50
 11
215
 21
123
  0
LINE
  5
1D4
100
AcDbEntity
  8
Основний
  6
ByLayer
 62
  256
370
   -1
100
AcDbLine
 10
145
 20
90
 11
145
 21
50
  0
LINE
  5
1D5
100
AcDbEntity
  8
Основний
  6
ByLayer
 62
  256
370
   -1
100
AcDbLine
 10
145
 20
50
 11
152
 21
50
  0
LINE
  5
1D6
100
AcDbEntity
  8
Основний
  6
ByLayer
 62
  256
370
   -1
100
AcDbLine
 10
145
 20
70
 11
152
 21
70
  0
LINE
  5
1D7
100
AcDbEntity
  8
Основний
  6
ByLayer
 62
  256
370
   -1
100
AcDbLine
 10
186
 20
90
 11
188
 21
90
  0
LINE
  5
1D8
100
AcDbEntity
  8
Основний
  6
ByLayer
 62
  256
370
   -1
100
AcDbLine
 10
205
 20
70
 11
215
 21
70
  0
LINE
  5
1D9
100
AcDbEntity
  8
Основний
  6
ByLayer
 62
  256
370
   -1
100
AcDbLine
 10
205
 20
50
 11
215
 21
50
  0
LINE
  5
1DA
100
AcDbEntity
  8
Основний
  6
ByLayer
 62
  256
370
   -1
100
AcDbLine
 10
186
 20
70
 11
186
 21
90
  0
LINE
  5
1DB
100
AcDbEntity
  8
Основний
  6
ByLayer
 62
  256
370
   -1
100
AcDbLine
 10
186
 20
70
 11
186
 21
70
  0
LINE
  5
1DC
100
AcDbEntity
  8
Основний
  6
CONTINUOUS
 62
  256
370
   70
100
AcDbLine
 10
190
 20
70
 11
190
 21
50
  0
MTEXT
  5
1DD
100
AcDbEntity
  8
Позначення
  6
ByLayer
 62
  256
370
   -1
100
AcDbMText
 10
159
 20
94
 30
0
 40
4
 41
6.222222222222221
 71
    5
 72
    1
  1
KM
  7
unicode
210
0
220
0
230
1
 50
0
 73
    2
 44
1
  0
MTEXT
  5
1DE
100
AcDbEntity
  8
Позначення
  6
ByLayer
 62
  256
370
   -1
100
AcDbMText
 10
159
 20
77
 30
0
 40
4
 41
6.222222222222221
 71
    5
 72
    1
  1
KM
  7
unicode
210
0
220
0
230
1
 50
0
 73
    2
 44
1
  0
MTEXT
  5
1DF
100
AcDbEntity
  8
Позначення
  6
ByLayer
 62
  256
370
   -1
100
AcDbMText
 10
167
 20
55
 30
0
 40
4
 41
6.222222222222221
 71
    5
 72
    1
  1
KM
  7
unicode
210
0
220
0
230
1
 50
0
 73
    2
 44
1
  0
MTEXT
  5
1E0
100
AcDbEntity
  8
Позначення
  6
ByLayer
 62
  256
370
   -1
100
AcDbMText
 10
211
 20
121
 30
0
 40
4
 41
2.222222222222222
 71
    5
 72
    1
  1
N
  7
unicode
210
0
220
0
230
1
 50
0
 73
    2
 44
1
  0
MTEXT
  5
1E1
100
AcDbEntity
  8
Позначення
  6
ByLayer
 62
  256
370
   -1
100
AcDbMText
 10
178.5
 20
97
 30
0
 40
4
 41
7.555555555555555
 71
    5
 72
    1
  1
HL1
  7
unicode
210
0
220
0
230
1
 50
0
 73
    2
 44
1
  0
MTEXT
  5
1E2
100
AcDbEntity
  8
Позначення
  6
ByLayer
 62
  256
370
   -1
100
AcDbMText
 10
178
 20
78
 30
0
 40
4
 41
8.444444444444443
 71
    5
 72
    1
  1
HL2
  7
unicode
210
0
220
0
230
1
 50
0
 73
    2
 44
1
  0
MTEXT
  5
1E3
100
AcDbEntity
  8
Позначення
  6
ByLayer
 62
  256
370
   -1
100
AcDbMText
 10
198
 20
77
 30
0
 40
4
 41
6.227027964891866
 71
    5
 72
    1
  1
SA
  7
unicode
210
0
220
0
230
1
 50
0
 73
    2
 44
1
  0
MTEXT
  5
1E4
100
AcDbEntity
  8
Позначення
  6
ByLayer
 62
  256
370
   -1
100
AcDbMText
 10
203
 20
55
 30
0
 40
4
 41
5.782583520447423
 71
    5
 72
    1
  1
SP
  7
unicode
210
0
220
0
230
1
 50
0
 73
    2
 44
1
  0
CIRCLE
  5
1E5
100
AcDbEntity
  8
Основний
  6
ByLayer
 62
  256
370
   -1
100
AcDbCircle
 10
145
 20
90
 40
0.6403124237432751
  0
CIRCLE
  5
1E6
100
AcDbEntity
  8
Основний
  6
ByLayer
 62
  256
370
   -1
100
AcDbCircle
 10
145.1
 20
70
 40
0.6403124237432751
  0
CIRCLE
  5
1E7
100
AcDbEntity
  8
Основний
  6
ByLayer
 62
  256
370
   -1
100
AcDbCircle
 10
186
 20
90
 40
0.6403124237432751
  0
CIRCLE
  5
1E8
100
AcDbEntity
  8
Основний
  6
ByLayer
 62
  256
370
   -1
100
AcDbCircle
 10
214.9
 20
90
 40
0.6403124237432751
  0
CIRCLE
  5
1E9
100
AcDbEntity
  8
Основний
  6
ByLayer
 62
  256
370
   -1
100
AcDbCircle
 10
215
 20
70
 40
0.6403124237432751
  0
CIRCLE
  5
1EA
100
AcDbEntity
  8
Основний
  6
ByLayer
 62
  256
370
   -1
100
AcDbCircle
 10
190
 20
50
 40
0.6403124237432751
  0
LINE
  5
1EB
100
AcDbEntity
  8
Основний
  6
ByLayer
 62
  256
370
   -1
100
AcDbLine
 10
188
 20
90
 11
215
 21
90
  0
LINE
  5
1EC
100
AcDbEntity
  8
Конструкційний
  6
ByLayer
 62
  256
370
   -1
100
AcDbLine
 10
40
 20
100
 11
45
 21
100
  0
INSERT
  5
1ED
100
AcDbEntity
  8
Основний
  6
ByLayer
 62
  256
370
   -1
100
AcDbBlockReference
  2
s12-0
 10
0
 20
0
 30
0
 41
1
 42
1
 43
0
 50
0
 70
    1
 71
    1
 44
0
 45
0
  0
INSERT
  5
1EE
100
AcDbEntity
  8
Основний
  6
ByLayer
 62
  256
370
   -1
100
AcDbBlockReference
  2
s9-0
 10
0
 20
0
 30
0
 41
1
 42
1
 43
0
 50
0
 70
    1
 71
    1
 44
0
 45
0
  0
LINE
  5
1EF
100
AcDbEntity
  8
Основний
  6
ByLayer
 62
  256
370
   -1
100
AcDbLine
 10
20
 20
100
 11
60
 21
100
  0
LINE
  5
1F0
100
AcDbEntity
  8
Основний
  6
ByLayer
 62
  256
370
   -1
100
AcDbLine
 10
30
 20
90
 11
48
 21
90
  0
LINE
  5
1F1
100
AcDbEntity
  8
Основний
  6
ByLayer
 62
  256
370
   -1
100
AcDbLine
 10
48
 20
90
 11
48
 21
70
  0
LINE
  5
1F2
100
AcDbEntity
  8
Основний
  6
ByLayer
 62
  256
370
   -1
100
AcDbLine
 10
48
 20
70
 11
60
 21
70
  0
ENDBLK
  5
8A
330
88
100
AcDbEntity
  8
0
100
AcDbBlockEnd
  0
BLOCK
  5
8C
330
8B
100
AcDbEntity
  8
0
100
AcDbBlockBegin
  2
s_29_2-2
 70
    0
 10
0
 20
0
  3
s_29_2-2
  1

  0
LINE
  5
1F3
100
AcDbEntity
  8
Силові ланцюги
  6
ByLayer
 62
  256
370
   -1
100
AcDbLine
 10
8.849999999999973
 20
106.5
 11
7.119999999999997
 21
105.5
  0
LINE
  5
1F4
100
AcDbEntity
  8
Силові ланцюги
  6
ByLayer
 62
  256
370
   -1
100
AcDbLine
 10
7.689999999999998
 20
108.5
 11
5.95999999999998
 21
107.5
  0
LINE
  5
1F5
100
AcDbEntity
  8
Силові ланцюги
  6
ByLayer
 62
  256
370
   -1
100
AcDbLine
 10
7.119999999999997
 20
105.5
 11
5.95999999999998
 21
107.5
  0
LINE
  5
1F6
100
AcDbEntity
  8
Силові ланцюги
  6
ByLayer
 62
  256
370
   -1
100
AcDbLine
 10
10
 20
103.75
 11
10
 21
100
  0
LINE
  5
1F7
100
AcDbEntity
  8
Силові ланцюги
  6
ByLayer
 62
  256
370
   -1
100
AcDbLine
 10
10
 20
115
 11
10
 21
110.5
  0
LINE
  5
1F8
100
AcDbEntity
  8
Силові ланцюги
  6
ByLayer
 62
  256
370
   -1
100
AcDbLine
 10
9.625333157522498
 20
105.1497112875331
 11
6.54000000000002
 21
110.5
  0
LINE
  5
1F9
100
AcDbEntity
  8
Силові ланцюги
  6
ByLayer
 62
  256
370
   -1
100
AcDbLine
 10
20
 20
103.75
 11
20
 21
100
  0
LINE
  5
1FA
100
AcDbEntity
  8
Силові ланцюги
  6
ByLayer
 62
  256
370
   -1
100
AcDbLine
 10
20
 20
115
 11
20
 21
110.5
  0
LINE
  5
1FB
100
AcDbEntity
  8
Силові ланцюги
  6
ByLayer
 62
  256
370
   -1
100
AcDbLine
 10
19.6253331575225
 20
105.1497112875331
 11
16.54000000000002
 21
110.5
  0
LINE
  5
1FC
100
AcDbEntity
  8
Силові ланцюги
  6
ByLayer
 62
  256
370
   -1
100
AcDbLine
 10
30
 20
103.75
 11
30
 21
100
  0
LINE
  5
1FD
100
AcDbEntity
  8
Силові ланцюги
  6
ByLayer
 62
  256
370
   -1
100
AcDbLine
 10
30
 20
115
 11
30
 21
110.5
  0
LINE
  5
1FE
100
AcDbEntity
  8
Силові ланцюги
  6
ByLayer
 62
  256
370
   -1
100
AcDbLine
 10
29.6253331575225
 20
105.1497112875331
 11
26.54000000000002
 21
110.5
  0
LINE
  5
1FF
100
AcDbEntity
  8
Силові ланцюги
  6
ByLayer
 62
  256
370
   -1
100
AcDbLine
 10
7.689999999999998
 20
108.5
 11
27.69333333333327
 21
108.5
  0
LINE
  5
200
100
AcDbEntity
  8
Силові ланцюги
  6
ByLayer
 62
  256
370
   -1
100
AcDbLine
 10
8.849999999999973
 20
106.5
 11
28.84666666666658
 21
106.5
  0
CIRCLE
  5
201
100
AcDbEntity
  8
Силові ланцюги
  6
ByLayer
 62
  256
370
   -1
100
AcDbCircle
 10
10
 20
104.5
 40
0.75
  0
CIRCLE
  5
202
100
AcDbEntity
  8
Силові ланцюги
  6
ByLayer
 62
  256
370
   -1
100
AcDbCircle
 10
20
 20
104.5
 40
0.75
  0
CIRCLE
  5
203
100
AcDbEntity
  8
Силові ланцюги
  6
ByLayer
 62
  256
370
   -1
100
AcDbCircle
 10
30
 20
104.5
 40
0.75
  0
ARC
  5
204
100
AcDbEntity
  8
Силові ланцюги
  6
ByLayer
 62
  256
370
   -1
100
AcDbCircle
 10
20.0288
 20
111.25
 40
0.850488
100
AcDbArc
 50
91.9415
 51
268.059
  0
ARC
  5
205
100
AcDbEntity
  8
Силові ланцюги
  6
ByLayer
 62
  256
370
   -1
100
AcDbCircle
 10
10.0288136
 20
111.25
 40
0.850488
100
AcDbArc
 50
91.9415
 51
268.059
  0
ARC
  5
206
100
AcDbEntity
  8
Силові ланцюги
  6
ByLayer
 62
  256
370
   -1
100
AcDbCircle
 10
30.0288
 20
111.25
 40
0.850488
100
AcDbArc
 50
91.9415
 51
268.059
  0
ENDBLK
  5
8D
330
8B
100
AcDbEntity
  8
0
100
AcDbBlockEnd
  0
BLOCK
  5
8F
330
8E
100
AcDbEntity
  8
0
100
AcDbBlockBegin
  2
s3_v-1
 70
    0
 10
0
 20
0
  3
s3_v-1
  1

  0
LINE
  5
207
100
AcDbEntity
  8
Силові ланцюги
  6
ByLayer
 62
  256
370
   -1
100
AcDbLine
 10
10
 20
71.5
 11
10
 21
67
  0
LINE
  5
208
100
AcDbEntity
  8
Силові ланцюги
  6
ByLayer
 62
  256
370
   -1
100
AcDbLine
 10
10
 20
82
 11
10
 21
77.5
  0
LINE
  5
209
100
AcDbEntity
  8
Силові ланцюги
  6
ByLayer
 62
  256
370
   -1
100
AcDbLine
 10
10
 20
71.5
 11
6.539999999999999
 21
77.5
  0
POINT
  5
20A
100
AcDbEntity
  8
Силові ланцюги
  6
ByLayer
 62
  256
370
   -1
100
AcDbPoint
 10
10
 20
67
  0
POINT
  5
20B
100
AcDbEntity
  8
Силові ланцюги
  6
ByLayer
 62
  256
370
   -1
100
AcDbPoint
 10
10
 20
82
  0
ELLIPSE
  5
20C
100
AcDbEntity
  8
Силові ланцюги
  6
ByLayer
 62
  256
370
   -1
100
AcDbEllipse
 10
9.700000000000003
 20
78.80000000000001
 30
0
 11
-2.204291436880279e-16
 21
-1.2
 31
0
 40
0.8333333333333334
 41
3.141592653589793
 42
0
  0
LINE
  5
20D
100
AcDbEntity
  8
Силові ланцюги
  6
ByLayer
 62
  256
370
   -1
100
AcDbLine
 10
20
 20
71.5
 11
20
 21
67
  0
LINE
  5
20E
100
AcDbEntity
  8
Силові ланцюги
  6
ByLayer
 62
  256
370
   -1
100
AcDbLine
 10
20
 20
82
 11
20
 21
77.5
  0
LINE
  5
20F
100
AcDbEntity
  8
Силові ланцюги
  6
ByLayer
 62
  256
370
   -1
100
AcDbLine
 10
20
 20
71.5
 11
16.54
 21
77.5
  0
POINT
  5
210
100
AcDbEntity
  8
Силові ланцюги
  6
ByLayer
 62
  256
370
   -1
100
AcDbPoint
 10
20
 20
67
  0
POINT
  5
211
100
AcDbEntity
  8
Силові ланцюги
  6
ByLayer
 62
  256
370
   -1
100
AcDbPoint
 10
20
 20
82
  0
ELLIPSE
  5
212
100
AcDbEntity
  8
Силові ланцюги
  6
ByLayer
 62
  256
370
   -1
100
AcDbEllipse
 10
19.7
 20
78.80000000000001
 30
0
 11
-2.204291436880279e-16
 21
-1.2
 31
0
 40
0.8333333333333334
 41
3.141592653589793
 42
0
  0
LINE
  5
213
100
AcDbEntity
  8
Силові ланцюги
  6
ByLayer
 62
  256
370
   -1
100
AcDbLine
 10
30
 20
71.5
 11
30
 21
67
  0
LINE
  5
214
100
AcDbEntity
  8
Силові ланцюги
  6
ByLayer
 62
  256
370
   -1
100
AcDbLine
 10
30
 20
82
 11
30
 21
77.5
  0
LINE
  5
215
100
AcDbEntity
  8
Силові ланцюги
  6
ByLayer
 62
  256
370
   -1
100
AcDbLine
 10
30
 20
71.5
 11
26.53999999999999
 21
77.5
  0
POINT
  5
216
100
AcDbEntity
  8
Силові ланцюги
  6
ByLayer
 62
  256
370
   -1
100
AcDbPoint
 10
30
 20
67
  0
POINT
  5
217
100
AcDbEntity
  8
Силові ланцюги
  6
ByLayer
 62
  256
370
   -1
100
AcDbPoint
 10
30
 20
82
  0
ELLIPSE
  5
218
100
AcDbEntity
  8
Силові ланцюги
  6
ByLayer
 62
  256
370
   -1
100
AcDbEllipse
 10
29.7
 20
78.80000000000001
 30
0
 11
-2.204291436880279e-16
 21
-1.2
 31
0
 40
0.8333333333333334
 41
3.141592653589793
 42
0
  0
LINE
  5
219
100
AcDbEntity
  8
Силові ланцюги
  6
ByLayer
 62
  256
370
   -1
100
AcDbLine
 10
8.399999999999999
 20
74.30000000000001
 11
28.3
 21
74.30000000000001
  0
LINE
  5
21A
100
AcDbEntity
  8
Силові ланцюги
  6
ByLayer
 62
  256
370
   -1
100
AcDbLine
 10
7.799999999999997
 20
75.5
 11
27.7
 21
75.5
  0
ENDBLK
  5
90
330
8E
100
AcDbEntity
  8
0
100
AcDbBlockEnd
  0
BLOCK
  5
92
330
91
100
AcDbEntity
  8
0
100
AcDbBlockBegin
  2
m1-0
 70
    0
 10
0
 20
0
  3
m1-0
  1

  0
LINE
  5
21B
100
AcDbEntity
  8
Силові ланцюги
  6
ByLayer
 62
  256
370
   -1
100
AcDbLine
 10
30
 20
30
 11
30
 21
22.5
  0
LINE
  5
21C
100
AcDbEntity
  8
Силові ланцюги
  6
ByLayer
 62
  256
370
   -1
100
AcDbLine
 10
30
 20
22.5
 11
24.66000000000014
 21
18.36000000000001
  0
LINE
  5
21D
100
AcDbEntity
  8
Силові ланцюги
  6
ByLayer
 62
  256
370
   -1
100
AcDbLine
 10
20
 20
30
 11
20
 21
20.5
  0
LINE
  5
21E
100
AcDbEntity
  8
Силові ланцюги
  6
ByLayer
 62
  256
370
   -1
100
AcDbLine
 10
15.34000000000003
 20
18.36000000000001
 11
10
 21
22.5
  0
LINE
  5
21F
100
AcDbEntity
  8
Силові ланцюги
  6
ByLayer
 62
  256
370
   -1
100
AcDbLine
 10
10
 20
22.5
 11
10
 21
30
  0
CIRCLE
  5
220
100
AcDbEntity
  8
Силові ланцюги
  6
ByLayer
 62
  256
370
   -1
100
AcDbCircle
 10
20
 20
14.5
 40
3.5
  0
CIRCLE
  5
221
100
AcDbEntity
  8
Силові ланцюги
  6
ByLayer
 62
  256
370
   -1
100
AcDbCircle
 10
20
 20
14.5
 40
6
  0
POINT
  5
222
100
AcDbEntity
  8
Силові ланцюги
  6
ByLayer
 62
  256
370
   -1
100
AcDbPoint
 10
10
 20
30
  0
POINT
  5
223
100
AcDbEntity
  8
Силові ланцюги
  6
ByLayer
 62
  256
370
   -1
100
AcDbPoint
 10
20
 20
30
  0
POINT
  5
224
100
AcDbEntity
  8
Силові ланцюги
  6
ByLayer
 62
  256
370
   -1
100
AcDbPoint
 10
30
 20
30
  0
ENDBLK
  5
93
330
91
100
AcDbEntity
  8
0
100
AcDbBlockEnd
  0
BLOCK
  5
95
330
94
100
AcDbEntity
  8
0
100
AcDbBlockBegin
  2
r6-1
 70
    0
 10
0
 20
0
  3
r6-1
  1

  0
LINE
  5
225
100
AcDbEntity
  8
Силові ланцюги
  6
ByLayer
 62
  256
370
   -1
100
AcDbLine
 10
16
 20
55.5
 11
16
 21
49.5
  0
LINE
  5
226
100
AcDbEntity
  8
Силові ланцюги
  6
ByLayer
 62
  256
370
   -1
100
AcDbLine
 10
3.999999999999999
 20
55.5
 11
3.999999999999998
 21
49.5
  0
LINE
  5
227
100
AcDbEntity
  8
Силові ланцюги
  6
ByLayer
 62
  256
370
   -1
100
AcDbLine
 10
3.999999999999998
 20
49.5
 11
16
 21
49.5
  0
LINE
  5
228
100
AcDbEntity
  8
Силові ланцюги
  6
ByLayer
 62
  256
370
   -1
100
AcDbLine
 10
16
 20
55.5
 11
3.999999999999999
 21
55.5
  0
LINE
  5
229
100
AcDbEntity
  8
Силові ланцюги
  6
ByLayer
 62
  256
370
   -1
100
AcDbLine
 10
9.999999999999996
 20
45
 11
9.999999999999998
 21
51
  0
LINE
  5
22A
100
AcDbEntity
  8
Силові ланцюги
  6
ByLayer
 62
  256
370
   -1
100
AcDbLine
 10
9.999999999999998
 20
51
 11
13.00000000000001
 21
51
  0
LINE
  5
22B
100
AcDbEntity
  8
Силові ланцюги
  6
ByLayer
 62
  256
370
   -1
100
AcDbLine
 10
13.00000000000001
 20
51
 11
13.00000000000001
 21
54
  0
LINE
  5
22C
100
AcDbEntity
  8
Силові ланцюги
  6
ByLayer
 62
  256
370
   -1
100
AcDbLine
 10
13.00000000000001
 20
54
 11
9.999999999999998
 21
54
  0
LINE
  5
22D
100
AcDbEntity
  8
Силові ланцюги
  6
ByLayer
 62
  256
370
   -1
100
AcDbLine
 10
9.999999999999998
 20
54
 11
10
 21
60
  0
POINT
  5
22E
100
AcDbEntity
  8
Силові ланцюги
  6
ByLayer
 62
  256
370
   -1
100
AcDbPoint
 10
10
 20
60
  0
POINT
  5
22F
100
AcDbEntity
  8
Силові ланцюги
  6
ByLayer
 62
  256
370
   -1
100
AcDbPoint
 10
9.999999999999996
 20
45
  0
ENDBLK
  5
96
330
94
100
AcDbEntity
  8
0
100
AcDbBlockEnd
  0
BLOCK
  5
98
330
97
100
AcDbEntity
  8
0
100
AcDbBlockBegin
  2
r6-2
 70
    0
 10
0
 20
0
  3
r6-2
  1

  0
LINE
  5
230
100
AcDbEntity
  8
Силові ланцюги
  6
ByLayer
 62
  256
370
   -1
100
AcDbLine
 10
36
 20
55.5
 11
36
 21
49.5
  0
LINE
  5
231
100
AcDbEntity
  8
Силові ланцюги
  6
ByLayer
 62
  256
370
   -1
100
AcDbLine
 10
24
 20
55.5
 11
24
 21
49.5
  0
LINE
  5
232
100
AcDbEntity
  8
Силові ланцюги
  6
ByLayer
 62
  256
370
   -1
100
AcDbLine
 10
24
 20
49.5
 11
36
 21
49.5
  0
LINE
  5
233
100
AcDbEntity
  8
Силові ланцюги
  6
ByLayer
 62
  256
370
   -1
100
AcDbLine
 10
36
 20
55.5
 11
24
 21
55.5
  0
LINE
  5
234
100
AcDbEntity
  8
Силові ланцюги
  6
ByLayer
 62
  256
370
   -1
100
AcDbLine
 10
30
 20
45
 11
30
 21
51
  0
LINE
  5
235
100
AcDbEntity
  8
Силові ланцюги
  6
ByLayer
 62
  256
370
   -1
100
AcDbLine
 10
30
 20
51
 11
33.00000000000001
 21
51
  0
LINE
  5
236
100
AcDbEntity
  8
Силові ланцюги
  6
ByLayer
 62
  256
370
   -1
100
AcDbLine
 10
33.00000000000001
 20
51
 11
33.00000000000001
 21
54
  0
LINE
  5
237
100
AcDbEntity
  8
Силові ланцюги
  6
ByLayer
 62
  256
370
   -1
100
AcDbLine
 10
33.00000000000001
 20
54
 11
30
 21
54
  0
LINE
  5
238
100
AcDbEntity
  8
Силові ланцюги
  6
ByLayer
 62
  256
370
   -1
100
AcDbLine
 10
30
 20
54
 11
30
 21
60
  0
POINT
  5
239
100
AcDbEntity
  8
Силові ланцюги
  6
ByLayer
 62
  256
370
   -1
100
AcDbPoint
 10
30
 20
60
  0
POINT
  5
23A
100
AcDbEntity
  8
Силові ланцюги
  6
ByLayer
 62
  256
370
   -1
100
AcDbPoint
 10
30
 20
45
  0
ENDBLK
  5
99
330
97
100
AcDbEntity
  8
0
100
AcDbBlockEnd
  0
BLOCK
  5
9B
330
9A
100
AcDbEntity
  8
0
100
AcDbBlockBegin
  2
s29-0
 70
    0
 10
0
 20
0
  3
s29-0
  1

  0
LINE
  5
23B
100
AcDbEntity
  8
Основний
  6
CONTINUOUS
 62
    7
370
   70
100
AcDbLine
 10
156.5
 20
90
 11
152
 21
90
  0
LINE
  5
23C
100
AcDbEntity
  8
Основний
  6
CONTINUOUS
 62
    7
370
   70
100
AcDbLine
 10
167
 20
90
 11
162.5
 21
90
  0
LINE
  5
23D
100
AcDbEntity
  8
Основний
  6
CONTINUOUS
 62
    7
370
   70
100
AcDbLine
 10
156.5
 20
90
 11
163.5
 21
85.96000000000001
  0
LINE
  5
23E
100
AcDbEntity
  8
Основний
  6
CONTINUOUS
 62
    7
370
   70
100
AcDbLine
 10
162.5
 20
86
 11
162.5
 21
90
  0
ENDBLK
  5
9C
330
9A
100
AcDbEntity
  8
0
100
AcDbBlockEnd
  0
BLOCK
  5
9E
330
9D
100
AcDbEntity
  8
0
100
AcDbBlockBegin
  2
s1-2
 70
    0
 10
0
 20
0
  3
s1-2
  1

  0
LINE
  5
23F
100
AcDbEntity
  8
Основний
  6
CONTINUOUS
 62
    7
370
   70
100
AcDbLine
 10
156.5
 20
70
 11
152
 21
70
  0
LINE
  5
240
100
AcDbEntity
  8
Основний
  6
CONTINUOUS
 62
    7
370
   70
100
AcDbLine
 10
167
 20
70
 11
162.5
 21
70
  0
LINE
  5
241
100
AcDbEntity
  8
Основний
  6
CONTINUOUS
 62
    7
370
   70
100
AcDbLine
 10
156.5
 20
70
 11
162.5
 21
73.46000000000001
  0
POINT
  5
242
100
AcDbEntity
  8
Основний
  6
CONTINUOUS
 62
    7
370
   70
100
AcDbPoint
 10
152
 20
70
  0
POINT
  5
243
100
AcDbEntity
  8
Основний
  6
CONTINUOUS
 62
    7
370
   70
100
AcDbPoint
 10
167
 20
70
  0
ENDBLK
  5
9F
330
9D
100
AcDbEntity
  8
0
100
AcDbBlockEnd
  0
BLOCK
  5
A1
330
A0
100
AcDbEntity
  8
0
100
AcDbBlockBegin
  2
s1-3
 70
    0
 10
0
 20
0
  3
s1-3
  1

  0
LINE
  5
244
100
AcDbEntity
  8
Основний
  6
CONTINUOUS
 62
    7
370
   70
100
AcDbLine
 10
194.5
 20
70
 11
190
 21
70
  0
LINE
  5
245
100
AcDbEntity
  8
Основний
  6
CONTINUOUS
 62
    7
370
   70
100
AcDbLine
 10
205
 20
70
 11
200.5
 21
70
  0
LINE
  5
246
100
AcDbEntity
  8
Основний
  6
CONTINUOUS
 62
    7
370
   70
100
AcDbLine
 10
194.5
 20
70
 11
200.5
 21
73.46000000000001
  0
POINT
  5
247
100
AcDbEntity
  8
Основний
  6
CONTINUOUS
 62
    7
370
   70
100
AcDbPoint
 10
190
 20
70
  0
POINT
  5
248
100
AcDbEntity
  8
Основний
  6
CONTINUOUS
 62
    7
370
   70
100
AcDbPoint
 10
205
 20
70
  0
ENDBLK
  5
A2
330
A0
100
AcDbEntity
  8
0
100
AcDbBlockEnd
  0
BLOCK
  5
A4
330
A3
100
AcDbEntity
  8
0
100
AcDbBlockBegin
  2
ln1-1
 70
    0
 10
0
 20
0
  3
ln1-1
  1

  0
LINE
  5
249
100
AcDbEntity
  8
Основний
  6
CONTINUOUS
 62
    7
370
   70
100
AcDbLine
 10
186
 20
90
 11
182.5
 21
90
  0
LINE
  5
24A
100
AcDbEntity
  8
Основний
  6
CONTINUOUS
 62
    7
370
   70
100
AcDbLine
 10
181.33
 20
87.16999999999999
 11
175.67
 21
92.83000000000001
  0
LINE
  5
24B
100
AcDbEntity
  8
Основний
  6
CONTINUOUS
 62
    7
370
   70
100
AcDbLine
 10
175.67
 20
87.16999999999999
 11
181.33
 21
92.83000000000001
  0
CIRCLE
  5
24C
100
AcDbEntity
  8
Основний
  6
CONTINUOUS
 62
    7
370
   70
100
AcDbCircle
 10
178.5
 20
90
 40
4
  0
LINE
  5
24D
100
AcDbEntity
  8
Основний
  6
CONTINUOUS
 62
    7
370
   70
100
AcDbLine
 10
174.5
 20
90
 11
171
 21
90
  0
POINT
  5
24E
100
AcDbEntity
  8
Основний
  6
CONTINUOUS
 62
    7
370
   70
100
AcDbPoint
 10
171
 20
90
  0
POINT
  5
24F
100
AcDbEntity
  8
Основний
  6
CONTINUOUS
 62
    7
370
   70
100
AcDbPoint
 10
186
 20
90
  0
ENDBLK
  5
A5
330
A3
100
AcDbEntity
  8
0
100
AcDbBlockEnd
  0
BLOCK
  5
A7
330
A6
100
AcDbEntity
  8
0
100
AcDbBlockBegin
  2
ln1-2
 70
    0
 10
0
 20
0
  3
ln1-2
  1

  0
LINE
  5
250
100
AcDbEntity
  8
Основний
  6
CONTINUOUS
 62
    7
370
   70
100
AcDbLine
 10
186
 20
70
 11
182.5
 21
70
  0
LINE
  5
251
100
AcDbEntity
  8
Основний
  6
CONTINUOUS
 62
    7
370
   70
100
AcDbLine
 10
181.33
 20
67.16999999999999
 11
175.67
 21
72.83000000000001
  0
LINE
  5
252
100
AcDbEntity
  8
Основний
  6
CONTINUOUS
 62
    7
370
   70
100
AcDbLine
 10
175.67
 20
67.16999999999999
 11
181.33
 21
72.83000000000001
  0
CIRCLE
  5
253
100
AcDbEntity
  8
Основний
  6
CONTINUOUS
 62
    7
370
   70
100
AcDbCircle
 10
178.5
 20
70
 40
4
  0
LINE
  5
254
100
AcDbEntity
  8
Основний
  6
CONTINUOUS
 62
    7
370
   70
100
AcDbLine
 10
174.5
 20
70
 11
171
 21
70
  0
POINT
  5
255
100
AcDbEntity
  8
Основний
  6
CONTINUOUS
 62
    7
370
   70
100
AcDbPoint
 10
171
 20
70
  0
POINT
  5
256
100
AcDbEntity
  8
Основний
  6
CONTINUOUS
 62
    7
370
   70
100
AcDbPoint
 10
186
 20
70
  0
ENDBLK
  5
A8
330
A6
100
AcDbEntity
  8
0
100
AcDbBlockEnd
  0
BLOCK
  5
AA
330
A9
100
AcDbEntity
  8
0
100
AcDbBlockBegin
  2
r1-0
 70
    0
 10
0
 20
0
  3
r1-0
  1

  0
LINE
  5
257
100
AcDbEntity
  8
Основний
  6
CONTINUOUS
 62
    7
370
   70
100
AcDbLine
 10
156.5
 20
56
 11
162.5
 21
56
  0
LINE
  5
258
100
AcDbEntity
  8
Основний
  6
CONTINUOUS
 62
    7
370
   70
100
AcDbLine
 10
156.5
 20
44
 11
162.5
 21
44
  0
LINE
  5
259
100
AcDbEntity
  8
Основний
  6
CONTINUOUS
 62
    7
370
   70
100
AcDbLine
 10
162.5
 20
44
 11
162.5
 21
56
  0
LINE
  5
25A
100
AcDbEntity
  8
Основний
  6
CONTINUOUS
 62
    7
370
   70
100
AcDbLine
 10
156.5
 20
56
 11
156.5
 21
44
  0
LINE
  5
25B
100
AcDbEntity
  8
Основний
  6
CONTINUOUS
 62
    7
370
   70
100
AcDbLine
 10
167
 20
50
 11
162.5
 21
50
  0
LINE
  5
25C
100
AcDbEntity
  8
Основний
  6
CONTINUOUS
 62
    7
370
   70
100
AcDbLine
 10
156.5
 20
50
 11
152
 21
50
  0
POINT
  5
25D
100
AcDbEntity
  8
Основний
  6
CONTINUOUS
 62
    7
370
   70
100
AcDbPoint
 10
152
 20
50
  0
POINT
  5
25E
100
AcDbEntity
  8
Основний
  6
CONTINUOUS
 62
    7
370
   70
100
AcDbPoint
 10
167
 20
50
  0
ENDBLK
  5
AB
330
A9
100
AcDbEntity
  8
0
100
AcDbBlockEnd
  0
BLOCK
  5
AD
330
AC
100
AcDbEntity
  8
0
100
AcDbBlockBegin
  2
s16-0
 70
    0
 10
0
 20
0
  3
s16-0
  1

  0
CIRCLE
  5
25F
100
AcDbEntity
  8
Основний
  6
CONTINUOUS
 62
    7
370
   70
100
AcDbCircle
 10
197.5
 20
55.75
 40
0.75
  0
LINE
  5
260
100
AcDbEntity
  8
Основний
  6
CONTINUOUS
 62
    7
370
   70
100
AcDbLine
 10
197.5
 20
55
 11
197.5
 21
53.5
  0
LINE
  5
261
100
AcDbEntity
  8
Основний
  6
CONTINUOUS
 62
    7
370
   70
100
AcDbLine
 10
197.5
 20
52
 11
197.5
 21
50.5
  0
LINE
  5
262
100
AcDbEntity
  8
Основний
  6
CONTINUOUS
 62
    7
370
   70
100
AcDbLine
 10
197.5
 20
49
 11
197.5
 21
48.27000000000001
  0
LINE
  5
263
100
AcDbEntity
  8
Основний
  6
CONTINUOUS
 62
    7
370
   70
100
AcDbLine
 10
194.5
 20
50
 11
190
 21
50
  0
LINE
  5
264
100
AcDbEntity
  8
Основний
  6
CONTINUOUS
 62
    7
370
   70
100
AcDbLine
 10
205
 20
50
 11
200.5
 21
50
  0
LINE
  5
265
100
AcDbEntity
  8
Основний
  6
CONTINUOUS
 62
    7
370
   70
100
AcDbLine
 10
194.5
 20
50
 11
201.5
 21
45.96000000000001
  0
LINE
  5
266
100
AcDbEntity
  8
Основний
  6
CONTINUOUS
 62
    7
370
   70
100
AcDbLine
 10
200.5
 20
46
 11
200.5
 21
50
  0
POINT
  5
267
100
AcDbEntity
  8
Основний
  6
CONTINUOUS
 62
    7
370
   70
100
AcDbPoint
 10
190
 20
50
  0
POINT
  5
268
100
AcDbEntity
  8
Основний
  6
CONTINUOUS
 62
    7
370
   70
100
AcDbPoint
 10
205
 20
50
  0
ENDBLK
  5
AE
330
AC
100
AcDbEntity
  8
0
100
AcDbBlockEnd
  0
BLOCK
  5
B0
330
AF
100
AcDbEntity
  8
0
100
AcDbBlockBegin
  2
s12-0
 70
    0
 10
0
 20
0
  3
s12-0
  1

  0
CIRCLE
  5
269
100
AcDbEntity
  8
Основний
  6
CONTINUOUS
 62
    7
370
   70
100
AcDbCircle
 10
70.5
 20
95.25
 40
0.75
  0
LINE
  5
26A
100
AcDbEntity
  8
Основний
  6
CONTINUOUS
 62
    7
370
   70
100
AcDbLine
 10
64.5
 20
100
 11
60
 21
100
  0
LINE
  5
26B
100
AcDbEntity
  8
Основний
  6
CONTINUOUS
 62
    7
370
   70
100
AcDbLine
 10
75
 20
100
 11
70.5
 21
100
  0
LINE
  5
26C
100
AcDbEntity
  8
Основний
  6
CONTINUOUS
 62
    7
370
   70
100
AcDbLine
 10
64.5
 20
100
 11
71.5
 21
95.96000000000001
  0
LINE
  5
26D
100
AcDbEntity
  8
Основний
  6
CONTINUOUS
 62
    7
370
   70
100
AcDbLine
 10
70.5
 20
96
 11
70.5
 21
100
  0
POINT
  5
26E
100
AcDbEntity
  8
Основний
  6
CONTINUOUS
 62
    7
370
   70
100
AcDbPoint
 10
60
 20
100
  0
POINT
  5
26F
100
AcDbEntity
  8
Основний
  6
CONTINUOUS
 62
    7
370
   70
100
AcDbPoint
 10
75
 20
100
  0
LINE
  5
270
100
AcDbEntity
  8
Основний
  6
CONTINUOUS
 62
    7
370
   70
100
AcDbLine
 10
64.5
 20
88.59999999999999
 11
70.5
 21
88.59999999999999
  0
LINE
  5
271
100
AcDbEntity
  8
Основний
  6
CONTINUOUS
 62
    7
370
   70
100
AcDbLine
 10
64.5
 20
88.59999999999999
 11
64.5
 21
90.59999999999999
  0
LINE
  5
272
100
AcDbEntity
  8
Основний
  6
CONTINUOUS
 62
    7
370
   70
100
AcDbLine
 10
70.5
 20
88.59999999999999
 11
70.5
 21
90.59999999999999
  0
LINE
  5
273
100
AcDbEntity
  8
Основний
  6
CONTINUOUS
 62
    7
370
   70
100
AcDbLine
 10
67.5
 20
98.32999999999998
 11
67.5
 21
97.59999999999999
  0
LINE
  5
274
100
AcDbEntity
  8
Основний
  6
CONTINUOUS
 62
    7
370
   70
100
AcDbLine
 10
67.5
 20
96.09999999999999
 11
67.5
 21
95.09999999999999
  0
LINE
  5
275
100
AcDbEntity
  8
Основний
  6
CONTINUOUS
 62
    7
370
   70
100
AcDbLine
 10
67.5
 20
92.59999999999999
 11
67.5
 21
91.59999999999999
  0
LINE
  5
276
100
AcDbEntity
  8
Основний
  6
CONTINUOUS
 62
    7
370
   70
100
AcDbLine
 10
67.5
 20
90.09999999999999
 11
67.5
 21
88.59999999999999
  0
LINE
  5
277
100
AcDbEntity
  8
Основний
  6
CONTINUOUS
 62
    7
370
   70
100
AcDbLine
 10
67.5
 20
92.59999999999999
 11
64.5
 21
93.84999999999999
  0
LINE
  5
278
100
AcDbEntity
  8
Основний
  6
CONTINUOUS
 62
    7
370
   70
100
AcDbLine
 10
67.5
 20
95.09999999999999
 11
64.5
 21
93.84999999999999
  0
ENDBLK
  5
B1
330
AF
100
AcDbEntity
  8
0
100
AcDbBlockEnd
  0
BLOCK
  5
B3
330
B2
100
AcDbEntity
  8
0
100
AcDbBlockBegin
  2
s9-0
 70
    0
 10
0
 20
0
  3
s9-0
  1

  0
LINE
  5
279
100
AcDbEntity
  8
Основний
  6
CONTINUOUS
 62
    7
370
   70
100
AcDbLine
 10
64.5
 20
75
 11
70.5
 21
75
  0
LINE
  5
27A
100
AcDbEntity
  8
Основний
  6
CONTINUOUS
 62
    7
370
   70
100
AcDbLine
 10
64.5
 20
75
 11
64.5
 21
73
  0
LINE
  5
27B
100
AcDbEntity
  8
Основний
  6
CONTINUOUS
 62
    7
370
   70
100
AcDbLine
 10
70.5
 20
75
 11
70.5
 21
73
  0
LINE
  5
27C
100
AcDbEntity
  8
Основний
  6
CONTINUOUS
 62
    7
370
   70
100
AcDbLine
 10
67.5
 20
75
 11
67.5
 21
73.5
  0
LINE
  5
27D
100
AcDbEntity
  8
Основний
  6
CONTINUOUS
 62
    7
370
   70
100
AcDbLine
 10
67.5
 20
72
 11
67.5
 21
70.5
  0
LINE
  5
27E
100
AcDbEntity
  8
Основний
  6
CONTINUOUS
 62
    7
370
   70
100
AcDbLine
 10
67.5
 20
69
 11
67.5
 21
68.27
  0
LINE
  5
27F
100
AcDbEntity
  8
Основний
  6
CONTINUOUS
 62
    7
370
   70
100
AcDbLine
 10
64.5
 20
70
 11
60
 21
70
  0
LINE
  5
280
100
AcDbEntity
  8
Основний
  6
CONTINUOUS
 62
    7
370
   70
100
AcDbLine
 10
75
 20
70
 11
70.5
 21
70
  0
LINE
  5
281
100
AcDbEntity
  8
Основний
  6
CONTINUOUS
 62
    7
370
   70
100
AcDbLine
 10
64.5
 20
70
 11
71.5
 21
65.95999999999998
  0
LINE
  5
282
100
AcDbEntity
  8
Основний
  6
CONTINUOUS
 62
    7
370
   70
100
AcDbLine
 10
70.5
 20
66
 11
70.5
 21
70
  0
POINT
  5
283
100
AcDbEntity
  8
Основний
  6
CONTINUOUS
 62
    7
370
   70
100
AcDbPoint
 10
60
 20
70
  0
POINT
  5
284
100
AcDbEntity
  8
Основний
  6
CONTINUOUS
 62
    7
370
   70
100
AcDbPoint
 10
75
 20
70
  0
ENDBLK
  5
B4
330
B2
100
AcDbEntity
  8
0
100
AcDbBlockEnd
  0
BLOCK
  5
B6
330
B5
100
AcDbEntity
  8
0
100
AcDbBlockBegin
  2
s8_r
 70
    0
 10
0
 20
0
  3
s8_r
  1

  0
LINE
  5
285
100
AcDbEntity
  8
Основний
  6
ByLayer
 62
  256
370
   -1
100
AcDbLine
 10
7.999999999999999
 20
-4.500000000000002
 11
7.999999999999998
 21
-10.5
  0
LINE
  5
286
100
AcDbEntity
  8
Основний
  6
ByLayer
 62
  256
370
   -1
100
AcDbLine
 10
7.999999999999999
 20
-4.500000000000002
 11
5.999999999999999
 21
-4.500000000000001
  0
LINE
  5
287
100
AcDbEntity
  8
Основний
  6
ByLayer
 62
  256
370
   -1
100
AcDbLine
 10
7.999999999999998
 20
-10.5
 11
5.999999999999998
 21
-10.5
  0
LINE
  5
288
100
AcDbEntity
  8
Основний
  6
ByLayer
 62
  256
370
   -1
100
AcDbLine
 10
7.999999999999998
 20
-7.500000000000002
 11
6.499999999999998
 21
-7.500000000000001
  0
LINE
  5
289
100
AcDbEntity
  8
Основний
  6
ByLayer
 62
  256
370
   -1
100
AcDbLine
 10
5.499999999999998
 20
-7.500000000000001
 11
3.999999999999999
 21
-7.500000000000001
  0
LINE
  5
28A
100
AcDbEntity
  8
Основний
  6
ByLayer
 62
  256
370
   -1
100
AcDbLine
 10
2.999999999999999
 20
-7.500000000000001
 11
1.729999999999988
 21
-7.5
  0
LINE
  5
28B
100
AcDbEntity
  8
Основний
  6
ByLayer
 62
  256
370
   -1
100
AcDbLine
 10
-8.266092888301046e-16
 20
-4.5
 11
0
 21
0
  0
LINE
  5
28C
100
AcDbEntity
  8
Основний
  6
ByLayer
 62
  256
370
   -1
100
AcDbLine
 10
-2.755364296100349e-15
 20
-15
 11
-1.928755007270244e-15
 21
-10.5
  0
LINE
  5
28D
100
AcDbEntity
  8
Основний
  6
ByLayer
 62
  256
370
   -1
100
AcDbLine
 10
-8.266092888301046e-16
 20
-4.5
 11
3.459999999999999
 21
-10.5
  0
POINT
  5
28E
100
AcDbEntity
  8
Основний
  6
ByLayer
 62
  256
370
   -1
100
AcDbPoint
 10
0
 20
0
  0
POINT
  5
28F
100
AcDbEntity
  8
Основний
  6
ByLayer
 62
  256
370
   -1
100
AcDbPoint
 10
-2.755364296100349e-15
 20
-15
  0
ENDBLK
  5
B7
330
B5
100
AcDbEntity
  8
0
100
AcDbBlockEnd
  0
BLOCK
  5
B9
330
B8
100
AcDbEntity
  8
0
100
AcDbBlockBegin
  2
s9-1
 70
    0
 10
0
 20
0
  3
s9-1
  1

  0
LINE
  5
290
100
AcDbEntity
  8
0
  6
CONTINUOUS
 62
    7
370
   70
100
AcDbLine
 10
4.5
 20
5
 11
10.5
 21
5
  0
LINE
  5
291
100
AcDbEntity
  8
0
  6
CONTINUOUS
 62
    7
370
   70
100
AcDbLine
 10
4.5
 20
5
 11
4.5
 21
3
  0
LINE
  5
292
100
AcDbEntity
  8
0
  6
CONTINUOUS
 62
    7
370
   70
100
AcDbLine
 10
10.5
 20
5
 11
10.5
 21
3
  0
LINE
  5
293
100
AcDbEntity
  8
0
  6
CONTINUOUS
 62
    7
370
   70
100
AcDbLine
 10
7.5
 20
5
 11
7.5
 21
3.5
  0
LINE
  5
294
100
AcDbEntity
  8
0
  6
CONTINUOUS
 62
    7
370
   70
100
AcDbLine
 10
7.5
 20
2
 11
7.5
 21
0.5
  0
LINE
  5
295
100
AcDbEntity
  8
0
  6
CONTINUOUS
 62
    7
370
   70
100
AcDbLine
 10
7.5
 20
-1
 11
7.5
 21
-1.730000000000004
  0
LINE
  5
296
100
AcDbEntity
  8
0
  6
CONTINUOUS
 62
    7
370
   70
100
AcDbLine
 10
4.5
 20
0
 11
0
 21
0
  0
LINE
  5
297
100
AcDbEntity
  8
0
  6
CONTINUOUS
 62
    7
370
   70
100
AcDbLine
 10
15
 20
0
 11
10.5
 21
0
  0
LINE
  5
298
100
AcDbEntity
  8
0
  6
CONTINUOUS
 62
    7
370
   70
100
AcDbLine
 10
4.5
 20
0
 11
11.5
 21
-4.040000000000013
  0
LINE
  5
299
100
AcDbEntity
  8
0
  6
CONTINUOUS
 62
    7
370
   70
100
AcDbLine
 10
10.5
 20
-4.000000000000007
 11
10.5
 21
0
  0
POINT
  5
29A
100
AcDbEntity
  8
0
  6
CONTINUOUS
 62
    7
370
   70
100
AcDbPoint
 10
0
 20
0
  0
POINT
  5
29B
100
AcDbEntity
  8
0
  6
CONTINUOUS
 62
    7
370
   70
100
AcDbPoint
 10
15
 20
0
  0
ENDBLK
  5
BA
330
B8
100
AcDbEntity
  8
0
100
AcDbBlockEnd
  0
BLOCK
  5
BC
330
BB
100
AcDbEntity
  8
0
100
AcDbBlockBegin
  2
s9-2
 70
    0
 10
0
 20
0
  3
s9-2
  1

  0
LINE
  5
29C
100
AcDbEntity
  8
Основний
  6
ByLayer
 62
  256
370
   -1
100
AcDbLine
 10
4.5
 20
5
 11
10.5
 21
5
  0
LINE
  5
29D
100
AcDbEntity
  8
Основний
  6
ByLayer
 62
  256
370
   -1
100
AcDbLine
 10
4.5
 20
5
 11
4.5
 21
3
  0
LINE
  5
29E
100
AcDbEntity
  8
Основний
  6
ByLayer
 62
  256
370
   -1
100
AcDbLine
 10
10.5
 20
5
 11
10.5
 21
3
  0
LINE
  5
29F
100
AcDbEntity
  8
Основний
  6
ByLayer
 62
  256
370
   -1
100
AcDbLine
 10
7.5
 20
5
 11
7.5
 21
3.5
  0
LINE
  5
2A0
100
AcDbEntity
  8
Основний
  6
ByLayer
 62
  256
370
   -1
100
AcDbLine
 10
7.5
 20
2
 11
7.5
 21
0.5
  0
LINE
  5
2A1
100
AcDbEntity
  8
Основний
  6
ByLayer
 62
  256
370
   -1
100
AcDbLine
 10
7.5
 20
-1
 11
7.5
 21
-1.730000000000004
  0
LINE
  5
2A2
100
AcDbEntity
  8
Основний
  6
ByLayer
 62
  256
370
   -1
100
AcDbLine
 10
4.5
 20
0
 11
0
 21
0
  0
LINE
  5
2A3
100
AcDbEntity
  8
Основний
  6
ByLayer
 62
  256
370
   -1
100
AcDbLine
 10
15
 20
0
 11
10.5
 21
0
  0
LINE
  5
2A4
100
AcDbEntity
  8
Основний
  6
ByLayer
 62
  256
370
   -1
100
AcDbLine
 10
4.5
 20
0
 11
11.5
 21
-4.040000000000013
  0
LINE
  5
2A5
100
AcDbEntity
  8
Основний
  6
ByLayer
 62
  256
370
   -1
100
AcDbLine
 10
10.5
 20
-4.000000000000007
 11
10.5
 21
0
  0
POINT
  5
2A6
100
AcDbEntity
  8
Основний
  6
ByLayer
 62
  256
370
   -1
100
AcDbPoint
 10
0
 20
0
  0
POINT
  5
2A7
100
AcDbEntity
  8
Основний
  6
ByLayer
 62
  256
370
   -1
100
AcDbPoint
 10
15
 20
0
  0
ENDBLK
  5
BD
330
BB
100
AcDbEntity
  8
0
100
AcDbBlockEnd
  0
BLOCK
  5
BF
330
BE
100
AcDbEntity
  8
0
100
AcDbBlockBegin
  2
s8
 70
    0
 10
0
 20
0
  3
s8
  1

  0
LINE
  5
2A8
100
AcDbEntity
  8
Основний
  6
ByLayer
 62
  256
370
   -1
100
AcDbLine
 10
4.5
 20
8
 11
10.5
 21
8
  0
LINE
  5
2A9
100
AcDbEntity
  8
Основний
  6
ByLayer
 62
  256
370
   -1
100
AcDbLine
 10
4.5
 20
8
 11
4.5
 21
6
  0
LINE
  5
2AA
100
AcDbEntity
  8
Основний
  6
ByLayer
 62
  256
370
   -1
100
AcDbLine
 10
10.5
 20
8
 11
10.5
 21
6
  0
LINE
  5
2AB
100
AcDbEntity
  8
Основний
  6
ByLayer
 62
  256
370
   -1
100
AcDbLine
 10
7.5
 20
8
 11
7.5
 21
6.5
  0
LINE
  5
2AC
100
AcDbEntity
  8
Основний
  6
ByLayer
 62
  256
370
   -1
100
AcDbLine
 10
7.5
 20
5.5
 11
7.5
 21
4
  0
LINE
  5
2AD
100
AcDbEntity
  8
Основний
  6
ByLayer
 62
  256
370
   -1
100
AcDbLine
 10
7.5
 20
3
 11
7.5
 21
1.72999999999999
  0
LINE
  5
2AE
100
AcDbEntity
  8
Основний
  6
ByLayer
 62
  256
370
   -1
100
AcDbLine
 10
4.5
 20
0
 11
0
 21
0
  0
LINE
  5
2AF
100
AcDbEntity
  8
Основний
  6
ByLayer
 62
  256
370
   -1
100
AcDbLine
 10
15
 20
0
 11
10.5
 21
0
  0
LINE
  5
2B0
100
AcDbEntity
  8
Основний
  6
ByLayer
 62
  256
370
   -1
100
AcDbLine
 10
4.5
 20
0
 11
10.5
 21
3.460000000000001
  0
POINT
  5
2B1
100
AcDbEntity
  8
Основний
  6
ByLayer
 62
  256
370
   -1
100
AcDbPoint
 10
0
 20
0
  0
POINT
  5
2B2
100
AcDbEntity
  8
Основний
  6
ByLayer
 62
  256
370
   -1
100
AcDbPoint
 10
15
 20
0
  0
ENDBLK
  5
C0
330
BE
100
AcDbEntity
  8
0
100
AcDbBlockEnd
  0
BLOCK
  5
C2
330
C1
100
AcDbEntity
  8
0
100
AcDbBlockBegin
  2
s1
 70
    0
 10
0
 20
0
  3
s1
  1

  0
LINE
  5
2B3
100
AcDbEntity
  8
Основний
  6
ByLayer
 62
  256
370
   -1
100
AcDbLine
 10
4.5
 20
0
 11
0
 21
0
  0
LINE
  5
2B4
100
AcDbEntity
  8
Основний
  6
ByLayer
 62
  256
370
   -1
100
AcDbLine
 10
15
 20
0
 11
10.5
 21
0
  0
LINE
  5
2B5
100
AcDbEntity
  8
Основний
  6
ByLayer
 62
  256
370
   -1
100
AcDbLine
 10
4.5
 20
0
 11
10.5
 21
3.460000000000001
  0
POINT
  5
2B6
100
AcDbEntity
  8
Основний
  6
ByLayer
 62
  256
370
   -1
100
AcDbPoint
 10
0
 20
0
  0
POINT
  5
2B7
100
AcDbEntity
  8
Основний
  6
ByLayer
 62
  256
370
   -1
100
AcDbPoint
 10
15
 20
0
  0
ENDBLK
  5
C3
330
C1
100
AcDbEntity
  8
0
100
AcDbBlockEnd
  0
BLOCK
  5
C5
330
C4
100
AcDbEntity
  8
0
100
AcDbBlockBegin
  2
s8-0
 70
    0
 10
0
 20
0
  3
s8-0
  1

  0
LINE
  5
2B8
100
AcDbEntity
  8
Основний
  6
ByLayer
 62
  256
370
   -1
100
AcDbLine
 10
4.5
 20
8
 11
10.5
 21
8
  0
LINE
  5
2B9
100
AcDbEntity
  8
Основний
  6
ByLayer
 62
  256
370
   -1
100
AcDbLine
 10
4.5
 20
8
 11
4.5
 21
6
  0
LINE
  5
2BA
100
AcDbEntity
  8
Основний
  6
ByLayer
 62
  256
370
   -1
100
AcDbLine
 10
10.5
 20
8
 11
10.5
 21
6
  0
LINE
  5
2BB
100
AcDbEntity
  8
Основний
  6
ByLayer
 62
  256
370
   -1
100
AcDbLine
 10
7.5
 20
8
 11
7.5
 21
6.5
  0
LINE
  5
2BC
100
AcDbEntity
  8
Основний
  6
ByLayer
 62
  256
370
   -1
100
AcDbLine
 10
7.5
 20
5.5
 11
7.5
 21
4
  0
LINE
  5
2BD
100
AcDbEntity
  8
Основний
  6
ByLayer
 62
  256
370
   -1
100
AcDbLine
 10
7.5
 20
3
 11
7.5
 21
1.72999999999999
  0
LINE
  5
2BE
100
AcDbEntity
  8
Основний
  6
ByLayer
 62
  256
370
   -1
100
AcDbLine
 10
4.5
 20
0
 11
0
 21
0
  0
LINE
  5
2BF
100
AcDbEntity
  8
Основний
  6
ByLayer
 62
  256
370
   -1
100
AcDbLine
 10
15
 20
0
 11
10.5
 21
0
  0
LINE
  5
2C0
100
AcDbEntity
  8
Основний
  6
ByLayer
 62
  256
370
   -1
100
AcDbLine
 10
4.5
 20
0
 11
10.5
 21
3.460000000000001
  0
POINT
  5
2C1
100
AcDbEntity
  8
Основний
  6
ByLayer
 62
  256
370
   -1
100
AcDbPoint
 10
0
 20
0
  0
POINT
  5
2C2
100
AcDbEntity
  8
Основний
  6
ByLayer
 62
  256
370
   -1
100
AcDbPoint
 10
15
 20
0
  0
ENDBLK
  5
C6
330
C4
100
AcDbEntity
  8
0
100
AcDbBlockEnd
  0
BLOCK
  5
C8
330
C7
100
AcDbEntity
  8
0
100
AcDbBlockBegin
  2
s1-4
 70
    0
 10
0
 20
0
  3
s1-4
  1

  0
LINE
  5
2C3
100
AcDbEntity
  8
Основний
  6
ByLayer
 62
  256
370
   -1
100
AcDbLine
 10
4.5
 20
0
 11
0
 21
0
  0
LINE
  5
2C4
100
AcDbEntity
  8
Основний
  6
ByLayer
 62
  256
370
   -1
100
AcDbLine
 10
15
 20
0
 11
10.5
 21
0
  0
LINE
  5
2C5
100
AcDbEntity
  8
Основний
  6
ByLayer
 62
  256
370
   -1
100
AcDbLine
 10
4.5
 20
0
 11
10.5
 21
3.460000000000001
  0
POINT
  5
2C6
100
AcDbEntity
  8
Основний
  6
ByLayer
 62
  256
370
   -1
100
AcDbPoint
 10
0
 20
0
  0
POINT
  5
2C7
100
AcDbEntity
  8
Основний
  6
ByLayer
 62
  256
370
   -1
100
AcDbPoint
 10
15
 20
0
  0
ENDBLK
  5
C9
330
C7
100
AcDbEntity
  8
0
100
AcDbBlockEnd
  0
BLOCK
  5
CB
330
CA
100
AcDbEntity
  8
0
100
AcDbBlockBegin
  2
r1-1
 70
    0
 10
0
 20
0
  3
r1-1
  1

  0
LINE
  5
2C8
100
AcDbEntity
  8
Основний
  6
ByLayer
 62
  256
370
   -1
100
AcDbLine
 10
4.5
 20
6
 11
10.5
 21
6
  0
LINE
  5
2C9
100
AcDbEntity
  8
Основний
  6
ByLayer
 62
  256
370
   -1
100
AcDbLine
 10
4.5
 20
-6
 11
10.5
 21
-6
  0
LINE
  5
2CA
100
AcDbEntity
  8
Основний
  6
ByLayer
 62
  256
370
   -1
100
AcDbLine
 10
10.5
 20
-6
 11
10.5
 21
6
  0
LINE
  5
2CB
100
AcDbEntity
  8
Основний
  6
ByLayer
 62
  256
370
   -1
100
AcDbLine
 10
4.5
 20
6
 11
4.5
 21
-6
  0
LINE
  5
2CC
100
AcDbEntity
  8
Основний
  6
ByLayer
 62
  256
370
   -1
100
AcDbLine
 10
15
 20
0
 11
10.5
 21
0
  0
LINE
  5
2CD
100
AcDbEntity
  8
Основний
  6
ByLayer
 62
  256
370
   -1
100
AcDbLine
 10
4.5
 20
0
 11
0
 21
0
  0
POINT
  5
2CE
100
AcDbEntity
  8
Основний
  6
ByLayer
 62
  256
370
   -1
100
AcDbPoint
 10
0
 20
0
  0
POINT
  5
2CF
100
AcDbEntity
  8
Основний
  6
ByLayer
 62
  256
370
   -1
100
AcDbPoint
 10
15
 20
0
  0
ENDBLK
  5
CC
330
CA
100
AcDbEntity
  8
0
100
AcDbBlockEnd
  0
BLOCK
  5
CE
330
CD
100
AcDbEntity
  8
0
100
AcDbBlockBegin
  2
r1-2
 70
    0
 10
0
 20
0
  3
r1-2
  1

  0
LINE
  5
2D0
100
AcDbEntity
  8
Основний
  6
ByLayer
 62
  256
370
   -1
100
AcDbLine
 10
4.5
 20
6
 11
10.5
 21
6
  0
LINE
  5
2D1
100
AcDbEntity
  8
Основний
  6
ByLayer
 62
  256
370
   -1
100
AcDbLine
 10
4.5
 20
-6
 11
10.5
 21
-6
  0
LINE
  5
2D2
100
AcDbEntity
  8
Основний
  6
ByLayer
 62
  256
370
   -1
100
AcDbLine
 10
10.5
 20
-6
 11
10.5
 21
6
  0
LINE
  5
2D3
100
AcDbEntity
  8
Основний
  6
ByLayer
 62
  256
370
   -1
100
AcDbLine
 10
4.5
 20
6
 11
4.5
 21
-6
  0
LINE
  5
2D4
100
AcDbEntity
  8
Основний
  6
ByLayer
 62
  256
370
   -1
100
AcDbLine
 10
15
 20
0
 11
10.5
 21
0
  0
LINE
  5
2D5
100
AcDbEntity
  8
Основний
  6
ByLayer
 62
  256
370
   -1
100
AcDbLine
 10
4.5
 20
0
 11
0
 21
0
  0
POINT
  5
2D6
100
AcDbEntity
  8
Основний
  6
ByLayer
 62
  256
370
   -1
100
AcDbPoint
 10
0
 20
0
  0
POINT
  5
2D7
100
AcDbEntity
  8
Основний
  6
ByLayer
 62
  256
370
   -1
100
AcDbPoint
 10
15
 20
0
  0
ENDBLK
  5
CF
330
CD
100
AcDbEntity
  8
0
100
AcDbBlockEnd
  0
ENDSEC
  0
SECTION
  2
ENTITIES
  0
LINE
  5
2D8
100
AcDbEntity
  8
Конструкційний
  6
ByLayer
 62
  256
370
   -1
100
AcDbLine
 10
10
 20
30
 11
10
 21
35
  0
LINE
  5
2D9
100
AcDbEntity
  8
Конструкційний
  6
ByLayer
 62
  256
370
   -1
100
AcDbLine
 10
20
 20
30
 11
20
 21
35
  0
LINE
  5
2DA
100
AcDbEntity
  8
Конструкційний
  6
ByLayer
 62
  256
370
   -1
100
AcDbLine
 10
30
 20
30
 11
30
 21
35
  0
LINE
  5
2DB
100
AcDbEntity
  8
Конструкційний
  6
ByLayer
 62
  256
370
   -1
100
AcDbLine
 10
50
 20
90
 11
55
 21
90
  0
MTEXT
  5
2DC
100
AcDbEntity
  8
Позначення
  6
ByLayer
 62
  256
370
   -1
100
AcDbMText
 10
35
 20
108
 30
0
 40
4
 41
5.777777777777777
 71
    5
 72
    1
  1
QF
  7
unicode
210
0
220
0
230
1
 50
0
 73
    2
 44
1
  0
MTEXT
  5
2DD
100
AcDbEntity
  8
Позначення
  6
ByLayer
 62
  256
370
   -1
100
AcDbMText
 10
30
 20
128
 30
0
 40
4
 41
4.888888888888889
 71
    5
 72
    1
  1
L3
  7
unicode
210
0
220
0
230
1
 50
0
 73
    2
 44
1
  0
MTEXT
  5
2DE
100
AcDbEntity
  8
Позначення
  6
ByLayer
 62
  256
370
   -1
100
AcDbMText
 10
20
 20
128
 30
0
 40
4
 41
4.888888888888888
 71
    5
 72
    1
  1
L2
  7
unicode
210
0
220
0
230
1
 50
0
 73
    2
 44
1
  0
MTEXT
  5
2DF
100
AcDbEntity
  8
Позначення
  6
ByLayer
 62
  256
370
   -1
100
AcDbMText
 10
10
 20
128
 30
0
 40
4
 41
3.999999999999999
 71
    5
 72
    1
  1
L1
  7
unicode
210
0
220
0
230
1
 50
0
 73
    2
 44
1
  0
LINE
  5
2E0
100
AcDbEntity
  8
Силові ланцюги
  6
ByLayer
 62
  256
370
   -1
100
AcDbLine
 10
10
 20
124
 11
10
 21
115
  0
LINE
  5
2E1
100
AcDbEntity
  8
Силові ланцюги
  6
ByLayer
 62
  256
370
   -1
100
AcDbLine
 10
20
 20
124
 11
20
 21
115
  0
LINE
  5
2E2
100
AcDbEntity
  8
Силові ланцюги
  6
ByLayer
 62
  256
370
   -1
100
AcDbLine
 10
30
 20
124
 11
30
 21
115
  0
LINE
  5
2E3
100
AcDbEntity
  8
Силові ланцюги
  6
ByLayer
 62
  256
370
   -1
100
AcDbLine
 10
10
 20
100
 11
10
 21
82
  0
LINE
  5
2E4
100
AcDbEntity
  8
Силові ланцюги
  6
ByLayer
 62
  256
370
   -1
100
AcDbLine
 10
20
 20
100
 11
20
 21
82
  0
LINE
  5
2E5
100
AcDbEntity
  8
Силові ланцюги
  6
ByLayer
 62
  256
370
   -1
100
AcDbLine
 10
30
 20
100
 11
30
 21
82
  0
INSERT
  5
2E6
100
AcDbEntity
  8
Силові ланцюги
  6
ByLayer
 62
  256
370
   -1
100
AcDbBlockReference
  2
s_29_2-1
 10
-40
 20
-110
 30
0
 41
1
 42
1
 43
0
 50
0
 70
    1
 71
    1
 44
0
 45
0
  0
INSERT
  5
2E7
100
AcDbEntity
  8
Силові ланцюги
  6
ByLayer
 62
  256
370
   -1
100
AcDbBlockReference
  2
s3_v-0
 10
-40
 20
-91
 30
0
 41
1
 42
1
 43
0
 50
0
 70
    1
 71
    1
 44
0
 45
0
  0
INSERT
  5
2E8
100
AcDbEntity
  8
Силові ланцюги
  6
ByLayer
 62
  256
370
   -1
100
AcDbBlockReference
  2
m1
 10
-40
 20
-110
 30
0
 41
1
 42
1
 43
0
 50
0
 70
    1
 71
    1
 44
0
 45
0
  0
INSERT
  5
2E9
100
AcDbEntity
  8
Силові ланцюги
  6
ByLayer
 62
  256
370
   -1
100
AcDbBlockReference
  2
r6
 10
10
 20
60
 30
0
 41
1
 42
1
 43
0
 50
270
 70
    1
 71
    1
 44
0
 45
0
  0
INSERT
  5
2EA
100
AcDbEntity
  8
Силові ланцюги
  6
ByLayer
 62
  256
370
   -1
100
AcDbBlockReference
  2
r6-0
 10
30
 20
60
 30
0
 41
1
 42
1
 43
0
 50
270
 70
    1
 71
    1
 44
0
 45
0
  0
LINE
  5
2EB
100
AcDbEntity
  8
Силові ланцюги
  6
ByLayer
 62
  256
370
   -1
100
AcDbLine
 10
10
 20
67
 11
10
 21
60
  0
LINE
  5
2EC
100
AcDbEntity
  8
Силові ланцюги
  6
ByLayer
 62
  256
370
   -1
100
AcDbLine
 10
30
 20
67
 11
30
 21
60
  0
LINE
  5
2ED
100
AcDbEntity
  8
Силові ланцюги
  6
ByLayer
 62
  256
370
   -1
100
AcDbLine
 10
20
 20
67
 11
20
 21
30
  0
LINE
  5
2EE
100
AcDbEntity
  8
Силові ланцюги
  6
ByLayer
 62
  256
370
   -1
100
AcDbLine
 10
10
 20
45
 11
10
 21
30
  0
LINE
  5
2EF
100
AcDbEntity
  8
Силові ланцюги
  6
ByLayer
 62
  256
370
   -1
100
AcDbLine
 10
30
 20
45
 11
30
 21
30
  0
MTEXT
  5
2F0
100
AcDbEntity
  8
Позначення
  6
ByLayer
 62
  256
370
   -1
100
AcDbMText
 10
30
 20
10
 30
0
 40
4
 41
2.666666666666667
 71
    5
 72
    1
  1
M
  7
unicode
210
0
220
0
230
1
 50
0
 73
    2
 44
1
  0
LINE
  5
2F1
100
AcDbEntity
  8
Конструкційний
  6
ByLayer
 62
  256
370
   -1
100
AcDbLine
 10
40
 20
100
 11
45
 21
100
  0
LINE
  5
2F2
100
AcDbEntity
  8
Основний
  6
ByLayer
 62
  256
370
   -1
100
AcDbLine
 10
20
 20
100
 11
60
 21
100
  0
LINE
  5
2F3
100
AcDbEntity
  8
Основний
  6
ByLayer
 62
  256
370
   -1
100
AcDbLine
 10
30
 20
90
 11
48
 21
90
  0
CIRCLE
  5
2F4
100
AcDbEntity
  8
Основний
  6
ByLayer
 62
  256
370
   -1
100
AcDbCircle
 10
20
 20
100
 40
0.6403124237432751
  0
CIRCLE
  5
2F5
100
AcDbEntity
  8
Основний
  6
ByLayer
 62
  256
370
   -1
100
AcDbCircle
 10
30
 20
90
 40
0.6403124237432751
  0
INSERT
  5
2F6
100
AcDbEntity
  8
Основний
  6
ByLayer
 62
  256
370
   -1
100
AcDbBlockReference
  2
s12
 10
60
 20
100
 30
0
 41
1
 42
1
 43
0
 50
0
 70
    1
 71
    1
 44
0
 45
0
  0
INSERT
  5
2F7
100
AcDbEntity
  8
Основний
  6
ByLayer
 62
  256
370
   -1
100
AcDbBlockReference
  2
s9
 10
60
 20
70
 30
0
 41
1
 42
1
 43
0
 50
0
 70
    1
 71
    1
 44
0
 45
0
  0
LINE
  5
2F8
100
AcDbEntity
  8
Основний
  6
ByLayer
 62
  256
370
   -1
100
AcDbLine
 10
48
 20
90
 11
48
 21
70
  0
LINE
  5
2F9
100
AcDbEntity
  8
Основний
  6
ByLayer
 62
  256
370
   -1
100
AcDbLine
 10
48
 20
70
 11
60
 21
70
  0
INSERT
  5
2FA
100
AcDbEntity
  8
Основний
  6
ByLayer
 62
  256
370
   -1
100
AcDbBlockReference
  2
r1
 10
-12
 20
-90
 30
0
 41
1
 42
1
 43
0
 50
0
 70
    1
 71
    1
 44
0
 45
0
  0
INSERT
  5
2FB
100
AcDbEntity
  8
Основний
  6
ByLayer
 62
  256
370
   -1
100
AcDbBlockReference
  2
s8_r
 10
80
 20
70
 30
0
 41
1
 42
1
 43
0
 50
90
 70
    1
 71
    1
 44
0
 45
0
  0
LINE
  5
2FC
100
AcDbEntity
  8
Основний
  6
ByLayer
 62
  256
370
   -1
100
AcDbLine
 10
75
 20
100
 11
133
 21
100
  0
LINE
  5
2FD
100
AcDbEntity
  8
Основний
  6
ByLayer
 62
  256
370
   -1
100
AcDbLine
 10
133
 20
100
 11
133
 21
70
  0
LINE
  5
2FE
100
AcDbEntity
  8
Основний
  6
ByLayer
 62
  256
370
   -1
100
AcDbLine
 10
133
 20
70
 11
125
 21
70
  0
LINE
  5
2FF
100
AcDbEntity
  8
Основний
  6
ByLayer
 62
  256
370
   -1
100
AcDbLine
 10
75
 20
70
 11
80
 21
70
  0
LINE
  5
300
100
AcDbEntity
  8
Основний
  6
ByLayer
 62
  256
370
   -1
100
AcDbLine
 10
95
 20
70
 11
110
 21
70
  0
INSERT
  5
301
100
AcDbEntity
  8
Основний
  6
ByLayer
 62
  256
370
   -1
100
AcDbBlockReference
  2
s1-0
 10
-62
 20
-133
 30
0
 41
1
 42
1
 43
0
 50
0
 70
    1
 71
    1
 44
0
 45
0
  0
LINE
  5
302
100
AcDbEntity
  8
Основний
  6
ByLayer
 62
  256
370
   -1
100
AcDbLine
 10
85.5
 20
52
 11
91.5
 21
52
  0
LINE
  5
303
100
AcDbEntity
  8
Основний
  6
ByLayer
 62
  256
370
   -1
100
AcDbLine
 10
85.5
 20
52
 11
85.5
 21
50
  0
LINE
  5
304
100
AcDbEntity
  8
Основний
  6
ByLayer
 62
  256
370
   -1
100
AcDbLine
 10
91.5
 20
52
 11
91.5
 21
50
  0
LINE
  5
305
100
AcDbEntity
  8
Основний
  6
ByLayer
 62
  256
370
   -1
100
AcDbLine
 10
88.5
 20
52
 11
88.5
 21
50.5
  0
LINE
  5
306
100
AcDbEntity
  8
Основний
  6
ByLayer
 62
  256
370
   -1
100
AcDbLine
 10
88.5
 20
49
 11
88.5
 21
47.5
  0
LINE
  5
307
100
AcDbEntity
  8
Основний
  6
ByLayer
 62
  256
370
   -1
100
AcDbLine
 10
88.5
 20
46
 11
88.5
 21
45.27
  0
LINE
  5
308
100
AcDbEntity
  8
Основний
  6
ByLayer
 62
  256
370
   -1
100
AcDbLine
 10
85.5
 20
47
 11
81
 21
47
  0
LINE
  5
309
100
AcDbEntity
  8
Основний
  6
ByLayer
 62
  256
370
   -1
100
AcDbLine
 10
96
 20
47
 11
91.5
 21
47
  0
LINE
  5
30A
100
AcDbEntity
  8
Основний
  6
ByLayer
 62
  256
370
   -1
100
AcDbLine
 10
91.5
 20
42.99999999999999
 11
91.5
 21
47
  0
POINT
  5
30B
100
AcDbEntity
  8
Основний
  6
ByLayer
 62
  256
370
   -1
100
AcDbPoint
 10
81
 20
47
  0
POINT
  5
30C
100
AcDbEntity
  8
Основний
  6
ByLayer
 62
  256
370
   -1
100
AcDbPoint
 10
96
 20
47
  0
INSERT
  5
30D
100
AcDbEntity
  8
Основний
  6
ByLayer
 62
  256
370
   -1
100
AcDbBlockReference
  2
s8_r
 10
81
 20
20
 30
0
 41
1
 42
1
 43
0
 50
90
 70
    1
 71
    1
 44
0
 45
0
  0
LINE
  5
30E
100
AcDbEntity
  8
Основний
  6
ByLayer
 62
  256
370
   -1
100
AcDbLine
 10
88.5
 20
46
 11
88.5
 21
28
  0
LINE
  5
30F
100
AcDbEntity
  8
Основний
  6
ByLayer
 62
  256
370
   -1
100
AcDbLine
 10
102
 20
70
 11
102
 21
20
  0
LINE
  5
310
100
AcDbEntity
  8
Основний
  6
ByLayer
 62
  256
370
   -1
100
AcDbLine
 10
102
 20
20
 11
95
 21
20
  0
LINE
  5
311
100
AcDbEntity
  8
Основний
  6
ByLayer
 62
  256
370
   -1
100
AcDbLine
 10
96
 20
47
 11
102
 21
47
  0
LINE
  5
312
100
AcDbEntity
  8
Основний
  6
ByLayer
 62
  256
370
   -1
100
AcDbLine
 10
75
 20
47
 11
81
 21
47
  0
LINE
  5
313
100
AcDbEntity
  8
Основний
  6
ByLayer
 62
  256
370
   -1
100
AcDbLine
 10
77
 20
70
 11
77
 21
59
  0
LINE
  5
314
100
AcDbEntity
  8
Основний
  6
ByLayer
 62
  256
370
   -1
100
AcDbLine
 10
77
 20
59
 11
48
 21
59
  0
LINE
  5
315
100
AcDbEntity
  8
Основний
  6
ByLayer
 62
  256
370
   -1
100
AcDbLine
 10
48
 20
59
 11
48
 21
20
  0
LINE
  5
316
100
AcDbEntity
  8
Основний
  6
ByLayer
 62
  256
370
   -1
100
AcDbLine
 10
48
 20
20
 11
81
 21
20
  0
LINE
  5
317
100
AcDbEntity
  8
Основний
  6
ByLayer
 62
  256
370
   -1
100
AcDbLine
 10
48
 20
47
 11
61
 21
47
  0
LINE
  5
318
100
AcDbEntity
  8
Основний
  6
ByLayer
 62
  256
370
   -1
100
AcDbLine
 10
85.5
 20
47
 11
92.5
 21
42.96
  0
MTEXT
  5
319
100
AcDbEntity
  8
Позначення
  6
ByLayer
 62
  256
370
   -1
100
AcDbMText
 10
36
 20
75
 30
0
 40
4
 41
8.444444444444443
 71
    5
 72
    1
  1
KM1
  7
unicode
210
0
220
0
230
1
 50
0
 73
    2
 44
1
  0
MTEXT
  5
31A
100
AcDbEntity
  8
Позначення
  6
ByLayer
 62
  256
370
   -1
100
AcDbMText
 10
58
 20
52
 30
0
 40
4
 41
8.444444444444443
 71
    5
 72
    1
  1
KM1
  7
unicode
210
0
220
0
230
1
 50
0
 73
    2
 44
1
  0
MTEXT
  5
31B
100
AcDbEntity
  8
Позначення
  6
ByLayer
 62
  256
370
   -1
100
AcDbMText
 10
117
 20
81
 30
0
 40
4
 41
8.444444444444443
 71
    5
 72
    1
  1
KM1
  7
unicode
210
0
220
0
230
1
 50
0
 73
    2
 44
1
  0
MTEXT
  5
31C
100
AcDbEntity
  8
Позначення
  6
ByLayer
 62
  256
370
   -1
100
AcDbMText
 10
36
 20
60
 30
0
 40
4
 41
8
 71
    5
 72
    1
  1
КК1
  7
unicode
210
0
220
0
230
1
 50
0
 73
    2
 44
1
  0
MTEXT
  5
31D
100
AcDbEntity
  8
Позначення
  6
ByLayer
 62
  256
370
   -1
100
AcDbMText
 10
68
 20
104
 30
0
 40
4
 41
8
 71
    5
 72
    1
  1
КК1
  7
unicode
210
0
220
0
230
1
 50
0
 73
    2
 44
1
  0
MTEXT
  5
31E
100
AcDbEntity
  8
Позначення
  6
ByLayer
 62
  256
370
   -1
100
AcDbMText
 10
67
 20
79
 30
0
 40
4
 41
8.004805742669646
 71
    5
 72
    1
  1
SB1
  7
unicode
210
0
220
0
230
1
 50
0
 73
    2
 44
1
  0
MTEXT
  5
31F
100
AcDbEntity
  8
Позначення
  6
ByLayer
 62
  256
370
   -1
100
AcDbMText
 10
87
 20
83
 30
0
 40
4
 41
8.893694631558535
 71
    5
 72
    1
  1
SB2
  7
unicode
210
0
220
0
230
1
 50
0
 73
    2
 44
1
  0
MTEXT
  5
320
100
AcDbEntity
  8
Позначення
  6
ByLayer
 62
  256
370
   -1
100
AcDbMText
 10
89
 20
56
 30
0
 40
4
 41
8.893694631558535
 71
    5
 72
    1
  1
SB3
  7
unicode
210
0
220
0
230
1
 50
0
 73
    2
 44
1
  0
LINE
  5
321
100
AcDbEntity
  8
Основний
  6
ByLayer
 62
  256
370
   -1
100
AcDbLine
 10
195
 20
100
 11
210
 21
100
  0
LINE
  5
322
100
AcDbEntity
  8
Основний
  6
ByLayer
 62
  256
370
   -1
100
AcDbLine
 10
225
 20
100
 11
240
 21
100
  0
LINE
  5
323
100
AcDbEntity
  8
Основний
  6
ByLayer
 62
  256
370
   -1
100
AcDbLine
 10
255
 20
100
 11
268
 21
100
  0
LINE
  5
324
100
AcDbEntity
  8
Основний
  6
ByLayer
 62
  256
370
   -1
100
AcDbLine
 10
199
 20
73
 11
199
 21
53
  0
LINE
  5
325
100
AcDbEntity
  8
Основний
  6
ByLayer
 62
  256
370
   -1
100
AcDbLine
 10
199
 20
53
 11
194
 21
53
  0
LINE
  5
326
100
AcDbEntity
  8
Основний
  6
ByLayer
 62
  256
370
   -1
100
AcDbLine
 10
194
 20
73
 11
239
 21
73
  0
LINE
  5
327
100
AcDbEntity
  8
Основний
  6
ByLayer
 62
  256
370
   -1
100
AcDbLine
 10
268
 20
73
 11
268
 21
120
  0
LINE
  5
328
100
AcDbEntity
  8
Основний
  6
ByLayer
 62
  256
370
   -1
100
AcDbLine
 10
254
 20
73
 11
268
 21
73
  0
LINE
  5
329
100
AcDbEntity
  8
Основний
  6
ByLayer
 62
  256
370
   -1
100
AcDbLine
 10
170
 20
120
 11
170
 21
53
  0
LINE
  5
32A
100
AcDbEntity
  8
Основний
  6
ByLayer
 62
  256
370
   -1
100
AcDbLine
 10
170
 20
53
 11
179
 21
53
  0
LINE
  5
32B
100
AcDbEntity
  8
Основний
  6
ByLayer
 62
  256
370
   -1
100
AcDbLine
 10
179
 20
73
 11
170
 21
73
  0
LINE
  5
32C
100
AcDbEntity
  8
Основний
  6
ByLayer
 62
  256
370
   -1
100
AcDbLine
 10
180
 20
100
 11
170
 21
100
  0
LINE
  5
32D
100
AcDbEntity
  8
Основний
  6
ByLayer
 62
  256
370
   -1
100
AcDbLine
 10
205
 20
100
 11
205
 21
84
  0
LINE
  5
32E
100
AcDbEntity
  8
Основний
  6
ByLayer
 62
  256
370
   -1
100
AcDbLine
 10
205
 20
84
 11
210
 21
84
  0
LINE
  5
32F
100
AcDbEntity
  8
Основний
  6
ByLayer
 62
  256
370
   -1
100
AcDbLine
 10
225
 20
84
 11
233
 21
84
  0
LINE
  5
330
100
AcDbEntity
  8
Основний
  6
ByLayer
 62
  256
370
   -1
100
AcDbLine
 10
233
 20
84
 11
233
 21
100
  0
CIRCLE
  5
331
100
AcDbEntity
  8
Основний
  6
ByLayer
 62
  256
370
   -1
100
AcDbCircle
 10
77
 20
70
 40
0.6403124237432751
  0
CIRCLE
  5
332
100
AcDbEntity
  8
Основний
  6
ByLayer
 62
  256
370
   -1
100
AcDbCircle
 10
48
 20
47
 40
0.6403124237432751
  0
CIRCLE
  5
333
100
AcDbEntity
  8
Основний
  6
ByLayer
 62
  256
370
   -1
100
AcDbCircle
 10
102
 20
70
 40
0.6403124237432751
  0
CIRCLE
  5
334
100
AcDbEntity
  8
Основний
  6
ByLayer
 62
  256
370
   -1
100
AcDbCircle
 10
102
 20
47
 40
0.6403124237432751
  0
CIRCLE
  5
335
100
AcDbEntity
  8
Основний
  6
ByLayer
 62
  256
370
   -1
100
AcDbCircle
 10
170
 20
100
 40
0.6403124237432751
  0
CIRCLE
  5
336
100
AcDbEntity
  8
Основний
  6
ByLayer
 62
  256
370
   -1
100
AcDbCircle
 10
170
 20
73
 40
0.6403124237432751
  0
CIRCLE
  5
337
100
AcDbEntity
  8
Основний
  6
ByLayer
 62
  256
370
   -1
100
AcDbCircle
 10
199
 20
73
 40
0.6403124237432751
  0
CIRCLE
  5
338
100
AcDbEntity
  8
Основний
  6
ByLayer
 62
  256
370
   -1
100
AcDbCircle
 10
205
 20
100
 40
0.6403124237432751
  0
CIRCLE
  5
339
100
AcDbEntity
  8
Основний
  6
ByLayer
 62
  256
370
   -1
100
AcDbCircle
 10
233
 20
100
 40
0.6403124237432751
  0
CIRCLE
  5
33A
100
AcDbEntity
  8
Основний
  6
ByLayer
 62
  256
370
   -1
100
AcDbCircle
 10
268
 20
100
 40
0.6403124237432751
  0
MTEXT
  5
33B
100
AcDbEntity
  8
Позначення
  6
ByLayer
 62
  256
370
   -1
100
AcDbMText
 10
188
 20
109
 30
0
 40
4
 41
8.004805742669646
 71
    5
 72
    1
  1
SB1
  7
unicode
210
0
220
0
230
1
 50
0
 73
    2
 44
1
  0
MTEXT
  5
33C
100
AcDbEntity
  8
Позначення
  6
ByLayer
 62
  256
370
   -1
100
AcDbMText
 10
217
 20
112
 30
0
 40
4
 41
8.893694631558535
 71
    5
 72
    1
  1
SB2
  7
unicode
210
0
220
0
230
1
 50
0
 73
    2
 44
1
  0
MTEXT
  5
33D
100
AcDbEntity
  8
Позначення
  6
ByLayer
 62
  256
370
   -1
100
AcDbMText
 10
219
 20
88
 30
0
 40
4
 41
4.444444444444445
 71
    5
 72
    1
  1
K1\P
  7
unicode
210
0
220
0
230
1
 50
0
 73
    2
 44
1
  0
MTEXT
  5
33E
100
AcDbEntity
  8
Позначення
  6
ByLayer
 62
  256
370
   -1
100
AcDbMText
 10
247
 20
107
 30
0
 40
4
 41
4.444444444444445
 71
    5
 72
    1
  1
K1\P
  7
unicode
210
0
220
0
230
1
 50
0
 73
    2
 44
1
  0
MTEXT
  5
33F
100
AcDbEntity
  8
Позначення
  6
ByLayer
 62
  256
370
   -1
100
AcDbMText
 10
247
 20
83
 30
0
 40
4
 41
8.444444444444443
 71
    5
 72
    1
  1
KM1
  7
unicode
210
0
220
0
230
1
 50
0
 73
    2
 44
1
  0
MTEXT
  5
340
100
AcDbEntity
  8
Позначення
  6
ByLayer
 62
  256
370
   -1
100
AcDbMText
 10
187
 20
85
 30
0
 40
4
 41
8.893694631558535
 71
    5
 72
    1
  1
SB3
  7
unicode
210
0
220
0
230
1
 50
0
 73
    2
 44
1
  0
MTEXT
  5
341
100
AcDbEntity
  8
Позначення
  6
ByLayer
 62
  256
370
   -1
100
AcDbMText
 10
187
 20
58
 30
0
 40
4
 41
4.444444444444445
 71
    5
 72
    1
  1
K1\P
  7
unicode
210
0
220
0
230
1
 50
0
 73
    2
 44
1
  0
INSERT
  5
342
100
AcDbEntity
  8
Основний
  6
ByLayer
 62
  256
370
   -1
100
AcDbBlockReference
  2
s9-2
 10
180
 20
100
 30
0
 41
1
 42
1
 43
0
 50
0
 70
    1
 71
    1
 44
0
 45
0
  0
INSERT
  5
343
100
AcDbEntity
  8
Основний
  6
ByLayer
 62
  256
370
   -1
100
AcDbBlockReference
  2
s8
 10
210
 20
100
 30
0
 41
1
 42
1
 43
0
 50
0
 70
    1
 71
    1
 44
0
 45
0
  0
INSERT
  5
344
100
AcDbEntity
  8
Основний
  6
ByLayer
 62
  256
370
   -1
100
AcDbBlockReference
  2
r1-1
 10
240
 20
100
 30
0
 41
1
 42
1
 43
0
 50
0
 70
    1
 71
    1
 44
0
 45
0
  0
INSERT
  5
345
100
AcDbEntity
  8
Основний
  6
ByLayer
 62
  256
370
   -1
100
AcDbBlockReference
  2
s1
 10
210
 20
84
 30
0
 41
1
 42
1
 43
0
 50
0
 70
    1
 71
    1
 44
0
 45
0
  0
INSERT
  5
346
100
AcDbEntity
  8
Основний
  6
ByLayer
 62
  256
370
   -1
100
AcDbBlockReference
  2
s8-0
 10
179
 20
73
 30
0
 41
1
 42
1
 43
0
 50
0
 70
    1
 71
    1
 44
0
 45
0
  0
INSERT
  5
347
100
AcDbEntity
  8
Основний
  6
ByLayer
 62
  256
370
   -1
100
AcDbBlockReference
  2
s1-4
 10
179
 20
53
 30
0
 41
1
 42
1
 43
0
 50
0
 70
    1
 71
    1
 44
0
 45
0
  0
INSERT
  5
348
100
AcDbEntity
  8
Основний
  6
ByLayer
 62
  256
370
   -1
100
AcDbBlockReference
  2
r1-2
 10
239
 20
73
 30
0
 41
1
 42
1
 43
0
 50
0
 70
    1
 71
    1
 44
0
 45
0
  0
ENDSEC
  0
SECTION
  2
OBJECTS
  0
DICTIONARY
  5
C
330
0
100
AcDbDictionary
281
    1
  3
ACAD_GROUP
350
D
  0
DICTIONARY
  5
D
330
C
100
AcDbDictionary
281
    1
  0
PLOTSETTINGS
  5
349
100
AcDbPlotSettings
  6
1x1
 40
0
 41
0
 42
0
 43
0
  0
ENDSEC
  0
EOF
