999
dxfrw 0.6.3
  0
SECTION
  2
HEADER
  9
$ACADVER
  1
AC1021
  9
$DWGCODEPAGE
  3
ANSI_1251
  9
$INSBASE
 10
0
 20
0
 30
0
  9
$EXTMIN
 10
10000000000
 20
10000000000
 30
0
  9
$EXTMAX
 10
-10000000000
 20
-10000000000
 30
0
  9
$LIMMIN
 10
0
 20
0
  9
$LIMMAX
 10
420
 20
297
  9
$ORTHOMODE
 70
    0
  9
$REGENMODE
 70
    1
  9
$FILLMODE
 70
    1
  9
$QTEXTMODE
 70
    0
  9
$MIRRTEXT
 70
    0
  9
$LTSCALE
 40
1
  9
$ATTMODE
 70
    0
  9
$TEXTSIZE
 40
2.5
  9
$TRACEWID
 40
15.68
  9
$TEXTSTYLE
  7
STANDARD
  9
$CLAYER
  8
0
  9
$CELTYPE
  6
BYLAYER
  9
$CECOLOR
 62
  256
  9
$CELTSCALE
 40
1
  9
$DISPSILH
 70
    0
  9
$DIMSCALE
 40
2.5
  9
$DIMASZ
 40
2.5
  9
$DIMEXO
 40
0.625
  9
$DIMDLI
 40
3.75
  9
$DIMRND
 40
0
  9
$DIMDLE
 40
0
  9
$DIMEXE
 40
1.25
  9
$DIMTP
 40
0
  9
$DIMTM
 40
0
  9
$DIMTXT
 40
2.5
  9
$DIMCEN
 40
2.5
  9
$DIMTSZ
 40
0
  9
$DIMTOL
 70
    0
  9
$DIMLIM
 70
    0
  9
$DIMTIH
 70
    0
  9
$DIMTOH
 70
    0
  9
$DIMSE1
 70
    0
  9
$DIMSE2
 70
    0
  9
$DIMTAD
 70
    1
  9
$DIMZIN
 70
    8
  9
$DIMBLK
  1

  9
$DIMASO
 70
    1
  9
$DIMSHO
 70
    1
  9
$DIMPOST
  1

  9
$DIMAPOST
  1

  9
$DIMALT
 70
    0
  9
$DIMALTD
 70
    3
  9
$DIMALTF
 40
0.03937
  9
$DIMLFAC
 40
1
  9
$DIMTOFL
 70
    1
  9
$DIMTVP
 40
0
  9
$DIMTIX
 70
    0
  9
$DIMSOXD
 70
    0
  9
$DIMSAH
 70
    0
  9
$DIMBLK1
  1

  9
$DIMBLK2
  1

  9
$DIMSTYLE
  2
Standard
  9
$DIMCLRD
 70
    0
  9
$DIMCLRE
 70
    0
  9
$DIMCLRT
 70
    0
  9
$DIMTFAC
 40
1
  9
$DIMGAP
 40
0.625
  9
$DIMJUST
 70
    0
  9
$DIMSD1
 70
    0
  9
$DIMSD2
 70
    0
  9
$DIMTOLJ
 70
    0
  9
$DIMTZIN
 70
    8
  9
$DIMALTZ
 70
    0
  9
$DIMALTTZ
 70
    0
  9
$DIMUPT
 70
    0
  9
$DIMDEC
 70
    2
  9
$DIMTDEC
 70
    2
  9
$DIMALTU
 70
    2
  9
$DIMALTTD
 70
    3
  9
$DIMTXSTY
  7
STANDARD
  9
$DIMAUNIT
 70
    0
  9
$DIMADEC
 70
    0
  9
$DIMALTRND
 40
0
  9
$DIMAZIN
 70
    0
  9
$DIMDSEP
 70
   44
  9
$DIMATFIT
 70
    3
  9
$DIMFRAC
 70
    0
  9
$DIMLDRBLK
  1
STANDARD
  9
$DIMLUNIT
 70
    2
  9
$DIMLWD
 70
   -2
  9
$DIMLWE
 70
   -2
  9
$DIMTMOVE
 70
    0
  9
$DIMFXL
 40
1
  9
$DIMFXLON
 70
    0
  9
$DIMJOGANG
 40
0.7854
  9
$DIMTFILL
 70
    0
  9
$DIMTFILLCLR
 70
    0
  9
$DIMARCSYM
 70
    0
  9
$DIMLTYPE
  6

  9
$DIMLTEX1
  6

  9
$DIMLTEX2
  6

  9
$LUNITS
 70
    2
  9
$LUPREC
 70
    4
  9
$SKETCHINC
 40
1
  9
$FILLETRAD
 40
0
  9
$AUNITS
 70
    0
  9
$AUPREC
 70
    2
  9
$MENU
  1
.
  9
$ELEVATION
 40
0
  9
$PELEVATION
 40
0
  9
$THICKNESS
 40
0
  9
$LIMCHECK
 70
    0
  9
$CHAMFERA
 40
0
  9
$CHAMFERB
 40
0
  9
$CHAMFERC
 40
0
  9
$CHAMFERD
 40
0
  9
$SKPOLY
 70
    0
  9
$USRTIMER
 70
    1
  9
$ANGBASE
 50
0
  9
$ANGDIR
 70
    0
  9
$PDMODE
 70
   34
  9
$PDSIZE
 40
0
  9
$PLINEWID
 40
0
  9
$SPLFRAME
 70
    0
  9
$SPLINETYPE
 70
    2
  9
$SPLINESEGS
 70
    8
  9
$HANDSEED
  5
20000
  9
$SURFTAB1
 70
    6
  9
$SURFTAB2
 70
    6
  9
$SURFTYPE
 70
    6
  9
$SURFU
 70
    6
  9
$SURFV
 70
    6
  9
$UCSBASE
  2

  9
$UCSNAME
  2

  9
$UCSORG
 10
0
 20
0
 30
0
  9
$UCSXDIR
 10
1
 20
0
 30
0
  9
$UCSYDIR
 10
0
 20
1
 30
0
  9
$UCSORTHOREF
  2

  9
$UCSORTHOVIEW
 70
    0
  9
$UCSORGTOP
 10
0
 20
0
 30
0
  9
$UCSORGBOTTOM
 10
0
 20
0
 30
0
  9
$UCSORGLEFT
 10
0
 20
0
 30
0
  9
$UCSORGRIGHT
 10
0
 20
0
 30
0
  9
$UCSORGFRONT
 10
0
 20
0
 30
0
  9
$UCSORGBACK
 10
0
 20
0
 30
0
  9
$PUCSBASE
  2

  9
$PUCSNAME
  2

  9
$PUCSORG
 10
0
 20
0
 30
0
  9
$PUCSXDIR
 10
1
 20
0
 30
0
  9
$PUCSYDIR
 10
0
 20
1
 30
0
  9
$PUCSORTHOREF
  2

  9
$PUCSORTHOVIEW
 70
    0
  9
$PUCSORGTOP
 10
0
 20
0
 30
0
  9
$PUCSORGBOTTOM
 10
0
 20
0
 30
0
  9
$PUCSORGLEFT
 10
0
 20
0
 30
0
  9
$PUCSORGRIGHT
 10
0
 20
0
 30
0
  9
$PUCSORGFRONT
 10
0
 20
0
 30
0
  9
$PUCSORGBACK
 10
0
 20
0
 30
0
  9
$USERI1
 70
    0
  9
$USERI2
 70
    0
  9
$USERI3
 70
    0
  9
$USERI4
 70
    0
  9
$USERI5
 70
    0
  9
$USERR1
 40
0
  9
$USERR2
 40
0
  9
$USERR3
 40
0
  9
$USERR4
 40
0
  9
$USERR5
 40
0
  9
$WORLDVIEW
 70
    1
  9
$SHADEDGE
 70
    3
  9
$SHADEDIF
 70
   70
  9
$TILEMODE
 70
    1
  9
$MAXACTVP
 70
   64
  9
$PINSBASE
 10
0
 20
0
 30
0
  9
$PLIMCHECK
 70
    0
  9
$PEXTMIN
 10
0
 20
0
 30
0
  9
$PEXTMAX
 10
0
 20
0
 30
0
  9
$GRIDMODE
 70
    1
  9
$SNAPSTYLE
 70
    0
  9
$GRIDUNIT
 10
0
 20
0
  9
$PLIMMIN
 10
0
 20
0
  9
$PLIMMAX
 10
594
 20
841
  9
$UNITMODE
 70
    0
  9
$VISRETAIN
 70
    1
  9
$PLINEGEN
 70
    0
  9
$PSLTSCALE
 70
    1
  9
$TREEDEPTH
 70
 3020
  9
$CMLSTYLE
  2
Standard
  9
$CMLJUST
 70
    0
  9
$CMLSCALE
 40
20
  9
$PROXYGRAPHICS
 70
    1
  9
$MEASUREMENT
 70
    1
  9
$CELWEIGHT
370
   -1
  9
$ENDCAPS
280
    0
  9
$JOINSTYLE
280
    0
  9
$LWDISPLAY
290
    0
  9
$INSUNITS
 70
    4
  9
$HYPERLINKBASE
  1

  9
$STYLESHEET
  1

  9
$XEDIT
290
    1
  9
$CEPSNTYPE
380
    0
  9
$PSTYLEMODE
290
    1
  9
$EXTNAMES
290
    1
  9
$PSVPSCALE
 40
1
  9
$OLESTARTUP
290
    0
  9
$SORTENTS
280
  127
  9
$INDEXCTL
280
    0
  9
$HIDETEXT
280
    1
  9
$XCLIPFRAME
290
    0
  9
$HALOGAP
280
    0
  9
$OBSCOLOR
 70
  257
  9
$OBSLTYPE
280
    0
  9
$INTERSECTIONDISPLAY
280
    0
  9
$INTERSECTIONCOLOR
 70
  257
  9
$DIMASSOC
280
    1
  9
$PROJECTNAME
  1

  9
$CAMERADISPLAY
290
    0
  9
$LENSLENGTH
 40
50
  9
$CAMERAHEIGHT
 40
0
  9
$STEPSPERSEC
 40
2
  9
$STEPSIZE
 40
50
  9
$3DDWFPREC
 40
2
  9
$PSOLWIDTH
 40
5
  9
$PSOLHEIGHT
 40
80
  9
$LOFTANG1
 40
1.570796326794897
  9
$LOFTANG2
 40
1.570796326794897
  9
$LOFTMAG1
 40
0
  9
$LOFTMAG2
 40
0
  9
$LOFTPARAM
 70
    7
  9
$LOFTNORMALS
280
    1
  9
$LATITUDE
 40
1
  9
$LONGITUDE
 40
1
  9
$NORTHDIRECTION
 40
0
  9
$TIMEZONE
 70
-8000
  9
$LIGHTGLYPHDISPLAY
280
    1
  9
$TILEMODELIGHTSYNCH
280
    1
  9
$SOLIDHIST
280
    1
  9
$SHOWHIST
280
    1
  9
$DWFFRAME
280
    2
  9
$DGNFRAME
280
    0
  9
$REALWORLDSCALE
290
    1
  9
$INTERFERECOLOR
 62
    1
  9
$CSHADOW
280
    0
  9
$SHADOWPLANELOCATION
 40
0
  0
ENDSEC
  0
SECTION
  2
CLASSES
  0
ENDSEC
  0
SECTION
  2
TABLES
  0
TABLE
  2
VPORT
  5
8
330
0
100
AcDbSymbolTable
 70
    1
  0
VPORT
  5
31
330
2
100
AcDbSymbolTableRecord
100
AcDbViewportTableRecord
  2
*ACTIVE
 70
    0
 10
0
 20
0
 11
1
 21
1
 12
332.8448357385448
 22
41.73972956231268
 13
0
 23
0
 14
10
 24
10
 15
10
 25
10
 16
0
 26
0
 36
1
 17
0
 27
0
 37
0
 40
167.6027187052247
 41
1.669654289372599
 42
50
 43
0
 44
0
 50
0
 51
0
 71
    0
 72
  100
 73
    1
 74
    3
 75
    0
 76
    1
 77
    0
 78
    0
281
    0
 65
    1
110
0
120
0
130
0
111
1
121
0
131
0
112
0
122
1
132
0
 79
    0
146
0
348
10020
 60
    7
 61
    5
292
1
282
    1
141
0
142
0
 63
  250
421
3358443
  0
ENDTAB
  0
TABLE
  2
LTYPE
  5
5
330
0
100
AcDbSymbolTable
 70
    4
  0
LTYPE
  5
14
330
5
100
AcDbSymbolTableRecord
100
AcDbLinetypeTableRecord
  2
ByBlock
 70
    0
  3

 72
   65
 73
    0
 40
0
  0
LTYPE
  5
15
330
5
100
AcDbSymbolTableRecord
100
AcDbLinetypeTableRecord
  2
ByLayer
 70
    0
  3

 72
   65
 73
    0
 40
0
  0
LTYPE
  5
16
330
5
100
AcDbSymbolTableRecord
100
AcDbLinetypeTableRecord
  2
Continuous
 70
    0
  3
Solid line
 72
   65
 73
    0
 40
0
  0
LTYPE
  5
32
330
5
100
AcDbSymbolTableRecord
100
AcDbLinetypeTableRecord
  2
DOT
 70
    0
  3
Dot . . . . . . . . . . . . . . . . . . . . . .
 72
   65
 73
    2
 40
6.35
 49
0
 74
    0
 49
-6.35
 74
    0
  0
LTYPE
  5
33
330
5
100
AcDbSymbolTableRecord
100
AcDbLinetypeTableRecord
  2
DOTTINY
 70
    0
  3
Dot (.15x) .....................................
 72
   65
 73
    2
 40
0.9525
 49
0
 74
    0
 49
-0.9525
 74
    0
  0
LTYPE
  5
34
330
5
100
AcDbSymbolTableRecord
100
AcDbLinetypeTableRecord
  2
DOT2
 70
    0
  3
Dot (.5x) .....................................
 72
   65
 73
    2
 40
3.175
 49
0
 74
    0
 49
-3.175
 74
    0
  0
LTYPE
  5
35
330
5
100
AcDbSymbolTableRecord
100
AcDbLinetypeTableRecord
  2
DOTX2
 70
    0
  3
Dot (2x) .  .  .  .  .  .  .  .  .  .  .  .  .
 72
   65
 73
    2
 40
12.7
 49
0
 74
    0
 49
-12.7
 74
    0
  0
LTYPE
  5
36
330
5
100
AcDbSymbolTableRecord
100
AcDbLinetypeTableRecord
  2
DASHED
 70
    0
  3
Dashed _ _ _ _ _ _ _ _ _ _ _ _ _ _ _ _ _
 72
   65
 73
    2
 40
19.05
 49
12.7
 74
    0
 49
-6.35
 74
    0
  0
LTYPE
  5
37
330
5
100
AcDbSymbolTableRecord
100
AcDbLinetypeTableRecord
  2
DASHEDTINY
 70
    0
  3
Dashed (.15x) _ _ _ _ _ _ _ _ _ _ _ _ _ _ _ _ _
 72
   65
 73
    2
 40
2.8575
 49
1.905
 74
    0
 49
-0.9525
 74
    0
  0
LTYPE
  5
38
330
5
100
AcDbSymbolTableRecord
100
AcDbLinetypeTableRecord
  2
DASHED2
 70
    0
  3
Dashed (.5x) _ _ _ _ _ _ _ _ _ _ _ _ _ _ _ _ _
 72
   65
 73
    2
 40
9.524999999999999
 49
6.35
 74
    0
 49
-3.175
 74
    0
  0
LTYPE
  5
39
330
5
100
AcDbSymbolTableRecord
100
AcDbLinetypeTableRecord
  2
DASHEDX2
 70
    0
  3
Dashed (2x) ____  ____  ____  ____  ____  ___
 72
   65
 73
    2
 40
38.09999999999999
 49
25.4
 74
    0
 49
-12.7
 74
    0
  0
LTYPE
  5
3A
330
5
100
AcDbSymbolTableRecord
100
AcDbLinetypeTableRecord
  2
DASHDOT
 70
    0
  3
Dash dot __ . __ . __ . __ . __ . __ . __ . __
 72
   65
 73
    4
 40
25.4
 49
12.7
 74
    0
 49
-6.35
 74
    0
 49
0
 74
    0
 49
-6.35
 74
    0
  0
LTYPE
  5
3B
330
5
100
AcDbSymbolTableRecord
100
AcDbLinetypeTableRecord
  2
DASHDOTTINY
 70
    0
  3
Dash dot (.15x) _._._._._._._._._._._._._._._.
 72
   65
 73
    4
 40
3.81
 49
1.905
 74
    0
 49
-0.9525
 74
    0
 49
0
 74
    0
 49
-0.9525
 74
    0
  0
LTYPE
  5
3C
330
5
100
AcDbSymbolTableRecord
100
AcDbLinetypeTableRecord
  2
DASHDOT2
 70
    0
  3
Dash dot (.5x) _._._._._._._._._._._._._._._.
 72
   65
 73
    4
 40
12.7
 49
6.35
 74
    0
 49
-3.175
 74
    0
 49
0
 74
    0
 49
-3.175
 74
    0
  0
LTYPE
  5
3D
330
5
100
AcDbSymbolTableRecord
100
AcDbLinetypeTableRecord
  2
DASHDOTX2
 70
    0
  3
Dash dot (2x) ____  .  ____  .  ____  .  ___
 72
   65
 73
    4
 40
50.8
 49
25.4
 74
    0
 49
-12.7
 74
    0
 49
0
 74
    0
 49
-12.7
 74
    0
  0
LTYPE
  5
3E
330
5
100
AcDbSymbolTableRecord
100
AcDbLinetypeTableRecord
  2
DIVIDE
 70
    0
  3
Divide ____ . . ____ . . ____ . . ____ . . ____
 72
   65
 73
    6
 40
31.75
 49
12.7
 74
    0
 49
-6.35
 74
    0
 49
0
 74
    0
 49
-6.35
 74
    0
 49
0
 74
    0
 49
-6.35
 74
    0
  0
LTYPE
  5
3F
330
5
100
AcDbSymbolTableRecord
100
AcDbLinetypeTableRecord
  2
DIVIDETINY
 70
    0
  3
Divide (.15x) __..__..__..__..__..__..__..__.._
 72
   65
 73
    6
 40
4.7625
 49
1.905
 74
    0
 49
-0.9525
 74
    0
 49
0
 74
    0
 49
-0.9525
 74
    0
 49
0
 74
    0
 49
-0.9525
 74
    0
  0
LTYPE
  5
40
330
5
100
AcDbSymbolTableRecord
100
AcDbLinetypeTableRecord
  2
DIVIDE2
 70
    0
  3
Divide (.5x) __..__..__..__..__..__..__..__.._
 72
   65
 73
    6
 40
15.875
 49
6.35
 74
    0
 49
-3.175
 74
    0
 49
0
 74
    0
 49
-3.175
 74
    0
 49
0
 74
    0
 49
-3.175
 74
    0
  0
LTYPE
  5
41
330
5
100
AcDbSymbolTableRecord
100
AcDbLinetypeTableRecord
  2
DIVIDEX2
 70
    0
  3
Divide (2x) ________  .  .  ________  .  .  _
 72
   65
 73
    6
 40
63.5
 49
25.4
 74
    0
 49
-12.7
 74
    0
 49
0
 74
    0
 49
-12.7
 74
    0
 49
0
 74
    0
 49
-12.7
 74
    0
  0
LTYPE
  5
42
330
5
100
AcDbSymbolTableRecord
100
AcDbLinetypeTableRecord
  2
BORDER
 70
    0
  3
Border __ __ . __ __ . __ __ . __ __ . __ __ .
 72
   65
 73
    6
 40
44.45
 49
12.7
 74
    0
 49
-6.35
 74
    0
 49
12.7
 74
    0
 49
-6.35
 74
    0
 49
0
 74
    0
 49
-6.35
 74
    0
  0
LTYPE
  5
43
330
5
100
AcDbSymbolTableRecord
100
AcDbLinetypeTableRecord
  2
BORDERTINY
 70
    0
  3
Border (.15x) __.__.__.__.__.__.__.__.__.__.__.
 72
   65
 73
    6
 40
6.6675
 49
1.905
 74
    0
 49
-0.9525
 74
    0
 49
1.905
 74
    0
 49
-0.9525
 74
    0
 49
0
 74
    0
 49
-0.9525
 74
    0
  0
LTYPE
  5
44
330
5
100
AcDbSymbolTableRecord
100
AcDbLinetypeTableRecord
  2
BORDER2
 70
    0
  3
Border (.5x) __.__.__.__.__.__.__.__.__.__.__.
 72
   65
 73
    6
 40
22.225
 49
6.35
 74
    0
 49
-3.175
 74
    0
 49
6.35
 74
    0
 49
-3.175
 74
    0
 49
0
 74
    0
 49
-3.175
 74
    0
  0
LTYPE
  5
45
330
5
100
AcDbSymbolTableRecord
100
AcDbLinetypeTableRecord
  2
BORDERX2
 70
    0
  3
Border (2x) ____  ____  .  ____  ____  .  ___
 72
   65
 73
    6
 40
88.89999999999999
 49
25.4
 74
    0
 49
-12.7
 74
    0
 49
25.4
 74
    0
 49
-12.7
 74
    0
 49
0
 74
    0
 49
-12.7
 74
    0
  0
LTYPE
  5
46
330
5
100
AcDbSymbolTableRecord
100
AcDbLinetypeTableRecord
  2
CENTER
 70
    0
  3
Center ____ _ ____ _ ____ _ ____ _ ____ _ ____
 72
   65
 73
    4
 40
50.8
 49
31.75
 74
    0
 49
-6.35
 74
    0
 49
6.35
 74
    0
 49
-6.35
 74
    0
  0
LTYPE
  5
47
330
5
100
AcDbSymbolTableRecord
100
AcDbLinetypeTableRecord
  2
CENTERTINY
 70
    0
  3
Center (.15x) ___ _ ___ _ ___ _ ___ _ ___ _ ___
 72
   65
 73
    4
 40
7.62
 49
4.7625
 74
    0
 49
-0.9525
 74
    0
 49
0.9525
 74
    0
 49
-0.9525
 74
    0
  0
LTYPE
  5
48
330
5
100
AcDbSymbolTableRecord
100
AcDbLinetypeTableRecord
  2
CENTER2
 70
    0
  3
Center (.5x) ___ _ ___ _ ___ _ ___ _ ___ _ ___
 72
   65
 73
    4
 40
28.575
 49
19.05
 74
    0
 49
-3.175
 74
    0
 49
3.175
 74
    0
 49
-3.175
 74
    0
  0
LTYPE
  5
49
330
5
100
AcDbSymbolTableRecord
100
AcDbLinetypeTableRecord
  2
CENTERX2
 70
    0
  3
Center (2x) ________  __  ________  __  _____
 72
   65
 73
    4
 40
101.6
 49
63.5
 74
    0
 49
-12.7
 74
    0
 49
12.7
 74
    0
 49
-12.7
 74
    0
  0
ENDTAB
  0
TABLE
  2
LAYER
  5
2
330
0
100
AcDbSymbolTable
 70
    1
  0
LAYER
  5
10
330
2
100
AcDbSymbolTableRecord
100
AcDbLayerTableRecord
  2
0
 70
    0
 62
    7
  6
CONTINUOUS
370
    0
390
F
  0
LAYER
  5
4A
330
2
100
AcDbSymbolTableRecord
100
AcDbLayerTableRecord
  2
Написи на штампі
 70
    0
 62
    9
  6
CONTINUOUS
370
   35
390
F
  0
ENDTAB
  0
TABLE
  2
STYLE
  5
3
330
0
100
AcDbSymbolTable
 70
    3
  0
STYLE
  5
4B
330
2
100
AcDbSymbolTableRecord
100
AcDbTextStyleTableRecord
  2
Standard
 70
    0
 40
0
 41
1
 50
0
 71
    0
 42
1
  3
txt
  4

  0
ENDTAB
  0
TABLE
  2
VIEW
  5
6
330
0
100
AcDbSymbolTable
 70
    0
  0
ENDTAB
  0
TABLE
  2
UCS
  5
7
330
0
100
AcDbSymbolTable
 70
    0
  0
ENDTAB
  0
TABLE
  2
APPID
  5
9
330
0
100
AcDbSymbolTable
 70
    1
  0
APPID
  5
12
330
9
100
AcDbSymbolTableRecord
100
AcDbRegAppTableRecord
  2
ACAD
 70
    0
  0
APPID
  5
4C
330
9
100
AcDbSymbolTableRecord
100
AcDbRegAppTableRecord
  2
LibreCad
 70
    0
  0
ENDTAB
  0
TABLE
  2
DIMSTYLE
  5
A
330
0
100
AcDbSymbolTable
 70
    1
100
AcDbDimStyleTable
 71
    1
  0
DIMSTYLE
105
4D
330
A
100
AcDbSymbolTableRecord
100
AcDbDimStyleTableRecord
  2
Standard
 70
    0
 40
2.5
 41
2.5
 42
0.625
 43
0.38
 44
1.25
 45
0
 46
0
 47
0
 48
0
 49
1
140
2.5
141
0.09
142
0
143
25.4
144
1
145
0
146
1
147
0.625
148
0
 71
    0
 72
    0
 73
    0
 74
    1
 75
    0
 76
    0
 77
    0
 78
    8
 79
    0
170
    0
171
    2
172
    0
173
    0
174
    0
175
    0
176
    0
177
    0
178
    0
179
    0
271
    2
272
    4
273
    2
274
    2
275
    0
276
    0
277
    2
278
   44
279
    0
280
    0
281
    0
282
    0
283
    1
284
    0
285
    0
286
    0
288
    0
289
    3
340
STANDARD
341

371
   -2
372
   -2
  0
ENDTAB
  0
TABLE
  2
BLOCK_RECORD
  5
1
330
0
100
AcDbSymbolTable
 70
    2
  0
BLOCK_RECORD
  5
1F
330
1
100
AcDbSymbolTableRecord
100
AcDbBlockTableRecord
  2
*Model_Space
 70
    0
280
    1
281
    0
  0
BLOCK_RECORD
  5
1E
330
1
100
AcDbSymbolTableRecord
100
AcDbBlockTableRecord
  2
*Paper_Space
 70
    0
280
    1
281
    0
  0
BLOCK_RECORD
  5
4E
330
1
100
AcDbSymbolTableRecord
100
AcDbBlockTableRecord
  2
left_field001
 70
    0
280
    1
281
    0
  0
BLOCK_RECORD
  5
51
330
1
100
AcDbSymbolTableRecord
100
AcDbBlockTableRecord
  2
high_field001
 70
    0
280
    1
281
    0
  0
BLOCK_RECORD
  5
54
330
1
100
AcDbSymbolTableRecord
100
AcDbBlockTableRecord
  2
left_field002
 70
    0
280
    1
281
    0
  0
ENDTAB
  0
ENDSEC
  0
SECTION
  2
BLOCKS
  0
BLOCK
  5
20
330
1F
100
AcDbEntity
  8
0
100
AcDbBlockBegin
  2
*Model_Space
 70
    0
 10
0
 20
0
 30
0
  3
*Model_Space
  1

  0
ENDBLK
  5
21
330
1F
100
AcDbEntity
  8
0
100
AcDbBlockEnd
  0
BLOCK
  5
1C
330
1B
100
AcDbEntity
  8
0
100
AcDbBlockBegin
  2
*Paper_Space
 70
    0
 10
0
 20
0
 30
0
  3
*Paper_Space
  1

  0
ENDBLK
  5
1D
330
1F
100
AcDbEntity
  8
0
100
AcDbBlockEnd
  0
BLOCK
  5
4F
330
4E
100
AcDbEntity
  8
0
100
AcDbBlockBegin
  2
left_field001
 70
    0
 10
0
 20
0
  3
left_field001
  1

  0
LINE
  5
57
100
AcDbEntity
  8
0
  6
ByLayer
 62
  256
370
   70
100
AcDbLine
 10
0
 20
0
 11
-12
 21
0
  0
LINE
  5
58
100
AcDbEntity
  8
0
  6
ByLayer
 62
  256
370
   70
100
AcDbLine
 10
-12
 20
0
 11
-12
 21
145
  0
LINE
  5
59
100
AcDbEntity
  8
0
  6
ByLayer
 62
  256
370
   70
100
AcDbLine
 10
-12
 20
145
 11
0
 21
145
  0
LINE
  5
5A
100
AcDbEntity
  8
0
  6
ByLayer
 62
  256
370
   70
100
AcDbLine
 10
0
 20
145
 11
0
 21
0
  0
LINE
  5
5B
100
AcDbEntity
  8
0
  6
ByLayer
 62
  256
370
   70
100
AcDbLine
 10
-7
 20
-1.2e-15
 11
-7
 21
145
  0
LINE
  5
5C
100
AcDbEntity
  8
0
  6
ByLayer
 62
  256
370
   70
100
AcDbLine
 10
7.7e-15
 20
25
 11
-11.99999999999999
 21
25
  0
LINE
  5
5D
100
AcDbEntity
  8
0
  6
ByLayer
 62
  256
370
   70
100
AcDbLine
 10
1.84e-14
 20
60
 11
-11.99999999999998
 21
60
  0
LINE
  5
5E
100
AcDbEntity
  8
0
  6
ByLayer
 62
  256
370
   70
100
AcDbLine
 10
-12.00000000000001
 20
110
 11
-6.4e-15
 21
110
  0
LINE
  5
5F
100
AcDbEntity
  8
0
  6
ByLayer
 62
  256
370
   70
100
AcDbLine
 10
2.6e-14
 20
85
 11
-11.99999999999998
 21
85
  0
ENDBLK
  5
50
330
4E
100
AcDbEntity
  8
0
100
AcDbBlockEnd
  0
BLOCK
  5
52
330
51
100
AcDbEntity
  8
0
100
AcDbBlockBegin
  2
high_field001
 70
    0
 10
0
 20
0
  3
high_field001
  1

  0
LINE
  5
60
100
AcDbEntity
  8
0
  6
ByLayer
 62
  256
370
   70
100
AcDbLine
 10
0
 20
0
 11
67
 21
0
  0
LINE
  5
61
100
AcDbEntity
  8
0
  6
ByLayer
 62
  256
370
   70
100
AcDbLine
 10
67
 20
0
 11
67
 21
-14
  0
LINE
  5
62
100
AcDbEntity
  8
0
  6
ByLayer
 62
  256
370
   70
100
AcDbLine
 10
67
 20
-14
 11
0
 21
-14
  0
LINE
  5
63
100
AcDbEntity
  8
0
  6
ByLayer
 62
  256
370
   70
100
AcDbLine
 10
0
 20
-14
 11
0
 21
0
  0
LINE
  5
64
100
AcDbEntity
  8
0
  6
ByLayer
 62
  256
370
   70
100
AcDbLine
 10
27
 20
-14.00000000000001
 11
27
 21
-6.6e-15
  0
LINE
  5
65
100
AcDbEntity
  8
0
  6
ByLayer
 62
  256
370
   70
100
AcDbLine
 10
67
 20
-7
 11
27
 21
-7
  0
ENDBLK
  5
53
330
51
100
AcDbEntity
  8
0
100
AcDbBlockEnd
  0
BLOCK
  5
55
330
54
100
AcDbEntity
  8
0
100
AcDbBlockBegin
  2
left_field002
 70
    0
 10
0
 20
0
  3
left_field002
  1

  0
LINE
  5
66
100
AcDbEntity
  8
0
  6
ByLayer
 62
  256
370
   -1
100
AcDbLine
 10
0
 20
0
 11
0
 21
287
  0
LINE
  5
67
100
AcDbEntity
  8
0
  6
ByLayer
 62
  256
370
   70
100
AcDbLine
 10
0
 20
287
 11
-12
 21
287
  0
LINE
  5
68
100
AcDbEntity
  8
0
  6
ByLayer
 62
  256
370
   70
100
AcDbLine
 10
-12
 20
287
 11
-12
 21
167
  0
LINE
  5
69
100
AcDbEntity
  8
0
  6
ByLayer
 62
  256
370
   70
100
AcDbLine
 10
-12
 20
167
 11
0
 21
167
  0
LINE
  5
6A
100
AcDbEntity
  8
0
  6
ByLayer
 62
  256
370
   70
100
AcDbLine
 10
0
 20
167
 11
0
 21
287
  0
LINE
  5
6B
100
AcDbEntity
  8
0
  6
ByLayer
 62
  256
370
   70
100
AcDbLine
 10
-7
 20
287
 11
-7
 21
167
  0
LINE
  5
6C
100
AcDbEntity
  8
0
  6
ByLayer
 62
  256
370
   70
100
AcDbLine
 10
-1.1e-14
 20
227
 11
-12.00000000000001
 21
227
  0
ENDBLK
  5
56
330
54
100
AcDbEntity
  8
0
100
AcDbBlockEnd
  0
ENDSEC
  0
SECTION
  2
ENTITIES
  0
LINE
  5
6D
100
AcDbEntity
  8
0
  6
ByLayer
 62
  256
370
   70
100
AcDbLine
 10
404
 20
60
 11
589
 21
60
  0
LINE
  5
6E
100
AcDbEntity
  8
0
  6
ByLayer
 62
  256
370
   70
100
AcDbLine
 10
469
 20
5.000000000000015
 11
469
 21
60
  0
LINE
  5
6F
100
AcDbEntity
  8
0
  6
ByLayer
 62
  256
370
   70
100
AcDbLine
 10
459
 20
5.000000000000016
 11
459
 21
60
  0
LINE
  5
70
100
AcDbEntity
  8
0
  6
ByLayer
 62
  256
370
   70
100
AcDbLine
 10
444
 20
5.000000000000018
 11
444
 21
60
  0
LINE
  5
71
100
AcDbEntity
  8
0
  6
ByLayer
 62
  256
370
   70
100
AcDbLine
 10
421
 20
5.00000000000002
 11
421
 21
60
  0
LINE
  5
72
100
AcDbEntity
  8
0
  6
ByLayer
 62
  256
370
   70
100
AcDbLine
 10
559
 20
20
 11
559
 21
25
  0
LINE
  5
73
100
AcDbEntity
  8
0
  6
ByLayer
 62
  256
370
   70
100
AcDbLine
 10
554
 20
25
 11
554
 21
45
  0
LINE
  5
74
100
AcDbEntity
  8
0
  6
ByLayer
 62
  256
370
   70
100
AcDbLine
 10
571
 20
25
 11
571
 21
45
  0
LINE
  5
75
100
AcDbEntity
  8
0
  6
ByLayer
 62
  256
370
   70
100
AcDbLine
 10
411
 20
35
 11
411
 21
60
  0
LINE
  5
76
100
AcDbEntity
  8
0
  6
ByLayer
 62
  256
370
   70
100
AcDbLine
 10
539
 20
40
 11
589
 21
40
  0
LINE
  5
77
100
AcDbEntity
  8
0
  6
ByLayer
 62
  256
370
   70
100
AcDbLine
 10
404
 20
5.000000000000022
 11
404
 21
60
  0
LINE
  5
78
100
AcDbEntity
  8
0
  6
ByLayer
 62
  256
370
   70
100
AcDbLine
 10
469
 20
20
 11
589
 21
20
  0
LINE
  5
79
100
AcDbEntity
  8
0
  6
ByLayer
 62
  256
370
   70
100
AcDbLine
 10
469
 20
45
 11
589
 21
45
  0
LINE
  5
7A
100
AcDbEntity
  8
0
  6
ByLayer
 62
  256
370
   70
100
AcDbLine
 10
589
 20
25
 11
554
 21
25
  0
LINE
  5
7B
100
AcDbEntity
  8
0
  6
ByLayer
 62
  256
370
   70
100
AcDbLine
 10
554
 20
25
 11
539
 21
25
  0
LINE
  5
7C
100
AcDbEntity
  8
0
  6
ByLayer
 62
  256
370
   35
100
AcDbLine
 10
404
 20
10
 11
469
 21
10
  0
LINE
  5
7D
100
AcDbEntity
  8
0
  6
ByLayer
 62
  256
370
   35
100
AcDbLine
 10
404
 20
15
 11
469
 21
15
  0
LINE
  5
7E
100
AcDbEntity
  8
0
  6
ByLayer
 62
  256
370
   35
100
AcDbLine
 10
404
 20
50
 11
469
 21
50
  0
LINE
  5
7F
100
AcDbEntity
  8
0
  6
ByLayer
 62
  256
370
   35
100
AcDbLine
 10
404
 20
30
 11
469
 21
30
  0
LINE
  5
80
100
AcDbEntity
  8
0
  6
ByLayer
 62
  256
370
   35
100
AcDbLine
 10
404
 20
25
 11
469
 21
25
  0
LINE
  5
81
100
AcDbEntity
  8
0
  6
ByLayer
 62
  256
370
   35
100
AcDbLine
 10
544
 20
40
 11
544
 21
25
  0
LINE
  5
82
100
AcDbEntity
  8
0
  6
ByLayer
 62
  256
370
   35
100
AcDbLine
 10
549
 20
40
 11
549
 21
25
  0
LINE
  5
83
100
AcDbEntity
  8
0
  6
ByLayer
 62
  256
370
   35
100
AcDbLine
 10
404
 20
55
 11
469
 21
55
  0
LINE
  5
84
100
AcDbEntity
  8
0
  6
ByLayer
 62
  256
370
   35
100
AcDbLine
 10
404
 20
20
 11
469
 21
20
  0
LINE
  5
85
100
AcDbEntity
  8
0
  6
ByLayer
 62
  256
370
   35
100
AcDbLine
 10
404
 20
45
 11
469
 21
45
  0
LINE
  5
86
100
AcDbEntity
  8
0
  6
ByLayer
 62
  256
370
   70
100
AcDbLine
 10
404
 20
35
 11
469
 21
35
  0
LINE
  5
87
100
AcDbEntity
  8
0
  6
ByLayer
 62
  256
370
   70
100
AcDbLine
 10
404
 20
40
 11
469
 21
40
  0
LINE
  5
88
100
AcDbEntity
  8
Написи на штампі
  6
ByLayer
 62
  256
370
   -1
100
AcDbLine
 10
424.675449580172
 20
36.66023283188618
 11
424.675449580172
 21
38.51638394299729
  0
LINE
  5
89
100
AcDbEntity
  8
Написи на штампі
  6
ByLayer
 62
  256
370
   -1
100
AcDbLine
 10
424.675449580172
 20
38.51638394299729
 11
425.5325918023943
 21
36.6612239429973
  0
LINE
  5
8A
100
AcDbEntity
  8
Написи на штампі
  6
ByLayer
 62
  256
370
   -1
100
AcDbLine
 10
425.5325918023943
 20
36.6612239429973
 11
425.5325918023943
 21
38.51737505410841
  0
ARC
  5
8B
100
AcDbEntity
  8
Написи на штампі
  6
ByLayer
 62
  256
370
   -1
100
AcDbCircle
 10
426.0325929135054
 20
37.87451727633063
 40
0.2142855555555556
100
AcDbArc
 50
180
 51
0
  0
LINE
  5
8C
100
AcDbEntity
  8
Написи на штампі
  6
ByLayer
 62
  256
370
   -1
100
AcDbLine
 10
426.2468784690609
 20
37.87451727633063
 11
426.2468784690609
 21
38.30309060966396
  0
ARC
  5
8D
100
AcDbEntity
  8
Написи на штампі
  6
ByLayer
 62
  256
370
   -1
100
AcDbCircle
 10
426.0325929135054
 20
38.30309060966396
 40
0.2142855555555556
100
AcDbArc
 50
0
 51
180
  0
LINE
  5
8E
100
AcDbEntity
  8
Написи на штампі
  6
ByLayer
 62
  256
370
   -1
100
AcDbLine
 10
425.8183073579498
 20
38.30309060966396
 11
425.8183073579498
 21
37.87451727633063
  0
LINE
  5
8F
100
AcDbEntity
  8
Написи на штампі
  6
ByLayer
 62
  256
370
   -1
100
AcDbLine
 10
428.5469659100534
 20
38.02882262337793
 11
427.9914103544978
 21
38.02882262337793
  0
ARC
  5
90
100
AcDbEntity
  8
Написи на штампі
  6
ByLayer
 62
  256
370
   -1
100
AcDbCircle
 10
427.9914180721865
 20
37.69548157235587
 40
0.3333410511113925
100
AcDbArc
 50
90.00132654225951
 51
179.9986734577405
  0
LINE
  5
91
100
AcDbEntity
  8
Написи на штампі
  6
ByLayer
 62
  256
370
   -1
100
AcDbLine
 10
427.6580770211645
 20
37.69548929004459
 11
427.6580770211645
 21
37.02882262337793
  0
ARC
  5
92
100
AcDbEntity
  8
Написи на штампі
  6
ByLayer
 62
  256
370
   -1
100
AcDbCircle
 10
427.9914180721865
 20
37.02883034106664
 40
0.3333410511113925
100
AcDbArc
 50
180.0013265422595
 51
269.9986734577404
  0
LINE
  5
93
100
AcDbEntity
  8
Написи на штампі
  6
ByLayer
 62
  256
370
   -1
100
AcDbLine
 10
427.9914103544978
 20
36.69548929004459
 11
428.21363257672
 21
36.69548929004459
  0
ARC
  5
94
100
AcDbEntity
  8
Написи на штампі
  6
ByLayer
 62
  256
370
   -1
100
AcDbCircle
 10
428.2136248590313
 20
37.02883034106664
 40
0.3333410511113925
100
AcDbArc
 50
270.0013265422595
 51
359.9986734577404
  0
LINE
  5
95
100
AcDbEntity
  8
Написи на штампі
  6
ByLayer
 62
  256
370
   -1
100
AcDbLine
 10
428.5469659100534
 20
37.02882262337793
 11
428.5469659100534
 21
38.36215595671126
  0
ARC
  5
96
100
AcDbEntity
  8
Написи на штампі
  6
ByLayer
 62
  256
370
   -1
100
AcDbCircle
 10
428.2136248590313
 20
38.36214823902254
 40
0.3333410511113925
100
AcDbArc
 50
0.00132654225952257
 51
89.99867345774048
  0
LINE
  5
97
100
AcDbEntity
  8
Написи на штампі
  6
ByLayer
 62
  256
370
   -1
100
AcDbLine
 10
428.21363257672
 20
38.69548929004459
 11
427.7691881322756
 21
38.69548929004459
  0
ARC
  5
98
100
AcDbEntity
  8
Написи на штампі
  6
ByLayer
 62
  256
370
   -1
100
AcDbCircle
 10
429.6580770211645
 20
37.13993373448903
 40
0.4444444444444444
100
AcDbArc
 50
180
 51
0
  0
LINE
  5
99
100
AcDbEntity
  8
Написи на штампі
  6
ByLayer
 62
  256
370
   -1
100
AcDbLine
 10
429.21363257672
 20
37.13993373448903
 11
429.21363257672
 21
37.58437817893348
  0
ARC
  5
9A
100
AcDbEntity
  8
Написи на штампі
  6
ByLayer
 62
  256
370
   -1
100
AcDbCircle
 10
429.6580770211645
 20
37.58437817893348
 40
0.4444444444444444
100
AcDbArc
 50
0
 51
180
  0
LINE
  5
9B
100
AcDbEntity
  8
Написи на штампі
  6
ByLayer
 62
  256
370
   -1
100
AcDbLine
 10
430.102521465609
 20
37.58437817893348
 11
430.102521465609
 21
37.13993373448903
  0
LINE
  5
9C
100
AcDbEntity
  8
Написи на штампі
  6
ByLayer
 62
  256
370
   -1
100
AcDbLine
 10
430.7691881322756
 20
38.02882262337793
 11
430.7691881322756
 21
36.69548929004459
  0
LINE
  5
9D
100
AcDbEntity
  8
Написи на штампі
  6
ByLayer
 62
  256
370
   -1
100
AcDbLine
 10
430.7691881322756
 20
37.36215595671126
 11
431.6580770211645
 21
38.02882262337793
  0
LINE
  5
9E
100
AcDbEntity
  8
Написи на штампі
  6
ByLayer
 62
  256
370
   -1
100
AcDbLine
 10
431.0654836878311
 20
37.58437817893348
 11
431.6580770211645
 21
36.69548929004459
  0
LINE
  5
9F
100
AcDbEntity
  8
Написи на штампі
  6
ByLayer
 62
  256
370
   -1
100
AcDbLine
 10
432.3247436878311
 20
38.02882262337793
 11
432.3247436878311
 21
37.02882262337793
  0
ARC
  5
A0
100
AcDbEntity
  8
Написи на штампі
  6
ByLayer
 62
  256
370
   -1
100
AcDbCircle
 10
432.6580767721394
 20
37.02882237435286
 40
0.3333330843083652
100
AcDbArc
 50
179.999957195713
 51
270.000042804287
  0
LINE
  5
A1
100
AcDbEntity
  8
Написи на штампі
  6
ByLayer
 62
  256
370
   -1
100
AcDbLine
 10
432.6580770211644
 20
36.69548929004459
 11
433.21363257672
 21
36.69548929004459
  0
LINE
  5
A2
100
AcDbEntity
  8
Написи на штампі
  6
ByLayer
 62
  256
370
   -1
100
AcDbLine
 10
433.21363257672
 20
36.69548929004459
 11
433.21363257672
 21
38.02882262337793
  0
LINE
  5
A3
100
AcDbEntity
  8
Написи на штампі
  6
ByLayer
 62
  256
370
   -1
100
AcDbLine
 10
432.4358547989422
 20
36.02882262337793
 11
432.8802992433867
 21
36.02882262337793
  0
ARC
  5
A4
100
AcDbEntity
  8
Написи на штампі
  6
ByLayer
 62
  256
370
   -1
100
AcDbCircle
 10
432.8802915256979
 20
36.36216367439997
 40
0.3333410511113925
100
AcDbArc
 50
270.0013265422595
 51
359.9986734577404
  0
LINE
  5
A5
100
AcDbEntity
  8
Написи на штампі
  6
ByLayer
 62
  256
370
   -1
100
AcDbLine
 10
433.21363257672
 20
36.36215595671126
 11
433.21363257672
 21
36.69548929004459
  0
LINE
  5
A6
100
AcDbEntity
  8
Написи на штампі
  6
ByLayer
 62
  256
370
   -1
100
AcDbLine
 10
433.8802992433867
 20
36.69548929004459
 11
433.8802992433867
 21
38.02882262337793
  0
LINE
  5
A7
100
AcDbEntity
  8
Написи на штампі
  6
ByLayer
 62
  256
370
   -1
100
AcDbLine
 10
433.8802992433867
 20
38.02882262337793
 11
434.4358547989423
 21
37.25104484560015
  0
LINE
  5
A8
100
AcDbEntity
  8
Написи на штампі
  6
ByLayer
 62
  256
370
   -1
100
AcDbLine
 10
434.4358547989423
 20
37.25104484560015
 11
434.9914103544978
 21
38.02882262337793
  0
LINE
  5
A9
100
AcDbEntity
  8
Написи на штампі
  6
ByLayer
 62
  256
370
   -1
100
AcDbLine
 10
434.9914103544978
 20
38.02882262337793
 11
434.9914103544978
 21
36.69548929004459
  0
LINE
  5
AA
100
AcDbEntity
  8
Написи на штампі
  6
ByLayer
 62
  256
370
   -1
100
AcDbLine
 10
436.5469659100534
 20
36.69548929004459
 11
435.9914103544978
 21
36.69548929004459
  0
ARC
  5
AB
100
AcDbEntity
  8
Написи на штампі
  6
ByLayer
 62
  256
370
   -1
100
AcDbCircle
 10
435.9914101054728
 20
37.02882237435286
 40
0.3333330843083652
100
AcDbArc
 50
179.999957195713
 51
270.000042804287
  0
LINE
  5
AC
100
AcDbEntity
  8
Написи на штампі
  6
ByLayer
 62
  256
370
   -1
100
AcDbLine
 10
435.6580770211645
 20
37.02882262337793
 11
435.6580770211645
 21
37.58437817893348
  0
ARC
  5
AD
100
AcDbEntity
  8
Написи на штампі
  6
ByLayer
 62
  256
370
   -1
100
AcDbCircle
 10
436.102521465609
 20
37.58437817893348
 40
0.4444444444444444
100
AcDbArc
 50
0
 51
180
  0
LINE
  5
AE
100
AcDbEntity
  8
Написи на штампі
  6
ByLayer
 62
  256
370
   -1
100
AcDbLine
 10
436.5469659100534
 20
37.58437817893348
 11
436.5469659100534
 21
37.36215595671126
  0
LINE
  5
AF
100
AcDbEntity
  8
Написи на штампі
  6
ByLayer
 62
  256
370
   -1
100
AcDbLine
 10
436.5469659100534
 20
37.36215595671126
 11
435.6580770211645
 21
37.36215595671126
  0
LINE
  5
B0
100
AcDbEntity
  8
Написи на штампі
  6
ByLayer
 62
  256
370
   -1
100
AcDbLine
 10
437.21363257672
 20
38.02882262337793
 11
437.21363257672
 21
36.69548929004459
  0
LINE
  5
B1
100
AcDbEntity
  8
Написи на штампі
  6
ByLayer
 62
  256
370
   -1
100
AcDbLine
 10
438.102521465609
 20
38.02882262337793
 11
438.102521465609
 21
36.69548929004459
  0
LINE
  5
B2
100
AcDbEntity
  8
Написи на штампі
  6
ByLayer
 62
  256
370
   -1
100
AcDbLine
 10
437.21363257672
 20
37.36215595671126
 11
438.102521465609
 21
37.36215595671126
  0
LINE
  5
B3
100
AcDbEntity
  8
Написи на штампі
  6
ByLayer
 62
  256
370
   -1
100
AcDbLine
 10
438.7691881322756
 20
36.69548929004459
 11
438.7691881322756
 21
36.80660040115571
  0
ARC
  5
B4
100
AcDbEntity
  8
Написи на штампі
  6
ByLayer
 62
  256
370
   -1
100
AcDbCircle
 10
405.2702197735285
 20
37.16975229854906
 40
0.44954215857986
100
AcDbArc
 50
207.1437365338053
 51
269.7127223626402
  0
LINE
  5
B5
100
AcDbEntity
  8
Написи на штампі
  6
ByLayer
 62
  256
370
   -1
100
AcDbLine
 10
405.2679658052745
 20
36.72021579061255
 11
405.4901880274967
 21
36.72021579061255
  0
ARC
  5
B6
100
AcDbEntity
  8
Написи на штампі
  6
ByLayer
 62
  256
370
   -1
100
AcDbCircle
 10
405.4869630952474
 20
37.16788516730632
 40
0.4476809924682961
100
AcDbArc
 50
270.4127416806118
 51
359.5872583193882
  0
LINE
  5
B7
100
AcDbEntity
  8
Написи на штампі
  6
ByLayer
 62
  256
370
   -1
100
AcDbLine
 10
405.9346324719411
 20
37.16466023505699
 11
405.9346324719411
 21
37.38688245727921
  0
ARC
  5
B8
100
AcDbEntity
  8
Написи на штампі
  6
ByLayer
 62
  256
370
   -1
100
AcDbCircle
 10
405.4869630952474
 20
37.3836575250299
 40
0.4476809924682961
100
AcDbArc
 50
0.4127416806118446
 51
89.58725831938816
  0
ARC
  5
B9
100
AcDbEntity
  8
Написи на штампі
  6
ByLayer
 62
  256
370
   -1
100
AcDbCircle
 10
405.4901880274967
 20
38.27577134616811
 40
0.4444444444444444
100
AcDbArc
 50
270
 51
90
  0
LINE
  5
BA
100
AcDbEntity
  8
Написи на штампі
  6
ByLayer
 62
  256
370
   -1
100
AcDbLine
 10
405.4901880274967
 20
38.72021579061255
 11
405.2679658052745
 21
38.72021579061255
  0
ARC
  5
BB
100
AcDbEntity
  8
Написи на штампі
  6
ByLayer
 62
  256
370
   -1
100
AcDbCircle
 10
405.2697435830523
 20
38.28132690172366
 40
0.4388924894367077
100
AcDbArc
 50
90.2320829008752
 51
135.471812796956
  0
LINE
  5
BC
100
AcDbEntity
  8
Написи на штампі
  6
ByLayer
 62
  256
370
   -1
100
AcDbLine
 10
405.4901880274967
 20
37.83132690172366
 11
405.2679658052745
 21
37.83132690172366
  0
LINE
  5
BD
100
AcDbEntity
  8
Написи на штампі
  6
ByLayer
 62
  256
370
   -1
100
AcDbLine
 10
406.6012991386078
 20
36.72021579061255
 11
406.6012991386078
 21
38.05354912394588
  0
LINE
  5
BE
100
AcDbEntity
  8
Написи на штампі
  6
ByLayer
 62
  256
370
   -1
100
AcDbLine
 10
406.6012991386078
 20
38.05354912394588
 11
407.1568546941634
 21
37.27577134616811
  0
LINE
  5
BF
100
AcDbEntity
  8
Написи на штампі
  6
ByLayer
 62
  256
370
   -1
100
AcDbLine
 10
407.1568546941634
 20
37.27577134616811
 11
407.7124102497189
 21
38.05354912394588
  0
LINE
  5
C0
100
AcDbEntity
  8
Написи на штампі
  6
ByLayer
 62
  256
370
   -1
100
AcDbLine
 10
407.7124102497189
 20
38.05354912394588
 11
407.7124102497189
 21
36.72021579061255
  0
LINE
  5
C1
100
AcDbEntity
  8
Написи на штампі
  6
ByLayer
 62
  256
370
   -1
100
AcDbLine
 10
408.3790769163856
 20
36.72021579061255
 11
408.3790769163856
 21
38.05354912394588
  0
LINE
  5
C2
100
AcDbEntity
  8
Написи на штампі
  6
ByLayer
 62
  256
370
   -1
100
AcDbLine
 10
408.3790769163856
 20
38.60910467950143
 11
408.3790769163856
 21
38.72021579061255
  0
LINE
  5
C3
100
AcDbEntity
  8
Написи на штампі
  6
ByLayer
 62
  256
370
   -1
100
AcDbLine
 10
409.0457435830523
 20
38.05354912394588
 11
409.0457435830523
 21
36.72021579061255
  0
LINE
  5
C4
100
AcDbEntity
  8
Написи на штампі
  6
ByLayer
 62
  256
370
   -1
100
AcDbLine
 10
409.9346324719412
 20
38.05354912394588
 11
409.9346324719412
 21
36.72021579061255
  0
LINE
  5
C5
100
AcDbEntity
  8
Написи на штампі
  6
ByLayer
 62
  256
370
   -1
100
AcDbLine
 10
409.0457435830523
 20
37.38688245727921
 11
409.9346324719412
 21
37.38688245727921
  0
LINE
  5
C6
100
AcDbEntity
  8
Написи на штампі
  6
ByLayer
 62
  256
370
   -1
100
AcDbLine
 10
412.6004295357718
 20
37.23980732237762
 11
413.5648739802162
 21
37.23980732237762
  0
LINE
  5
C7
100
AcDbEntity
  8
Написи на штампі
  6
ByLayer
 62
  256
370
   -1
100
AcDbLine
 10
412.4159850913273
 20
36.68425176682206
 11
413.082651757994
 21
38.68425176682206
  0
LINE
  5
C8
100
AcDbEntity
  8
Написи на штампі
  6
ByLayer
 62
  256
370
   -1
100
AcDbLine
 10
413.082651757994
 20
38.68425176682206
 11
413.7493184246606
 21
36.68425176682206
  0
LINE
  5
C9
100
AcDbEntity
  8
Написи на штампі
  6
ByLayer
 62
  256
370
   -1
100
AcDbLine
 10
414.4159850913273
 20
36.01758510015539
 11
414.4159850913273
 21
38.01758510015539
  0
LINE
  5
CA
100
AcDbEntity
  8
Написи на штампі
  6
ByLayer
 62
  256
370
   -1
100
AcDbLine
 10
414.4159850913273
 20
38.01758510015539
 11
414.9715406468828
 21
38.01758510015539
  0
ARC
  5
CB
100
AcDbEntity
  8
Написи на штампі
  6
ByLayer
 62
  256
370
   -1
100
AcDbCircle
 10
414.9691219476958
 20
37.68183306763507
 40
0.3357607443512221
100
AcDbArc
 50
0.4127416806118361
 51
89.58725831938816
  0
LINE
  5
CC
100
AcDbEntity
  8
Написи на штампі
  6
ByLayer
 62
  256
370
   -1
100
AcDbLine
 10
415.3048739802162
 20
37.68425176682206
 11
415.3048739802162
 21
37.01758510015539
  0
ARC
  5
CD
100
AcDbEntity
  8
Написи на штампі
  6
ByLayer
 62
  256
370
   -1
100
AcDbCircle
 10
414.9691219476958
 20
37.02000379934238
 40
0.3357607443512221
100
AcDbArc
 50
270.4127416806118
 51
359.5872583193882
  0
LINE
  5
CE
100
AcDbEntity
  8
Написи на штампі
  6
ByLayer
 62
  256
370
   -1
100
AcDbLine
 10
414.9715406468828
 20
36.68425176682206
 11
414.4159850913273
 21
36.68425176682206
  0
LINE
  5
CF
100
AcDbEntity
  8
Написи на штампі
  6
ByLayer
 62
  256
370
   -1
100
AcDbLine
 10
415.9715406468828
 20
38.01758510015539
 11
415.9715406468828
 21
36.68425176682206
  0
LINE
  5
D0
100
AcDbEntity
  8
Написи на штампі
  6
ByLayer
 62
  256
370
   -1
100
AcDbLine
 10
415.9715406468828
 20
37.35091843348872
 11
416.8604295357717
 21
38.01758510015539
  0
LINE
  5
D1
100
AcDbEntity
  8
Написи на штампі
  6
ByLayer
 62
  256
370
   -1
100
AcDbLine
 10
416.2670962024384
 20
37.57314065571094
 11
416.8604295357717
 21
36.68425176682206
  0
LINE
  5
D2
100
AcDbEntity
  8
Написи на штампі
  6
ByLayer
 62
  256
370
   -1
100
AcDbLine
 10
417.5270962024384
 20
36.68425176682206
 11
417.5270962024384
 21
36.79536287793317
  0
LINE
  5
D3
100
AcDbEntity
  8
Написи на штампі
  6
ByLayer
 62
  256
370
   -1
100
AcDbLine
 10
447.0880861252974
 20
36.64381802029148
 11
447.0880861252974
 21
38.64381802029148
  0
LINE
  5
D4
100
AcDbEntity
  8
Написи на штампі
  6
ByLayer
 62
  256
370
   -1
100
AcDbLine
 10
447.0880861252974
 20
38.64381802029148
 11
445.9769750141863
 21
38.64381802029148
  0
LINE
  5
D5
100
AcDbEntity
  8
Написи на штампі
  6
ByLayer
 62
  256
370
   -1
100
AcDbLine
 10
445.9769750141863
 20
38.64381802029148
 11
445.9769750141863
 21
36.64381802029148
  0
LINE
  5
D6
100
AcDbEntity
  8
Написи на штампі
  6
ByLayer
 62
  256
370
   -1
100
AcDbLine
 10
447.7547527919641
 20
36.64381802029148
 11
447.7547527919641
 21
37.97715135362482
  0
LINE
  5
D7
100
AcDbEntity
  8
Написи на штампі
  6
ByLayer
 62
  256
370
   -1
100
AcDbLine
 10
447.7547527919641
 20
38.53270690918037
 11
447.7547527919641
 21
38.64381802029148
  0
LINE
  5
D8
100
AcDbEntity
  8
Написи на штампі
  6
ByLayer
 62
  256
370
   -1
100
AcDbLine
 10
449.3103083475197
 20
37.97715135362482
 11
448.7547527919641
 21
37.97715135362482
  0
ARC
  5
D9
100
AcDbEntity
  8
Написи на штампі
  6
ByLayer
 62
  256
370
   -1
100
AcDbCircle
 10
448.757171491151
 20
37.64139932110449
 40
0.3357607443512221
100
AcDbArc
 50
90.41274168061184
 51
179.5872583193882
  0
LINE
  5
DA
100
AcDbEntity
  8
Написи на штампі
  6
ByLayer
 62
  256
370
   -1
100
AcDbLine
 10
448.4214194586307
 20
37.64381802029148
 11
448.4214194586307
 21
36.97715135362482
  0
ARC
  5
DB
100
AcDbEntity
  8
Написи на штампі
  6
ByLayer
 62
  256
370
   -1
100
AcDbCircle
 10
448.757171491151
 20
36.97957005281181
 40
0.3357607443512221
100
AcDbArc
 50
180.4127416806118
 51
269.5872583193881
  0
LINE
  5
DC
100
AcDbEntity
  8
Написи на штампі
  6
ByLayer
 62
  256
370
   -1
100
AcDbLine
 10
448.7547527919641
 20
36.64381802029148
 11
448.9769750141863
 21
36.64381802029148
  0
ARC
  5
DD
100
AcDbEntity
  8
Написи на штампі
  6
ByLayer
 62
  256
370
   -1
100
AcDbCircle
 10
448.9745563149993
 20
36.97957005281181
 40
0.3357607443512221
100
AcDbArc
 50
270.4127416806118
 51
359.5872583193882
  0
LINE
  5
DE
100
AcDbEntity
  8
Написи на штампі
  6
ByLayer
 62
  256
370
   -1
100
AcDbLine
 10
449.3103083475197
 20
36.97715135362482
 11
449.3103083475197
 21
38.31048468695815
  0
ARC
  5
DF
100
AcDbEntity
  8
Написи на штампі
  6
ByLayer
 62
  256
370
   -1
100
AcDbCircle
 10
448.9745563149993
 20
38.30806598777116
 40
0.3357607443512221
100
AcDbArc
 50
0.4127416806118361
 51
89.58725831938816
  0
LINE
  5
E0
100
AcDbEntity
  8
Написи на штампі
  6
ByLayer
 62
  256
370
   -1
100
AcDbLine
 10
448.9769750141863
 20
38.64381802029148
 11
448.5325305697418
 21
38.64381802029148
  0
LINE
  5
E1
100
AcDbEntity
  8
Написи на штампі
  6
ByLayer
 62
  256
370
   -1
100
AcDbLine
 10
449.9769750141863
 20
36.64381802029148
 11
449.9769750141863
 21
37.97715135362482
  0
LINE
  5
E2
100
AcDbEntity
  8
Написи на штампі
  6
ByLayer
 62
  256
370
   -1
100
AcDbLine
 10
449.9769750141863
 20
37.97715135362482
 11
450.5325305697418
 21
37.97715135362482
  0
ARC
  5
E3
100
AcDbEntity
  8
Написи на штампі
  6
ByLayer
 62
  256
370
   -1
100
AcDbCircle
 10
450.5301118705548
 20
37.64139932110449
 40
0.3357607443512221
100
AcDbArc
 50
0.4127416806118361
 51
89.58725831938816
  0
LINE
  5
E4
100
AcDbEntity
  8
Написи на штампі
  6
ByLayer
 62
  256
370
   -1
100
AcDbLine
 10
450.8658639030752
 20
37.64381802029148
 11
450.8658639030752
 21
36.64381802029148
  0
LINE
  5
E5
100
AcDbEntity
  8
Написи на штампі
  6
ByLayer
 62
  256
370
   -1
100
AcDbLine
 10
451.5325305697419
 20
37.97715135362482
 11
451.5325305697419
 21
36.97715135362482
  0
ARC
  5
E6
100
AcDbEntity
  8
Написи на штампі
  6
ByLayer
 62
  256
370
   -1
100
AcDbCircle
 10
451.8682826022622
 20
36.97957005281181
 40
0.3357607443512221
100
AcDbArc
 50
180.4127416806118
 51
269.5872583193881
  0
LINE
  5
E7
100
AcDbEntity
  8
Написи на штампі
  6
ByLayer
 62
  256
370
   -1
100
AcDbLine
 10
451.8658639030752
 20
36.64381802029148
 11
452.4214194586308
 21
36.64381802029148
  0
LINE
  5
E8
100
AcDbEntity
  8
Написи на штампі
  6
ByLayer
 62
  256
370
   -1
100
AcDbLine
 10
452.4214194586308
 20
36.64381802029148
 11
452.4214194586308
 21
37.97715135362482
  0
LINE
  5
E9
100
AcDbEntity
  8
Написи на штампі
  6
ByLayer
 62
  256
370
   -1
100
AcDbLine
 10
453.7547527919641
 20
37.97715135362482
 11
453.4214194586307
 21
37.97715135362482
  0
ARC
  5
EA
100
AcDbEntity
  8
Написи на штампі
  6
ByLayer
 62
  256
370
   -1
100
AcDbCircle
 10
453.4238381578177
 20
37.64139932110449
 40
0.3357607443512221
100
AcDbArc
 50
90.41274168061184
 51
179.5872583193882
  0
LINE
  5
EB
100
AcDbEntity
  8
Написи на штампі
  6
ByLayer
 62
  256
370
   -1
100
AcDbLine
 10
453.0880861252974
 20
37.64381802029148
 11
453.0880861252974
 21
36.97715135362482
  0
ARC
  5
EC
100
AcDbEntity
  8
Написи на штампі
  6
ByLayer
 62
  256
370
   -1
100
AcDbCircle
 10
453.4238381578177
 20
36.97957005281181
 40
0.3357607443512221
100
AcDbArc
 50
180.4127416806118
 51
269.5872583193881
  0
LINE
  5
ED
100
AcDbEntity
  8
Написи на штампі
  6
ByLayer
 62
  256
370
   -1
100
AcDbLine
 10
453.4214194586307
 20
36.64381802029148
 11
453.7547527919641
 21
36.64381802029148
  0
LINE
  5
EE
100
AcDbEntity
  8
Написи на штампі
  6
ByLayer
 62
  256
370
   -1
100
AcDbLine
 10
460.4991187747708
 20
36.29272134209853
 11
460.4991187747708
 21
36.62605467543187
  0
LINE
  5
EF
100
AcDbEntity
  8
Написи на штампі
  6
ByLayer
 62
  256
370
   -1
100
AcDbLine
 10
460.4991187747708
 20
36.62605467543187
 11
461.8324521081041
 21
36.62605467543187
  0
LINE
  5
F0
100
AcDbEntity
  8
Написи на штампі
  6
ByLayer
 62
  256
370
   -1
100
AcDbLine
 10
461.8324521081041
 20
36.62605467543187
 11
461.8324521081041
 21
36.29272134209853
  0
LINE
  5
F1
100
AcDbEntity
  8
Написи на штампі
  6
ByLayer
 62
  256
370
   -1
100
AcDbLine
 10
461.721340996993
 20
36.62605467543187
 11
461.721340996993
 21
38.62605467543187
  0
LINE
  5
F2
100
AcDbEntity
  8
Написи на штампі
  6
ByLayer
 62
  256
370
   -1
100
AcDbLine
 10
461.721340996993
 20
38.62605467543187
 11
461.2768965525486
 21
38.62605467543187
  0
LINE
  5
F3
100
AcDbEntity
  8
Написи на штампі
  6
ByLayer
 62
  256
370
   -1
100
AcDbLine
 10
461.2768965525486
 20
38.62605467543187
 11
460.6102298858819
 21
36.62605467543187
  0
ARC
  5
F4
100
AcDbEntity
  8
Написи на штампі
  6
ByLayer
 62
  256
370
   -1
100
AcDbCircle
 10
463.72375969618
 20
36.96180670795219
 40
0.3357607443512221
100
AcDbArc
 50
180.4127416806118
 51
269.5872583193882
  0
LINE
  5
F5
100
AcDbEntity
  8
Написи на штампі
  6
ByLayer
 62
  256
370
   -1
100
AcDbLine
 10
463.3880076636597
 20
36.9593880087652
 11
463.3880076636597
 21
37.9593880087652
  0
LINE
  5
F6
100
AcDbEntity
  8
Написи на штампі
  6
ByLayer
 62
  256
370
   -1
100
AcDbLine
 10
463.3880076636597
 20
37.9593880087652
 11
462.8324521081041
 21
37.9593880087652
  0
ARC
  5
F7
100
AcDbEntity
  8
Написи на штампі
  6
ByLayer
 62
  256
370
   -1
100
AcDbCircle
 10
462.8348708072911
 20
37.62363597624488
 40
0.3357607443512221
100
AcDbArc
 50
90.41274168061184
 51
179.5872583193882
  0
LINE
  5
F8
100
AcDbEntity
  8
Написи на штампі
  6
ByLayer
 62
  256
370
   -1
100
AcDbLine
 10
462.4991187747708
 20
37.62605467543187
 11
462.4991187747708
 21
36.9593880087652
  0
ARC
  5
F9
100
AcDbEntity
  8
Написи на штампі
  6
ByLayer
 62
  256
370
   -1
100
AcDbCircle
 10
462.8348708072911
 20
36.96180670795219
 40
0.3357607443512221
100
AcDbArc
 50
180.4127416806118
 51
269.5872583193881
  0
LINE
  5
FA
100
AcDbEntity
  8
Написи на штампі
  6
ByLayer
 62
  256
370
   -1
100
AcDbLine
 10
462.8324521081041
 20
36.62605467543187
 11
463.0546743303263
 21
36.62605467543187
  0
ARC
  5
FB
100
AcDbEntity
  8
Написи на штампі
  6
ByLayer
 62
  256
370
   -1
100
AcDbCircle
 10
463.0522556311394
 20
36.96180670795219
 40
0.3357607443512221
100
AcDbArc
 50
270.4127416806118
 51
359.5872583193882
  0
LINE
  5
FC
100
AcDbEntity
  8
Написи на штампі
  6
ByLayer
 62
  256
370
   -1
100
AcDbLine
 10
465.0546743303263
 20
36.62605467543187
 11
465.0546743303263
 21
37.9593880087652
  0
LINE
  5
FD
100
AcDbEntity
  8
Написи на штампі
  6
ByLayer
 62
  256
370
   -1
100
AcDbLine
 10
464.3880076636597
 20
36.62605467543187
 11
464.3880076636597
 21
37.9593880087652
  0
LINE
  5
FE
100
AcDbEntity
  8
Написи на штампі
  6
ByLayer
 62
  256
370
   -1
100
AcDbLine
 10
464.3880076636597
 20
37.9593880087652
 11
465.3880076636597
 21
37.9593880087652
  0
ARC
  5
FF
100
AcDbEntity
  8
Написи на штампі
  6
ByLayer
 62
  256
370
   -1
100
AcDbCircle
 10
465.3855889644727
 20
37.62363597624488
 40
0.3357607443512221
100
AcDbArc
 50
0.412741680611836
 51
89.58725831938813
  0
LINE
  5
100
100
AcDbEntity
  8
Написи на штампі
  6
ByLayer
 62
  256
370
   -1
100
AcDbLine
 10
465.721340996993
 20
37.62605467543187
 11
465.721340996993
 21
36.62605467543187
  0
ARC
  5
101
100
AcDbEntity
  8
Написи на штампі
  6
ByLayer
 62
  256
370
   -1
100
AcDbCircle
 10
467.6126485850689
 20
36.96180670795219
 40
0.3357607443512221
100
AcDbArc
 50
180.4127416806118
 51
269.5872583193882
  0
LINE
  5
102
100
AcDbEntity
  8
Написи на штампі
  6
ByLayer
 62
  256
370
   -1
100
AcDbLine
 10
467.2768965525486
 20
36.9593880087652
 11
467.2768965525486
 21
37.9593880087652
  0
LINE
  5
103
100
AcDbEntity
  8
Написи на штампі
  6
ByLayer
 62
  256
370
   -1
100
AcDbLine
 10
467.2768965525486
 20
37.9593880087652
 11
466.721340996993
 21
37.9593880087652
  0
ARC
  5
104
100
AcDbEntity
  8
Написи на штампі
  6
ByLayer
 62
  256
370
   -1
100
AcDbCircle
 10
466.72375969618
 20
37.62363597624488
 40
0.3357607443512221
100
AcDbArc
 50
90.41274168061184
 51
179.5872583193882
  0
LINE
  5
105
100
AcDbEntity
  8
Написи на штампі
  6
ByLayer
 62
  256
370
   -1
100
AcDbLine
 10
466.3880076636597
 20
37.62605467543187
 11
466.3880076636597
 21
36.9593880087652
  0
ARC
  5
106
100
AcDbEntity
  8
Написи на штампі
  6
ByLayer
 62
  256
370
   -1
100
AcDbCircle
 10
466.72375969618
 20
36.96180670795219
 40
0.3357607443512221
100
AcDbArc
 50
180.4127416806118
 51
269.5872583193881
  0
LINE
  5
107
100
AcDbEntity
  8
Написи на штампі
  6
ByLayer
 62
  256
370
   -1
100
AcDbLine
 10
466.721340996993
 20
36.62605467543187
 11
466.9435632192152
 21
36.62605467543187
  0
ARC
  5
108
100
AcDbEntity
  8
Написи на штампі
  6
ByLayer
 62
  256
370
   -1
100
AcDbCircle
 10
466.9411445200282
 20
36.96180670795219
 40
0.3357607443512221
100
AcDbArc
 50
270.4127416806118
 51
359.5872583193882
  0
LINE
  5
109
100
AcDbEntity
  8
Написи на штампі
  6
ByLayer
 62
  256
370
   -1
100
AcDbLine
 10
404.9665691847553
 20
31.03244658587587
 11
404.9665691847553
 21
33.03244658587587
  0
LINE
  5
10A
100
AcDbEntity
  8
Написи на штампі
  6
ByLayer
 62
  256
370
   -1
100
AcDbLine
 10
404.9665691847553
 20
33.03244658587587
 11
405.633235851422
 21
33.03244658587587
  0
ARC
  5
10B
100
AcDbEntity
  8
Написи на штампі
  6
ByLayer
 62
  256
370
   -1
100
AcDbCircle
 10
405.6300109191727
 20
32.58477720918211
 40
0.4476809924682961
100
AcDbArc
 50
0.4127416806118446
 51
89.58725831938816
  0
LINE
  5
10C
100
AcDbEntity
  8
Написи на штампі
  6
ByLayer
 62
  256
370
   -1
100
AcDbLine
 10
406.0776802958664
 20
32.58800214143143
 11
406.0776802958664
 21
32.36577991920921
  0
ARC
  5
10D
100
AcDbEntity
  8
Написи на штампі
  6
ByLayer
 62
  256
370
   -1
100
AcDbCircle
 10
405.6300109191727
 20
32.36900485145853
 40
0.4476809924682961
100
AcDbArc
 50
270.4127416806118
 51
359.5872583193882
  0
LINE
  5
10E
100
AcDbEntity
  8
Написи на штампі
  6
ByLayer
 62
  256
370
   -1
100
AcDbLine
 10
405.633235851422
 20
31.92133547476476
 11
404.9665691847553
 21
31.92133547476476
  0
ARC
  5
10F
100
AcDbEntity
  8
Написи на штампі
  6
ByLayer
 62
  256
370
   -1
100
AcDbCircle
 10
407.1887914069775
 20
31.47689103032032
 40
0.4444444444444444
100
AcDbArc
 50
180
 51
0
  0
LINE
  5
110
100
AcDbEntity
  8
Написи на штампі
  6
ByLayer
 62
  256
370
   -1
100
AcDbLine
 10
406.7443469625331
 20
31.47689103032032
 11
406.7443469625331
 21
31.92133547476476
  0
ARC
  5
111
100
AcDbEntity
  8
Написи на штампі
  6
ByLayer
 62
  256
370
   -1
100
AcDbCircle
 10
407.1887914069775
 20
31.92133547476476
 40
0.4444444444444444
100
AcDbArc
 50
0
 51
180
  0
LINE
  5
112
100
AcDbEntity
  8
Написи на штампі
  6
ByLayer
 62
  256
370
   -1
100
AcDbLine
 10
407.633235851422
 20
31.92133547476476
 11
407.633235851422
 21
31.47689103032032
  0
ARC
  5
113
100
AcDbEntity
  8
Написи на штампі
  6
ByLayer
 62
  256
370
   -1
100
AcDbCircle
 10
408.6279580736442
 20
31.36951603032032
 40
0.33711076119928
100
AcDbArc
 50
199.9183680623762
 51
270.897054562604
  0
LINE
  5
114
100
AcDbEntity
  8
Написи на штампі
  6
ByLayer
 62
  256
370
   -1
100
AcDbLine
 10
408.6332358514219
 20
31.03244658587587
 11
408.8554580736442
 21
31.03244658587587
  0
ARC
  5
115
100
AcDbEntity
  8
Написи на штампі
  6
ByLayer
 62
  256
370
   -1
100
AcDbCircle
 10
408.8554580736442
 20
31.36577991920921
 40
0.3333333333333333
100
AcDbArc
 50
270
 51
90
  0
ARC
  5
116
100
AcDbEntity
  8
Написи на штампі
  6
ByLayer
 62
  256
370
   -1
100
AcDbCircle
 10
408.8554580736442
 20
32.03244658587587
 40
0.3333333333333333
100
AcDbArc
 50
270
 51
90
  0
LINE
  5
117
100
AcDbEntity
  8
Написи на штампі
  6
ByLayer
 62
  256
370
   -1
100
AcDbLine
 10
408.8554580736442
 20
32.36577991920921
 11
408.6332358514219
 21
32.36577991920921
  0
ARC
  5
118
100
AcDbEntity
  8
Написи на штампі
  6
ByLayer
 62
  256
370
   -1
100
AcDbCircle
 10
408.6357497403109
 20
32.0231549192092
 40
0.3426342222580016
100
AcDbArc
 50
90.42037982906382
 51
161.3990663292916
  0
LINE
  5
119
100
AcDbEntity
  8
Написи на штампі
  6
ByLayer
 62
  256
370
   -1
100
AcDbLine
 10
408.6332358514219
 20
31.69911325254254
 11
408.8554580736442
 21
31.69911325254254
  0
LINE
  5
11A
100
AcDbEntity
  8
Написи на штампі
  6
ByLayer
 62
  256
370
   -1
100
AcDbLine
 10
409.8554580736442
 20
30.36577991920921
 11
409.8554580736442
 21
32.36577991920921
  0
LINE
  5
11B
100
AcDbEntity
  8
Написи на штампі
  6
ByLayer
 62
  256
370
   -1
100
AcDbLine
 10
409.8554580736442
 20
32.36577991920921
 11
410.4110136291997
 21
32.36577991920921
  0
ARC
  5
11C
100
AcDbEntity
  8
Написи на штампі
  6
ByLayer
 62
  256
370
   -1
100
AcDbCircle
 10
410.4085949300127
 20
32.03002788668888
 40
0.3357607443512221
100
AcDbArc
 50
0.4127416806118361
 51
89.58725831938816
  0
LINE
  5
11D
100
AcDbEntity
  8
Написи на штампі
  6
ByLayer
 62
  256
370
   -1
100
AcDbLine
 10
410.7443469625331
 20
32.03244658587587
 11
410.7443469625331
 21
31.36577991920921
  0
ARC
  5
11E
100
AcDbEntity
  8
Написи на штампі
  6
ByLayer
 62
  256
370
   -1
100
AcDbCircle
 10
410.4085949300127
 20
31.3681986183962
 40
0.3357607443512221
100
AcDbArc
 50
270.4127416806118
 51
359.5872583193882
  0
LINE
  5
11F
100
AcDbEntity
  8
Написи на штампі
  6
ByLayer
 62
  256
370
   -1
100
AcDbLine
 10
410.4110136291997
 20
31.03244658587587
 11
409.8554580736442
 21
31.03244658587587
  0
ARC
  5
120
100
AcDbEntity
  8
Написи на штампі
  6
ByLayer
 62
  256
370
   -1
100
AcDbCircle
 10
411.8554580736442
 20
31.47689103032032
 40
0.4444444444444444
100
AcDbArc
 50
180
 51
0
  0
LINE
  5
121
100
AcDbEntity
  8
Написи на штампі
  6
ByLayer
 62
  256
370
   -1
100
AcDbLine
 10
411.4110136291998
 20
31.47689103032032
 11
411.4110136291998
 21
31.92133547476476
  0
ARC
  5
122
100
AcDbEntity
  8
Написи на штампі
  6
ByLayer
 62
  256
370
   -1
100
AcDbCircle
 10
411.8554580736442
 20
31.92133547476476
 40
0.4444444444444444
100
AcDbArc
 50
0
 51
180
  0
LINE
  5
123
100
AcDbEntity
  8
Написи на штампі
  6
ByLayer
 62
  256
370
   -1
100
AcDbLine
 10
412.2999025180887
 20
31.92133547476476
 11
412.2999025180887
 21
31.47689103032032
  0
ARC
  5
124
100
AcDbEntity
  8
Написи на штампі
  6
ByLayer
 62
  256
370
   -1
100
AcDbCircle
 10
413.3023212172756
 20
32.03002788668888
 40
0.3357607443512221
100
AcDbArc
 50
90.41274168061184
 51
179.5872583193882
  0
LINE
  5
125
100
AcDbEntity
  8
Написи на штампі
  6
ByLayer
 62
  256
370
   -1
100
AcDbLine
 10
412.9665691847553
 20
32.03244658587587
 11
412.9665691847553
 21
31.36577991920921
  0
ARC
  5
126
100
AcDbEntity
  8
Написи на штампі
  6
ByLayer
 62
  256
370
   -1
100
AcDbCircle
 10
413.3023212172756
 20
31.3681986183962
 40
0.3357607443512221
100
AcDbArc
 50
180.4127416806118
 51
269.5872583193881
  0
LINE
  5
127
100
AcDbEntity
  8
Написи на штампі
  6
ByLayer
 62
  256
370
   -1
100
AcDbLine
 10
413.2999025180886
 20
31.03244658587587
 11
413.5221247403109
 21
31.03244658587587
  0
ARC
  5
128
100
AcDbEntity
  8
Написи на штампі
  6
ByLayer
 62
  256
370
   -1
100
AcDbCircle
 10
413.5197060411239
 20
31.3681986183962
 40
0.3357607443512221
100
AcDbArc
 50
270.4127416806118
 51
359.5872583193882
  0
LINE
  5
129
100
AcDbEntity
  8
Написи на штампі
  6
ByLayer
 62
  256
370
   -1
100
AcDbLine
 10
413.8554580736442
 20
31.36577991920921
 11
413.8554580736442
 21
32.03244658587587
  0
ARC
  5
12A
100
AcDbEntity
  8
Написи на штампі
  6
ByLayer
 62
  256
370
   -1
100
AcDbCircle
 10
413.5197060411239
 20
32.03002788668888
 40
0.3357607443512221
100
AcDbArc
 50
0.4127416806118361
 51
89.58725831938816
  0
LINE
  5
12B
100
AcDbEntity
  8
Написи на штампі
  6
ByLayer
 62
  256
370
   -1
100
AcDbLine
 10
413.5221247403109
 20
32.36577991920921
 11
413.2999025180886
 21
32.36577991920921
  0
LINE
  5
12C
100
AcDbEntity
  8
Написи на штампі
  6
ByLayer
 62
  256
370
   -1
100
AcDbLine
 10
413.8554580736442
 20
33.03244658587587
 11
412.9665691847553
 21
33.03244658587587
  0
LINE
  5
12D
100
AcDbEntity
  8
Написи на штампі
  6
ByLayer
 62
  256
370
   -1
100
AcDbLine
 10
412.9665691847553
 20
33.03244658587587
 11
413.753235851422
 21
32.27244658587588
  0
LINE
  5
12E
100
AcDbEntity
  8
Написи на штампі
  6
ByLayer
 62
  256
370
   -1
100
AcDbLine
 10
414.5221247403109
 20
31.03244658587587
 11
414.5221247403109
 21
31.14355769698698
  0
LINE
  5
12F
100
AcDbEntity
  8
Написи на штампі
  6
ByLayer
 62
  256
370
   -1
100
AcDbLine
 10
405.9602915149778
 20
25.97596521393641
 11
405.9602915149778
 21
27.97596521393641
  0
LINE
  5
130
100
AcDbEntity
  8
Написи на штампі
  6
ByLayer
 62
  256
370
   -1
100
AcDbLine
 10
405.9602915149778
 20
27.97596521393641
 11
404.8491804038667
 21
27.97596521393641
  0
LINE
  5
131
100
AcDbEntity
  8
Написи на штампі
  6
ByLayer
 62
  256
370
   -1
100
AcDbLine
 10
404.8491804038667
 20
27.97596521393641
 11
404.8491804038667
 21
25.97596521393641
  0
LINE
  5
132
100
AcDbEntity
  8
Написи на штампі
  6
ByLayer
 62
  256
370
   -1
100
AcDbLine
 10
407.5158470705334
 20
25.97596521393641
 11
406.9602915149778
 21
25.97596521393641
  0
ARC
  5
133
100
AcDbEntity
  8
Написи на штампі
  6
ByLayer
 62
  256
370
   -1
100
AcDbCircle
 10
406.9627102141648
 20
26.31171724645673
 40
0.3357607443512221
100
AcDbArc
 50
180.4127416806118
 51
269.5872583193881
  0
LINE
  5
134
100
AcDbEntity
  8
Написи на штампі
  6
ByLayer
 62
  256
370
   -1
100
AcDbLine
 10
406.6269581816445
 20
26.30929854726974
 11
406.6269581816445
 21
26.8648541028253
  0
ARC
  5
135
100
AcDbEntity
  8
Написи на штампі
  6
ByLayer
 62
  256
370
   -1
100
AcDbCircle
 10
407.0714026260889
 20
26.8648541028253
 40
0.4444444444444444
100
AcDbArc
 50
0
 51
180
  0
LINE
  5
136
100
AcDbEntity
  8
Написи на штампі
  6
ByLayer
 62
  256
370
   -1
100
AcDbLine
 10
407.5158470705334
 20
26.8648541028253
 11
407.5158470705334
 21
26.64263188060308
  0
LINE
  5
137
100
AcDbEntity
  8
Написи на штампі
  6
ByLayer
 62
  256
370
   -1
100
AcDbLine
 10
407.5158470705334
 20
26.64263188060308
 11
406.6269581816445
 21
26.64263188060308
  0
LINE
  5
138
100
AcDbEntity
  8
Написи на штампі
  6
ByLayer
 62
  256
370
   -1
100
AcDbLine
 10
408.1825137372
 20
25.30929854726974
 11
408.1825137372
 21
27.30929854726974
  0
LINE
  5
139
100
AcDbEntity
  8
Написи на штампі
  6
ByLayer
 62
  256
370
   -1
100
AcDbLine
 10
408.1825137372
 20
27.30929854726974
 11
408.7380692927555
 21
27.30929854726974
  0
ARC
  5
13A
100
AcDbEntity
  8
Написи на штампі
  6
ByLayer
 62
  256
370
   -1
100
AcDbCircle
 10
408.7356505935686
 20
26.97354651474942
 40
0.3357607443512221
100
AcDbArc
 50
0.4127416806118361
 51
89.58725831938816
  0
LINE
  5
13B
100
AcDbEntity
  8
Написи на штампі
  6
ByLayer
 62
  256
370
   -1
100
AcDbLine
 10
409.0714026260889
 20
26.97596521393641
 11
409.0714026260889
 21
26.30929854726974
  0
ARC
  5
13C
100
AcDbEntity
  8
Написи на штампі
  6
ByLayer
 62
  256
370
   -1
100
AcDbCircle
 10
408.7356505935686
 20
26.31171724645673
 40
0.3357607443512221
100
AcDbArc
 50
270.4127416806118
 51
359.5872583193882
  0
LINE
  5
13D
100
AcDbEntity
  8
Написи на штампі
  6
ByLayer
 62
  256
370
   -1
100
AcDbLine
 10
408.7380692927555
 20
25.97596521393641
 11
408.1825137372
 21
25.97596521393641
  0
LINE
  5
13E
100
AcDbEntity
  8
Написи на штампі
  6
ByLayer
 62
  256
370
   -1
100
AcDbLine
 10
410.6269581816445
 20
25.97596521393641
 11
410.0714026260889
 21
25.97596521393641
  0
ARC
  5
13F
100
AcDbEntity
  8
Написи на штампі
  6
ByLayer
 62
  256
370
   -1
100
AcDbCircle
 10
410.0738213252759
 20
26.31171724645673
 40
0.3357607443512221
100
AcDbArc
 50
180.4127416806118
 51
269.5872583193881
  0
LINE
  5
140
100
AcDbEntity
  8
Написи на штампі
  6
ByLayer
 62
  256
370
   -1
100
AcDbLine
 10
409.7380692927556
 20
26.30929854726974
 11
409.7380692927556
 21
26.8648541028253
  0
ARC
  5
141
100
AcDbEntity
  8
Написи на штампі
  6
ByLayer
 62
  256
370
   -1
100
AcDbCircle
 10
410.1825137372001
 20
26.8648541028253
 40
0.4444444444444444
100
AcDbArc
 50
0
 51
180
  0
LINE
  5
142
100
AcDbEntity
  8
Написи на штампі
  6
ByLayer
 62
  256
370
   -1
100
AcDbLine
 10
410.6269581816445
 20
26.8648541028253
 11
410.6269581816445
 21
26.64263188060308
  0
LINE
  5
143
100
AcDbEntity
  8
Написи на штампі
  6
ByLayer
 62
  256
370
   -1
100
AcDbLine
 10
410.6269581816445
 20
26.64263188060308
 11
409.7380692927556
 21
26.64263188060308
  0
LINE
  5
144
100
AcDbEntity
  8
Написи на штампі
  6
ByLayer
 62
  256
370
   -1
100
AcDbLine
 10
411.3580692927556
 20
27.17596521393641
 11
411.7158470705334
 21
27.65374299171419
  0
ARC
  5
145
100
AcDbEntity
  8
Написи на штампі
  6
ByLayer
 62
  256
370
   -1
100
AcDbCircle
 10
411.516394689581
 20
27.75296874127327
 40
0.2227711867435632
100
AcDbArc
 50
333.5500717202343
 51
179.8008657559842
  0
LINE
  5
146
100
AcDbEntity
  8
Написи на штампі
  6
ByLayer
 62
  256
370
   -1
100
AcDbLine
 10
411.2936248483111
 20
27.75374299171418
 11
411.2936248483111
 21
26.97596521393641
  0
LINE
  5
147
100
AcDbEntity
  8
Написи на штампі
  6
ByLayer
 62
  256
370
   -1
100
AcDbLine
 10
411.2936248483111
 20
26.97596521393641
 11
411.2936248483111
 21
26.30929854726974
  0
ARC
  5
148
100
AcDbEntity
  8
Написи на штампі
  6
ByLayer
 62
  256
370
   -1
100
AcDbCircle
 10
411.6293768808314
 20
26.31171724645673
 40
0.3357607443512221
100
AcDbArc
 50
180.4127416806118
 51
269.5872583193881
  0
LINE
  5
149
100
AcDbEntity
  8
Написи на штампі
  6
ByLayer
 62
  256
370
   -1
100
AcDbLine
 10
411.6269581816445
 20
25.97596521393641
 11
411.8491804038667
 21
25.97596521393641
  0
ARC
  5
14A
100
AcDbEntity
  8
Написи на штампі
  6
ByLayer
 62
  256
370
   -1
100
AcDbCircle
 10
411.8467617046797
 20
26.31171724645673
 40
0.3357607443512221
100
AcDbArc
 50
270.4127416806118
 51
359.5872583193882
  0
LINE
  5
14B
100
AcDbEntity
  8
Написи на штампі
  6
ByLayer
 62
  256
370
   -1
100
AcDbLine
 10
412.1825137372001
 20
26.30929854726974
 11
412.1825137372001
 21
26.97596521393641
  0
ARC
  5
14C
100
AcDbEntity
  8
Написи на штампі
  6
ByLayer
 62
  256
370
   -1
100
AcDbCircle
 10
411.8467617046797
 20
26.97354651474942
 40
0.3357607443512221
100
AcDbArc
 50
0.4127416806118361
 51
89.58725831938816
  0
LINE
  5
14D
100
AcDbEntity
  8
Написи на штампі
  6
ByLayer
 62
  256
370
   -1
100
AcDbLine
 10
411.8491804038667
 20
27.30929854726974
 11
411.6269581816445
 21
27.30929854726974
  0
ARC
  5
14E
100
AcDbEntity
  8
Написи на штампі
  6
ByLayer
 62
  256
370
   -1
100
AcDbCircle
 10
411.6293768808314
 20
26.97354651474942
 40
0.3357607443512221
100
AcDbArc
 50
90.41274168061184
 51
179.5872583193882
  0
LINE
  5
14F
100
AcDbEntity
  8
Написи на штампі
  6
ByLayer
 62
  256
370
   -1
100
AcDbLine
 10
412.8491804038667
 20
25.97596521393641
 11
412.8491804038667
 21
26.08707632504752
  0
LINE
  5
150
100
AcDbEntity
  8
Написи на штампі
  6
ByLayer
 62
  256
370
   -1
100
AcDbLine
 10
404.6540296053739
 20
23.04830505644184
 11
405.9873629387072
 21
23.04830505644184
  0
LINE
  5
151
100
AcDbEntity
  8
Написи на штампі
  6
ByLayer
 62
  256
370
   -1
100
AcDbLine
 10
405.3206962720405
 20
23.04830505644184
 11
405.3206962720405
 21
21.04830505644184
  0
LINE
  5
152
100
AcDbEntity
  8
Написи на штампі
  6
ByLayer
 62
  256
370
   -1
100
AcDbLine
 10
406.6540296053739
 20
21.04830505644184
 11
406.6540296053739
 21
21.15941616755295
  0
LINE
  5
153
100
AcDbEntity
  8
Написи на штампі
  6
ByLayer
 62
  256
370
   -1
100
AcDbLine
 10
407.3206962720405
 20
22.38163838977518
 11
407.3206962720405
 21
21.04830505644184
  0
LINE
  5
154
100
AcDbEntity
  8
Написи на штампі
  6
ByLayer
 62
  256
370
   -1
100
AcDbLine
 10
407.3206962720405
 20
21.71497172310851
 11
408.2095851609295
 21
22.38163838977518
  0
LINE
  5
155
100
AcDbEntity
  8
Написи на штампі
  6
ByLayer
 62
  256
370
   -1
100
AcDbLine
 10
407.6162518275961
 20
21.93719394533073
 11
408.2095851609295
 21
21.04830505644184
  0
ARC
  5
156
100
AcDbEntity
  8
Написи на штампі
  6
ByLayer
 62
  256
370
   -1
100
AcDbCircle
 10
409.3206962720405
 20
21.49274950088629
 40
0.4444444444444444
100
AcDbArc
 50
180
 51
0
  0
LINE
  5
157
100
AcDbEntity
  8
Написи на штампі
  6
ByLayer
 62
  256
370
   -1
100
AcDbLine
 10
408.8762518275961
 20
21.49274950088629
 11
408.8762518275961
 21
21.93719394533073
  0
ARC
  5
158
100
AcDbEntity
  8
Написи на штампі
  6
ByLayer
 62
  256
370
   -1
100
AcDbCircle
 10
409.3206962720405
 20
21.93719394533073
 40
0.4444444444444444
100
AcDbArc
 50
0
 51
180
  0
LINE
  5
159
100
AcDbEntity
  8
Написи на штампі
  6
ByLayer
 62
  256
370
   -1
100
AcDbLine
 10
409.765140716485
 20
21.93719394533073
 11
409.765140716485
 21
21.49274950088629
  0
LINE
  5
15A
100
AcDbEntity
  8
Написи на штампі
  6
ByLayer
 62
  256
370
   -1
100
AcDbLine
 10
410.4318073831516
 20
22.38163838977518
 11
410.4318073831516
 21
21.04830505644184
  0
LINE
  5
15B
100
AcDbEntity
  8
Написи на штампі
  6
ByLayer
 62
  256
370
   -1
100
AcDbLine
 10
411.3206962720405
 20
22.38163838977518
 11
411.3206962720405
 21
21.04830505644184
  0
LINE
  5
15C
100
AcDbEntity
  8
Написи на штампі
  6
ByLayer
 62
  256
370
   -1
100
AcDbLine
 10
410.4318073831516
 20
21.71497172310851
 11
411.3206962720405
 21
21.71497172310851
  0
LINE
  5
15D
100
AcDbEntity
  8
Написи на штампі
  6
ByLayer
 62
  256
370
   -1
100
AcDbLine
 10
412.6540296053739
 20
21.04830505644184
 11
412.6540296053739
 21
22.38163838977518
  0
LINE
  5
15E
100
AcDbEntity
  8
Написи на штампі
  6
ByLayer
 62
  256
370
   -1
100
AcDbLine
 10
411.9873629387072
 20
21.04830505644184
 11
411.9873629387072
 21
22.38163838977518
  0
LINE
  5
15F
100
AcDbEntity
  8
Написи на штампі
  6
ByLayer
 62
  256
370
   -1
100
AcDbLine
 10
411.9873629387072
 20
22.38163838977518
 11
412.9873629387072
 21
22.38163838977518
  0
ARC
  5
160
100
AcDbEntity
  8
Написи на штампі
  6
ByLayer
 62
  256
370
   -1
100
AcDbCircle
 10
412.9849442395202
 20
22.04588635725485
 40
0.3357607443512221
100
AcDbArc
 50
0.412741680611836
 51
89.58725831938813
  0
LINE
  5
161
100
AcDbEntity
  8
Написи на штампі
  6
ByLayer
 62
  256
370
   -1
100
AcDbLine
 10
413.3206962720405
 20
22.04830505644184
 11
413.3206962720405
 21
21.04830505644184
  0
LINE
  5
162
100
AcDbEntity
  8
Написи на штампі
  6
ByLayer
 62
  256
370
   -1
100
AcDbLine
 10
413.9873629387072
 20
20.38163838977518
 11
413.9873629387072
 21
22.38163838977518
  0
LINE
  5
163
100
AcDbEntity
  8
Написи на штампі
  6
ByLayer
 62
  256
370
   -1
100
AcDbLine
 10
413.9873629387072
 20
22.38163838977518
 11
414.5429184942628
 21
22.38163838977518
  0
ARC
  5
164
100
AcDbEntity
  8
Написи на штампі
  6
ByLayer
 62
  256
370
   -1
100
AcDbCircle
 10
414.5404997950758
 20
22.04588635725485
 40
0.3357607443512221
100
AcDbArc
 50
0.4127416806118361
 51
89.58725831938816
  0
LINE
  5
165
100
AcDbEntity
  8
Написи на штампі
  6
ByLayer
 62
  256
370
   -1
100
AcDbLine
 10
414.8762518275961
 20
22.04830505644184
 11
414.8762518275961
 21
21.38163838977518
  0
ARC
  5
166
100
AcDbEntity
  8
Написи на штампі
  6
ByLayer
 62
  256
370
   -1
100
AcDbCircle
 10
414.5404997950758
 20
21.38405708896217
 40
0.3357607443512221
100
AcDbArc
 50
270.4127416806118
 51
359.5872583193882
  0
LINE
  5
167
100
AcDbEntity
  8
Написи на штампі
  6
ByLayer
 62
  256
370
   -1
100
AcDbLine
 10
414.5429184942628
 20
21.04830505644184
 11
413.9873629387072
 21
21.04830505644184
  0
LINE
  5
168
100
AcDbEntity
  8
Написи на штампі
  6
ByLayer
 62
  256
370
   -1
100
AcDbLine
 10
415.5429184942628
 20
21.04830505644184
 11
415.5429184942628
 21
21.15941616755295
  0
LINE
  5
169
100
AcDbEntity
  8
Написи на штампі
  6
ByLayer
 62
  256
370
   -1
100
AcDbLine
 10
405.1096277021027
 20
13.0088227196852
 11
405.1096277021027
 21
11.0088227196852
  0
LINE
  5
16A
100
AcDbEntity
  8
Написи на штампі
  6
ByLayer
 62
  256
370
   -1
100
AcDbLine
 10
406.2207388132138
 20
11.0088227196852
 11
406.2207388132138
 21
13.0088227196852
  0
LINE
  5
16B
100
AcDbEntity
  8
Написи на штампі
  6
ByLayer
 62
  256
370
   -1
100
AcDbLine
 10
405.1096277021027
 20
12.11993383079631
 11
406.2207388132138
 21
12.11993383079631
  0
LINE
  5
16C
100
AcDbEntity
  8
Написи на штампі
  6
ByLayer
 62
  256
370
   -1
100
AcDbLine
 10
406.8874054798805
 20
11.0088227196852
 11
406.8874054798805
 21
11.11993383079631
  0
LINE
  5
16D
100
AcDbEntity
  8
Написи на штампі
  6
ByLayer
 62
  256
370
   -1
100
AcDbLine
 10
407.5540721465471
 20
12.34215605301854
 11
407.5540721465471
 21
11.0088227196852
  0
LINE
  5
16E
100
AcDbEntity
  8
Написи на штампі
  6
ByLayer
 62
  256
370
   -1
100
AcDbLine
 10
407.5540721465471
 20
11.67548938635187
 11
408.442961035436
 21
12.34215605301854
  0
LINE
  5
16F
100
AcDbEntity
  8
Написи на штампі
  6
ByLayer
 62
  256
370
   -1
100
AcDbLine
 10
407.8496277021027
 20
11.89771160857409
 11
408.442961035436
 21
11.0088227196852
  0
ARC
  5
170
100
AcDbEntity
  8
Написи на штампі
  6
ByLayer
 62
  256
370
   -1
100
AcDbCircle
 10
409.5540721465472
 20
11.45326716412965
 40
0.4444444444444444
100
AcDbArc
 50
180
 51
0
  0
LINE
  5
171
100
AcDbEntity
  8
Написи на штампі
  6
ByLayer
 62
  256
370
   -1
100
AcDbLine
 10
409.1096277021027
 20
11.45326716412965
 11
409.1096277021027
 21
11.89771160857409
  0
ARC
  5
172
100
AcDbEntity
  8
Написи на штампі
  6
ByLayer
 62
  256
370
   -1
100
AcDbCircle
 10
409.5540721465472
 20
11.89771160857409
 40
0.4444444444444444
100
AcDbArc
 50
0
 51
180
  0
LINE
  5
173
100
AcDbEntity
  8
Написи на штампі
  6
ByLayer
 62
  256
370
   -1
100
AcDbLine
 10
409.9985165909916
 20
11.89771160857409
 11
409.9985165909916
 21
11.45326716412965
  0
LINE
  5
174
100
AcDbEntity
  8
Написи на штампі
  6
ByLayer
 62
  256
370
   -1
100
AcDbLine
 10
410.6651832576583
 20
12.34215605301854
 11
410.6651832576583
 21
11.0088227196852
  0
LINE
  5
175
100
AcDbEntity
  8
Написи на штампі
  6
ByLayer
 62
  256
370
   -1
100
AcDbLine
 10
411.5540721465472
 20
12.34215605301854
 11
411.5540721465472
 21
11.0088227196852
  0
LINE
  5
176
100
AcDbEntity
  8
Написи на штампі
  6
ByLayer
 62
  256
370
   -1
100
AcDbLine
 10
410.6651832576583
 20
11.67548938635187
 11
411.5540721465472
 21
11.67548938635187
  0
LINE
  5
177
100
AcDbEntity
  8
Написи на штампі
  6
ByLayer
 62
  256
370
   -1
100
AcDbLine
 10
412.8874054798805
 20
11.0088227196852
 11
412.8874054798805
 21
12.34215605301854
  0
LINE
  5
178
100
AcDbEntity
  8
Написи на штампі
  6
ByLayer
 62
  256
370
   -1
100
AcDbLine
 10
412.2207388132138
 20
11.0088227196852
 11
412.2207388132138
 21
12.34215605301854
  0
LINE
  5
179
100
AcDbEntity
  8
Написи на штампі
  6
ByLayer
 62
  256
370
   -1
100
AcDbLine
 10
412.2207388132138
 20
12.34215605301854
 11
413.2207388132138
 21
12.34215605301854
  0
ARC
  5
17A
100
AcDbEntity
  8
Написи на штампі
  6
ByLayer
 62
  256
370
   -1
100
AcDbCircle
 10
413.2183201140268
 20
12.00640402049821
 40
0.3357607443512221
100
AcDbArc
 50
0.412741680611836
 51
89.58725831938813
  0
LINE
  5
17B
100
AcDbEntity
  8
Написи на штампі
  6
ByLayer
 62
  256
370
   -1
100
AcDbLine
 10
413.5540721465471
 20
12.0088227196852
 11
413.5540721465471
 21
11.0088227196852
  0
LINE
  5
17C
100
AcDbEntity
  8
Написи на штампі
  6
ByLayer
 62
  256
370
   -1
100
AcDbLine
 10
414.2207388132138
 20
10.34215605301854
 11
414.2207388132138
 21
12.34215605301854
  0
LINE
  5
17D
100
AcDbEntity
  8
Написи на штампі
  6
ByLayer
 62
  256
370
   -1
100
AcDbLine
 10
414.2207388132138
 20
12.34215605301854
 11
414.7762943687694
 21
12.34215605301854
  0
ARC
  5
17E
100
AcDbEntity
  8
Написи на штампі
  6
ByLayer
 62
  256
370
   -1
100
AcDbCircle
 10
414.7738756695824
 20
12.00640402049821
 40
0.3357607443512221
100
AcDbArc
 50
0.4127416806118361
 51
89.58725831938816
  0
LINE
  5
17F
100
AcDbEntity
  8
Написи на штампі
  6
ByLayer
 62
  256
370
   -1
100
AcDbLine
 10
415.1096277021027
 20
12.0088227196852
 11
415.1096277021027
 21
11.34215605301854
  0
ARC
  5
180
100
AcDbEntity
  8
Написи на штампі
  6
ByLayer
 62
  256
370
   -1
100
AcDbCircle
 10
414.7738756695824
 20
11.34457475220553
 40
0.3357607443512221
100
AcDbArc
 50
270.4127416806118
 51
359.5872583193882
  0
LINE
  5
181
100
AcDbEntity
  8
Написи на штампі
  6
ByLayer
 62
  256
370
   -1
100
AcDbLine
 10
414.7762943687694
 20
11.0088227196852
 11
414.2207388132138
 21
11.0088227196852
  0
LINE
  5
182
100
AcDbEntity
  8
Написи на штампі
  6
ByLayer
 62
  256
370
   -1
100
AcDbLine
 10
415.7762943687694
 20
11.0088227196852
 11
415.7762943687694
 21
11.11993383079631
  0
ARC
  5
183
100
AcDbEntity
  8
Написи на штампі
  6
ByLayer
 62
  256
370
   -1
100
AcDbCircle
 10
405.3451956771704
 20
6.514094214187215
 40
0.44954215857986
100
AcDbArc
 50
207.1437365338053
 51
269.7127223626402
  0
LINE
  5
184
100
AcDbEntity
  8
Написи на штампі
  6
ByLayer
 62
  256
370
   -1
100
AcDbLine
 10
405.3429417089164
 20
6.064557706250707
 11
405.5651639311387
 21
6.064557706250707
  0
ARC
  5
185
100
AcDbEntity
  8
Написи на штампі
  6
ByLayer
 62
  256
370
   -1
100
AcDbCircle
 10
405.5619389988893
 20
6.512227082944474
 40
0.4476809924682961
100
AcDbArc
 50
270.4127416806118
 51
359.5872583193882
  0
LINE
  5
186
100
AcDbEntity
  8
Написи на штампі
  6
ByLayer
 62
  256
370
   -1
100
AcDbLine
 10
406.0096083755831
 20
6.509002150695151
 11
406.0096083755831
 21
6.731224372917374
  0
ARC
  5
187
100
AcDbEntity
  8
Написи на штампі
  6
ByLayer
 62
  256
370
   -1
100
AcDbCircle
 10
405.5619389988893
 20
6.72799944066805
 40
0.4476809924682961
100
AcDbArc
 50
0.4127416806118446
 51
89.58725831938816
  0
ARC
  5
188
100
AcDbEntity
  8
Написи на штампі
  6
ByLayer
 62
  256
370
   -1
100
AcDbCircle
 10
405.5651639311387
 20
7.620113261806262
 40
0.4444444444444444
100
AcDbArc
 50
270
 51
90
  0
LINE
  5
189
100
AcDbEntity
  8
Написи на штампі
  6
ByLayer
 62
  256
370
   -1
100
AcDbLine
 10
405.5651639311387
 20
8.064557706250707
 11
405.3429417089164
 21
8.064557706250707
  0
ARC
  5
18A
100
AcDbEntity
  8
Написи на штампі
  6
ByLayer
 62
  256
370
   -1
100
AcDbCircle
 10
405.3447194866942
 20
7.625668817361817
 40
0.4388924894367077
100
AcDbArc
 50
90.2320829008752
 51
135.471812796956
  0
LINE
  5
18B
100
AcDbEntity
  8
Написи на штампі
  6
ByLayer
 62
  256
370
   -1
100
AcDbLine
 10
405.5651639311387
 20
7.175668817361817
 11
405.3429417089164
 21
7.175668817361817
  0
ARC
  5
18C
100
AcDbEntity
  8
Написи на штампі
  6
ByLayer
 62
  256
370
   -1
100
AcDbCircle
 10
407.900915963659
 20
6.400309738771032
 40
0.3357607443512221
100
AcDbArc
 50
180.4127416806118
 51
269.5872583193882
  0
LINE
  5
18D
100
AcDbEntity
  8
Написи на штампі
  6
ByLayer
 62
  256
370
   -1
100
AcDbLine
 10
407.5651639311387
 20
6.39789103958404
 11
407.5651639311387
 21
7.39789103958404
  0
LINE
  5
18E
100
AcDbEntity
  8
Написи на штампі
  6
ByLayer
 62
  256
370
   -1
100
AcDbLine
 10
407.5651639311387
 20
7.39789103958404
 11
407.0096083755831
 21
7.39789103958404
  0
ARC
  5
18F
100
AcDbEntity
  8
Написи на штампі
  6
ByLayer
 62
  256
370
   -1
100
AcDbCircle
 10
407.0120270747701
 20
7.062139007063714
 40
0.3357607443512221
100
AcDbArc
 50
90.41274168061184
 51
179.5872583193882
  0
LINE
  5
190
100
AcDbEntity
  8
Написи на штампі
  6
ByLayer
 62
  256
370
   -1
100
AcDbLine
 10
406.6762750422498
 20
7.064557706250707
 11
406.6762750422498
 21
6.39789103958404
  0
ARC
  5
191
100
AcDbEntity
  8
Написи на штампі
  6
ByLayer
 62
  256
370
   -1
100
AcDbCircle
 10
407.0120270747701
 20
6.400309738771032
 40
0.3357607443512221
100
AcDbArc
 50
180.4127416806118
 51
269.5872583193881
  0
LINE
  5
192
100
AcDbEntity
  8
Написи на штампі
  6
ByLayer
 62
  256
370
   -1
100
AcDbLine
 10
407.0096083755831
 20
6.064557706250707
 11
407.2318305978053
 21
6.064557706250707
  0
ARC
  5
193
100
AcDbEntity
  8
Написи на штампі
  6
ByLayer
 62
  256
370
   -1
100
AcDbCircle
 10
407.2294118986183
 20
6.400309738771032
 40
0.3357607443512221
100
AcDbArc
 50
270.4127416806118
 51
359.5872583193882
  0
LINE
  5
194
100
AcDbEntity
  8
Написи на штампі
  6
ByLayer
 62
  256
370
   -1
100
AcDbLine
 10
409.2318305978054
 20
6.064557706250707
 11
409.2318305978054
 21
7.39789103958404
  0
LINE
  5
195
100
AcDbEntity
  8
Написи на штампі
  6
ByLayer
 62
  256
370
   -1
100
AcDbLine
 10
408.5651639311387
 20
6.064557706250707
 11
408.5651639311387
 21
7.39789103958404
  0
LINE
  5
196
100
AcDbEntity
  8
Написи на штампі
  6
ByLayer
 62
  256
370
   -1
100
AcDbLine
 10
408.5651639311387
 20
7.39789103958404
 11
409.5651639311387
 21
7.39789103958404
  0
ARC
  5
197
100
AcDbEntity
  8
Написи на штампі
  6
ByLayer
 62
  256
370
   -1
100
AcDbCircle
 10
409.5627452319517
 20
7.062139007063714
 40
0.3357607443512221
100
AcDbArc
 50
0.412741680611836
 51
89.58725831938813
  0
LINE
  5
198
100
AcDbEntity
  8
Написи на штампі
  6
ByLayer
 62
  256
370
   -1
100
AcDbLine
 10
409.898497264472
 20
7.064557706250707
 11
409.898497264472
 21
6.064557706250707
  0
LINE
  5
199
100
AcDbEntity
  8
Написи на штампі
  6
ByLayer
 62
  256
370
   -1
100
AcDbLine
 10
410.6296083755831
 20
7.264557706250707
 11
410.9873861533609
 21
7.742335484028485
  0
ARC
  5
19A
100
AcDbEntity
  8
Написи на штампі
  6
ByLayer
 62
  256
370
   -1
100
AcDbCircle
 10
410.7879337724085
 20
7.841561233587568
 40
0.2227711867435632
100
AcDbArc
 50
333.5500717202343
 51
179.8008657559842
  0
LINE
  5
19B
100
AcDbEntity
  8
Написи на штампі
  6
ByLayer
 62
  256
370
   -1
100
AcDbLine
 10
410.5651639311387
 20
7.842335484028484
 11
410.5651639311387
 21
7.064557706250707
  0
LINE
  5
19C
100
AcDbEntity
  8
Написи на штампі
  6
ByLayer
 62
  256
370
   -1
100
AcDbLine
 10
410.5651639311387
 20
7.064557706250707
 11
410.5651639311387
 21
6.39789103958404
  0
ARC
  5
19D
100
AcDbEntity
  8
Написи на штампі
  6
ByLayer
 62
  256
370
   -1
100
AcDbCircle
 10
410.900915963659
 20
6.400309738771032
 40
0.3357607443512221
100
AcDbArc
 50
180.4127416806118
 51
269.5872583193881
  0
LINE
  5
19E
100
AcDbEntity
  8
Написи на штампі
  6
ByLayer
 62
  256
370
   -1
100
AcDbLine
 10
410.898497264472
 20
6.064557706250707
 11
411.1207194866942
 21
6.064557706250707
  0
ARC
  5
19F
100
AcDbEntity
  8
Написи на штампі
  6
ByLayer
 62
  256
370
   -1
100
AcDbCircle
 10
411.1183007875072
 20
6.400309738771032
 40
0.3357607443512221
100
AcDbArc
 50
270.4127416806118
 51
359.5872583193882
  0
LINE
  5
1A0
100
AcDbEntity
  8
Написи на штампі
  6
ByLayer
 62
  256
370
   -1
100
AcDbLine
 10
411.4540528200276
 20
6.39789103958404
 11
411.4540528200276
 21
7.064557706250707
  0
ARC
  5
1A1
100
AcDbEntity
  8
Написи на штампі
  6
ByLayer
 62
  256
370
   -1
100
AcDbCircle
 10
411.1183007875072
 20
7.062139007063714
 40
0.3357607443512221
100
AcDbArc
 50
0.4127416806118361
 51
89.58725831938816
  0
LINE
  5
1A2
100
AcDbEntity
  8
Написи на штампі
  6
ByLayer
 62
  256
370
   -1
100
AcDbLine
 10
411.1207194866942
 20
7.39789103958404
 11
410.898497264472
 21
7.39789103958404
  0
ARC
  5
1A3
100
AcDbEntity
  8
Написи на штампі
  6
ByLayer
 62
  256
370
   -1
100
AcDbCircle
 10
410.900915963659
 20
7.062139007063714
 40
0.3357607443512221
100
AcDbArc
 50
90.41274168061184
 51
179.5872583193882
  0
LINE
  5
1A4
100
AcDbEntity
  8
Написи на штампі
  6
ByLayer
 62
  256
370
   -1
100
AcDbLine
 10
412.1207194866942
 20
6.064557706250707
 11
412.1207194866942
 21
6.175668817361817
  0
LINE
  5
1A5
100
AcDbEntity
  8
Написи на штампі
  6
ByLayer
 62
  256
370
   -1
100
AcDbLine
 10
542.1465857145515
 20
41.07282825743174
 11
542.9243634923293
 21
43.07282825743174
  0
LINE
  5
1A6
100
AcDbEntity
  8
Написи на штампі
  6
ByLayer
 62
  256
370
   -1
100
AcDbLine
 10
542.9243634923293
 20
43.07282825743174
 11
543.2576968256626
 21
43.07282825743174
  0
LINE
  5
1A7
100
AcDbEntity
  8
Написи на штампі
  6
ByLayer
 62
  256
370
   -1
100
AcDbLine
 10
543.2576968256626
 20
43.07282825743174
 11
543.2576968256626
 21
41.07282825743174
  0
LINE
  5
1A8
100
AcDbEntity
  8
Написи на штампі
  6
ByLayer
 62
  256
370
   -1
100
AcDbLine
 10
543.9243634923293
 20
41.07282825743174
 11
543.9243634923293
 21
42.40616159076507
  0
LINE
  5
1A9
100
AcDbEntity
  8
Написи на штампі
  6
ByLayer
 62
  256
370
   -1
100
AcDbLine
 10
543.9243634923293
 20
42.96171714632062
 11
543.9243634923293
 21
43.07282825743174
  0
LINE
  5
1AA
100
AcDbEntity
  8
Написи на штампі
  6
ByLayer
 62
  256
370
   -1
100
AcDbLine
 10
545.2576968256626
 20
41.07282825743174
 11
545.2576968256626
 21
42.40616159076507
  0
LINE
  5
1AB
100
AcDbEntity
  8
Написи на штампі
  6
ByLayer
 62
  256
370
   -1
100
AcDbLine
 10
544.591030158996
 20
41.07282825743174
 11
544.591030158996
 21
42.40616159076507
  0
LINE
  5
1AC
100
AcDbEntity
  8
Написи на штампі
  6
ByLayer
 62
  256
370
   -1
100
AcDbLine
 10
544.591030158996
 20
42.40616159076507
 11
545.591030158996
 21
42.40616159076507
  0
ARC
  5
1AD
100
AcDbEntity
  8
Написи на штампі
  6
ByLayer
 62
  256
370
   -1
100
AcDbCircle
 10
545.5886114598089
 20
42.07040955824475
 40
0.3357607443512221
100
AcDbArc
 50
0.412741680611836
 51
89.58725831938813
  0
LINE
  5
1AE
100
AcDbEntity
  8
Написи на штампі
  6
ByLayer
 62
  256
370
   -1
100
AcDbLine
 10
545.9243634923293
 20
42.07282825743174
 11
545.9243634923293
 21
41.07282825743174
  0
LINE
  5
1AF
100
AcDbEntity
  8
Написи на штампі
  6
ByLayer
 62
  256
370
   -1
100
AcDbLine
 10
547.4799190478849
 20
41.07282825743174
 11
546.9243634923293
 21
41.07282825743174
  0
ARC
  5
1B0
100
AcDbEntity
  8
Написи на штампі
  6
ByLayer
 62
  256
370
   -1
100
AcDbCircle
 10
546.9267821915163
 20
41.40858028995206
 40
0.3357607443512221
100
AcDbArc
 50
180.4127416806118
 51
269.5872583193881
  0
LINE
  5
1B1
100
AcDbEntity
  8
Написи на штампі
  6
ByLayer
 62
  256
370
   -1
100
AcDbLine
 10
546.591030158996
 20
41.40616159076507
 11
546.591030158996
 21
41.96171714632062
  0
ARC
  5
1B2
100
AcDbEntity
  8
Написи на штампі
  6
ByLayer
 62
  256
370
   -1
100
AcDbCircle
 10
547.0354746034404
 20
41.96171714632062
 40
0.4444444444444444
100
AcDbArc
 50
0
 51
180
  0
LINE
  5
1B3
100
AcDbEntity
  8
Написи на штампі
  6
ByLayer
 62
  256
370
   -1
100
AcDbLine
 10
547.4799190478849
 20
41.96171714632062
 11
547.4799190478849
 21
41.7394949240984
  0
LINE
  5
1B4
100
AcDbEntity
  8
Написи на штампі
  6
ByLayer
 62
  256
370
   -1
100
AcDbLine
 10
547.4799190478849
 20
41.7394949240984
 11
546.591030158996
 21
41.7394949240984
  0
LINE
  5
1B5
100
AcDbEntity
  8
Написи на штампі
  6
ByLayer
 62
  256
370
   -1
100
AcDbLine
 10
548.1465857145515
 20
40.40616159076507
 11
548.1465857145515
 21
42.40616159076507
  0
LINE
  5
1B6
100
AcDbEntity
  8
Написи на штампі
  6
ByLayer
 62
  256
370
   -1
100
AcDbLine
 10
548.1465857145515
 20
42.40616159076507
 11
548.7021412701071
 21
42.40616159076507
  0
ARC
  5
1B7
100
AcDbEntity
  8
Написи на штампі
  6
ByLayer
 62
  256
370
   -1
100
AcDbCircle
 10
548.6997225709201
 20
42.07040955824475
 40
0.3357607443512221
100
AcDbArc
 50
0.4127416806118361
 51
89.58725831938816
  0
LINE
  5
1B8
100
AcDbEntity
  8
Написи на штампі
  6
ByLayer
 62
  256
370
   -1
100
AcDbLine
 10
549.0354746034404
 20
42.07282825743174
 11
549.0354746034404
 21
41.40616159076507
  0
ARC
  5
1B9
100
AcDbEntity
  8
Написи на штампі
  6
ByLayer
 62
  256
370
   -1
100
AcDbCircle
 10
548.6997225709201
 20
41.40858028995206
 40
0.3357607443512221
100
AcDbArc
 50
270.4127416806118
 51
359.5872583193882
  0
LINE
  5
1BA
100
AcDbEntity
  8
Написи на штампі
  6
ByLayer
 62
  256
370
   -1
100
AcDbLine
 10
548.7021412701071
 20
41.07282825743174
 11
548.1465857145515
 21
41.07282825743174
  0
ARC
  5
1BB
100
AcDbEntity
  8
Написи на штампі
  6
ByLayer
 62
  256
370
   -1
100
AcDbCircle
 10
550.9267821915163
 20
41.40858028995206
 40
0.3357607443512221
100
AcDbArc
 50
180.4127416806118
 51
269.5872583193882
  0
LINE
  5
1BC
100
AcDbEntity
  8
Написи на штампі
  6
ByLayer
 62
  256
370
   -1
100
AcDbLine
 10
550.591030158996
 20
41.40616159076507
 11
550.591030158996
 21
42.40616159076507
  0
LINE
  5
1BD
100
AcDbEntity
  8
Написи на штампі
  6
ByLayer
 62
  256
370
   -1
100
AcDbLine
 10
550.591030158996
 20
42.40616159076507
 11
550.0354746034404
 21
42.40616159076507
  0
ARC
  5
1BE
100
AcDbEntity
  8
Написи на штампі
  6
ByLayer
 62
  256
370
   -1
100
AcDbCircle
 10
550.0378933026274
 20
42.07040955824475
 40
0.3357607443512221
100
AcDbArc
 50
90.41274168061184
 51
179.5872583193882
  0
LINE
  5
1BF
100
AcDbEntity
  8
Написи на штампі
  6
ByLayer
 62
  256
370
   -1
100
AcDbLine
 10
549.7021412701071
 20
42.07282825743174
 11
549.7021412701071
 21
41.40616159076507
  0
ARC
  5
1C0
100
AcDbEntity
  8
Написи на штампі
  6
ByLayer
 62
  256
370
   -1
100
AcDbCircle
 10
550.0378933026274
 20
41.40858028995206
 40
0.3357607443512221
100
AcDbArc
 50
180.4127416806118
 51
269.5872583193881
  0
LINE
  5
1C1
100
AcDbEntity
  8
Написи на штампі
  6
ByLayer
 62
  256
370
   -1
100
AcDbLine
 10
550.0354746034404
 20
41.07282825743174
 11
550.2576968256626
 21
41.07282825743174
  0
ARC
  5
1C2
100
AcDbEntity
  8
Написи на штампі
  6
ByLayer
 62
  256
370
   -1
100
AcDbCircle
 10
550.2552781264757
 20
41.40858028995206
 40
0.3357607443512221
100
AcDbArc
 50
270.4127416806118
 51
359.5872583193882
  0
LINE
  5
1C3
100
AcDbEntity
  8
Написи на штампі
  6
ByLayer
 62
  256
370
   -1
100
AcDbLine
 10
559.3729270090997
 20
41.01066264563342
 11
559.3729270090997
 21
43.01066264563342
  0
LINE
  5
1C4
100
AcDbEntity
  8
Написи на штампі
  6
ByLayer
 62
  256
370
   -1
100
AcDbLine
 10
559.3729270090997
 20
43.01066264563342
 11
560.0395936757664
 21
41.8995515345223
  0
LINE
  5
1C5
100
AcDbEntity
  8
Написи на штампі
  6
ByLayer
 62
  256
370
   -1
100
AcDbLine
 10
560.0395936757664
 20
41.8995515345223
 11
560.7062603424331
 21
43.01066264563342
  0
LINE
  5
1C6
100
AcDbEntity
  8
Написи на штампі
  6
ByLayer
 62
  256
370
   -1
100
AcDbLine
 10
560.7062603424331
 20
43.01066264563342
 11
560.7062603424331
 21
41.01066264563342
  0
ARC
  5
1C7
100
AcDbEntity
  8
Написи на штампі
  6
ByLayer
 62
  256
370
   -1
100
AcDbCircle
 10
562.5975679305089
 20
41.34641467815374
 40
0.3357607443512221
100
AcDbArc
 50
180.4127416806118
 51
269.5872583193882
  0
LINE
  5
1C8
100
AcDbEntity
  8
Написи на штампі
  6
ByLayer
 62
  256
370
   -1
100
AcDbLine
 10
562.2618158979886
 20
41.34399597896675
 11
562.2618158979886
 21
42.34399597896675
  0
LINE
  5
1C9
100
AcDbEntity
  8
Написи на штампі
  6
ByLayer
 62
  256
370
   -1
100
AcDbLine
 10
562.2618158979886
 20
42.34399597896675
 11
561.7062603424331
 21
42.34399597896675
  0
ARC
  5
1CA
100
AcDbEntity
  8
Написи на штампі
  6
ByLayer
 62
  256
370
   -1
100
AcDbCircle
 10
561.70867904162
 20
42.00824394644643
 40
0.3357607443512221
100
AcDbArc
 50
90.41274168061184
 51
179.5872583193882
  0
LINE
  5
1CB
100
AcDbEntity
  8
Написи на штампі
  6
ByLayer
 62
  256
370
   -1
100
AcDbLine
 10
561.3729270090997
 20
42.01066264563342
 11
561.3729270090997
 21
41.34399597896675
  0
ARC
  5
1CC
100
AcDbEntity
  8
Написи на штампі
  6
ByLayer
 62
  256
370
   -1
100
AcDbCircle
 10
561.70867904162
 20
41.34641467815374
 40
0.3357607443512221
100
AcDbArc
 50
180.4127416806118
 51
269.5872583193881
  0
LINE
  5
1CD
100
AcDbEntity
  8
Написи на штампі
  6
ByLayer
 62
  256
370
   -1
100
AcDbLine
 10
561.7062603424331
 20
41.01066264563342
 11
561.9284825646553
 21
41.01066264563342
  0
ARC
  5
1CE
100
AcDbEntity
  8
Написи на штампі
  6
ByLayer
 62
  256
370
   -1
100
AcDbCircle
 10
561.9260638654683
 20
41.34641467815374
 40
0.3357607443512221
100
AcDbArc
 50
270.4127416806118
 51
359.5872583193882
  0
LINE
  5
1CF
100
AcDbEntity
  8
Написи на штампі
  6
ByLayer
 62
  256
370
   -1
100
AcDbLine
 10
563.9284825646552
 20
42.34399597896675
 11
563.5951492313219
 21
42.34399597896675
  0
ARC
  5
1D0
100
AcDbEntity
  8
Написи на штампі
  6
ByLayer
 62
  256
370
   -1
100
AcDbCircle
 10
563.5975679305088
 20
42.00824394644643
 40
0.3357607443512221
100
AcDbArc
 50
90.41274168061184
 51
179.5872583193882
  0
LINE
  5
1D1
100
AcDbEntity
  8
Написи на штампі
  6
ByLayer
 62
  256
370
   -1
100
AcDbLine
 10
563.2618158979885
 20
42.01066264563342
 11
563.2618158979885
 21
41.34399597896675
  0
ARC
  5
1D2
100
AcDbEntity
  8
Написи на штампі
  6
ByLayer
 62
  256
370
   -1
100
AcDbCircle
 10
563.5975679305088
 20
41.34641467815374
 40
0.3357607443512221
100
AcDbArc
 50
180.4127416806118
 51
269.5872583193881
  0
LINE
  5
1D3
100
AcDbEntity
  8
Написи на штампі
  6
ByLayer
 62
  256
370
   -1
100
AcDbLine
 10
563.5951492313219
 20
41.01066264563342
 11
563.9284825646552
 21
41.01066264563342
  0
ARC
  5
1D4
100
AcDbEntity
  8
Написи на штампі
  6
ByLayer
 62
  256
370
   -1
100
AcDbCircle
 10
565.8197901527311
 20
41.34641467815374
 40
0.3357607443512221
100
AcDbArc
 50
180.4127416806118
 51
269.5872583193882
  0
LINE
  5
1D5
100
AcDbEntity
  8
Написи на штампі
  6
ByLayer
 62
  256
370
   -1
100
AcDbLine
 10
565.4840381202108
 20
41.34399597896675
 11
565.4840381202108
 21
42.34399597896675
  0
LINE
  5
1D6
100
AcDbEntity
  8
Написи на штампі
  6
ByLayer
 62
  256
370
   -1
100
AcDbLine
 10
565.4840381202108
 20
42.34399597896675
 11
564.9284825646553
 21
42.34399597896675
  0
ARC
  5
1D7
100
AcDbEntity
  8
Написи на штампі
  6
ByLayer
 62
  256
370
   -1
100
AcDbCircle
 10
564.9309012638422
 20
42.00824394644643
 40
0.3357607443512221
100
AcDbArc
 50
90.41274168061184
 51
179.5872583193882
  0
LINE
  5
1D8
100
AcDbEntity
  8
Написи на штампі
  6
ByLayer
 62
  256
370
   -1
100
AcDbLine
 10
564.5951492313219
 20
42.01066264563342
 11
564.5951492313219
 21
41.34399597896675
  0
ARC
  5
1D9
100
AcDbEntity
  8
Написи на штампі
  6
ByLayer
 62
  256
370
   -1
100
AcDbCircle
 10
564.9309012638422
 20
41.34641467815374
 40
0.3357607443512221
100
AcDbArc
 50
180.4127416806118
 51
269.5872583193881
  0
LINE
  5
1DA
100
AcDbEntity
  8
Написи на штампі
  6
ByLayer
 62
  256
370
   -1
100
AcDbLine
 10
564.9284825646553
 20
41.01066264563342
 11
565.1507047868774
 21
41.01066264563342
  0
ARC
  5
1DB
100
AcDbEntity
  8
Написи на штампі
  6
ByLayer
 62
  256
370
   -1
100
AcDbCircle
 10
565.1482860876905
 20
41.34641467815374
 40
0.3357607443512221
100
AcDbArc
 50
270.4127416806118
 51
359.5872583193882
  0
LINE
  5
1DC
100
AcDbEntity
  8
Написи на штампі
  6
ByLayer
 62
  256
370
   -1
100
AcDbLine
 10
574.3960690453414
 20
40.97755350316086
 11
574.3960690453414
 21
42.97755350316086
  0
LINE
  5
1DD
100
AcDbEntity
  8
Написи на штампі
  6
ByLayer
 62
  256
370
   -1
100
AcDbLine
 10
574.3960690453414
 20
42.97755350316086
 11
575.062735712008
 21
41.86644239204975
  0
LINE
  5
1DE
100
AcDbEntity
  8
Написи на штампі
  6
ByLayer
 62
  256
370
   -1
100
AcDbLine
 10
575.062735712008
 20
41.86644239204975
 11
575.7294023786748
 21
42.97755350316086
  0
LINE
  5
1DF
100
AcDbEntity
  8
Написи на штампі
  6
ByLayer
 62
  256
370
   -1
100
AcDbLine
 10
575.7294023786748
 20
42.97755350316086
 11
575.7294023786748
 21
40.97755350316086
  0
ARC
  5
1E0
100
AcDbEntity
  8
Написи на штампі
  6
ByLayer
 62
  256
370
   -1
100
AcDbCircle
 10
577.6207099667506
 20
41.31330553568119
 40
0.3357607443512221
100
AcDbArc
 50
180.4127416806118
 51
269.5872583193882
  0
LINE
  5
1E1
100
AcDbEntity
  8
Написи на штампі
  6
ByLayer
 62
  256
370
   -1
100
AcDbLine
 10
577.2849579342303
 20
41.3108868364942
 11
577.2849579342303
 21
42.3108868364942
  0
LINE
  5
1E2
100
AcDbEntity
  8
Написи на штампі
  6
ByLayer
 62
  256
370
   -1
100
AcDbLine
 10
577.2849579342303
 20
42.3108868364942
 11
576.7294023786748
 21
42.3108868364942
  0
ARC
  5
1E3
100
AcDbEntity
  8
Написи на штампі
  6
ByLayer
 62
  256
370
   -1
100
AcDbCircle
 10
576.7318210778617
 20
41.97513480397387
 40
0.3357607443512221
100
AcDbArc
 50
90.41274168061184
 51
179.5872583193882
  0
LINE
  5
1E4
100
AcDbEntity
  8
Написи на штампі
  6
ByLayer
 62
  256
370
   -1
100
AcDbLine
 10
576.3960690453414
 20
41.97755350316086
 11
576.3960690453414
 21
41.3108868364942
  0
ARC
  5
1E5
100
AcDbEntity
  8
Написи на штампі
  6
ByLayer
 62
  256
370
   -1
100
AcDbCircle
 10
576.7318210778617
 20
41.31330553568119
 40
0.3357607443512221
100
AcDbArc
 50
180.4127416806118
 51
269.5872583193881
  0
LINE
  5
1E6
100
AcDbEntity
  8
Написи на штампі
  6
ByLayer
 62
  256
370
   -1
100
AcDbLine
 10
576.7294023786748
 20
40.97755350316086
 11
576.9516246008969
 21
40.97755350316086
  0
ARC
  5
1E7
100
AcDbEntity
  8
Написи на штампі
  6
ByLayer
 62
  256
370
   -1
100
AcDbCircle
 10
576.94920590171
 20
41.31330553568119
 40
0.3357607443512221
100
AcDbArc
 50
270.4127416806118
 51
359.5872583193882
  0
LINE
  5
1E8
100
AcDbEntity
  8
Написи на штампі
  6
ByLayer
 62
  256
370
   -1
100
AcDbLine
 10
578.9516246008969
 20
42.3108868364942
 11
578.6182912675637
 21
42.3108868364942
  0
ARC
  5
1E9
100
AcDbEntity
  8
Написи на штампі
  6
ByLayer
 62
  256
370
   -1
100
AcDbCircle
 10
578.6207099667506
 20
41.97513480397387
 40
0.3357607443512221
100
AcDbArc
 50
90.41274168061184
 51
179.5872583193882
  0
LINE
  5
1EA
100
AcDbEntity
  8
Написи на штампі
  6
ByLayer
 62
  256
370
   -1
100
AcDbLine
 10
578.2849579342303
 20
41.97755350316086
 11
578.2849579342303
 21
41.3108868364942
  0
ARC
  5
1EB
100
AcDbEntity
  8
Написи на штампі
  6
ByLayer
 62
  256
370
   -1
100
AcDbCircle
 10
578.6207099667506
 20
41.31330553568119
 40
0.3357607443512221
100
AcDbArc
 50
180.4127416806118
 51
269.5872583193881
  0
LINE
  5
1EC
100
AcDbEntity
  8
Написи на штампі
  6
ByLayer
 62
  256
370
   -1
100
AcDbLine
 10
578.6182912675637
 20
40.97755350316086
 11
578.9516246008969
 21
40.97755350316086
  0
LINE
  5
1ED
100
AcDbEntity
  8
Написи на штампі
  6
ByLayer
 62
  256
370
   -1
100
AcDbLine
 10
579.6182912675636
 20
42.3108868364942
 11
579.6182912675636
 21
41.3108868364942
  0
ARC
  5
1EE
100
AcDbEntity
  8
Написи на штампі
  6
ByLayer
 62
  256
370
   -1
100
AcDbCircle
 10
579.9540433000839
 20
41.31330553568119
 40
0.3357607443512221
100
AcDbArc
 50
180.4127416806118
 51
269.5872583193881
  0
LINE
  5
1EF
100
AcDbEntity
  8
Написи на штампі
  6
ByLayer
 62
  256
370
   -1
100
AcDbLine
 10
579.9516246008969
 20
40.97755350316086
 11
580.9516246008969
 21
40.97755350316086
  0
LINE
  5
1F0
100
AcDbEntity
  8
Написи на штампі
  6
ByLayer
 62
  256
370
   -1
100
AcDbLine
 10
580.9516246008969
 20
40.97755350316086
 11
580.9516246008969
 21
42.3108868364942
  0
LINE
  5
1F1
100
AcDbEntity
  8
Написи на штампі
  6
ByLayer
 62
  256
370
   -1
100
AcDbLine
 10
580.2849579342302
 20
42.3108868364942
 11
580.2849579342302
 21
40.97755350316086
  0
LINE
  5
1F2
100
AcDbEntity
  8
Написи на штампі
  6
ByLayer
 62
  256
370
   -1
100
AcDbLine
 10
582.2849579342302
 20
40.97755350316086
 11
582.2849579342302
 21
42.3108868364942
  0
LINE
  5
1F3
100
AcDbEntity
  8
Написи на штампі
  6
ByLayer
 62
  256
370
   -1
100
AcDbLine
 10
581.6182912675636
 20
40.97755350316086
 11
581.6182912675636
 21
42.3108868364942
  0
LINE
  5
1F4
100
AcDbEntity
  8
Написи на штампі
  6
ByLayer
 62
  256
370
   -1
100
AcDbLine
 10
581.6182912675636
 20
42.3108868364942
 11
582.6182912675636
 21
42.3108868364942
  0
ARC
  5
1F5
100
AcDbEntity
  8
Написи на штампі
  6
ByLayer
 62
  256
370
   -1
100
AcDbCircle
 10
582.6158725683765
 20
41.97513480397387
 40
0.3357607443512221
100
AcDbArc
 50
0.412741680611836
 51
89.58725831938813
  0
LINE
  5
1F6
100
AcDbEntity
  8
Написи на штампі
  6
ByLayer
 62
  256
370
   -1
100
AcDbLine
 10
582.9516246008969
 20
41.97755350316086
 11
582.9516246008969
 21
40.97755350316086
  0
ARC
  5
1F7
100
AcDbEntity
  8
Написи на штампі
  6
ByLayer
 62
  256
370
   -1
100
AcDbCircle
 10
584.8429321889728
 20
41.31330553568119
 40
0.3357607443512221
100
AcDbArc
 50
180.4127416806118
 51
269.5872583193882
  0
LINE
  5
1F8
100
AcDbEntity
  8
Написи на штампі
  6
ByLayer
 62
  256
370
   -1
100
AcDbLine
 10
584.5071801564525
 20
41.3108868364942
 11
584.5071801564525
 21
42.3108868364942
  0
LINE
  5
1F9
100
AcDbEntity
  8
Написи на штампі
  6
ByLayer
 62
  256
370
   -1
100
AcDbLine
 10
584.5071801564525
 20
42.3108868364942
 11
583.9516246008969
 21
42.3108868364942
  0
ARC
  5
1FA
100
AcDbEntity
  8
Написи на штампі
  6
ByLayer
 62
  256
370
   -1
100
AcDbCircle
 10
583.9540433000839
 20
41.97513480397387
 40
0.3357607443512221
100
AcDbArc
 50
90.41274168061184
 51
179.5872583193882
  0
LINE
  5
1FB
100
AcDbEntity
  8
Написи на штампі
  6
ByLayer
 62
  256
370
   -1
100
AcDbLine
 10
583.6182912675636
 20
41.97755350316086
 11
583.6182912675636
 21
41.3108868364942
  0
ARC
  5
1FC
100
AcDbEntity
  8
Написи на штампі
  6
ByLayer
 62
  256
370
   -1
100
AcDbCircle
 10
583.9540433000839
 20
41.31330553568119
 40
0.3357607443512221
100
AcDbArc
 50
180.4127416806118
 51
269.5872583193881
  0
LINE
  5
1FD
100
AcDbEntity
  8
Написи на штампі
  6
ByLayer
 62
  256
370
   -1
100
AcDbLine
 10
583.9516246008969
 20
40.97755350316086
 11
584.1738468231191
 21
40.97755350316086
  0
ARC
  5
1FE
100
AcDbEntity
  8
Написи на штампі
  6
ByLayer
 62
  256
370
   -1
100
AcDbCircle
 10
584.1714281239322
 20
41.31330553568119
 40
0.3357607443512221
100
AcDbArc
 50
270.4127416806118
 51
359.5872583193882
  0
ARC
  5
1FF
100
AcDbEntity
  8
Написи на штампі
  6
ByLayer
 62
  256
370
   -1
100
AcDbCircle
 10
585.8429321889728
 20
41.97513480397387
 40
0.3357607443512221
100
AcDbArc
 50
90.41274168061184
 51
179.5872583193882
  0
LINE
  5
200
100
AcDbEntity
  8
Написи на штампі
  6
ByLayer
 62
  256
370
   -1
100
AcDbLine
 10
585.5071801564525
 20
41.97755350316086
 11
585.5071801564525
 21
41.3108868364942
  0
ARC
  5
201
100
AcDbEntity
  8
Написи на штампі
  6
ByLayer
 62
  256
370
   -1
100
AcDbCircle
 10
585.8429321889728
 20
41.31330553568119
 40
0.3357607443512221
100
AcDbArc
 50
180.4127416806118
 51
269.5872583193881
  0
LINE
  5
202
100
AcDbEntity
  8
Написи на штампі
  6
ByLayer
 62
  256
370
   -1
100
AcDbLine
 10
585.8405134897858
 20
40.97755350316086
 11
586.062735712008
 21
40.97755350316086
  0
ARC
  5
203
100
AcDbEntity
  8
Написи на штампі
  6
ByLayer
 62
  256
370
   -1
100
AcDbCircle
 10
586.0603170128211
 20
41.31330553568119
 40
0.3357607443512221
100
AcDbArc
 50
270.4127416806118
 51
359.5872583193882
  0
LINE
  5
204
100
AcDbEntity
  8
Написи на штампі
  6
ByLayer
 62
  256
370
   -1
100
AcDbLine
 10
586.3960690453414
 20
41.3108868364942
 11
586.3960690453414
 21
41.97755350316086
  0
ARC
  5
205
100
AcDbEntity
  8
Написи на штампі
  6
ByLayer
 62
  256
370
   -1
100
AcDbCircle
 10
586.0603170128211
 20
41.97513480397387
 40
0.3357607443512221
100
AcDbArc
 50
0.4127416806118361
 51
89.58725831938816
  0
LINE
  5
206
100
AcDbEntity
  8
Написи на штампі
  6
ByLayer
 62
  256
370
   -1
100
AcDbLine
 10
586.062735712008
 20
42.3108868364942
 11
585.8405134897858
 21
42.3108868364942
  0
LINE
  5
207
100
AcDbEntity
  8
Написи на штампі
  6
ByLayer
 62
  256
370
   -1
100
AcDbLine
 10
586.3960690453414
 20
42.97755350316086
 11
585.5071801564525
 21
42.97755350316086
  0
LINE
  5
208
100
AcDbEntity
  8
Написи на штампі
  6
ByLayer
 62
  256
370
   -1
100
AcDbLine
 10
585.5071801564525
 20
42.97755350316086
 11
586.2938468231191
 21
42.21755350316086
  0
LINE
  5
209
100
AcDbEntity
  8
Написи на штампі
  6
ByLayer
 62
  256
370
   -1
100
AcDbLine
 10
544.2956520341864
 20
21.57883607618079
 11
545.2600964786309
 21
21.57883607618079
  0
LINE
  5
20A
100
AcDbEntity
  8
Написи на штампі
  6
ByLayer
 62
  256
370
   -1
100
AcDbLine
 10
544.111207589742
 20
21.02328052062524
 11
544.7778742564086
 21
23.02328052062524
  0
LINE
  5
20B
100
AcDbEntity
  8
Написи на штампі
  6
ByLayer
 62
  256
370
   -1
100
AcDbLine
 10
544.7778742564086
 20
23.02328052062524
 11
545.4445409230754
 21
21.02328052062524
  0
LINE
  5
20C
100
AcDbEntity
  8
Написи на штампі
  6
ByLayer
 62
  256
370
   -1
100
AcDbLine
 10
546.111207589742
 20
20.35661385395857
 11
546.111207589742
 21
22.35661385395857
  0
LINE
  5
20D
100
AcDbEntity
  8
Написи на штампі
  6
ByLayer
 62
  256
370
   -1
100
AcDbLine
 10
546.111207589742
 20
22.35661385395857
 11
546.6667631452975
 21
22.35661385395857
  0
ARC
  5
20E
100
AcDbEntity
  8
Написи на штампі
  6
ByLayer
 62
  256
370
   -1
100
AcDbCircle
 10
546.6643444461106
 20
22.02086182143824
 40
0.3357607443512221
100
AcDbArc
 50
0.4127416806118361
 51
89.58725831938816
  0
LINE
  5
20F
100
AcDbEntity
  8
Написи на штампі
  6
ByLayer
 62
  256
370
   -1
100
AcDbLine
 10
547.0000964786309
 20
22.02328052062524
 11
547.0000964786309
 21
21.35661385395857
  0
ARC
  5
210
100
AcDbEntity
  8
Написи на штампі
  6
ByLayer
 62
  256
370
   -1
100
AcDbCircle
 10
546.6643444461106
 20
21.35903255314556
 40
0.3357607443512221
100
AcDbArc
 50
270.4127416806118
 51
359.5872583193882
  0
LINE
  5
211
100
AcDbEntity
  8
Написи на штампі
  6
ByLayer
 62
  256
370
   -1
100
AcDbLine
 10
546.6667631452975
 20
21.02328052062524
 11
546.111207589742
 21
21.02328052062524
  0
LINE
  5
212
100
AcDbEntity
  8
Написи на штампі
  6
ByLayer
 62
  256
370
   -1
100
AcDbLine
 10
547.6667631452975
 20
22.35661385395857
 11
547.6667631452975
 21
21.02328052062524
  0
LINE
  5
213
100
AcDbEntity
  8
Написи на штампі
  6
ByLayer
 62
  256
370
   -1
100
AcDbLine
 10
547.6667631452975
 20
21.6899471872919
 11
548.5556520341864
 21
22.35661385395857
  0
LINE
  5
214
100
AcDbEntity
  8
Написи на штампі
  6
ByLayer
 62
  256
370
   -1
100
AcDbLine
 10
547.9623187008531
 20
21.91216940951412
 11
548.5556520341864
 21
21.02328052062524
  0
LINE
  5
215
100
AcDbEntity
  8
Написи на штампі
  6
ByLayer
 62
  256
370
   -1
100
AcDbLine
 10
549.2223187008531
 20
21.02328052062524
 11
549.2223187008531
 21
21.13439163173635
  0
LINE
  5
216
100
AcDbEntity
  8
Написи на штампі
  6
ByLayer
 62
  256
370
   -1
100
AcDbLine
 10
567.0243768705091
 20
21.69967781639754
 11
567.9888213149535
 21
21.69967781639754
  0
LINE
  5
217
100
AcDbEntity
  8
Написи на штампі
  6
ByLayer
 62
  256
370
   -1
100
AcDbLine
 10
566.8399324260646
 20
21.14412226084198
 11
567.5065990927312
 21
23.14412226084198
  0
LINE
  5
218
100
AcDbEntity
  8
Написи на штампі
  6
ByLayer
 62
  256
370
   -1
100
AcDbLine
 10
567.5065990927312
 20
23.14412226084198
 11
568.173265759398
 21
21.14412226084198
  0
LINE
  5
219
100
AcDbEntity
  8
Написи на штампі
  6
ByLayer
 62
  256
370
   -1
100
AcDbLine
 10
568.8399324260646
 20
20.47745559417531
 11
568.8399324260646
 21
22.47745559417531
  0
LINE
  5
21A
100
AcDbEntity
  8
Написи на штампі
  6
ByLayer
 62
  256
370
   -1
100
AcDbLine
 10
568.8399324260646
 20
22.47745559417531
 11
569.3954879816201
 21
22.47745559417531
  0
ARC
  5
21B
100
AcDbEntity
  8
Написи на штампі
  6
ByLayer
 62
  256
370
   -1
100
AcDbCircle
 10
569.3930692824332
 20
22.14170356165499
 40
0.3357607443512221
100
AcDbArc
 50
0.4127416806118361
 51
89.58725831938816
  0
LINE
  5
21C
100
AcDbEntity
  8
Написи на штампі
  6
ByLayer
 62
  256
370
   -1
100
AcDbLine
 10
569.7288213149535
 20
22.14412226084198
 11
569.7288213149535
 21
21.47745559417531
  0
ARC
  5
21D
100
AcDbEntity
  8
Написи на штампі
  6
ByLayer
 62
  256
370
   -1
100
AcDbCircle
 10
569.3930692824332
 20
21.4798742933623
 40
0.3357607443512221
100
AcDbArc
 50
270.4127416806118
 51
359.5872583193882
  0
LINE
  5
21E
100
AcDbEntity
  8
Написи на штампі
  6
ByLayer
 62
  256
370
   -1
100
AcDbLine
 10
569.3954879816201
 20
21.14412226084198
 11
568.8399324260646
 21
21.14412226084198
  0
LINE
  5
21F
100
AcDbEntity
  8
Написи на штампі
  6
ByLayer
 62
  256
370
   -1
100
AcDbLine
 10
570.3954879816201
 20
22.47745559417531
 11
570.3954879816201
 21
21.14412226084198
  0
LINE
  5
220
100
AcDbEntity
  8
Написи на штампі
  6
ByLayer
 62
  256
370
   -1
100
AcDbLine
 10
570.3954879816201
 20
21.81078892750865
 11
571.284376870509
 21
22.47745559417531
  0
LINE
  5
221
100
AcDbEntity
  8
Написи на штампі
  6
ByLayer
 62
  256
370
   -1
100
AcDbLine
 10
570.6910435371757
 20
22.03301114973087
 11
571.284376870509
 21
21.14412226084198
  0
LINE
  5
222
100
AcDbEntity
  8
Написи на штампі
  6
ByLayer
 62
  256
370
   -1
100
AcDbLine
 10
571.9510435371757
 20
22.47745559417531
 11
571.9510435371757
 21
21.47745559417531
  0
ARC
  5
223
100
AcDbEntity
  8
Написи на штампі
  6
ByLayer
 62
  256
370
   -1
100
AcDbCircle
 10
572.286795569696
 20
21.4798742933623
 40
0.3357607443512221
100
AcDbArc
 50
180.4127416806118
 51
269.5872583193881
  0
LINE
  5
224
100
AcDbEntity
  8
Написи на штампі
  6
ByLayer
 62
  256
370
   -1
100
AcDbLine
 10
572.284376870509
 20
21.14412226084198
 11
572.8399324260646
 21
21.14412226084198
  0
LINE
  5
225
100
AcDbEntity
  8
Написи на штампі
  6
ByLayer
 62
  256
370
   -1
100
AcDbLine
 10
572.8399324260646
 20
21.14412226084198
 11
572.8399324260646
 21
22.47745559417531
  0
LINE
  5
226
100
AcDbEntity
  8
Написи на штампі
  6
ByLayer
 62
  256
370
   -1
100
AcDbLine
 10
572.0621546482868
 20
20.47745559417531
 11
572.5065990927312
 21
20.47745559417531
  0
ARC
  5
227
100
AcDbEntity
  8
Написи на штампі
  6
ByLayer
 62
  256
370
   -1
100
AcDbCircle
 10
572.5041803935443
 20
20.81320762669564
 40
0.3357607443512221
100
AcDbArc
 50
270.4127416806118
 51
359.5872583193882
  0
LINE
  5
228
100
AcDbEntity
  8
Написи на штампі
  6
ByLayer
 62
  256
370
   -1
100
AcDbLine
 10
572.8399324260646
 20
20.81078892750865
 11
572.8399324260646
 21
21.14412226084198
  0
LINE
  5
229
100
AcDbEntity
  8
Написи на штампі
  6
ByLayer
 62
  256
370
   -1
100
AcDbLine
 10
573.5065990927312
 20
22.47745559417531
 11
573.5065990927312
 21
21.47745559417531
  0
ARC
  5
22A
100
AcDbEntity
  8
Написи на штампі
  6
ByLayer
 62
  256
370
   -1
100
AcDbCircle
 10
573.8423511252515
 20
21.4798742933623
 40
0.3357607443512221
100
AcDbArc
 50
180.4127416806118
 51
269.5872583193881
  0
LINE
  5
22B
100
AcDbEntity
  8
Написи на штампі
  6
ByLayer
 62
  256
370
   -1
100
AcDbLine
 10
573.8399324260646
 20
21.14412226084198
 11
574.8399324260646
 21
21.14412226084198
  0
LINE
  5
22C
100
AcDbEntity
  8
Написи на штампі
  6
ByLayer
 62
  256
370
   -1
100
AcDbLine
 10
574.8399324260646
 20
21.14412226084198
 11
574.8399324260646
 21
22.47745559417531
  0
LINE
  5
22D
100
AcDbEntity
  8
Написи на штампі
  6
ByLayer
 62
  256
370
   -1
100
AcDbLine
 10
574.1732657593979
 20
22.47745559417531
 11
574.1732657593979
 21
21.14412226084198
  0
LINE
  5
22E
100
AcDbEntity
  8
Написи на штампі
  6
ByLayer
 62
  256
370
   -1
100
AcDbLine
 10
575.5065990927312
 20
21.14412226084198
 11
575.5065990927312
 21
22.47745559417531
  0
LINE
  5
22F
100
AcDbEntity
  8
Написи на штампі
  6
ByLayer
 62
  256
370
   -1
100
AcDbLine
 10
575.5065990927312
 20
23.03301114973087
 11
575.5065990927312
 21
23.14412226084198
  0
LINE
  5
230
100
AcDbEntity
  8
Написи на штампі
  6
ByLayer
 62
  256
370
   -1
100
AcDbLine
 10
576.2377102038423
 20
22.34412226084198
 11
576.5954879816201
 21
22.82190003861976
  0
ARC
  5
231
100
AcDbEntity
  8
Написи на штампі
  6
ByLayer
 62
  256
370
   -1
100
AcDbCircle
 10
576.3960356006677
 20
22.92112578817884
 40
0.2227711867435632
100
AcDbArc
 50
333.5500717202343
 51
179.8008657559842
  0
LINE
  5
232
100
AcDbEntity
  8
Написи на штампі
  6
ByLayer
 62
  256
370
   -1
100
AcDbLine
 10
576.1732657593979
 20
22.92190003861976
 11
576.1732657593979
 21
22.14412226084198
  0
LINE
  5
233
100
AcDbEntity
  8
Написи на штампі
  6
ByLayer
 62
  256
370
   -1
100
AcDbLine
 10
576.1732657593979
 20
22.14412226084198
 11
576.1732657593979
 21
21.47745559417531
  0
ARC
  5
234
100
AcDbEntity
  8
Написи на штампі
  6
ByLayer
 62
  256
370
   -1
100
AcDbCircle
 10
576.5090177919182
 20
21.4798742933623
 40
0.3357607443512221
100
AcDbArc
 50
180.4127416806118
 51
269.5872583193881
  0
LINE
  5
235
100
AcDbEntity
  8
Написи на штампі
  6
ByLayer
 62
  256
370
   -1
100
AcDbLine
 10
576.5065990927312
 20
21.14412226084198
 11
576.7288213149534
 21
21.14412226084198
  0
ARC
  5
236
100
AcDbEntity
  8
Написи на штампі
  6
ByLayer
 62
  256
370
   -1
100
AcDbCircle
 10
576.7264026157665
 20
21.4798742933623
 40
0.3357607443512221
100
AcDbArc
 50
270.4127416806118
 51
359.5872583193882
  0
LINE
  5
237
100
AcDbEntity
  8
Написи на штампі
  6
ByLayer
 62
  256
370
   -1
100
AcDbLine
 10
577.0621546482868
 20
21.47745559417531
 11
577.0621546482868
 21
22.14412226084198
  0
ARC
  5
238
100
AcDbEntity
  8
Написи на штампі
  6
ByLayer
 62
  256
370
   -1
100
AcDbCircle
 10
576.7264026157665
 20
22.14170356165499
 40
0.3357607443512221
100
AcDbArc
 50
0.4127416806118361
 51
89.58725831938816
  0
LINE
  5
239
100
AcDbEntity
  8
Написи на штампі
  6
ByLayer
 62
  256
370
   -1
100
AcDbLine
 10
576.7288213149534
 20
22.47745559417531
 11
576.5065990927312
 21
22.47745559417531
  0
ARC
  5
23A
100
AcDbEntity
  8
Написи на штампі
  6
ByLayer
 62
  256
370
   -1
100
AcDbCircle
 10
576.5090177919182
 20
22.14170356165499
 40
0.3357607443512221
100
AcDbArc
 50
90.41274168061184
 51
179.5872583193882
  0
LINE
  5
23B
100
AcDbEntity
  8
0
  6
ByLayer
 62
  256
370
   70
100
AcDbLine
 10
539
 20
4.999999999999998
 11
539
 21
45
  0
ENDSEC
  0
SECTION
  2
OBJECTS
  0
DICTIONARY
  5
C
330
0
100
AcDbDictionary
281
    1
  3
ACAD_GROUP
350
D
  0
DICTIONARY
  5
D
330
C
100
AcDbDictionary
281
    1
  0
PLOTSETTINGS
  5
23C
100
AcDbPlotSettings
  6
1x1
 40
0
 41
0
 42
0
 43
0
  0
ENDSEC
  0
EOF
