999
dxfrw 0.6.3
  0
SECTION
  2
HEADER
  9
$ACADVER
  1
AC1021
  9
$DWGCODEPAGE
  3
ANSI_1251
  9
$INSBASE
 10
0
 20
0
 30
0
  9
$EXTMIN
 10
-0.005339901524834545
 20
0
 30
0
  9
$EXTMAX
 10
105.9780972304175
 20
79.99999307673156
 30
0
  9
$LIMMIN
 10
0
 20
0
  9
$LIMMAX
 10
420
 20
297
  9
$ORTHOMODE
 70
    0
  9
$REGENMODE
 70
    1
  9
$FILLMODE
 70
    1
  9
$QTEXTMODE
 70
    0
  9
$MIRRTEXT
 70
    0
  9
$LTSCALE
 40
1
  9
$ATTMODE
 70
    0
  9
$TEXTSIZE
 40
2.5
  9
$TRACEWID
 40
15.68
  9
$TEXTSTYLE
  7
STANDARD
  9
$CLAYER
  8
main
  9
$CELTYPE
  6
BYLAYER
  9
$CECOLOR
 62
  256
  9
$CELTSCALE
 40
1
  9
$DISPSILH
 70
    0
  9
$DIMSCALE
 40
1
  9
$DIMASZ
 40
2.5
  9
$DIMEXO
 40
0.625
  9
$DIMDLI
 40
3.75
  9
$DIMRND
 40
0
  9
$DIMDLE
 40
0
  9
$DIMEXE
 40
1.25
  9
$DIMTP
 40
0
  9
$DIMTM
 40
0
  9
$DIMTXT
 40
2.5
  9
$DIMCEN
 40
2.5
  9
$DIMTSZ
 40
0
  9
$DIMTOL
 70
    0
  9
$DIMLIM
 70
    0
  9
$DIMTIH
 70
    0
  9
$DIMTOH
 70
    0
  9
$DIMSE1
 70
    0
  9
$DIMSE2
 70
    0
  9
$DIMTAD
 70
    1
  9
$DIMZIN
 70
    8
  9
$DIMBLK
  1

  9
$DIMASO
 70
    1
  9
$DIMSHO
 70
    1
  9
$DIMPOST
  1

  9
$DIMAPOST
  1

  9
$DIMALT
 70
    0
  9
$DIMALTD
 70
    3
  9
$DIMALTF
 40
0.03937
  9
$DIMLFAC
 40
1
  9
$DIMTOFL
 70
    1
  9
$DIMTVP
 40
0
  9
$DIMTIX
 70
    0
  9
$DIMSOXD
 70
    0
  9
$DIMSAH
 70
    0
  9
$DIMBLK1
  1

  9
$DIMBLK2
  1

  9
$DIMSTYLE
  2
Standard
  9
$DIMCLRD
 70
    0
  9
$DIMCLRE
 70
    0
  9
$DIMCLRT
 70
    0
  9
$DIMTFAC
 40
1
  9
$DIMGAP
 40
0.625
  9
$DIMJUST
 70
    0
  9
$DIMSD1
 70
    0
  9
$DIMSD2
 70
    0
  9
$DIMTOLJ
 70
    0
  9
$DIMTZIN
 70
    8
  9
$DIMALTZ
 70
    0
  9
$DIMALTTZ
 70
    0
  9
$DIMUPT
 70
    0
  9
$DIMDEC
 70
    4
  9
$DIMTDEC
 70
    2
  9
$DIMALTU
 70
    2
  9
$DIMALTTD
 70
    3
  9
$DIMTXSTY
  7
STANDARD
  9
$DIMAUNIT
 70
    0
  9
$DIMADEC
 70
    0
  9
$DIMALTRND
 40
0
  9
$DIMAZIN
 70
    0
  9
$DIMDSEP
 70
   44
  9
$DIMATFIT
 70
    3
  9
$DIMFRAC
 70
    0
  9
$DIMLDRBLK
  1
STANDARD
  9
$DIMLUNIT
 70
    2
  9
$DIMLWD
 70
   -2
  9
$DIMLWE
 70
   -2
  9
$DIMTMOVE
 70
    0
  9
$DIMFXL
 40
1
  9
$DIMFXLON
 70
    0
  9
$DIMJOGANG
 40
0.7854
  9
$DIMTFILL
 70
    0
  9
$DIMTFILLCLR
 70
    0
  9
$DIMARCSYM
 70
    0
  9
$DIMLTYPE
  6

  9
$DIMLTEX1
  6

  9
$DIMLTEX2
  6

  9
$LUNITS
 70
    2
  9
$LUPREC
 70
    4
  9
$SKETCHINC
 40
1
  9
$FILLETRAD
 40
0
  9
$AUNITS
 70
    0
  9
$AUPREC
 70
    2
  9
$MENU
  1
.
  9
$ELEVATION
 40
0
  9
$PELEVATION
 40
0
  9
$THICKNESS
 40
0
  9
$LIMCHECK
 70
    0
  9
$CHAMFERA
 40
0
  9
$CHAMFERB
 40
0
  9
$CHAMFERC
 40
0
  9
$CHAMFERD
 40
0
  9
$SKPOLY
 70
    0
  9
$USRTIMER
 70
    1
  9
$ANGBASE
 50
0
  9
$ANGDIR
 70
    0
  9
$PDMODE
 70
   34
  9
$PDSIZE
 40
0
  9
$PLINEWID
 40
0
  9
$SPLFRAME
 70
    0
  9
$SPLINETYPE
 70
    2
  9
$SPLINESEGS
 70
    8
  9
$HANDSEED
  5
20000
  9
$SURFTAB1
 70
    6
  9
$SURFTAB2
 70
    6
  9
$SURFTYPE
 70
    6
  9
$SURFU
 70
    6
  9
$SURFV
 70
    6
  9
$UCSBASE
  2

  9
$UCSNAME
  2

  9
$UCSORG
 10
0
 20
0
 30
0
  9
$UCSXDIR
 10
1
 20
0
 30
0
  9
$UCSYDIR
 10
0
 20
1
 30
0
  9
$UCSORTHOREF
  2

  9
$UCSORTHOVIEW
 70
    0
  9
$UCSORGTOP
 10
0
 20
0
 30
0
  9
$UCSORGBOTTOM
 10
0
 20
0
 30
0
  9
$UCSORGLEFT
 10
0
 20
0
 30
0
  9
$UCSORGRIGHT
 10
0
 20
0
 30
0
  9
$UCSORGFRONT
 10
0
 20
0
 30
0
  9
$UCSORGBACK
 10
0
 20
0
 30
0
  9
$PUCSBASE
  2

  9
$PUCSNAME
  2

  9
$PUCSORG
 10
0
 20
0
 30
0
  9
$PUCSXDIR
 10
1
 20
0
 30
0
  9
$PUCSYDIR
 10
0
 20
1
 30
0
  9
$PUCSORTHOREF
  2

  9
$PUCSORTHOVIEW
 70
    0
  9
$PUCSORGTOP
 10
0
 20
0
 30
0
  9
$PUCSORGBOTTOM
 10
0
 20
0
 30
0
  9
$PUCSORGLEFT
 10
0
 20
0
 30
0
  9
$PUCSORGRIGHT
 10
0
 20
0
 30
0
  9
$PUCSORGFRONT
 10
0
 20
0
 30
0
  9
$PUCSORGBACK
 10
0
 20
0
 30
0
  9
$USERI1
 70
    0
  9
$USERI2
 70
    0
  9
$USERI3
 70
    0
  9
$USERI4
 70
    0
  9
$USERI5
 70
    0
  9
$USERR1
 40
0
  9
$USERR2
 40
0
  9
$USERR3
 40
0
  9
$USERR4
 40
0
  9
$USERR5
 40
0
  9
$WORLDVIEW
 70
    1
  9
$SHADEDGE
 70
    3
  9
$SHADEDIF
 70
   70
  9
$TILEMODE
 70
    1
  9
$MAXACTVP
 70
   64
  9
$PINSBASE
 10
0
 20
0
 30
0
  9
$PLIMCHECK
 70
    0
  9
$PEXTMIN
 10
0
 20
0
 30
0
  9
$PEXTMAX
 10
0
 20
0
 30
0
  9
$GRIDMODE
 70
    0
  9
$SNAPSTYLE
 70
    0
  9
$PLIMMIN
 10
0
 20
0
  9
$PLIMMAX
 10
297
 20
210
  9
$UNITMODE
 70
    0
  9
$VISRETAIN
 70
    1
  9
$PLINEGEN
 70
    0
  9
$PSLTSCALE
 70
    1
  9
$TREEDEPTH
 70
 3020
  9
$CMLSTYLE
  2
Standard
  9
$CMLJUST
 70
    0
  9
$CMLSCALE
 40
20
  9
$PROXYGRAPHICS
 70
    1
  9
$MEASUREMENT
 70
    1
  9
$CELWEIGHT
370
   -1
  9
$ENDCAPS
280
    0
  9
$JOINSTYLE
280
    0
  9
$LWDISPLAY
290
    0
  9
$INSUNITS
 70
    4
  9
$HYPERLINKBASE
  1

  9
$STYLESHEET
  1

  9
$XEDIT
290
    1
  9
$CEPSNTYPE
380
    0
  9
$PSTYLEMODE
290
    1
  9
$EXTNAMES
290
    1
  9
$PSVPSCALE
 40
1
  9
$OLESTARTUP
290
    0
  9
$SORTENTS
280
  127
  9
$INDEXCTL
280
    0
  9
$HIDETEXT
280
    1
  9
$XCLIPFRAME
290
    0
  9
$HALOGAP
280
    0
  9
$OBSCOLOR
 70
  257
  9
$OBSLTYPE
280
    0
  9
$INTERSECTIONDISPLAY
280
    0
  9
$INTERSECTIONCOLOR
 70
  257
  9
$DIMASSOC
280
    1
  9
$PROJECTNAME
  1

  9
$CAMERADISPLAY
290
    0
  9
$LENSLENGTH
 40
50
  9
$CAMERAHEIGHT
 40
0
  9
$STEPSPERSEC
 40
2
  9
$STEPSIZE
 40
50
  9
$3DDWFPREC
 40
2
  9
$PSOLWIDTH
 40
5
  9
$PSOLHEIGHT
 40
80
  9
$LOFTANG1
 40
1.570796326794897
  9
$LOFTANG2
 40
1.570796326794897
  9
$LOFTMAG1
 40
0
  9
$LOFTMAG2
 40
0
  9
$LOFTPARAM
 70
    7
  9
$LOFTNORMALS
280
    1
  9
$LATITUDE
 40
1
  9
$LONGITUDE
 40
1
  9
$NORTHDIRECTION
 40
0
  9
$TIMEZONE
 70
-8000
  9
$LIGHTGLYPHDISPLAY
280
    1
  9
$TILEMODELIGHTSYNCH
280
    1
  9
$SOLIDHIST
280
    1
  9
$SHOWHIST
280
    1
  9
$DWFFRAME
280
    2
  9
$DGNFRAME
280
    0
  9
$REALWORLDSCALE
290
    1
  9
$INTERFERECOLOR
 62
    1
  9
$CSHADOW
280
    0
  9
$SHADOWPLANELOCATION
 40
0
  0
ENDSEC
  0
SECTION
  2
CLASSES
  0
ENDSEC
  0
SECTION
  2
TABLES
  0
TABLE
  2
VPORT
  5
8
330
0
100
AcDbSymbolTable
 70
    1
  0
VPORT
  5
31
330
2
100
AcDbSymbolTableRecord
100
AcDbViewportTableRecord
  2
*ACTIVE
 70
    0
 10
0
 20
0
 11
1
 21
1
 12
80.33065617113053
 22
54.16844820721857
 13
0
 23
0
 14
10
 24
10
 15
10
 25
10
 16
0
 26
0
 36
1
 17
0
 27
0
 37
0
 40
180.0236512759051
 41
1.724711907810499
 42
50
 43
0
 44
0
 50
0
 51
0
 71
    0
 72
  100
 73
    1
 74
    3
 75
    0
 76
    0
 77
    0
 78
    0
281
    0
 65
    1
110
0
120
0
130
0
111
1
121
0
131
0
112
0
122
1
132
0
 79
    0
146
0
348
10020
 60
    7
 61
    5
292
1
282
    1
141
0
142
0
 63
  250
421
3358443
  0
ENDTAB
  0
TABLE
  2
LTYPE
  5
5
330
0
100
AcDbSymbolTable
 70
    4
  0
LTYPE
  5
14
330
5
100
AcDbSymbolTableRecord
100
AcDbLinetypeTableRecord
  2
ByBlock
 70
    0
  3

 72
   65
 73
    0
 40
0
  0
LTYPE
  5
15
330
5
100
AcDbSymbolTableRecord
100
AcDbLinetypeTableRecord
  2
ByLayer
 70
    0
  3

 72
   65
 73
    0
 40
0
  0
LTYPE
  5
16
330
5
100
AcDbSymbolTableRecord
100
AcDbLinetypeTableRecord
  2
Continuous
 70
    0
  3
Solid line
 72
   65
 73
    0
 40
0
  0
LTYPE
  5
32
330
5
100
AcDbSymbolTableRecord
100
AcDbLinetypeTableRecord
  2
DOT
 70
    0
  3
Dot . . . . . . . . . . . . . . . . . . . . . .
 72
   65
 73
    2
 40
6.35
 49
0
 74
    0
 49
-6.35
 74
    0
  0
LTYPE
  5
33
330
5
100
AcDbSymbolTableRecord
100
AcDbLinetypeTableRecord
  2
DOTTINY
 70
    0
  3
Dot (.15x) .....................................
 72
   65
 73
    2
 40
0.9525
 49
0
 74
    0
 49
-0.9525
 74
    0
  0
LTYPE
  5
34
330
5
100
AcDbSymbolTableRecord
100
AcDbLinetypeTableRecord
  2
DOT2
 70
    0
  3
Dot (.5x) .....................................
 72
   65
 73
    2
 40
3.175
 49
0
 74
    0
 49
-3.175
 74
    0
  0
LTYPE
  5
35
330
5
100
AcDbSymbolTableRecord
100
AcDbLinetypeTableRecord
  2
DOTX2
 70
    0
  3
Dot (2x) .  .  .  .  .  .  .  .  .  .  .  .  .
 72
   65
 73
    2
 40
12.7
 49
0
 74
    0
 49
-12.7
 74
    0
  0
LTYPE
  5
36
330
5
100
AcDbSymbolTableRecord
100
AcDbLinetypeTableRecord
  2
DASHED
 70
    0
  3
Dashed _ _ _ _ _ _ _ _ _ _ _ _ _ _ _ _ _
 72
   65
 73
    2
 40
19.05
 49
12.7
 74
    0
 49
-6.35
 74
    0
  0
LTYPE
  5
37
330
5
100
AcDbSymbolTableRecord
100
AcDbLinetypeTableRecord
  2
DASHEDTINY
 70
    0
  3
Dashed (.15x) _ _ _ _ _ _ _ _ _ _ _ _ _ _ _ _ _
 72
   65
 73
    2
 40
2.8575
 49
1.905
 74
    0
 49
-0.9525
 74
    0
  0
LTYPE
  5
38
330
5
100
AcDbSymbolTableRecord
100
AcDbLinetypeTableRecord
  2
DASHED2
 70
    0
  3
Dashed (.5x) _ _ _ _ _ _ _ _ _ _ _ _ _ _ _ _ _
 72
   65
 73
    2
 40
9.524999999999999
 49
6.35
 74
    0
 49
-3.175
 74
    0
  0
LTYPE
  5
39
330
5
100
AcDbSymbolTableRecord
100
AcDbLinetypeTableRecord
  2
DASHEDX2
 70
    0
  3
Dashed (2x) ____  ____  ____  ____  ____  ___
 72
   65
 73
    2
 40
38.09999999999999
 49
25.4
 74
    0
 49
-12.7
 74
    0
  0
LTYPE
  5
3A
330
5
100
AcDbSymbolTableRecord
100
AcDbLinetypeTableRecord
  2
DASHDOT
 70
    0
  3
Dash dot __ . __ . __ . __ . __ . __ . __ . __
 72
   65
 73
    4
 40
25.4
 49
12.7
 74
    0
 49
-6.35
 74
    0
 49
0
 74
    0
 49
-6.35
 74
    0
  0
LTYPE
  5
3B
330
5
100
AcDbSymbolTableRecord
100
AcDbLinetypeTableRecord
  2
DASHDOTTINY
 70
    0
  3
Dash dot (.15x) _._._._._._._._._._._._._._._.
 72
   65
 73
    4
 40
3.81
 49
1.905
 74
    0
 49
-0.9525
 74
    0
 49
0
 74
    0
 49
-0.9525
 74
    0
  0
LTYPE
  5
3C
330
5
100
AcDbSymbolTableRecord
100
AcDbLinetypeTableRecord
  2
DASHDOT2
 70
    0
  3
Dash dot (.5x) _._._._._._._._._._._._._._._.
 72
   65
 73
    4
 40
12.7
 49
6.35
 74
    0
 49
-3.175
 74
    0
 49
0
 74
    0
 49
-3.175
 74
    0
  0
LTYPE
  5
3D
330
5
100
AcDbSymbolTableRecord
100
AcDbLinetypeTableRecord
  2
DASHDOTX2
 70
    0
  3
Dash dot (2x) ____  .  ____  .  ____  .  ___
 72
   65
 73
    4
 40
50.8
 49
25.4
 74
    0
 49
-12.7
 74
    0
 49
0
 74
    0
 49
-12.7
 74
    0
  0
LTYPE
  5
3E
330
5
100
AcDbSymbolTableRecord
100
AcDbLinetypeTableRecord
  2
DIVIDE
 70
    0
  3
Divide ____ . . ____ . . ____ . . ____ . . ____
 72
   65
 73
    6
 40
31.75
 49
12.7
 74
    0
 49
-6.35
 74
    0
 49
0
 74
    0
 49
-6.35
 74
    0
 49
0
 74
    0
 49
-6.35
 74
    0
  0
LTYPE
  5
3F
330
5
100
AcDbSymbolTableRecord
100
AcDbLinetypeTableRecord
  2
DIVIDETINY
 70
    0
  3
Divide (.15x) __..__..__..__..__..__..__..__.._
 72
   65
 73
    6
 40
4.7625
 49
1.905
 74
    0
 49
-0.9525
 74
    0
 49
0
 74
    0
 49
-0.9525
 74
    0
 49
0
 74
    0
 49
-0.9525
 74
    0
  0
LTYPE
  5
40
330
5
100
AcDbSymbolTableRecord
100
AcDbLinetypeTableRecord
  2
DIVIDE2
 70
    0
  3
Divide (.5x) __..__..__..__..__..__..__..__.._
 72
   65
 73
    6
 40
15.875
 49
6.35
 74
    0
 49
-3.175
 74
    0
 49
0
 74
    0
 49
-3.175
 74
    0
 49
0
 74
    0
 49
-3.175
 74
    0
  0
LTYPE
  5
41
330
5
100
AcDbSymbolTableRecord
100
AcDbLinetypeTableRecord
  2
DIVIDEX2
 70
    0
  3
Divide (2x) ________  .  .  ________  .  .  _
 72
   65
 73
    6
 40
63.5
 49
25.4
 74
    0
 49
-12.7
 74
    0
 49
0
 74
    0
 49
-12.7
 74
    0
 49
0
 74
    0
 49
-12.7
 74
    0
  0
LTYPE
  5
42
330
5
100
AcDbSymbolTableRecord
100
AcDbLinetypeTableRecord
  2
BORDER
 70
    0
  3
Border __ __ . __ __ . __ __ . __ __ . __ __ .
 72
   65
 73
    6
 40
44.45
 49
12.7
 74
    0
 49
-6.35
 74
    0
 49
12.7
 74
    0
 49
-6.35
 74
    0
 49
0
 74
    0
 49
-6.35
 74
    0
  0
LTYPE
  5
43
330
5
100
AcDbSymbolTableRecord
100
AcDbLinetypeTableRecord
  2
BORDERTINY
 70
    0
  3
Border (.15x) __.__.__.__.__.__.__.__.__.__.__.
 72
   65
 73
    6
 40
6.6675
 49
1.905
 74
    0
 49
-0.9525
 74
    0
 49
1.905
 74
    0
 49
-0.9525
 74
    0
 49
0
 74
    0
 49
-0.9525
 74
    0
  0
LTYPE
  5
44
330
5
100
AcDbSymbolTableRecord
100
AcDbLinetypeTableRecord
  2
BORDER2
 70
    0
  3
Border (.5x) __.__.__.__.__.__.__.__.__.__.__.
 72
   65
 73
    6
 40
22.225
 49
6.35
 74
    0
 49
-3.175
 74
    0
 49
6.35
 74
    0
 49
-3.175
 74
    0
 49
0
 74
    0
 49
-3.175
 74
    0
  0
LTYPE
  5
45
330
5
100
AcDbSymbolTableRecord
100
AcDbLinetypeTableRecord
  2
BORDERX2
 70
    0
  3
Border (2x) ____  ____  .  ____  ____  .  ___
 72
   65
 73
    6
 40
88.89999999999999
 49
25.4
 74
    0
 49
-12.7
 74
    0
 49
25.4
 74
    0
 49
-12.7
 74
    0
 49
0
 74
    0
 49
-12.7
 74
    0
  0
LTYPE
  5
46
330
5
100
AcDbSymbolTableRecord
100
AcDbLinetypeTableRecord
  2
CENTER
 70
    0
  3
Center ____ _ ____ _ ____ _ ____ _ ____ _ ____
 72
   65
 73
    4
 40
50.8
 49
31.75
 74
    0
 49
-6.35
 74
    0
 49
6.35
 74
    0
 49
-6.35
 74
    0
  0
LTYPE
  5
47
330
5
100
AcDbSymbolTableRecord
100
AcDbLinetypeTableRecord
  2
CENTERTINY
 70
    0
  3
Center (.15x) ___ _ ___ _ ___ _ ___ _ ___ _ ___
 72
   65
 73
    4
 40
7.62
 49
4.7625
 74
    0
 49
-0.9525
 74
    0
 49
0.9525
 74
    0
 49
-0.9525
 74
    0
  0
LTYPE
  5
48
330
5
100
AcDbSymbolTableRecord
100
AcDbLinetypeTableRecord
  2
CENTER2
 70
    0
  3
Center (.5x) ___ _ ___ _ ___ _ ___ _ ___ _ ___
 72
   65
 73
    4
 40
28.575
 49
19.05
 74
    0
 49
-3.175
 74
    0
 49
3.175
 74
    0
 49
-3.175
 74
    0
  0
LTYPE
  5
49
330
5
100
AcDbSymbolTableRecord
100
AcDbLinetypeTableRecord
  2
CENTERX2
 70
    0
  3
Center (2x) ________  __  ________  __  _____
 72
   65
 73
    4
 40
101.6
 49
63.5
 74
    0
 49
-12.7
 74
    0
 49
12.7
 74
    0
 49
-12.7
 74
    0
  0
ENDTAB
  0
TABLE
  2
LAYER
  5
2
330
0
100
AcDbSymbolTable
 70
    1
  0
LAYER
  5
10
330
2
100
AcDbSymbolTableRecord
100
AcDbLayerTableRecord
  2
0
 70
    0
 62
    7
  6
CONTINUOUS
370
   -3
390
F
  0
LAYER
  5
4A
330
2
100
AcDbSymbolTableRecord
100
AcDbLayerTableRecord
  2
aux
 70
    0
 62
    3
  6
CONTINUOUS
370
   25
390
F
  0
LAYER
  5
4B
330
2
100
AcDbSymbolTableRecord
100
AcDbLayerTableRecord
  2
main
 70
    0
 62
    6
  6
CONTINUOUS
370
   70
390
F
  0
ENDTAB
  0
TABLE
  2
STYLE
  5
3
330
0
100
AcDbSymbolTable
 70
    3
  0
STYLE
  5
4C
330
2
100
AcDbSymbolTableRecord
100
AcDbTextStyleTableRecord
  2
Standard
 70
    0
 40
0
 41
1
 50
0
 71
    0
 42
1
  3
txt
  4

  0
ENDTAB
  0
TABLE
  2
VIEW
  5
6
330
0
100
AcDbSymbolTable
 70
    0
  0
ENDTAB
  0
TABLE
  2
UCS
  5
7
330
0
100
AcDbSymbolTable
 70
    0
  0
ENDTAB
  0
TABLE
  2
APPID
  5
9
330
0
100
AcDbSymbolTable
 70
    1
  0
APPID
  5
12
330
9
100
AcDbSymbolTableRecord
100
AcDbRegAppTableRecord
  2
ACAD
 70
    0
  0
APPID
  5
4D
330
9
100
AcDbSymbolTableRecord
100
AcDbRegAppTableRecord
  2
LibreCad
 70
    0
  0
ENDTAB
  0
TABLE
  2
DIMSTYLE
  5
A
330
0
100
AcDbSymbolTable
 70
    1
100
AcDbDimStyleTable
 71
    1
  0
DIMSTYLE
105
4E
330
A
100
AcDbSymbolTableRecord
100
AcDbDimStyleTableRecord
  2
Standard
 70
    0
 40
1
 41
2.5
 42
0.625
 43
0.38
 44
1.25
 45
0
 46
0
 47
0
 48
0
 49
1
140
2.5
141
0.09
142
0
143
25.4
144
1
145
0
146
1
147
0.625
148
0
 71
    0
 72
    0
 73
    0
 74
    1
 75
    0
 76
    0
 77
    0
 78
    1
 79
    0
170
    0
171
    2
172
    0
173
    0
174
    0
175
    0
176
    0
177
    0
178
    0
179
    0
271
    4
272
    4
273
    2
274
    2
275
    0
276
    0
277
    2
278
    0
279
    0
280
    0
281
    0
282
    0
283
    1
284
    0
285
    0
286
    0
288
    0
289
    3
340
standard
341

371
   -2
372
   -2
  0
ENDTAB
  0
TABLE
  2
BLOCK_RECORD
  5
1
330
0
100
AcDbSymbolTable
 70
    2
  0
BLOCK_RECORD
  5
1F
330
1
100
AcDbSymbolTableRecord
100
AcDbBlockTableRecord
  2
*Model_Space
 70
    0
280
    1
281
    0
  0
BLOCK_RECORD
  5
1E
330
1
100
AcDbSymbolTableRecord
100
AcDbBlockTableRecord
  2
*Paper_Space
 70
    0
280
    1
281
    0
  0
BLOCK_RECORD
  5
4F
330
1
100
AcDbSymbolTableRecord
100
AcDbBlockTableRecord
  2
block 5
 70
    0
280
    1
281
    0
  0
BLOCK_RECORD
  5
52
330
1
100
AcDbSymbolTableRecord
100
AcDbBlockTableRecord
  2
block 4
 70
    0
280
    1
281
    0
  0
BLOCK_RECORD
  5
55
330
1
100
AcDbSymbolTableRecord
100
AcDbBlockTableRecord
  2
block 3
 70
    0
280
    1
281
    0
  0
BLOCK_RECORD
  5
58
330
1
100
AcDbSymbolTableRecord
100
AcDbBlockTableRecord
  2
block 2
 70
    0
280
    1
281
    0
  0
BLOCK_RECORD
  5
5B
330
1
100
AcDbSymbolTableRecord
100
AcDbBlockTableRecord
  2
block 3-0
 70
    0
280
    1
281
    0
  0
BLOCK_RECORD
  5
5E
330
1
100
AcDbSymbolTableRecord
100
AcDbBlockTableRecord
  2
block 2-0
 70
    0
280
    1
281
    0
  0
ENDTAB
  0
ENDSEC
  0
SECTION
  2
BLOCKS
  0
BLOCK
  5
20
330
1F
100
AcDbEntity
  8
0
100
AcDbBlockBegin
  2
*Model_Space
 70
    0
 10
0
 20
0
 30
0
  3
*Model_Space
  1

  0
ENDBLK
  5
21
330
1F
100
AcDbEntity
  8
0
100
AcDbBlockEnd
  0
BLOCK
  5
1C
330
1B
100
AcDbEntity
  8
0
100
AcDbBlockBegin
  2
*Paper_Space
 70
    0
 10
0
 20
0
 30
0
  3
*Paper_Space
  1

  0
ENDBLK
  5
1D
330
1F
100
AcDbEntity
  8
0
100
AcDbBlockEnd
  0
BLOCK
  5
50
330
4F
100
AcDbEntity
  8
0
100
AcDbBlockBegin
  2
block 5
 70
    0
 10
0
 20
0
  3
block 5
  1

  0
SPLINE
  5
61
100
AcDbEntity
  8
main
  6
ByLayer
 62
    7
370
   35
100
AcDbSpline
210
0
220
0
230
0
 70
   11
 71
    3
 72
   59
 73
   55
 74
    0
 42
1e-07
 43
1e-07
 40
0
 40
0
 40
0
 40
0
 40
1
 40
1
 40
1
 40
2
 40
2
 40
2
 40
3
 40
3
 40
3
 40
4
 40
4
 40
4
 40
5
 40
5
 40
5
 40
6
 40
6
 40
6
 40
7
 40
7
 40
7
 40
8
 40
8
 40
8
 40
9
 40
9
 40
9
 40
10
 40
10
 40
10
 40
11
 40
11
 40
11
 40
12
 40
12
 40
12
 40
13
 40
13
 40
13
 40
14
 40
14
 40
14
 40
15
 40
15
 40
15
 40
16
 40
16
 40
16
 40
17
 40
17
 40
17
 40
18
 40
18
 40
18
 40
18
 10
93.00024172128788
 20
-16.47032336126324
 30
0
 10
93.00024172128788
 20
-16.47032336126324
 30
0
 10
93.00024172128788
 20
0
 30
0
 10
93.00024172128788
 20
0
 30
0
 10
93.00024172128788
 20
0
 30
0
 10
40.36982778268296
 20
0
 30
0
 10
40.36982778268296
 20
0
 30
0
 10
40.36982778268296
 20
0
 30
0
 10
32.17204541272523
 20
-3.883658702550211
 30
0
 10
32.17204541272523
 20
-3.883658702550211
 30
0
 10
32.17204541272523
 20
-3.883658702550211
 30
0
 10
6.579275443267335
 20
-3.883658702550211
 30
0
 10
6.579275443267335
 20
-3.883658702550211
 30
0
 10
6.579275443267335
 20
-3.883658702550211
 30
0
 10
6.579275443267335
 20
-18.90428492726317
 30
0
 10
6.579275443267335
 20
-18.90428492726317
 30
0
 10
6.579275443267335
 20
-18.90428492726317
 30
0
 10
0.0001722548878980844
 20
-18.90428492726317
 30
0
 10
0.0001722548878980844
 20
-18.90428492726317
 30
0
 10
0.0001722548878980844
 20
-18.90428492726317
 30
0
 10
0.0001722548878980844
 20
-55.86846132131311
 30
0
 10
0.0001722548878980844
 20
-55.86846132131311
 30
0
 10
0.0001722548878980844
 20
-55.86846132131311
 30
0
 10
6.579275443267335
 20
-55.86846132131311
 30
0
 10
6.579275443267335
 20
-55.86846132131311
 30
0
 10
6.579275443267335
 20
-55.86846132131311
 30
0
 10
6.579275443267335
 20
-74.06443414953937
 30
0
 10
6.579275443267335
 20
-74.06443414953937
 30
0
 10
6.579275443267335
 20
-74.06443414953937
 30
0
 10
33.64758078246022
 20
-74.06443414953937
 30
0
 10
33.64758078246022
 20
-74.06443414953937
 30
0
 10
33.64758078246022
 20
-74.06443414953937
 30
0
 10
38.07435914655309
 20
-75.52377755981193
 30
0
 10
38.07435914655309
 20
-75.52377755981193
 30
0
 10
38.07435914655309
 20
-75.52377755981193
 30
0
 10
85.49940262776579
 20
-75.52377755981193
 30
0
 10
85.49940262776579
 20
-75.52377755981193
 30
0
 10
85.49940262776579
 20
-75.52377755981193
 30
0
 10
85.49940262776579
 20
-79.99999307673156
 30
0
 10
85.49940262776579
 20
-79.99999307673156
 30
0
 10
85.49940262776579
 20
-79.99999307673156
 30
0
 10
93.00024172128788
 20
-79.99999307673156
 30
0
 10
93.00024172128788
 20
-79.99999307673156
 30
0
 10
93.00024172128788
 20
-79.99999307673156
 30
0
 10
93.00024172128788
 20
-59.6914863033232
 30
0
 10
93.00024172128788
 20
-59.6914863033232
 30
0
 10
92.11226777417326
 20
-59.6914863033232
 30
0
 10
89.29021594573894
 20
-59.6914863033232
 30
0
 10
89.29021594573894
 20
-59.6914863033232
 30
0
 10
89.29021594573894
 20
-59.6914863033232
 30
0
 10
89.29021594573894
 20
-16.47032336126324
 30
0
 10
89.29021594573894
 20
-16.47032336126324
 30
0
 10
89.29021594573894
 20
-16.47032336126324
 30
0
 10
93.00024172128788
 20
-16.47032336126324
 30
0
 10
93.00024172128788
 20
-16.47032336126324
 30
0
  0
LWPOLYLINE
  5
62
100
AcDbEntity
  8
main
  6
ByLayer
 62
    7
370
   35
100
AcDbPolyline
 90
    2
 70
    0
 43
0
 10
3.385842076524747
 20
-18.90256237838419
 10
3.385842076524747
 20
-55.86673877243413
  0
ENDBLK
  5
51
330
4F
100
AcDbEntity
  8
0
100
AcDbBlockEnd
  0
BLOCK
  5
53
330
52
100
AcDbEntity
  8
0
100
AcDbBlockBegin
  2
block 4
 70
    0
 10
0
 20
0
  3
block 4
  1

  0
SPLINE
  5
63
100
AcDbEntity
  8
main
  6
ByLayer
 62
    7
370
   35
100
AcDbSpline
210
0
220
0
230
0
 70
   11
 71
    3
 72
   17
 73
   13
 74
    0
 42
1e-07
 43
1e-07
 40
0
 40
0
 40
0
 40
0
 40
1
 40
1
 40
1
 40
2
 40
2
 40
2
 40
3
 40
3
 40
3
 40
4
 40
4
 40
4
 40
4
 10
119.1388874304948
 20
-69.1689502354758
 30
0
 10
119.1388874304948
 20
-70.54940090709106
 30
0
 10
120.2581996920566
 20
-71.6690576784286
 30
0
 10
121.6386503636718
 20
-71.6690576784286
 30
0
 10
123.0194455450629
 20
-71.6690576784286
 30
0
 10
124.1387578066246
 20
-70.54940090709106
 30
0
 10
124.1387578066246
 20
-69.1689502354758
 30
0
 10
124.1387578066246
 20
-67.78815505408475
 30
0
 10
123.0194455450629
 20
-66.66884279252301
 30
0
 10
121.6386503636718
 20
-66.66884279252301
 30
0
 10
120.2581996920566
 20
-66.66884279252301
 30
0
 10
119.1388874304948
 20
-67.78815505408475
 30
0
 10
119.1388874304948
 20
-69.1689502354758
 30
0
  0
SPLINE
  5
64
100
AcDbEntity
  8
main
  6
ByLayer
 62
    7
370
   35
100
AcDbSpline
210
0
220
0
230
0
 70
   11
 71
    3
 72
   17
 73
   13
 74
    0
 42
1e-07
 43
1e-07
 40
0
 40
0
 40
0
 40
0
 40
1
 40
1
 40
1
 40
2
 40
2
 40
2
 40
3
 40
3
 40
3
 40
4
 40
4
 40
4
 40
4
 10
131.0156896961798
 20
-69.1689502354758
 30
0
 10
131.0156896961798
 20
-70.54940090709106
 30
0
 10
132.1350019577416
 20
-71.6690576784286
 30
0
 10
133.5156248842447
 20
-71.6690576784286
 30
0
 10
134.8962478107479
 20
-71.6690576784286
 30
0
 10
136.0157323271975
 20
-70.54940090709106
 30
0
 10
136.0157323271975
 20
-69.1689502354758
 30
0
 10
136.0157323271975
 20
-67.78815505408475
 30
0
 10
134.8962478107479
 20
-66.66884279252301
 30
0
 10
133.5156248842447
 20
-66.66884279252301
 30
0
 10
132.1350019577416
 20
-66.66884279252301
 30
0
 10
131.0156896961798
 20
-67.78815505408475
 30
0
 10
131.0156896961798
 20
-69.1689502354758
 30
0
  0
SPLINE
  5
65
100
AcDbEntity
  8
main
  6
ByLayer
 62
    7
370
   35
100
AcDbSpline
210
0
220
0
230
0
 70
   11
 71
    3
 72
   17
 73
   13
 74
    0
 42
1e-07
 43
1e-07
 40
0
 40
0
 40
0
 40
0
 40
1
 40
1
 40
1
 40
2
 40
2
 40
2
 40
3
 40
3
 40
3
 40
4
 40
4
 40
4
 40
4
 10
142.8926642167527
 20
-69.1689502354758
 30
0
 10
142.8926642167527
 20
-70.54940090709106
 30
0
 10
144.0119764783145
 20
-71.6690576784286
 30
0
 10
145.3925994048176
 20
-71.6690576784286
 30
0
 10
146.7732223313208
 20
-71.6690576784286
 30
0
 10
147.8927068477705
 20
-70.54940090709106
 30
0
 10
147.8927068477705
 20
-69.1689502354758
 30
0
 10
147.8927068477705
 20
-67.78815505408475
 30
0
 10
146.7732223313208
 20
-66.66884279252301
 30
0
 10
145.3925994048176
 20
-66.66884279252301
 30
0
 10
144.0119764783145
 20
-66.66884279252301
 30
0
 10
142.8926642167527
 20
-67.78815505408475
 30
0
 10
142.8926642167527
 20
-69.1689502354758
 30
0
  0
SPLINE
  5
66
100
AcDbEntity
  8
main
  6
ByLayer
 62
    7
370
   35
100
AcDbSpline
210
0
220
0
230
0
 70
   11
 71
    3
 72
   17
 73
   13
 74
    0
 42
1e-07
 43
1e-07
 40
0
 40
0
 40
0
 40
0
 40
1
 40
1
 40
1
 40
2
 40
2
 40
2
 40
3
 40
3
 40
3
 40
4
 40
4
 40
4
 40
4
 10
154.7694664824378
 20
-69.1689502354758
 30
0
 10
154.7694664824378
 20
-70.54940090709106
 30
0
 10
155.8887787439995
 20
-71.6690576784286
 30
0
 10
157.2695739253906
 20
-71.6690576784286
 30
0
 10
158.6500245970058
 20
-71.6690576784286
 30
0
 10
159.7696813683434
 20
-70.54940090709106
 30
0
 10
159.7696813683434
 20
-69.1689502354758
 30
0
 10
159.7696813683434
 20
-67.78815505408475
 30
0
 10
158.6500245970058
 20
-66.66884279252301
 30
0
 10
157.2695739253906
 20
-66.66884279252301
 30
0
 10
155.8887787439995
 20
-66.66884279252301
 30
0
 10
154.7694664824378
 20
-67.78815505408475
 30
0
 10
154.7694664824378
 20
-69.1689502354758
 30
0
  0
ENDBLK
  5
54
330
52
100
AcDbEntity
  8
0
100
AcDbBlockEnd
  0
BLOCK
  5
56
330
55
100
AcDbEntity
  8
0
100
AcDbBlockBegin
  2
block 3
 70
    0
 10
0
 20
0
  3
block 3
  1

  0
SPLINE
  5
67
100
AcDbEntity
  8
main
  6
ByLayer
 62
    7
370
   35
100
AcDbSpline
210
0
220
0
230
0
 70
   11
 71
    3
 72
   17
 73
   13
 74
    0
 42
1e-07
 43
1e-07
 40
0
 40
0
 40
0
 40
0
 40
1
 40
1
 40
1
 40
2
 40
2
 40
2
 40
3
 40
3
 40
3
 40
4
 40
4
 40
4
 40
4
 10
119.1388874304948
 20
-9.148457096267263
 30
0
 10
119.1388874304948
 20
-10.52908002277041
 30
0
 10
120.2581996920566
 20
-11.64856453922006
 30
0
 10
121.6388226185597
 20
-11.64856453922006
 30
0
 10
123.0194455450629
 20
-11.64856453922006
 30
0
 10
124.1389300615125
 20
-10.52908002277041
 30
0
 10
124.1389300615125
 20
-9.148457096267263
 30
0
 10
124.1389300615125
 20
-7.767834169764117
 30
0
 10
123.0194455450629
 20
-6.648521908202365
 30
0
 10
121.6388226185597
 20
-6.648521908202365
 30
0
 10
120.2581996920566
 20
-6.648521908202365
 30
0
 10
119.1388874304948
 20
-7.767834169764117
 30
0
 10
119.1388874304948
 20
-9.148457096267263
 30
0
  0
SPLINE
  5
68
100
AcDbEntity
  8
main
  6
ByLayer
 62
    7
370
   35
100
AcDbSpline
210
0
220
0
230
0
 70
   11
 71
    3
 72
   17
 73
   13
 74
    0
 42
1e-07
 43
1e-07
 40
0
 40
0
 40
0
 40
0
 40
1
 40
1
 40
1
 40
2
 40
2
 40
2
 40
3
 40
3
 40
3
 40
4
 40
4
 40
4
 40
4
 10
131.0156896961798
 20
-9.148457096267263
 30
0
 10
131.0156896961798
 20
-10.52908002277041
 30
0
 10
132.1350019577416
 20
-11.64856453922006
 30
0
 10
133.5157971391326
 20
-11.64856453922006
 30
0
 10
134.8962478107479
 20
-11.64856453922006
 30
0
 10
136.0159045820854
 20
-10.52908002277041
 30
0
 10
136.0159045820854
 20
-9.148457096267263
 30
0
 10
136.0159045820854
 20
-7.767834169764117
 30
0
 10
134.8962478107479
 20
-6.648521908202365
 30
0
 10
133.5157971391326
 20
-6.648521908202365
 30
0
 10
132.1350019577416
 20
-6.648521908202365
 30
0
 10
131.0156896961798
 20
-7.767834169764117
 30
0
 10
131.0156896961798
 20
-9.148457096267263
 30
0
  0
SPLINE
  5
69
100
AcDbEntity
  8
main
  6
ByLayer
 62
    7
370
   35
100
AcDbSpline
210
0
220
0
230
0
 70
   11
 71
    3
 72
   17
 73
   13
 74
    0
 42
1e-07
 43
1e-07
 40
0
 40
0
 40
0
 40
0
 40
1
 40
1
 40
1
 40
2
 40
2
 40
2
 40
3
 40
3
 40
3
 40
4
 40
4
 40
4
 40
4
 10
142.8926642167527
 20
-9.148457096267263
 30
0
 10
142.8926642167527
 20
-10.52908002277041
 30
0
 10
144.0119764783145
 20
-11.64856453922006
 30
0
 10
145.3925994048176
 20
-11.64856453922006
 30
0
 10
146.7732223313208
 20
-11.64856453922006
 30
0
 10
147.8927068477705
 20
-10.52908002277041
 30
0
 10
147.8927068477705
 20
-9.148457096267263
 30
0
 10
147.8927068477705
 20
-7.767834169764117
 30
0
 10
146.7732223313208
 20
-6.648521908202365
 30
0
 10
145.3925994048176
 20
-6.648521908202365
 30
0
 10
144.0119764783145
 20
-6.648521908202365
 30
0
 10
142.8926642167527
 20
-7.767834169764117
 30
0
 10
142.8926642167527
 20
-9.148457096267263
 30
0
  0
SPLINE
  5
6A
100
AcDbEntity
  8
main
  6
ByLayer
 62
    7
370
   35
100
AcDbSpline
210
0
220
0
230
0
 70
   11
 71
    3
 72
   17
 73
   13
 74
    0
 42
1e-07
 43
1e-07
 40
0
 40
0
 40
0
 40
0
 40
1
 40
1
 40
1
 40
2
 40
2
 40
2
 40
3
 40
3
 40
3
 40
4
 40
4
 40
4
 40
4
 10
154.7694664824378
 20
-9.148457096267263
 30
0
 10
154.7694664824378
 20
-10.52908002277041
 30
0
 10
155.8887787439995
 20
-11.64856453922006
 30
0
 10
157.2695739253906
 20
-11.64856453922006
 30
0
 10
158.6500245970058
 20
-11.64856453922006
 30
0
 10
159.7696813683434
 20
-10.52908002277041
 30
0
 10
159.7696813683434
 20
-9.148457096267263
 30
0
 10
159.7696813683434
 20
-7.767834169764117
 30
0
 10
158.6500245970058
 20
-6.648521908202365
 30
0
 10
157.2695739253906
 20
-6.648521908202365
 30
0
 10
155.8887787439995
 20
-6.648521908202365
 30
0
 10
154.7694664824378
 20
-7.767834169764117
 30
0
 10
154.7694664824378
 20
-9.148457096267263
 30
0
  0
ENDBLK
  5
57
330
55
100
AcDbEntity
  8
0
100
AcDbBlockEnd
  0
BLOCK
  5
59
330
58
100
AcDbEntity
  8
0
100
AcDbBlockBegin
  2
block 2
 70
    0
 10
0
 20
0
  3
block 2
  1

  0
LWPOLYLINE
  5
6B
100
AcDbEntity
  8
main
  6
ByLayer
 62
  256
370
   -1
100
AcDbPolyline
 90
    5
 70
    0
 43
0
 10
165.9488087070235
 20
-79.99999307673156
 10
112.9597600918147
 20
-79.99999307673156
 10
112.9597600918147
 20
0
 10
165.9488087070235
 20
0
 10
165.9488087070235
 20
-79.99999307673156
  0
ENDBLK
  5
5A
330
58
100
AcDbEntity
  8
0
100
AcDbBlockEnd
  0
BLOCK
  5
5C
330
5B
100
AcDbEntity
  8
0
100
AcDbBlockBegin
  2
block 3-0
 70
    0
 10
0
 20
0
  3
block 3-0
  1

  0
SPLINE
  5
6C
100
AcDbEntity
  8
main
  6
ByLayer
 62
    7
370
   35
100
AcDbSpline
210
0
220
0
230
0
 70
   11
 71
    3
 72
   17
 73
   13
 74
    0
 42
1e-07
 43
1e-07
 40
0
 40
0
 40
0
 40
0
 40
1
 40
1
 40
1
 40
2
 40
2
 40
2
 40
3
 40
3
 40
3
 40
4
 40
4
 40
4
 40
4
 10
-2.421860429417748
 20
0.03626245525771665
 30
0
 10
-2.421860429417748
 20
-1.34436047124543
 30
0
 10
-1.302548167855988
 20
-2.463844987695081
 30
0
 10
0.07807475864714775
 20
-2.463844987695081
 30
0
 10
1.458697685150298
 20
-2.463844987695081
 30
0
 10
2.578182201599944
 20
-1.34436047124543
 30
0
 10
2.578182201599944
 20
0.03626245525771665
 30
0
 10
2.578182201599944
 20
1.416885381760863
 30
0
 10
1.458697685150298
 20
2.536197643322615
 30
0
 10
0.07807475864714775
 20
2.536197643322615
 30
0
 10
-1.302548167855988
 20
2.536197643322615
 30
0
 10
-2.421860429417748
 20
1.416885381760863
 30
0
 10
-2.421860429417748
 20
0.03626245525771665
 30
0
  0
SPLINE
  5
6D
100
AcDbEntity
  8
main
  6
ByLayer
 62
    7
370
   35
100
AcDbSpline
210
0
220
0
230
0
 70
   11
 71
    3
 72
   17
 73
   13
 74
    0
 42
1e-07
 43
1e-07
 40
0
 40
0
 40
0
 40
0
 40
1
 40
1
 40
1
 40
2
 40
2
 40
2
 40
3
 40
3
 40
3
 40
4
 40
4
 40
4
 40
4
 10
9.454941836267281
 20
0.03626245525771665
 30
0
 10
9.454941836267281
 20
-1.34436047124543
 30
0
 10
10.57425409782904
 20
-2.463844987695081
 30
0
 10
11.95504927922006
 20
-2.463844987695081
 30
0
 10
13.33549995083531
 20
-2.463844987695081
 30
0
 10
14.45515672217287
 20
-1.34436047124543
 30
0
 10
14.45515672217287
 20
0.03626245525771665
 30
0
 10
14.45515672217287
 20
1.416885381760863
 30
0
 10
13.33549995083531
 20
2.536197643322615
 30
0
 10
11.95504927922006
 20
2.536197643322615
 30
0
 10
10.57425409782904
 20
2.536197643322615
 30
0
 10
9.454941836267281
 20
1.416885381760863
 30
0
 10
9.454941836267281
 20
0.03626245525771665
 30
0
  0
SPLINE
  5
6E
100
AcDbEntity
  8
main
  6
ByLayer
 62
    7
370
   35
100
AcDbSpline
210
0
220
0
230
0
 70
   11
 71
    3
 72
   17
 73
   13
 74
    0
 42
1e-07
 43
1e-07
 40
0
 40
0
 40
0
 40
0
 40
1
 40
1
 40
1
 40
2
 40
2
 40
2
 40
3
 40
3
 40
3
 40
4
 40
4
 40
4
 40
4
 10
21.33191635684018
 20
0.03626245525771665
 30
0
 10
21.33191635684018
 20
-1.34436047124543
 30
0
 10
22.45122861840194
 20
-2.463844987695081
 30
0
 10
23.83185154490509
 20
-2.463844987695081
 30
0
 10
25.21247447140824
 20
-2.463844987695081
 30
0
 10
26.3319589878579
 20
-1.34436047124543
 30
0
 10
26.3319589878579
 20
0.03626245525771665
 30
0
 10
26.3319589878579
 20
1.416885381760863
 30
0
 10
25.21247447140824
 20
2.536197643322615
 30
0
 10
23.83185154490509
 20
2.536197643322615
 30
0
 10
22.45122861840194
 20
2.536197643322615
 30
0
 10
21.33191635684018
 20
1.416885381760863
 30
0
 10
21.33191635684018
 20
0.03626245525771665
 30
0
  0
SPLINE
  5
6F
100
AcDbEntity
  8
main
  6
ByLayer
 62
    7
370
   35
100
AcDbSpline
210
0
220
0
230
0
 70
   11
 71
    3
 72
   17
 73
   13
 74
    0
 42
1e-07
 43
1e-07
 40
0
 40
0
 40
0
 40
0
 40
1
 40
1
 40
1
 40
2
 40
2
 40
2
 40
3
 40
3
 40
3
 40
4
 40
4
 40
4
 40
4
 10
33.20871862252521
 20
0.03626245525771665
 30
0
 10
33.20871862252521
 20
-1.34436047124543
 30
0
 10
34.32803088408697
 20
-2.463844987695081
 30
0
 10
35.70882606547802
 20
-2.463844987695081
 30
0
 10
37.08927673709327
 20
-2.463844987695081
 30
0
 10
38.2089335084308
 20
-1.34436047124543
 30
0
 10
38.2089335084308
 20
0.03626245525771665
 30
0
 10
38.2089335084308
 20
1.416885381760863
 30
0
 10
37.08927673709327
 20
2.536197643322615
 30
0
 10
35.70882606547802
 20
2.536197643322615
 30
0
 10
34.32803088408697
 20
2.536197643322615
 30
0
 10
33.20871862252521
 20
1.416885381760863
 30
0
 10
33.20871862252521
 20
0.03626245525771665
 30
0
  0
ENDBLK
  5
5D
330
5B
100
AcDbEntity
  8
0
100
AcDbBlockEnd
  0
BLOCK
  5
5F
330
5E
100
AcDbEntity
  8
0
100
AcDbBlockBegin
  2
block 2-0
 70
    0
 10
0
 20
0
  3
block 2-0
  1

  0
LWPOLYLINE
  5
70
100
AcDbEntity
  8
main
  6
ByLayer
 62
  256
370
   -1
100
AcDbPolyline
 90
    5
 70
    0
 43
0
 10
52.98904861520874
 20
0
 10
0
 20
0
 10
0
 20
79.99999307673156
 10
52.98904861520874
 20
79.99999307673156
 10
52.98904861520874
 20
0
  0
ENDBLK
  5
60
330
5E
100
AcDbEntity
  8
0
100
AcDbBlockEnd
  0
ENDSEC
  0
SECTION
  2
ENTITIES
  0
CIRCLE
  5
71
100
AcDbEntity
  8
aux
  6
ByLayer
 62
  256
370
   -1
100
AcDbCircle
 10
8.621436006842579
 20
70.83171308592534
 40
2.529822128134704
  0
CIRCLE
  5
72
100
AcDbEntity
  8
aux
  6
ByLayer
 62
  256
370
   -1
100
AcDbCircle
 10
8.621436006842579
 20
70.83171308592534
 40
1.788854381999832
  0
LINE
  5
73
100
AcDbEntity
  8
aux
  6
ByLayer
 62
  256
370
   -1
100
AcDbLine
 10
7.659770784428851
 20
72.35906373328829
 11
8.621436006842579
 21
71.39739851087458
  0
LINE
  5
74
100
AcDbEntity
  8
aux
  6
ByLayer
 62
  256
370
   -1
100
AcDbLine
 10
8.621436006842579
 20
71.39739851087458
 11
9.583101229256251
 21
72.35906373328829
  0
LINE
  5
75
100
AcDbEntity
  8
aux
  6
ByLayer
 62
  256
370
   -1
100
AcDbLine
 10
10.14878665420552
 20
71.79337830833906
 11
9.187121431791788
 21
70.83171308592536
  0
LINE
  5
76
100
AcDbEntity
  8
aux
  6
ByLayer
 62
  256
370
   -1
100
AcDbLine
 10
9.187121431791788
 20
70.83171308592536
 11
10.0922181117106
 21
69.92661640600657
  0
LINE
  5
77
100
AcDbEntity
  8
aux
  6
ByLayer
 62
  256
370
   -1
100
AcDbLine
 10
9.583101229256251
 20
69.30436243856242
 11
8.621436006842579
 21
70.26602766097612
  0
LINE
  5
78
100
AcDbEntity
  8
aux
  6
ByLayer
 62
  256
370
   -1
100
AcDbLine
 10
8.621436006842579
 20
70.26602766097612
 11
7.716339326923766
 21
69.36093098105735
  0
LINE
  5
79
100
AcDbEntity
  8
aux
  6
ByLayer
 62
  256
370
   -1
100
AcDbLine
 10
7.094085359479642
 20
69.87004786351164
 11
8.055750581893314
 21
70.83171308592536
  0
LINE
  5
7A
100
AcDbEntity
  8
aux
  6
ByLayer
 62
  256
370
   -1
100
AcDbLine
 10
8.055750581893314
 20
70.83171308592536
 11
7.150653901974557
 21
71.73680976584413
  0
CIRCLE
  5
7B
100
AcDbEntity
  8
aux
  6
ByLayer
 62
  256
370
   -1
100
AcDbCircle
 10
20.54773707990734
 20
70.83703734917921
 40
2.529822128134704
  0
CIRCLE
  5
7C
100
AcDbEntity
  8
aux
  6
ByLayer
 62
  256
370
   -1
100
AcDbCircle
 10
20.54773707990734
 20
70.83703734917921
 40
1.788854381999832
  0
LINE
  5
7D
100
AcDbEntity
  8
aux
  6
ByLayer
 62
  256
370
   -1
100
AcDbLine
 10
19.58607185749361
 20
72.36438799654215
 11
20.54773707990734
 21
71.40272277412845
  0
LINE
  5
7E
100
AcDbEntity
  8
aux
  6
ByLayer
 62
  256
370
   -1
100
AcDbLine
 10
20.54773707990734
 20
71.40272277412845
 11
21.50940230232101
 21
72.36438799654215
  0
LINE
  5
7F
100
AcDbEntity
  8
aux
  6
ByLayer
 62
  256
370
   -1
100
AcDbLine
 10
22.07508772727027
 20
71.79870257159291
 11
21.11342250485654
 21
70.83703734917921
  0
LINE
  5
80
100
AcDbEntity
  8
aux
  6
ByLayer
 62
  256
370
   -1
100
AcDbLine
 10
21.11342250485654
 20
70.83703734917921
 11
22.01851918477536
 21
69.93194066926043
  0
LINE
  5
81
100
AcDbEntity
  8
aux
  6
ByLayer
 62
  256
370
   -1
100
AcDbLine
 10
21.50940230232101
 20
69.30968670181628
 11
20.54773707990734
 21
70.27135192422998
  0
LINE
  5
82
100
AcDbEntity
  8
aux
  6
ByLayer
 62
  256
370
   -1
100
AcDbLine
 10
20.54773707990734
 20
70.27135192422998
 11
19.64264039998852
 21
69.3662552443112
  0
LINE
  5
83
100
AcDbEntity
  8
aux
  6
ByLayer
 62
  256
370
   -1
100
AcDbLine
 10
19.0203864325444
 20
69.87537212676551
 11
19.98205165495807
 21
70.83703734917921
  0
LINE
  5
84
100
AcDbEntity
  8
aux
  6
ByLayer
 62
  256
370
   -1
100
AcDbLine
 10
19.98205165495807
 20
70.83703734917921
 11
19.07695497503931
 21
71.742134029098
  0
CIRCLE
  5
85
100
AcDbEntity
  8
aux
  6
ByLayer
 62
  256
370
   -1
100
AcDbCircle
 10
32.50668635790666
 20
70.83703734917921
 40
2.529822128134704
  0
CIRCLE
  5
86
100
AcDbEntity
  8
aux
  6
ByLayer
 62
  256
370
   -1
100
AcDbCircle
 10
32.50668635790666
 20
70.83703734917921
 40
1.788854381999832
  0
LINE
  5
87
100
AcDbEntity
  8
aux
  6
ByLayer
 62
  256
370
   -1
100
AcDbLine
 10
31.54502113549293
 20
72.36438799654215
 11
32.50668635790666
 21
71.40272277412845
  0
LINE
  5
88
100
AcDbEntity
  8
aux
  6
ByLayer
 62
  256
370
   -1
100
AcDbLine
 10
32.50668635790666
 20
71.40272277412845
 11
33.46835158032033
 21
72.36438799654215
  0
LINE
  5
89
100
AcDbEntity
  8
aux
  6
ByLayer
 62
  256
370
   -1
100
AcDbLine
 10
34.0340370052696
 20
71.79870257159291
 11
33.07237178285587
 21
70.83703734917921
  0
LINE
  5
8A
100
AcDbEntity
  8
aux
  6
ByLayer
 62
  256
370
   -1
100
AcDbLine
 10
33.07237178285587
 20
70.83703734917921
 11
33.97746846277468
 21
69.93194066926043
  0
LINE
  5
8B
100
AcDbEntity
  8
aux
  6
ByLayer
 62
  256
370
   -1
100
AcDbLine
 10
33.46835158032033
 20
69.30968670181628
 11
32.50668635790666
 21
70.27135192422998
  0
LINE
  5
8C
100
AcDbEntity
  8
aux
  6
ByLayer
 62
  256
370
   -1
100
AcDbLine
 10
32.50668635790666
 20
70.27135192422998
 11
31.60158967798785
 21
69.3662552443112
  0
LINE
  5
8D
100
AcDbEntity
  8
aux
  6
ByLayer
 62
  256
370
   -1
100
AcDbLine
 10
30.97933571054372
 20
69.87537212676551
 11
31.94100093295739
 21
70.83703734917921
  0
LINE
  5
8E
100
AcDbEntity
  8
aux
  6
ByLayer
 62
  256
370
   -1
100
AcDbLine
 10
31.94100093295739
 20
70.83703734917921
 11
31.03590425303864
 21
71.742134029098
  0
CIRCLE
  5
8F
100
AcDbEntity
  8
aux
  6
ByLayer
 62
  256
370
   -1
100
AcDbCircle
 10
44.39079394864036
 20
70.83703734917921
 40
2.529822128134704
  0
CIRCLE
  5
90
100
AcDbEntity
  8
aux
  6
ByLayer
 62
  256
370
   -1
100
AcDbCircle
 10
44.39079394864036
 20
70.83703734917921
 40
1.788854381999832
  0
LINE
  5
91
100
AcDbEntity
  8
aux
  6
ByLayer
 62
  256
370
   -1
100
AcDbLine
 10
43.42912872622664
 20
72.36438799654215
 11
44.39079394864036
 21
71.40272277412845
  0
LINE
  5
92
100
AcDbEntity
  8
aux
  6
ByLayer
 62
  256
370
   -1
100
AcDbLine
 10
44.39079394864036
 20
71.40272277412845
 11
45.35245917105404
 21
72.36438799654215
  0
LINE
  5
93
100
AcDbEntity
  8
aux
  6
ByLayer
 62
  256
370
   -1
100
AcDbLine
 10
45.9181445960033
 20
71.79870257159291
 11
44.95647937358957
 21
70.83703734917921
  0
LINE
  5
94
100
AcDbEntity
  8
aux
  6
ByLayer
 62
  256
370
   -1
100
AcDbLine
 10
44.95647937358957
 20
70.83703734917921
 11
45.86157605350839
 21
69.93194066926043
  0
LINE
  5
95
100
AcDbEntity
  8
aux
  6
ByLayer
 62
  256
370
   -1
100
AcDbLine
 10
45.35245917105404
 20
69.30968670181628
 11
44.39079394864036
 21
70.27135192422998
  0
LINE
  5
96
100
AcDbEntity
  8
aux
  6
ByLayer
 62
  256
370
   -1
100
AcDbLine
 10
44.39079394864036
 20
70.27135192422998
 11
43.48569726872155
 21
69.3662552443112
  0
LINE
  5
97
100
AcDbEntity
  8
aux
  6
ByLayer
 62
  256
370
   -1
100
AcDbLine
 10
42.86344330127743
 20
69.87537212676551
 11
43.8251085236911
 21
70.83703734917921
  0
LINE
  5
98
100
AcDbEntity
  8
aux
  6
ByLayer
 62
  256
370
   -1
100
AcDbLine
 10
43.8251085236911
 20
70.83703734917921
 11
42.92001184377234
 21
71.742134029098
  0
CIRCLE
  5
99
100
AcDbEntity
  8
aux
  6
ByLayer
 62
  256
370
   -1
100
AcDbCircle
 10
8.668180383300431
 20
10.81251740833864
 40
2.529822128134704
  0
CIRCLE
  5
9A
100
AcDbEntity
  8
aux
  6
ByLayer
 62
  256
370
   -1
100
AcDbCircle
 10
8.668180383300431
 20
10.81251740833864
 40
1.788854381999832
  0
LINE
  5
9B
100
AcDbEntity
  8
aux
  6
ByLayer
 62
  256
370
   -1
100
AcDbLine
 10
7.706515160886703
 20
12.33986805570157
 11
8.668180383300431
 21
11.37820283328787
  0
LINE
  5
9C
100
AcDbEntity
  8
aux
  6
ByLayer
 62
  256
370
   -1
100
AcDbLine
 10
8.668180383300431
 20
11.37820283328787
 11
9.629845605714102
 21
12.33986805570157
  0
LINE
  5
9D
100
AcDbEntity
  8
aux
  6
ByLayer
 62
  256
370
   -1
100
AcDbLine
 10
10.19553103066337
 20
11.77418263075235
 11
9.233865808249639
 21
10.81251740833865
  0
LINE
  5
9E
100
AcDbEntity
  8
aux
  6
ByLayer
 62
  256
370
   -1
100
AcDbLine
 10
9.233865808249639
 20
10.81251740833865
 11
10.13896248816845
 21
9.907420728419851
  0
LINE
  5
9F
100
AcDbEntity
  8
aux
  6
ByLayer
 62
  256
370
   -1
100
AcDbLine
 10
9.629845605714102
 20
9.285166760975699
 11
8.668180383300431
 21
10.2468319833894
  0
LINE
  5
A0
100
AcDbEntity
  8
aux
  6
ByLayer
 62
  256
370
   -1
100
AcDbLine
 10
8.668180383300431
 20
10.2468319833894
 11
7.763083703381618
 21
9.341735303470628
  0
LINE
  5
A1
100
AcDbEntity
  8
aux
  6
ByLayer
 62
  256
370
   -1
100
AcDbLine
 10
7.140829735937494
 20
9.850852185924936
 11
8.102494958351166
 21
10.81251740833865
  0
LINE
  5
A2
100
AcDbEntity
  8
aux
  6
ByLayer
 62
  256
370
   -1
100
AcDbLine
 10
8.102494958351166
 20
10.81251740833865
 11
7.197398278432409
 21
11.71761408825742
  0
CIRCLE
  5
A3
100
AcDbEntity
  8
aux
  6
ByLayer
 62
  256
370
   -1
100
AcDbCircle
 10
20.59448145636519
 20
10.81784167159249
 40
2.529822128134704
  0
CIRCLE
  5
A4
100
AcDbEntity
  8
aux
  6
ByLayer
 62
  256
370
   -1
100
AcDbCircle
 10
20.59448145636519
 20
10.81784167159249
 40
1.788854381999832
  0
LINE
  5
A5
100
AcDbEntity
  8
aux
  6
ByLayer
 62
  256
370
   -1
100
AcDbLine
 10
19.63281623395146
 20
12.34519231895544
 11
20.59448145636519
 21
11.38352709654173
  0
LINE
  5
A6
100
AcDbEntity
  8
aux
  6
ByLayer
 62
  256
370
   -1
100
AcDbLine
 10
20.59448145636519
 20
11.38352709654173
 11
21.55614667877886
 21
12.34519231895544
  0
LINE
  5
A7
100
AcDbEntity
  8
aux
  6
ByLayer
 62
  256
370
   -1
100
AcDbLine
 10
22.12183210372812
 20
11.7795068940062
 11
21.1601668813144
 21
10.8178416715925
  0
LINE
  5
A8
100
AcDbEntity
  8
aux
  6
ByLayer
 62
  256
370
   -1
100
AcDbLine
 10
21.1601668813144
 20
10.8178416715925
 11
22.06526356123321
 21
9.912744991673719
  0
LINE
  5
A9
100
AcDbEntity
  8
aux
  6
ByLayer
 62
  256
370
   -1
100
AcDbLine
 10
21.55614667877886
 20
9.290491024229567
 11
20.59448145636519
 21
10.25215624664327
  0
LINE
  5
AA
100
AcDbEntity
  8
aux
  6
ByLayer
 62
  256
370
   -1
100
AcDbLine
 10
20.59448145636519
 20
10.25215624664327
 11
19.68938477644637
 21
9.347059566724496
  0
LINE
  5
AB
100
AcDbEntity
  8
aux
  6
ByLayer
 62
  256
370
   -1
100
AcDbLine
 10
19.06713080900225
 20
9.85617644917879
 11
20.02879603141592
 21
10.8178416715925
  0
LINE
  5
AC
100
AcDbEntity
  8
aux
  6
ByLayer
 62
  256
370
   -1
100
AcDbLine
 10
20.02879603141592
 20
10.8178416715925
 11
19.12369935149717
 21
11.72293835151127
  0
CIRCLE
  5
AD
100
AcDbEntity
  8
aux
  6
ByLayer
 62
  256
370
   -1
100
AcDbCircle
 10
32.55343073436451
 20
10.81784167159249
 40
2.529822128134704
  0
CIRCLE
  5
AE
100
AcDbEntity
  8
aux
  6
ByLayer
 62
  256
370
   -1
100
AcDbCircle
 10
32.55343073436451
 20
10.81784167159249
 40
1.788854381999832
  0
LINE
  5
AF
100
AcDbEntity
  8
aux
  6
ByLayer
 62
  256
370
   -1
100
AcDbLine
 10
31.59176551195078
 20
12.34519231895544
 11
32.55343073436451
 21
11.38352709654173
  0
LINE
  5
B0
100
AcDbEntity
  8
aux
  6
ByLayer
 62
  256
370
   -1
100
AcDbLine
 10
32.55343073436451
 20
11.38352709654173
 11
33.51509595677818
 21
12.34519231895544
  0
LINE
  5
B1
100
AcDbEntity
  8
aux
  6
ByLayer
 62
  256
370
   -1
100
AcDbLine
 10
34.08078138172745
 20
11.7795068940062
 11
33.11911615931372
 21
10.8178416715925
  0
LINE
  5
B2
100
AcDbEntity
  8
aux
  6
ByLayer
 62
  256
370
   -1
100
AcDbLine
 10
33.11911615931372
 20
10.8178416715925
 11
34.02421283923253
 21
9.912744991673719
  0
LINE
  5
B3
100
AcDbEntity
  8
aux
  6
ByLayer
 62
  256
370
   -1
100
AcDbLine
 10
33.51509595677818
 20
9.290491024229567
 11
32.55343073436451
 21
10.25215624664327
  0
LINE
  5
B4
100
AcDbEntity
  8
aux
  6
ByLayer
 62
  256
370
   -1
100
AcDbLine
 10
32.55343073436451
 20
10.25215624664327
 11
31.6483340544457
 21
9.347059566724496
  0
LINE
  5
B5
100
AcDbEntity
  8
aux
  6
ByLayer
 62
  256
370
   -1
100
AcDbLine
 10
31.02608008700157
 20
9.85617644917879
 11
31.98774530941525
 21
10.8178416715925
  0
LINE
  5
B6
100
AcDbEntity
  8
aux
  6
ByLayer
 62
  256
370
   -1
100
AcDbLine
 10
31.98774530941525
 20
10.8178416715925
 11
31.08264862949649
 21
11.72293835151127
  0
CIRCLE
  5
B7
100
AcDbEntity
  8
aux
  6
ByLayer
 62
  256
370
   -1
100
AcDbCircle
 10
44.43753832509822
 20
10.81784167159249
 40
2.529822128134704
  0
CIRCLE
  5
B8
100
AcDbEntity
  8
aux
  6
ByLayer
 62
  256
370
   -1
100
AcDbCircle
 10
44.43753832509822
 20
10.81784167159249
 40
1.788854381999832
  0
LINE
  5
B9
100
AcDbEntity
  8
aux
  6
ByLayer
 62
  256
370
   -1
100
AcDbLine
 10
43.47587310268449
 20
12.34519231895544
 11
44.43753832509822
 21
11.38352709654173
  0
LINE
  5
BA
100
AcDbEntity
  8
aux
  6
ByLayer
 62
  256
370
   -1
100
AcDbLine
 10
44.43753832509822
 20
11.38352709654173
 11
45.39920354751189
 21
12.34519231895544
  0
LINE
  5
BB
100
AcDbEntity
  8
aux
  6
ByLayer
 62
  256
370
   -1
100
AcDbLine
 10
45.96488897246115
 20
11.7795068940062
 11
45.00322375004743
 21
10.8178416715925
  0
LINE
  5
BC
100
AcDbEntity
  8
aux
  6
ByLayer
 62
  256
370
   -1
100
AcDbLine
 10
45.00322375004743
 20
10.8178416715925
 11
45.90832042996624
 21
9.912744991673719
  0
LINE
  5
BD
100
AcDbEntity
  8
aux
  6
ByLayer
 62
  256
370
   -1
100
AcDbLine
 10
45.39920354751189
 20
9.290491024229567
 11
44.43753832509822
 21
10.25215624664327
  0
LINE
  5
BE
100
AcDbEntity
  8
aux
  6
ByLayer
 62
  256
370
   -1
100
AcDbLine
 10
44.43753832509822
 20
10.25215624664327
 11
43.5324416451794
 21
9.347059566724496
  0
LINE
  5
BF
100
AcDbEntity
  8
aux
  6
ByLayer
 62
  256
370
   -1
100
AcDbLine
 10
42.91018767773528
 20
9.85617644917879
 11
43.87185290014895
 21
10.8178416715925
  0
LINE
  5
C0
100
AcDbEntity
  8
aux
  6
ByLayer
 62
  256
370
   -1
100
AcDbLine
 10
43.87185290014895
 20
10.8178416715925
 11
42.9667562202302
 21
11.72293835151127
  0
LWPOLYLINE
  5
C1
100
AcDbEntity
  8
main
  6
ByLayer
 62
  256
370
   -1
100
AcDbPolyline
 90
    2
 70
    0
 43
0
 10
-0.005339901524834545
 20
4.376479936826641
 10
52.99456077162147
 20
4.376479936826641
  0
LWPOLYLINE
  5
C2
100
AcDbEntity
  8
main
  6
ByLayer
 62
  256
370
   -1
100
AcDbPolyline
 90
    2
 70
    0
 43
0
 10
0.008957254170709916
 20
76.39900464522211
 10
52.98009136103805
 20
76.39900464522211
  0
LWPOLYLINE
  5
C3
100
AcDbEntity
  8
main
  6
ByLayer
 62
  256
370
   -1
100
AcDbPolyline
 90
    2
 70
    0
 43
0
 10
-0.005339901524834545
 20
5.935386672304304
 10
52.99456077162147
 20
5.935386672304304
  0
LWPOLYLINE
  5
C4
100
AcDbEntity
  8
main
  6
ByLayer
 62
  256
370
   -1
100
AcDbPolyline
 90
    7
 70
    0
 43
0
 10
36.01953058881683
 20
24.04695460546048
 10
25.78896828677382
 20
24.04695460546048
 10
16.9695180263919
 20
24.04695460546048
 10
16.9695180263919
 20
62.15163061228364
 10
26.27386579620692
 20
62.15163061228364
 10
36.01953058881683
 20
62.15163061228364
 10
36.01953058881683
 20
24.04695460546048
  0
LWPOLYLINE
  5
C5
100
AcDbEntity
  8
main
  6
ByLayer
 62
  256
370
   -1
100
AcDbPolyline
 90
    2
 70
    0
 43
0
 10
52.98973763476032
 20
24.04695460546048
 10
-0.000516764663686331
 20
24.04695460546048
  0
LWPOLYLINE
  5
C6
100
AcDbEntity
  8
main
  6
ByLayer
 62
  256
370
   -1
100
AcDbPolyline
 90
    2
 70
    0
 43
0
 10
-0.002928333094260438
 20
62.15163061228364
 10
52.99214920319089
 20
62.15163061228364
  0
INSERT
  5
C7
100
AcDbEntity
  8
main
  6
ByLayer
 62
  256
370
   -1
100
AcDbBlockReference
  2
block 2-0
 10
0
 20
0
 30
0
 41
1
 42
1
 43
0
 50
0
 70
    1
 71
    1
 44
0
 45
0
  0
ENDSEC
  0
SECTION
  2
OBJECTS
  0
DICTIONARY
  5
C
330
0
100
AcDbDictionary
281
    1
  3
ACAD_GROUP
350
D
  0
DICTIONARY
  5
D
330
C
100
AcDbDictionary
281
    1
  0
PLOTSETTINGS
  5
C8
100
AcDbPlotSettings
  6
1x1
 40
0
 41
0
 42
0
 43
0
  0
ENDSEC
  0
EOF
