999
dxfrw 0.6.3
  0
SECTION
  2
HEADER
  9
$ACADVER
  1
AC1021
  9
$DWGCODEPAGE
  3
ANSI_1251
  9
$INSBASE
 10
0
 20
0
 30
0
  9
$EXTMIN
 10
-14.99999993067209
 20
-28.49999989998377
 30
0
  9
$EXTMAX
 10
25.00000012768621
 20
3.120462288563886e-07
 30
0
  9
$LIMMIN
 10
0
 20
0
  9
$LIMMAX
 10
12
 20
9
  9
$ORTHOMODE
 70
    0
  9
$REGENMODE
 70
    1
  9
$FILLMODE
 70
    1
  9
$QTEXTMODE
 70
    0
  9
$MIRRTEXT
 70
    0
  9
$LTSCALE
 40
1
  9
$ATTMODE
 70
    1
  9
$TEXTSIZE
 40
3.535533905932737
  9
$TRACEWID
 40
0.05
  9
$TEXTSTYLE
  7
Standard
  9
$CLAYER
  8
electro
  9
$CELTYPE
  6
ByLayer
  9
$CECOLOR
 62
  256
  9
$CELTSCALE
 40
1
  9
$DISPSILH
 70
    0
  9
$DIMSCALE
 40
1
  9
$DIMASZ
 40
0.18
  9
$DIMEXO
 40
0.0625
  9
$DIMDLI
 40
0.38
  9
$DIMRND
 40
0
  9
$DIMDLE
 40
0
  9
$DIMEXE
 40
0.18
  9
$DIMTP
 40
0
  9
$DIMTM
 40
0
  9
$DIMTXT
 40
0.18
  9
$DIMCEN
 40
0.09
  9
$DIMTSZ
 40
0
  9
$DIMTOL
 70
    0
  9
$DIMLIM
 70
    0
  9
$DIMTIH
 70
    1
  9
$DIMTOH
 70
    1
  9
$DIMSE1
 70
    0
  9
$DIMSE2
 70
    0
  9
$DIMTAD
 70
    0
  9
$DIMZIN
 70
    0
  9
$DIMBLK
  1

  9
$DIMASO
 70
    1
  9
$DIMSHO
 70
    1
  9
$DIMPOST
  1

  9
$DIMAPOST
  1

  9
$DIMALT
 70
    0
  9
$DIMALTD
 70
    2
  9
$DIMALTF
 40
25.4
  9
$DIMLFAC
 40
1
  9
$DIMTOFL
 70
    0
  9
$DIMTVP
 40
0
  9
$DIMTIX
 70
    0
  9
$DIMSOXD
 70
    0
  9
$DIMSAH
 70
    0
  9
$DIMBLK1
  1

  9
$DIMBLK2
  1

  9
$DIMSTYLE
  2
Standard
  9
$DIMCLRD
 70
    0
  9
$DIMCLRE
 70
    0
  9
$DIMCLRT
 70
    0
  9
$DIMTFAC
 40
1
  9
$DIMGAP
 40
0.09
  9
$DIMJUST
 70
    0
  9
$DIMSD1
 70
    0
  9
$DIMSD2
 70
    0
  9
$DIMTOLJ
 70
    1
  9
$DIMTZIN
 70
    0
  9
$DIMALTZ
 70
    0
  9
$DIMALTTZ
 70
    0
  9
$DIMUPT
 70
    0
  9
$DIMDEC
 70
    4
  9
$DIMTDEC
 70
    4
  9
$DIMALTU
 70
    2
  9
$DIMALTTD
 70
    2
  9
$DIMTXSTY
  7
Standard
  9
$DIMAUNIT
 70
    0
  9
$DIMADEC
 70
    0
  9
$DIMALTRND
 40
0
  9
$DIMAZIN
 70
    0
  9
$DIMDSEP
 70
   46
  9
$DIMATFIT
 70
    3
  9
$DIMFRAC
 70
    0
  9
$DIMLDRBLK
  1

  9
$DIMLUNIT
 70
    2
  9
$DIMLWD
 70
   -2
  9
$DIMLWE
 70
   -2
  9
$DIMTMOVE
 70
    0
  9
$DIMFXL
 40
1
  9
$DIMFXLON
 70
    0
  9
$DIMJOGANG
 40
0.7854
  9
$DIMTFILL
 70
    0
  9
$DIMTFILLCLR
 70
    0
  9
$DIMARCSYM
 70
    0
  9
$DIMLTYPE
  6

  9
$DIMLTEX1
  6

  9
$DIMLTEX2
  6

  9
$LUNITS
 70
    2
  9
$LUPREC
 70
    4
  9
$SKETCHINC
 40
0.1
  9
$FILLETRAD
 40
0
  9
$AUNITS
 70
    0
  9
$AUPREC
 70
    0
  9
$MENU
  1
.
  9
$ELEVATION
 40
0
  9
$PELEVATION
 40
0
  9
$THICKNESS
 40
0
  9
$LIMCHECK
 70
    0
  9
$CHAMFERA
 40
0
  9
$CHAMFERB
 40
0
  9
$CHAMFERC
 40
0
  9
$CHAMFERD
 40
0
  9
$SKPOLY
 70
    0
  9
$USRTIMER
 70
    1
  9
$ANGBASE
 50
0
  9
$ANGDIR
 70
    0
  9
$PDMODE
 70
    0
  9
$PDSIZE
 40
0
  9
$PLINEWID
 40
0
  9
$SPLFRAME
 70
    0
  9
$SPLINETYPE
 70
    6
  9
$SPLINESEGS
 70
    8
  9
$HANDSEED
  5
20000
  9
$SURFTAB1
 70
    6
  9
$SURFTAB2
 70
    6
  9
$SURFTYPE
 70
    6
  9
$SURFU
 70
    6
  9
$SURFV
 70
    6
  9
$UCSBASE
  2

  9
$UCSNAME
  2

  9
$UCSORG
 10
0
 20
0
 30
0
  9
$UCSXDIR
 10
1
 20
0
 30
0
  9
$UCSYDIR
 10
0
 20
1
 30
0
  9
$UCSORTHOREF
  2

  9
$UCSORTHOVIEW
 70
    0
  9
$UCSORGTOP
 10
0
 20
0
 30
0
  9
$UCSORGBOTTOM
 10
0
 20
0
 30
0
  9
$UCSORGLEFT
 10
0
 20
0
 30
0
  9
$UCSORGRIGHT
 10
0
 20
0
 30
0
  9
$UCSORGFRONT
 10
0
 20
0
 30
0
  9
$UCSORGBACK
 10
0
 20
0
 30
0
  9
$PUCSBASE
  2

  9
$PUCSNAME
  2

  9
$PUCSORG
 10
0
 20
0
 30
0
  9
$PUCSXDIR
 10
1
 20
0
 30
0
  9
$PUCSYDIR
 10
0
 20
1
 30
0
  9
$PUCSORTHOREF
  2

  9
$PUCSORTHOVIEW
 70
    0
  9
$PUCSORGTOP
 10
0
 20
0
 30
0
  9
$PUCSORGBOTTOM
 10
0
 20
0
 30
0
  9
$PUCSORGLEFT
 10
0
 20
0
 30
0
  9
$PUCSORGRIGHT
 10
0
 20
0
 30
0
  9
$PUCSORGFRONT
 10
0
 20
0
 30
0
  9
$PUCSORGBACK
 10
0
 20
0
 30
0
  9
$USERI1
 70
    0
  9
$USERI2
 70
    0
  9
$USERI3
 70
    0
  9
$USERI4
 70
    0
  9
$USERI5
 70
    0
  9
$USERR1
 40
0
  9
$USERR2
 40
0
  9
$USERR3
 40
0
  9
$USERR4
 40
0
  9
$USERR5
 40
0
  9
$WORLDVIEW
 70
    1
  9
$SHADEDGE
 70
    3
  9
$SHADEDIF
 70
   70
  9
$TILEMODE
 70
    1
  9
$MAXACTVP
 70
   64
  9
$PINSBASE
 10
0
 20
0
 30
0
  9
$PLIMCHECK
 70
    0
  9
$PEXTMIN
 10
1e+20
 20
1e+20
 30
1e+20
  9
$PEXTMAX
 10
-1e+20
 20
-1e+20
 30
-1e+20
  9
$GRIDMODE
 70
    1
  9
$SNAPSTYLE
 70
    0
  9
$PLIMMIN
 10
0
 20
0
  9
$PLIMMAX
 10
12
 20
9
  9
$UNITMODE
 70
    0
  9
$VISRETAIN
 70
    1
  9
$PLINEGEN
 70
    0
  9
$PSLTSCALE
 70
    1
  9
$TREEDEPTH
 70
 3020
  9
$CMLSTYLE
  2
Standard
  9
$CMLJUST
 70
    0
  9
$CMLSCALE
 40
1
  9
$PROXYGRAPHICS
 70
    1
  9
$MEASUREMENT
 70
    1
  9
$CELWEIGHT
370
   -1
  9
$ENDCAPS
280
    0
  9
$JOINSTYLE
280
    0
  9
$LWDISPLAY
290
    0
  9
$INSUNITS
 70
    0
  9
$HYPERLINKBASE
  1

  9
$STYLESHEET
  1

  9
$XEDIT
290
    1
  9
$CEPSNTYPE
380
    0
  9
$PSTYLEMODE
290
    1
  9
$EXTNAMES
290
    1
  9
$PSVPSCALE
 40
0
  9
$OLESTARTUP
290
    0
  9
$SORTENTS
280
  127
  9
$INDEXCTL
280
    0
  9
$HIDETEXT
280
    1
  9
$XCLIPFRAME
290
    0
  9
$HALOGAP
280
    0
  9
$OBSCOLOR
 70
  257
  9
$OBSLTYPE
280
    0
  9
$INTERSECTIONDISPLAY
280
    0
  9
$INTERSECTIONCOLOR
 70
  257
  9
$DIMASSOC
280
    1
  9
$PROJECTNAME
  1

  9
$CAMERADISPLAY
290
    0
  9
$LENSLENGTH
 40
50
  9
$CAMERAHEIGHT
 40
0
  9
$STEPSPERSEC
 40
2
  9
$STEPSIZE
 40
50
  9
$3DDWFPREC
 40
2
  9
$PSOLWIDTH
 40
5
  9
$PSOLHEIGHT
 40
80
  9
$LOFTANG1
 40
1.570796326794897
  9
$LOFTANG2
 40
1.570796326794897
  9
$LOFTMAG1
 40
0
  9
$LOFTMAG2
 40
0
  9
$LOFTPARAM
 70
    7
  9
$LOFTNORMALS
280
    1
  9
$LATITUDE
 40
1
  9
$LONGITUDE
 40
1
  9
$NORTHDIRECTION
 40
0
  9
$TIMEZONE
 70
-8000
  9
$LIGHTGLYPHDISPLAY
280
    1
  9
$TILEMODELIGHTSYNCH
280
    1
  9
$SOLIDHIST
280
    1
  9
$SHOWHIST
280
    1
  9
$DWFFRAME
280
    2
  9
$DGNFRAME
280
    0
  9
$REALWORLDSCALE
290
    1
  9
$INTERFERECOLOR
 62
    1
  9
$CSHADOW
280
    0
  9
$SHADOWPLANELOCATION
 40
0
  0
ENDSEC
  0
SECTION
  2
CLASSES
  0
ENDSEC
  0
SECTION
  2
TABLES
  0
TABLE
  2
VPORT
  5
8
330
0
100
AcDbSymbolTable
 70
    1
  0
VPORT
  5
31
330
2
100
AcDbSymbolTableRecord
100
AcDbViewportTableRecord
  2
*ACTIVE
 70
    0
 10
0
 20
0
 11
1
 21
1
 12
127.4523591582679
 22
34.16248802180376
 13
0
 23
0
 14
10
 24
10
 15
10
 25
10
 16
0
 26
0
 36
1
 17
0
 27
0
 37
0
 40
228.0419072224678
 41
1.669654289372599
 42
50
 43
0
 44
0
 50
0
 51
0
 71
    0
 72
  100
 73
    1
 74
    3
 75
    0
 76
    1
 77
    0
 78
    0
281
    0
 65
    1
110
0
120
0
130
0
111
1
121
0
131
0
112
0
122
1
132
0
 79
    0
146
0
348
10020
 60
    7
 61
    5
292
1
282
    1
141
0
142
0
 63
  250
421
3358443
  0
ENDTAB
  0
TABLE
  2
LTYPE
  5
5
330
0
100
AcDbSymbolTable
 70
    4
  0
LTYPE
  5
14
330
5
100
AcDbSymbolTableRecord
100
AcDbLinetypeTableRecord
  2
ByBlock
 70
    0
  3

 72
   65
 73
    0
 40
0
  0
LTYPE
  5
15
330
5
100
AcDbSymbolTableRecord
100
AcDbLinetypeTableRecord
  2
ByLayer
 70
    0
  3

 72
   65
 73
    0
 40
0
  0
LTYPE
  5
16
330
5
100
AcDbSymbolTableRecord
100
AcDbLinetypeTableRecord
  2
Continuous
 70
    0
  3
Solid line
 72
   65
 73
    0
 40
0
  0
LTYPE
  5
32
330
5
100
AcDbSymbolTableRecord
100
AcDbLinetypeTableRecord
  2
DOT
 70
    0
  3
Dot . . . . . . . . . . . . . . . . . . . . . .
 72
   65
 73
    2
 40
6.35
 49
0
 74
    0
 49
-6.35
 74
    0
  0
LTYPE
  5
33
330
5
100
AcDbSymbolTableRecord
100
AcDbLinetypeTableRecord
  2
DOTTINY
 70
    0
  3
Dot (.15x) .....................................
 72
   65
 73
    2
 40
0.9525
 49
0
 74
    0
 49
-0.9525
 74
    0
  0
LTYPE
  5
34
330
5
100
AcDbSymbolTableRecord
100
AcDbLinetypeTableRecord
  2
DOT2
 70
    0
  3
Dot (.5x) .....................................
 72
   65
 73
    2
 40
3.175
 49
0
 74
    0
 49
-3.175
 74
    0
  0
LTYPE
  5
35
330
5
100
AcDbSymbolTableRecord
100
AcDbLinetypeTableRecord
  2
DOTX2
 70
    0
  3
Dot (2x) .  .  .  .  .  .  .  .  .  .  .  .  .
 72
   65
 73
    2
 40
12.7
 49
0
 74
    0
 49
-12.7
 74
    0
  0
LTYPE
  5
36
330
5
100
AcDbSymbolTableRecord
100
AcDbLinetypeTableRecord
  2
DASHED
 70
    0
  3
Dashed _ _ _ _ _ _ _ _ _ _ _ _ _ _ _ _ _
 72
   65
 73
    2
 40
19.05
 49
12.7
 74
    0
 49
-6.35
 74
    0
  0
LTYPE
  5
37
330
5
100
AcDbSymbolTableRecord
100
AcDbLinetypeTableRecord
  2
DASHEDTINY
 70
    0
  3
Dashed (.15x) _ _ _ _ _ _ _ _ _ _ _ _ _ _ _ _ _
 72
   65
 73
    2
 40
2.8575
 49
1.905
 74
    0
 49
-0.9525
 74
    0
  0
LTYPE
  5
38
330
5
100
AcDbSymbolTableRecord
100
AcDbLinetypeTableRecord
  2
DASHED2
 70
    0
  3
Dashed (.5x) _ _ _ _ _ _ _ _ _ _ _ _ _ _ _ _ _
 72
   65
 73
    2
 40
9.524999999999999
 49
6.35
 74
    0
 49
-3.175
 74
    0
  0
LTYPE
  5
39
330
5
100
AcDbSymbolTableRecord
100
AcDbLinetypeTableRecord
  2
DASHEDX2
 70
    0
  3
Dashed (2x) ____  ____  ____  ____  ____  ___
 72
   65
 73
    2
 40
38.09999999999999
 49
25.4
 74
    0
 49
-12.7
 74
    0
  0
LTYPE
  5
3A
330
5
100
AcDbSymbolTableRecord
100
AcDbLinetypeTableRecord
  2
DASHDOT
 70
    0
  3
Dash dot __ . __ . __ . __ . __ . __ . __ . __
 72
   65
 73
    4
 40
25.4
 49
12.7
 74
    0
 49
-6.35
 74
    0
 49
0
 74
    0
 49
-6.35
 74
    0
  0
LTYPE
  5
3B
330
5
100
AcDbSymbolTableRecord
100
AcDbLinetypeTableRecord
  2
DASHDOTTINY
 70
    0
  3
Dash dot (.15x) _._._._._._._._._._._._._._._.
 72
   65
 73
    4
 40
3.81
 49
1.905
 74
    0
 49
-0.9525
 74
    0
 49
0
 74
    0
 49
-0.9525
 74
    0
  0
LTYPE
  5
3C
330
5
100
AcDbSymbolTableRecord
100
AcDbLinetypeTableRecord
  2
DASHDOT2
 70
    0
  3
Dash dot (.5x) _._._._._._._._._._._._._._._.
 72
   65
 73
    4
 40
12.7
 49
6.35
 74
    0
 49
-3.175
 74
    0
 49
0
 74
    0
 49
-3.175
 74
    0
  0
LTYPE
  5
3D
330
5
100
AcDbSymbolTableRecord
100
AcDbLinetypeTableRecord
  2
DASHDOTX2
 70
    0
  3
Dash dot (2x) ____  .  ____  .  ____  .  ___
 72
   65
 73
    4
 40
50.8
 49
25.4
 74
    0
 49
-12.7
 74
    0
 49
0
 74
    0
 49
-12.7
 74
    0
  0
LTYPE
  5
3E
330
5
100
AcDbSymbolTableRecord
100
AcDbLinetypeTableRecord
  2
DIVIDE
 70
    0
  3
Divide ____ . . ____ . . ____ . . ____ . . ____
 72
   65
 73
    6
 40
31.75
 49
12.7
 74
    0
 49
-6.35
 74
    0
 49
0
 74
    0
 49
-6.35
 74
    0
 49
0
 74
    0
 49
-6.35
 74
    0
  0
LTYPE
  5
3F
330
5
100
AcDbSymbolTableRecord
100
AcDbLinetypeTableRecord
  2
DIVIDETINY
 70
    0
  3
Divide (.15x) __..__..__..__..__..__..__..__.._
 72
   65
 73
    6
 40
4.7625
 49
1.905
 74
    0
 49
-0.9525
 74
    0
 49
0
 74
    0
 49
-0.9525
 74
    0
 49
0
 74
    0
 49
-0.9525
 74
    0
  0
LTYPE
  5
40
330
5
100
AcDbSymbolTableRecord
100
AcDbLinetypeTableRecord
  2
DIVIDE2
 70
    0
  3
Divide (.5x) __..__..__..__..__..__..__..__.._
 72
   65
 73
    6
 40
15.875
 49
6.35
 74
    0
 49
-3.175
 74
    0
 49
0
 74
    0
 49
-3.175
 74
    0
 49
0
 74
    0
 49
-3.175
 74
    0
  0
LTYPE
  5
41
330
5
100
AcDbSymbolTableRecord
100
AcDbLinetypeTableRecord
  2
DIVIDEX2
 70
    0
  3
Divide (2x) ________  .  .  ________  .  .  _
 72
   65
 73
    6
 40
63.5
 49
25.4
 74
    0
 49
-12.7
 74
    0
 49
0
 74
    0
 49
-12.7
 74
    0
 49
0
 74
    0
 49
-12.7
 74
    0
  0
LTYPE
  5
42
330
5
100
AcDbSymbolTableRecord
100
AcDbLinetypeTableRecord
  2
BORDER
 70
    0
  3
Border __ __ . __ __ . __ __ . __ __ . __ __ .
 72
   65
 73
    6
 40
44.45
 49
12.7
 74
    0
 49
-6.35
 74
    0
 49
12.7
 74
    0
 49
-6.35
 74
    0
 49
0
 74
    0
 49
-6.35
 74
    0
  0
LTYPE
  5
43
330
5
100
AcDbSymbolTableRecord
100
AcDbLinetypeTableRecord
  2
BORDERTINY
 70
    0
  3
Border (.15x) __.__.__.__.__.__.__.__.__.__.__.
 72
   65
 73
    6
 40
6.6675
 49
1.905
 74
    0
 49
-0.9525
 74
    0
 49
1.905
 74
    0
 49
-0.9525
 74
    0
 49
0
 74
    0
 49
-0.9525
 74
    0
  0
LTYPE
  5
44
330
5
100
AcDbSymbolTableRecord
100
AcDbLinetypeTableRecord
  2
BORDER2
 70
    0
  3
Border (.5x) __.__.__.__.__.__.__.__.__.__.__.
 72
   65
 73
    6
 40
22.225
 49
6.35
 74
    0
 49
-3.175
 74
    0
 49
6.35
 74
    0
 49
-3.175
 74
    0
 49
0
 74
    0
 49
-3.175
 74
    0
  0
LTYPE
  5
45
330
5
100
AcDbSymbolTableRecord
100
AcDbLinetypeTableRecord
  2
BORDERX2
 70
    0
  3
Border (2x) ____  ____  .  ____  ____  .  ___
 72
   65
 73
    6
 40
88.89999999999999
 49
25.4
 74
    0
 49
-12.7
 74
    0
 49
25.4
 74
    0
 49
-12.7
 74
    0
 49
0
 74
    0
 49
-12.7
 74
    0
  0
LTYPE
  5
46
330
5
100
AcDbSymbolTableRecord
100
AcDbLinetypeTableRecord
  2
CENTER
 70
    0
  3
Center ____ _ ____ _ ____ _ ____ _ ____ _ ____
 72
   65
 73
    4
 40
50.8
 49
31.75
 74
    0
 49
-6.35
 74
    0
 49
6.35
 74
    0
 49
-6.35
 74
    0
  0
LTYPE
  5
47
330
5
100
AcDbSymbolTableRecord
100
AcDbLinetypeTableRecord
  2
CENTERTINY
 70
    0
  3
Center (.15x) ___ _ ___ _ ___ _ ___ _ ___ _ ___
 72
   65
 73
    4
 40
7.62
 49
4.7625
 74
    0
 49
-0.9525
 74
    0
 49
0.9525
 74
    0
 49
-0.9525
 74
    0
  0
LTYPE
  5
48
330
5
100
AcDbSymbolTableRecord
100
AcDbLinetypeTableRecord
  2
CENTER2
 70
    0
  3
Center (.5x) ___ _ ___ _ ___ _ ___ _ ___ _ ___
 72
   65
 73
    4
 40
28.575
 49
19.05
 74
    0
 49
-3.175
 74
    0
 49
3.175
 74
    0
 49
-3.175
 74
    0
  0
LTYPE
  5
49
330
5
100
AcDbSymbolTableRecord
100
AcDbLinetypeTableRecord
  2
CENTERX2
 70
    0
  3
Center (2x) ________  __  ________  __  _____
 72
   65
 73
    4
 40
101.6
 49
63.5
 74
    0
 49
-12.7
 74
    0
 49
12.7
 74
    0
 49
-12.7
 74
    0
  0
ENDTAB
  0
TABLE
  2
LAYER
  5
2
330
0
100
AcDbSymbolTable
 70
    1
  0
LAYER
  5
10
330
2
100
AcDbSymbolTableRecord
100
AcDbLayerTableRecord
  2
0
 70
    0
 62
    7
  6
CONTINUOUS
370
   -3
390
F
  0
LAYER
  5
4A
330
2
100
AcDbSymbolTableRecord
100
AcDbLayerTableRecord
  2
electro
 70
    0
 62
    1
  6
CONTINUOUS
370
   70
390
F
  0
ENDTAB
  0
TABLE
  2
STYLE
  5
3
330
0
100
AcDbSymbolTable
 70
    3
  0
STYLE
  5
4B
330
2
100
AcDbSymbolTableRecord
100
AcDbTextStyleTableRecord
  2
Standard
 70
    0
 40
0
 41
1
 50
0
 71
    0
 42
1
  3
txt
  4

  0
ENDTAB
  0
TABLE
  2
VIEW
  5
6
330
0
100
AcDbSymbolTable
 70
    0
  0
ENDTAB
  0
TABLE
  2
UCS
  5
7
330
0
100
AcDbSymbolTable
 70
    0
  0
ENDTAB
  0
TABLE
  2
APPID
  5
9
330
0
100
AcDbSymbolTable
 70
    1
  0
APPID
  5
12
330
9
100
AcDbSymbolTableRecord
100
AcDbRegAppTableRecord
  2
ACAD
 70
    0
  0
APPID
  5
4C
330
9
100
AcDbSymbolTableRecord
100
AcDbRegAppTableRecord
  2
LibreCad
 70
    0
  0
ENDTAB
  0
TABLE
  2
DIMSTYLE
  5
A
330
0
100
AcDbSymbolTable
 70
    1
100
AcDbDimStyleTable
 71
    1
  0
DIMSTYLE
105
4D
330
A
100
AcDbSymbolTableRecord
100
AcDbDimStyleTableRecord
  2
Standard
 70
    0
 40
1
 41
0.18
 42
0.0625
 43
0.38
 44
0.18
 45
0
 46
0
 47
0
 48
0
 49
1
140
0.18
141
0.09
142
0
143
25.4
144
1
145
0
146
1
147
0.09
148
0
 71
    0
 72
    0
 73
    1
 74
    1
 75
    0
 76
    0
 77
    0
 78
    0
 79
    0
170
    0
171
    2
172
    0
173
    0
174
    0
175
    0
176
    0
177
    0
178
    0
179
    0
271
    4
272
    4
273
    2
274
    2
275
    0
276
    0
277
    2
278
   46
279
    0
280
    0
281
    0
282
    0
283
    1
284
    0
285
    0
286
    0
288
    0
289
    3
340
Standard
341

371
   -2
372
   -2
  0
ENDTAB
  0
TABLE
  2
BLOCK_RECORD
  5
1
330
0
100
AcDbSymbolTable
 70
    2
  0
BLOCK_RECORD
  5
1F
330
1
100
AcDbSymbolTableRecord
100
AcDbBlockTableRecord
  2
*Model_Space
 70
    0
280
    1
281
    0
  0
BLOCK_RECORD
  5
1E
330
1
100
AcDbSymbolTableRecord
100
AcDbBlockTableRecord
  2
*Paper_Space
 70
    0
280
    1
281
    0
  0
BLOCK_RECORD
  5
4E
330
1
100
AcDbSymbolTableRecord
100
AcDbBlockTableRecord
  2
*U0
 70
    0
280
    1
281
    0
  0
BLOCK_RECORD
  5
51
330
1
100
AcDbSymbolTableRecord
100
AcDbBlockTableRecord
  2
*U1
 70
    0
280
    1
281
    0
  0
BLOCK_RECORD
  5
54
330
1
100
AcDbSymbolTableRecord
100
AcDbBlockTableRecord
  2
*U2
 70
    0
280
    1
281
    0
  0
BLOCK_RECORD
  5
57
330
1
100
AcDbSymbolTableRecord
100
AcDbBlockTableRecord
  2
*U3
 70
    0
280
    1
281
    0
  0
BLOCK_RECORD
  5
5A
330
1
100
AcDbSymbolTableRecord
100
AcDbBlockTableRecord
  2
*U4
 70
    0
280
    1
281
    0
  0
BLOCK_RECORD
  5
5D
330
1
100
AcDbSymbolTableRecord
100
AcDbBlockTableRecord
  2
s_29_1
 70
    0
280
    1
281
    0
  0
ENDTAB
  0
ENDSEC
  0
SECTION
  2
BLOCKS
  0
BLOCK
  5
20
330
1F
100
AcDbEntity
  8
0
100
AcDbBlockBegin
  2
*Model_Space
 70
    0
 10
0
 20
0
 30
0
  3
*Model_Space
  1

  0
ENDBLK
  5
21
330
1F
100
AcDbEntity
  8
0
100
AcDbBlockEnd
  0
BLOCK
  5
1C
330
1B
100
AcDbEntity
  8
0
100
AcDbBlockBegin
  2
*Paper_Space
 70
    0
 10
0
 20
0
 30
0
  3
*Paper_Space
  1

  0
ENDBLK
  5
1D
330
1F
100
AcDbEntity
  8
0
100
AcDbBlockEnd
  0
BLOCK
  5
4F
330
4E
100
AcDbEntity
  8
0
100
AcDbBlockBegin
  2
*U0
 70
    0
 10
0
 20
0
  3
*U0
  1

  0
LINE
  5
60
100
AcDbEntity
  8
0
  6
ByLayer
 62
  256
370
   -1
100
AcDbLine
 10
1.0582653e-08
 20
5.000000006448303
 11
1.0582653e-08
 21
6.4483032e-09
  0
ENDBLK
  5
50
330
4E
100
AcDbEntity
  8
0
100
AcDbBlockEnd
  0
BLOCK
  5
52
330
51
100
AcDbEntity
  8
0
100
AcDbBlockBegin
  2
*U1
 70
    0
 10
0
 20
0
  3
*U1
  1

  0
LINE
  5
61
100
AcDbEntity
  8
0
  6
ByLayer
 62
  256
370
   -1
100
AcDbLine
 10
1.0582653e-08
 20
5.000000006448303
 11
1.0582653e-08
 21
6.4483032e-09
  0
ENDBLK
  5
53
330
51
100
AcDbEntity
  8
0
100
AcDbBlockEnd
  0
BLOCK
  5
55
330
54
100
AcDbEntity
  8
0
100
AcDbBlockBegin
  2
*U2
 70
    0
 10
0
 20
0
  3
*U2
  1

  0
LINE
  5
62
100
AcDbEntity
  8
0
  6
ByLayer
 62
  256
370
   -1
100
AcDbLine
 10
25.00000004777565
 20
11.24999996331199
 11
25.00000004777565
 21
-3.66880073e-08
  0
LINE
  5
63
100
AcDbEntity
  8
0
  6
ByLayer
 62
  256
370
   -1
100
AcDbLine
 10
10.00000001058265
 20
14.99999998123989
 11
1.0582653e-08
 21
14.99999998123989
  0
LINE
  5
64
100
AcDbEntity
  8
0
  6
ByLayer
 62
  256
370
   -1
100
AcDbLine
 10
15.00000000917171
 20
11.24999993642006
 11
15.00000004777564
 21
-3.66880073e-08
  0
LINE
  5
65
100
AcDbEntity
  8
0
  6
ByLayer
 62
  256
370
   -1
100
AcDbLine
 10
5.000000197969626
 20
11.25000076946787
 11
5.000000047775642
 21
-3.66880073e-08
  0
ENDBLK
  5
56
330
54
100
AcDbEntity
  8
0
100
AcDbBlockEnd
  0
BLOCK
  5
58
330
57
100
AcDbEntity
  8
0
100
AcDbBlockBegin
  2
*U3
 70
    0
 10
0
 20
0
  3
*U3
  1

  0
LINE
  5
66
100
AcDbEntity
  8
0
  6
ByLayer
 62
  256
370
   -1
100
AcDbLine
 10
10.00000001058265
 20
1.82732123e-08
 11
1.0582653e-08
 21
1.82732123e-08
  0
ENDBLK
  5
59
330
57
100
AcDbEntity
  8
0
100
AcDbBlockEnd
  0
BLOCK
  5
5B
330
5A
100
AcDbEntity
  8
0
100
AcDbBlockBegin
  2
*U4
 70
    0
 10
0
 20
0
  3
*U4
  1

  0
LINE
  5
67
100
AcDbEntity
  8
0
  6
ByLayer
 62
  256
370
   -1
100
AcDbLine
 10
-2.49187053e-08
 20
-3.57011345e-08
 11
0.9999999750812946
 21
-3.57011345e-08
  0
ENDBLK
  5
5C
330
5A
100
AcDbEntity
  8
0
100
AcDbBlockEnd
  0
BLOCK
  5
5E
330
5D
100
AcDbEntity
  8
0
100
AcDbBlockBegin
  2
s_29_1
 70
    0
 10
0
 20
0
  3
s_29_1
  1

  0
LINE
  5
68
100
AcDbEntity
  8
0
  6
CONTINUOUS
 62
    7
370
   70
100
AcDbLine
 10
6.5
 20
1.150000000000034
 11
5.5
 21
2.879999999999995
  0
LINE
  5
69
100
AcDbEntity
  8
0
  6
CONTINUOUS
 62
    7
370
   70
100
AcDbLine
 10
8.5
 20
2.310000000000002
 11
7.5
 21
4.04000000000002
  0
LINE
  5
6A
100
AcDbEntity
  8
0
  6
CONTINUOUS
 62
    7
370
   70
100
AcDbLine
 10
5.5
 20
2.879999999999995
 11
7.5
 21
4.04000000000002
  0
LINE
  5
6B
100
AcDbEntity
  8
0
  6
CONTINUOUS
 62
    7
370
   70
100
AcDbLine
 10
3.75
 20
0
 11
0
 21
0
  0
LINE
  5
6C
100
AcDbEntity
  8
0
  6
CONTINUOUS
 62
    7
370
   70
100
AcDbLine
 10
15
 20
0
 11
10.5
 21
0
  0
LINE
  5
6D
100
AcDbEntity
  8
0
  6
CONTINUOUS
 62
    7
370
   70
100
AcDbLine
 10
5.14971128753308
 20
0.3746668424774953
 11
10.5
 21
3.45999999999998
  0
LINE
  5
6E
100
AcDbEntity
  8
0
  6
CONTINUOUS
 62
    7
370
   70
100
AcDbLine
 10
3.75
 20
-10
 11
0
 21
-10
  0
LINE
  5
6F
100
AcDbEntity
  8
0
  6
CONTINUOUS
 62
    7
370
   70
100
AcDbLine
 10
15
 20
-10
 11
10.5
 21
-10
  0
LINE
  5
70
100
AcDbEntity
  8
0
  6
CONTINUOUS
 62
    7
370
   70
100
AcDbLine
 10
5.14971128753308
 20
-9.625333157522505
 11
10.5
 21
-6.54000000000002
  0
LINE
  5
71
100
AcDbEntity
  8
0
  6
CONTINUOUS
 62
    7
370
   70
100
AcDbLine
 10
3.75
 20
-20
 11
0
 21
-20
  0
LINE
  5
72
100
AcDbEntity
  8
0
  6
CONTINUOUS
 62
    7
370
   70
100
AcDbLine
 10
15
 20
-20
 11
10.5
 21
-20
  0
LINE
  5
73
100
AcDbEntity
  8
0
  6
CONTINUOUS
 62
    7
370
   70
100
AcDbLine
 10
5.14971128753308
 20
-19.6253331575225
 11
10.5
 21
-16.54000000000002
  0
LINE
  5
74
100
AcDbEntity
  8
0
  6
CONTINUOUS
 62
    7
370
   70
100
AcDbLine
 10
8.5
 20
2.310000000000002
 11
8.5
 21
-17.69333333333327
  0
LINE
  5
75
100
AcDbEntity
  8
0
  6
CONTINUOUS
 62
    7
370
   70
100
AcDbLine
 10
6.5
 20
1.150000000000034
 11
6.5
 21
-18.84666666666658
  0
CIRCLE
  5
76
100
AcDbEntity
  8
0
  6
CONTINUOUS
 62
    7
370
   70
100
AcDbCircle
 10
4.5
 20
0
 40
0.75
  0
CIRCLE
  5
77
100
AcDbEntity
  8
0
  6
CONTINUOUS
 62
    7
370
   70
100
AcDbCircle
 10
4.5
 20
-10
 40
0.75
  0
CIRCLE
  5
78
100
AcDbEntity
  8
0
  6
CONTINUOUS
 62
    7
370
   70
100
AcDbCircle
 10
4.5
 20
-20
 40
0.75
  0
ARC
  5
79
100
AcDbEntity
  8
0
  6
ByLayer
 62
  256
370
   70
100
AcDbCircle
 10
11.25
 20
-0.0288136
 40
0.850488
100
AcDbArc
 50
1.94149
 51
178.059
  0
ARC
  5
7A
100
AcDbEntity
  8
0
  6
ByLayer
 62
  256
370
   70
100
AcDbCircle
 10
11.25
 20
-10.0288136
 40
0.850488
100
AcDbArc
 50
1.941489999999995
 51
178.059
  0
ARC
  5
7B
100
AcDbEntity
  8
0
  6
ByLayer
 62
  256
370
   70
100
AcDbCircle
 10
11.25
 20
-20.0288136
 40
0.850488
100
AcDbArc
 50
1.941489999999995
 51
178.059
  0
ENDBLK
  5
5F
330
5D
100
AcDbEntity
  8
0
100
AcDbBlockEnd
  0
ENDSEC
  0
SECTION
  2
ENTITIES
  0
LINE
  5
7C
100
AcDbEntity
  8
electro
  6
ByLayer
 62
  256
370
   -1
100
AcDbLine
 10
0
 20
-8.5
 11
3
 21
-3
  0
LINE
  5
7D
100
AcDbEntity
  8
electro
  6
ByLayer
 62
  256
370
   -1
100
AcDbLine
 10
20.00000006932791
 20
-8.499999863295752
 11
20.00000006932791
 21
-14.74999986329577
  0
LINE
  5
7E
100
AcDbEntity
  8
electro
  6
ByLayer
 62
  256
370
   -1
100
AcDbLine
 10
20.00000006932791
 20
-17.24999986329577
 11
20.00000006932791
 21
-18.49999986329577
  0
LINE
  5
7F
100
AcDbEntity
  8
electro
  6
ByLayer
 62
  256
370
   -1
100
AcDbLine
 10
22.50000006932791
 20
-17.24999986329577
 11
20.00000006932791
 21
-17.24999986329577
  0
LINE
  5
80
100
AcDbEntity
  8
electro
  6
ByLayer
 62
  256
370
   -1
100
AcDbLine
 10
20.00000006932791
 20
-14.74999986329577
 11
22.50000006932791
 21
-14.74999986329577
  0
LINE
  5
81
100
AcDbEntity
  8
electro
  6
ByLayer
 62
  256
370
   -1
100
AcDbLine
 10
22.50000006932791
 20
-14.74999986329577
 11
22.50000006932791
 21
-17.24999986329577
  0
LINE
  5
82
100
AcDbEntity
  8
electro
  6
ByLayer
 62
  256
370
   -1
100
AcDbLine
 10
15.00000006932791
 20
-13.49999986329576
 11
15.00000006932791
 21
-18.49999986329576
  0
LINE
  5
83
100
AcDbEntity
  8
electro
  6
ByLayer
 62
  256
370
   -1
100
AcDbLine
 10
15.00000006932791
 20
-18.49999986329576
 11
25.00000006932791
 21
-18.49999986329577
  0
LINE
  5
84
100
AcDbEntity
  8
electro
  6
ByLayer
 62
  256
370
   -1
100
AcDbLine
 10
25.00000006932791
 20
-18.49999986329577
 11
25.00000006932791
 21
-13.49999986329576
  0
LINE
  5
85
100
AcDbEntity
  8
electro
  6
ByLayer
 62
  256
370
   -1
100
AcDbLine
 10
25.00000006932791
 20
-13.49999986329576
 11
15.00000006932791
 21
-13.49999986329576
  0
LINE
  5
86
100
AcDbEntity
  8
electro
  6
ByLayer
 62
  256
370
   -1
100
AcDbLine
 10
15.00000000977269
 20
-13.49999985433181
 11
5.000000009772688
 21
-13.49999985433181
  0
LINE
  5
87
100
AcDbEntity
  8
electro
  6
ByLayer
 62
  256
370
   -1
100
AcDbLine
 10
15.00000000977269
 20
-18.49999985433181
 11
5.000000009772688
 21
-18.49999985433181
  0
LINE
  5
88
100
AcDbEntity
  8
electro
  6
ByLayer
 62
  256
370
   -1
100
AcDbLine
 10
5.000000009772688
 20
-13.49999982564705
 11
5.000000009772688
 21
-18.49999982564705
  0
LINE
  5
89
100
AcDbEntity
  8
electro
  6
ByLayer
 62
  256
370
   -1
100
AcDbLine
 10
5.000000032134917
 20
-13.49999984536785
 11
-4.999999967865079
 21
-13.49999984536785
  0
LINE
  5
8A
100
AcDbEntity
  8
electro
  6
ByLayer
 62
  256
370
   -1
100
AcDbLine
 10
5.000000032134917
 20
-18.49999984536785
 11
-4.999999967865083
 21
-18.49999984536785
  0
LINE
  5
8B
100
AcDbEntity
  8
electro
  6
ByLayer
 62
  256
370
   -1
100
AcDbLine
 10
-4.999999967865079
 20
-13.49999988122373
 11
-4.999999967865083
 21
-18.49999988122373
  0
LINE
  5
8C
100
AcDbEntity
  8
electro
  6
ByLayer
 62
  256
370
   -1
100
AcDbLine
 10
10.00000003072398
 20
-8.499999890187684
 11
10.00000003072398
 21
-14.74999989018768
  0
LINE
  5
8D
100
AcDbEntity
  8
electro
  6
ByLayer
 62
  256
370
   -1
100
AcDbLine
 10
10.00000003072398
 20
-17.24999989018768
 11
10.00000006932791
 21
-18.49999986329576
  0
LINE
  5
8E
100
AcDbEntity
  8
electro
  6
ByLayer
 62
  256
370
   -1
100
AcDbLine
 10
12.50000003072398
 20
-17.24999989018768
 11
10.00000003072398
 21
-17.24999989018768
  0
LINE
  5
8F
100
AcDbEntity
  8
electro
  6
ByLayer
 62
  256
370
   -1
100
AcDbLine
 10
10.00000003072398
 20
-14.74999989018768
 11
12.50000003072398
 21
-14.74999989018768
  0
LINE
  5
90
100
AcDbEntity
  8
electro
  6
ByLayer
 62
  256
370
   -1
100
AcDbLine
 10
12.50000003072398
 20
-14.74999989018768
 11
12.50000003072398
 21
-17.24999989018768
  0
LINE
  5
91
100
AcDbEntity
  8
electro
  6
ByLayer
 62
  256
370
   -1
100
AcDbLine
 10
2.195218939959886e-07
 20
-8.49999905713987
 11
2.19521890443275e-07
 21
-14.74999905713988
  0
LINE
  5
92
100
AcDbEntity
  8
electro
  6
ByLayer
 62
  256
370
   -1
100
AcDbLine
 10
2.19521890443275e-07
 20
-17.24999905713987
 11
6.932790697078417e-08
 21
-18.49999986329576
  0
LINE
  5
93
100
AcDbEntity
  8
electro
  6
ByLayer
 62
  256
370
   -1
100
AcDbLine
 10
2.50000021952189
 20
-17.24999905713987
 11
2.19521890443275e-07
 21
-17.24999905713987
  0
LINE
  5
94
100
AcDbEntity
  8
electro
  6
ByLayer
 62
  256
370
   -1
100
AcDbLine
 10
2.19521890443275e-07
 20
-14.74999905713988
 11
2.50000021952189
 21
-14.74999905713988
  0
LINE
  5
95
100
AcDbEntity
  8
electro
  6
ByLayer
 62
  256
370
   -1
100
AcDbLine
 10
2.50000021952189
 20
-14.74999905713988
 11
2.50000021952189
 21
-17.24999905713987
  0
LINE
  5
96
100
AcDbEntity
  8
electro
  6
ByLayer
 62
  256
370
   -1
100
AcDbLine
 10
6.932791052349785e-08
 20
-8.499999863295749
 11
6.932791052349785e-08
 21
-8.499999863295749
  0
LINE
  5
97
100
AcDbEntity
  8
electro
  6
ByLayer
 62
  256
370
   -1
100
AcDbLine
 10
6.932791052349785e-08
 20
-8.499999863295749
 11
6.932791052349785e-08
 21
-8.499999863295749
  0
LINE
  5
98
100
AcDbEntity
  8
electro
  6
ByLayer
 62
  256
370
   -1
100
AcDbLine
 10
6.932796736691671e-08
 20
-3.750000353162189
 11
5.501808288954635e-07
 21
-0.0007880818601222472
  0
LINE
  5
99
100
AcDbEntity
  8
electro
  6
ByLayer
 62
  256
370
   -1
100
AcDbLine
 10
-1.999999930672089
 20
-5.499999863295759
 11
-1.999999930672089
 21
-5.499999863295759
  0
LINE
  5
9A
100
AcDbEntity
  8
electro
  6
ByLayer
 62
  256
370
   -1
100
AcDbLine
 10
-0.7499996248206742
 20
-3.000001066087091
 11
0.7500003751793258
 21
-4.500001066087091
  0
LINE
  5
9B
100
AcDbEntity
  8
electro
  6
ByLayer
 62
  256
370
   -1
100
AcDbLine
 10
0.7500002003561406
 20
-3.000001284339511
 11
-0.7499997996438594
 21
-4.500001284339501
  0
LINE
  5
9C
100
AcDbEntity
  8
electro
  6
ByLayer
 62
  256
370
   -1
100
AcDbLine
 10
9.999999592277362
 20
-3.74921217750822
 11
10.00000007313022
 21
9.379383669738672e-08
  0
LINE
  5
9D
100
AcDbEntity
  8
electro
  6
ByLayer
 62
  256
370
   -1
100
AcDbLine
 10
9.249999898128721
 20
-2.999212890433132
 11
10.74999989812872
 21
-4.499212890433132
  0
LINE
  5
9E
100
AcDbEntity
  8
electro
  6
ByLayer
 62
  256
370
   -1
100
AcDbLine
 10
10.74999972330554
 20
-2.999213108685542
 11
9.249999723305535
 21
-4.499213108685542
  0
LINE
  5
9F
100
AcDbEntity
  8
electro
  6
ByLayer
 62
  256
370
   -1
100
AcDbLine
 10
19.99999959227739
 20
-3.749211959255845
 11
20.00000007313025
 21
3.120462288563886e-07
  0
LINE
  5
A0
100
AcDbEntity
  8
electro
  6
ByLayer
 62
  256
370
   -1
100
AcDbLine
 10
19.24999989812875
 20
-2.999212672180754
 11
20.74999989812875
 21
-4.499212672180754
  0
LINE
  5
A1
100
AcDbEntity
  8
electro
  6
ByLayer
 62
  256
370
   -1
100
AcDbLine
 10
20.74999972330556
 20
-2.999212890433153
 11
19.24999972330556
 21
-4.499212890433153
  0
LINE
  5
A2
100
AcDbEntity
  8
electro
  6
ByLayer
 62
  256
370
   -1
100
AcDbLine
 10
-4.99999992008944
 20
-18.49999986645982
 11
-4.99999992008944
 21
-23.49999986645981
  0
LINE
  5
A3
100
AcDbEntity
  8
electro
  6
ByLayer
 62
  256
370
   -1
100
AcDbLine
 10
5.000000127686203
 20
-18.49999981805259
 11
5.000000127686203
 21
-23.49999981805258
  0
LINE
  5
A4
100
AcDbEntity
  8
electro
  6
ByLayer
 62
  256
370
   -1
100
AcDbLine
 10
15.00000012768621
 20
-18.49999981805259
 11
15.0000001276862
 21
-23.49999981805259
  0
LINE
  5
A5
100
AcDbEntity
  8
electro
  6
ByLayer
 62
  256
370
   -1
100
AcDbLine
 10
25.00000012768621
 20
-18.4999998180526
 11
25.0000001276862
 21
-23.49999981805259
  0
LINE
  5
A6
100
AcDbEntity
  8
electro
  6
ByLayer
 62
  256
370
   -1
100
AcDbLine
 10
5.00000007991056
 20
-23.49999984502254
 11
-4.99999992008944
 21
-23.49999984502254
  0
LINE
  5
A7
100
AcDbEntity
  8
electro
  6
ByLayer
 62
  256
370
   -1
100
AcDbLine
 10
15.00000007991056
 20
-23.49999984502255
 11
5.00000007991056
 21
-23.49999984502254
  0
LINE
  5
A8
100
AcDbEntity
  8
electro
  6
ByLayer
 62
  256
370
   -1
100
AcDbLine
 10
25.00000007991056
 20
-23.49999984502255
 11
15.00000007991056
 21
-23.49999984502255
  0
LINE
  5
A9
100
AcDbEntity
  8
electro
  6
ByLayer
 62
  256
370
   -1
100
AcDbLine
 10
6.932790697078417e-08
 20
-23.49999986329575
 11
6.932790697078417e-08
 21
-23.49999986329575
  0
LINE
  5
AA
100
AcDbEntity
  8
electro
  6
ByLayer
 62
  256
370
   -1
100
AcDbLine
 10
6.932790697078417e-08
 20
-23.49999986329575
 11
6.932790697078417e-08
 21
-23.49999986329575
  0
LINE
  5
AB
100
AcDbEntity
  8
electro
  6
ByLayer
 62
  256
370
   -1
100
AcDbLine
 10
6.932790697078417e-08
 20
-23.49999986329575
 11
6.932790697078417e-08
 21
-28.49999986329575
  0
LINE
  5
AC
100
AcDbEntity
  8
electro
  6
ByLayer
 62
  256
370
   -1
100
AcDbLine
 10
10.00000010220796
 20
-23.49999989998376
 11
10.00000010220796
 21
-28.49999989998376
  0
LINE
  5
AD
100
AcDbEntity
  8
electro
  6
ByLayer
 62
  256
370
   -1
100
AcDbLine
 10
20.00000010220796
 20
-23.49999989998377
 11
20.00000010220796
 21
-28.49999989998377
  0
LWPOLYLINE
  5
AE
100
AcDbEntity
  8
electro
  6
ByLayer
 62
  256
370
   -1
100
AcDbPolyline
 90
    4
 70
    1
 43
0
 10
-12.47815510382608
 20
-3.467220195040507
 10
-7.478155103826083
 20
-3.467220195040511
 10
-7.478155103826083
 20
-8.467220195040507
 10
-12.47815510382608
 20
-8.467220195040507
  0
LINE
  5
AF
100
AcDbEntity
  8
electro
  6
ByLayer
 62
  256
370
   -1
100
AcDbLine
 10
-7.499999930672089
 20
-5.999999863295745
 11
-6.499999930672089
 21
-5.999999863295749
  0
LINE
  5
B0
100
AcDbEntity
  8
electro
  6
ByLayer
 62
  256
370
   -1
100
AcDbLine
 10
-2.999984874327595
 20
-5.99999989899689
 11
-1.999984874327595
 21
-5.99999989899689
  0
LINE
  5
B1
100
AcDbEntity
  8
electro
  6
ByLayer
 62
  256
370
   -1
100
AcDbLine
 10
-4.499998338208883
 20
-5.99999989899689
 11
-3.499998338208883
 21
-5.99999989899689
  0
LINE
  5
B2
100
AcDbEntity
  8
electro
  6
ByLayer
 62
  256
370
   -1
100
AcDbLine
 10
-5.999998819061801
 20
-5.99999989899689
 11
-4.999998819061801
 21
-5.99999989899689
  0
LINE
  5
B3
100
AcDbEntity
  8
electro
  6
ByLayer
 62
  256
370
   -1
100
AcDbLine
 10
-9.999999930672089
 20
-8.499999863295745
 11
-9.999999930672089
 21
-9.499999863295745
  0
LINE
  5
B4
100
AcDbEntity
  8
electro
  6
ByLayer
 62
  256
370
   -1
100
AcDbLine
 10
-9.999999930672089
 20
-9.999999863295759
 11
-9.999999930672089
 21
-9.999999863295759
  0
LINE
  5
B5
100
AcDbEntity
  8
electro
  6
ByLayer
 62
  256
370
   -1
100
AcDbLine
 10
-9.999999930672089
 20
-9.999999863295759
 11
-9.999999930672089
 21
-10.99999986329574
  0
LINE
  5
B6
100
AcDbEntity
  8
electro
  6
ByLayer
 62
  256
370
   -1
100
AcDbLine
 10
-9.999999930672089
 20
-11.49999986329576
 11
-9.999999930672089
 21
-12.49999986329576
  0
LINE
  5
B7
100
AcDbEntity
  8
electro
  6
ByLayer
 62
  256
370
   -1
100
AcDbLine
 10
-9.999999868000852
 20
-12.99999986775663
 11
-9.999999868000852
 21
-13.99999986775663
  0
LINE
  5
B8
100
AcDbEntity
  8
electro
  6
ByLayer
 62
  256
370
   -1
100
AcDbLine
 10
-9.999999868000852
 20
-14.49999986775663
 11
-9.999999868000852
 21
-15.49999986775663
  0
LINE
  5
B9
100
AcDbEntity
  8
electro
  6
ByLayer
 62
  256
370
   -1
100
AcDbLine
 10
-9.999999868000852
 20
-15.99999986775663
 11
-9.999999868000852
 21
-16.99999986775662
  0
LINE
  5
BA
100
AcDbEntity
  8
electro
  6
ByLayer
 62
  256
370
   -1
100
AcDbLine
 10
-9.999999868000852
 20
-17.49999986775662
 11
-9.999999868000852
 21
-18.49999986775662
  0
LINE
  5
BB
100
AcDbEntity
  8
electro
  6
ByLayer
 62
  256
370
   -1
100
AcDbLine
 10
-9.999999868000852
 20
-18.99999986775662
 11
-9.999999868000856
 21
-19.99999986775662
  0
LINE
  5
BC
100
AcDbEntity
  8
electro
  6
ByLayer
 62
  256
370
   -1
100
AcDbLine
 10
-9.999999930672093
 20
-20.49999986329575
 11
-9.999999930672093
 21
-20.99999986329575
  0
LINE
  5
BD
100
AcDbEntity
  8
electro
  6
ByLayer
 62
  256
370
   -1
100
AcDbLine
 10
-4.999999930672089
 20
-15.99999986329576
 11
-5.999999930672089
 21
-15.99999986329576
  0
LINE
  5
BE
100
AcDbEntity
  8
electro
  6
ByLayer
 62
  256
370
   -1
100
AcDbLine
 10
-6.499999911974186
 20
-15.99999985093496
 11
-7.499999911974186
 21
-15.99999985093496
  0
LINE
  5
BF
100
AcDbEntity
  8
electro
  6
ByLayer
 62
  256
370
   -1
100
AcDbLine
 10
-7.999999911974182
 20
-15.99999985093496
 11
-8.999999911974182
 21
-15.99999985093496
  0
LINE
  5
C0
100
AcDbEntity
  8
electro
  6
ByLayer
 62
  256
370
   -1
100
AcDbLine
 10
-4.999999911974189
 20
-20.99999985093497
 11
-5.999999911974189
 21
-20.99999985093497
  0
LINE
  5
C1
100
AcDbEntity
  8
electro
  6
ByLayer
 62
  256
370
   -1
100
AcDbLine
 10
-6.499999911974189
 20
-20.99999985093497
 11
-7.499999911974189
 21
-20.99999985093497
  0
LINE
  5
C2
100
AcDbEntity
  8
electro
  6
ByLayer
 62
  256
370
   -1
100
AcDbLine
 10
-7.999999911974186
 20
-20.99999985093496
 11
-8.999999911974186
 21
-20.99999985093496
  0
LINE
  5
C3
100
AcDbEntity
  8
electro
  6
ByLayer
 62
  256
370
   -1
100
AcDbLine
 10
-9.499999930672089
 20
-15.99999986329576
 11
-9.999999930672093
 21
-15.99999986329576
  0
LINE
  5
C4
100
AcDbEntity
  8
electro
  6
ByLayer
 62
  256
370
   -1
100
AcDbLine
 10
-9.499999930672093
 20
-20.99999986329575
 11
-9.999999930672093
 21
-20.99999986329575
  0
LINE
  5
C5
100
AcDbEntity
  8
electro
  6
ByLayer
 62
  256
370
   -1
100
AcDbLine
 10
-14.99999993067209
 20
-5.999999863295745
 11
-12.49999993067209
 21
-5.999999863295745
  0
LINE
  5
C6
100
AcDbEntity
  8
electro
  6
ByLayer
 62
  256
370
   -1
100
AcDbLine
 10
-14.99999993067209
 20
-3.999999863295756
 11
-14.99999993067209
 21
-7.999999863295756
  0
LINE
  5
C7
100
AcDbEntity
  8
electro
  6
ByLayer
 62
  256
370
   -1
100
AcDbLine
 10
-9.999999930672089
 20
-3.499999863295745
 11
-9.999999930672089
 21
-8.499999863295745
  0
LINE
  5
C8
100
AcDbEntity
  8
electro
  6
ByLayer
 62
  256
370
   -1
100
AcDbLine
 10
-7.499999930672089
 20
-5.999999863295745
 11
-12.49999993067209
 21
-5.999999863295745
  0
LINE
  5
C9
100
AcDbEntity
  8
electro
  6
ByLayer
 62
  256
370
   -1
100
AcDbLine
 10
19.99999984700366
 20
-8.499999668815665
 11
22.99999984700367
 21
-2.999999668815665
  0
LINE
  5
CA
100
AcDbEntity
  8
electro
  6
ByLayer
 62
  256
370
   -1
100
AcDbLine
 10
9.999999777325712
 20
-8.499999656437449
 11
12.99999977732571
 21
-2.999999656437453
  0
LINE
  5
CB
100
AcDbEntity
  8
electro
  6
ByLayer
 62
  256
370
   -1
100
AcDbLine
 10
21.63636376470345
 20
-5.499999668815665
 11
1.636363764703447
 21
-5.499999668815661
  0
LINE
  5
CC
100
AcDbEntity
  8
electro
  6
ByLayer
 62
  256
370
   -1
100
AcDbLine
 10
21.23064570933215
 20
-6.243815438632794
 11
1.230645709332151
 21
-6.24381543863279
  0
LINE
  5
CD
100
AcDbEntity
  8
electro
  6
ByLayer
 62
  256
370
   -1
100
AcDbLine
 10
-1.5
 20
-6
 11
-0.5
 21
-6
  0
LINE
  5
CE
100
AcDbEntity
  8
electro
  6
ByLayer
 62
  256
370
   -1
100
AcDbLine
 10
0
 20
-6
 11
1
 21
-6
  0
LINE
  5
CF
100
AcDbEntity
  8
electro
  6
ByLayer
 62
  256
370
   -1
100
AcDbLine
 10
18.49999999999999
 20
-22.6
 11
18.5
 21
-19.4
  0
LINE
  5
D0
100
AcDbEntity
  8
electro
  6
ByLayer
 62
  256
370
   -1
100
AcDbLine
 10
19.47851130197758
 20
-21.51074434901122
 11
21.04985970461435
 21
-20.92148869802243
  0
LINE
  5
D1
100
AcDbEntity
  8
electro
  6
ByLayer
 62
  256
370
   -1
100
AcDbLine
 10
21.04985970461435
 20
-20.92148869802243
 11
19.47851130197758
 21
-20.33223304703364
  0
LINE
  5
D2
100
AcDbEntity
  8
electro
  6
ByLayer
 62
  256
370
   -1
100
AcDbLine
 10
9.099999999999994
 20
-22.59999999999999
 11
9.099999999999994
 21
-19.4
  0
LINE
  5
D3
100
AcDbEntity
  8
electro
  6
ByLayer
 62
  256
370
   -1
100
AcDbLine
 10
10.07851130197757
 20
-21.51074434901122
 11
11.64985970461435
 21
-20.92148869802243
  0
LINE
  5
D4
100
AcDbEntity
  8
electro
  6
ByLayer
 62
  256
370
   -1
100
AcDbLine
 10
11.64985970461435
 20
-20.92148869802243
 11
10.07851130197757
 21
-20.33223304703364
  0
LINE
  5
D5
100
AcDbEntity
  8
electro
  6
ByLayer
 62
  256
370
   -1
100
AcDbLine
 10
-1.300000000000004
 20
-22.6
 11
-1.300000000000004
 21
-19.4
  0
LINE
  5
D6
100
AcDbEntity
  8
electro
  6
ByLayer
 62
  256
370
   -1
100
AcDbLine
 10
-0.3214886980224243
 20
-21.51074434901122
 11
1.249859704614348
 21
-20.92148869802243
  0
LINE
  5
D7
100
AcDbEntity
  8
electro
  6
ByLayer
 62
  256
370
   -1
100
AcDbLine
 10
1.249859704614348
 20
-20.92148869802243
 11
-0.3214886980224243
 21
-20.33223304703364
  0
ENDSEC
  0
SECTION
  2
OBJECTS
  0
DICTIONARY
  5
C
330
0
100
AcDbDictionary
281
    1
  3
ACAD_GROUP
350
D
  0
DICTIONARY
  5
D
330
C
100
AcDbDictionary
281
    1
  0
PLOTSETTINGS
  5
D8
100
AcDbPlotSettings
  6
1x1
 40
0
 41
0
 42
0
 43
0
  0
ENDSEC
  0
EOF
